%TF.GenerationSoftware,KiCad,Pcbnew,8.0.1-8.0.1-1~ubuntu22.04.1*%
%TF.CreationDate,2024-04-07T13:34:12+03:00*%
%TF.ProjectId,ocxo_board,6f63786f-5f62-46f6-9172-642e6b696361,rev?*%
%TF.SameCoordinates,Original*%
%TF.FileFunction,Copper,L1,Top*%
%TF.FilePolarity,Positive*%
%FSLAX46Y46*%
G04 Gerber Fmt 4.6, Leading zero omitted, Abs format (unit mm)*
G04 Created by KiCad (PCBNEW 8.0.1-8.0.1-1~ubuntu22.04.1) date 2024-04-07 13:34:12*
%MOMM*%
%LPD*%
G01*
G04 APERTURE LIST*
G04 Aperture macros list*
%AMRoundRect*
0 Rectangle with rounded corners*
0 $1 Rounding radius*
0 $2 $3 $4 $5 $6 $7 $8 $9 X,Y pos of 4 corners*
0 Add a 4 corners polygon primitive as box body*
4,1,4,$2,$3,$4,$5,$6,$7,$8,$9,$2,$3,0*
0 Add four circle primitives for the rounded corners*
1,1,$1+$1,$2,$3*
1,1,$1+$1,$4,$5*
1,1,$1+$1,$6,$7*
1,1,$1+$1,$8,$9*
0 Add four rect primitives between the rounded corners*
20,1,$1+$1,$2,$3,$4,$5,0*
20,1,$1+$1,$4,$5,$6,$7,0*
20,1,$1+$1,$6,$7,$8,$9,0*
20,1,$1+$1,$8,$9,$2,$3,0*%
G04 Aperture macros list end*
%TA.AperFunction,ComponentPad*%
%ADD10R,1.600000X1.600000*%
%TD*%
%TA.AperFunction,ComponentPad*%
%ADD11C,1.600000*%
%TD*%
%TA.AperFunction,ComponentPad*%
%ADD12RoundRect,0.250000X-0.600000X-0.600000X0.600000X-0.600000X0.600000X0.600000X-0.600000X0.600000X0*%
%TD*%
%TA.AperFunction,ComponentPad*%
%ADD13C,1.700000*%
%TD*%
%TA.AperFunction,SMDPad,CuDef*%
%ADD14RoundRect,0.150000X0.587500X0.150000X-0.587500X0.150000X-0.587500X-0.150000X0.587500X-0.150000X0*%
%TD*%
%TA.AperFunction,ComponentPad*%
%ADD15C,3.048000*%
%TD*%
%TA.AperFunction,ComponentPad*%
%ADD16C,4.700000*%
%TD*%
%TA.AperFunction,SMDPad,CuDef*%
%ADD17RoundRect,0.100000X0.100000X-0.712500X0.100000X0.712500X-0.100000X0.712500X-0.100000X-0.712500X0*%
%TD*%
%TA.AperFunction,ViaPad*%
%ADD18C,0.600000*%
%TD*%
%TA.AperFunction,Conductor*%
%ADD19C,0.200000*%
%TD*%
%TA.AperFunction,Conductor*%
%ADD20C,1.000000*%
%TD*%
G04 APERTURE END LIST*
D10*
%TO.P,C2,1*%
%TO.N,+5V*%
X182000000Y-78847349D03*
D11*
%TO.P,C2,2*%
%TO.N,GND*%
X182000000Y-82347349D03*
%TD*%
D12*
%TO.P,J1,1,Pin_1*%
%TO.N,GND*%
X153980000Y-55860000D03*
D13*
%TO.P,J1,2,Pin_2*%
%TO.N,+5V*%
X156520000Y-55860000D03*
%TO.P,J1,3,Pin_3*%
%TO.N,GND*%
X153980000Y-58400000D03*
%TO.P,J1,4,Pin_4*%
%TO.N,+5V*%
X156520000Y-58400000D03*
%TO.P,J1,5,Pin_5*%
%TO.N,GND*%
X153980000Y-60940000D03*
%TO.P,J1,6,Pin_6*%
%TO.N,/CLK_OUT*%
X156520000Y-60940000D03*
%TO.P,J1,7,Pin_7*%
%TO.N,GND*%
X153980000Y-63480000D03*
%TO.P,J1,8,Pin_8*%
%TO.N,+5V*%
X156520000Y-63480000D03*
%TO.P,J1,9,Pin_9*%
%TO.N,GND*%
X153980000Y-66020000D03*
%TO.P,J1,10,Pin_10*%
%TO.N,+5V*%
X156520000Y-66020000D03*
%TO.P,J1,11,Pin_11*%
%TO.N,GND*%
X153980000Y-68560000D03*
%TO.P,J1,12,Pin_12*%
%TO.N,/SCL*%
X156520000Y-68560000D03*
%TO.P,J1,13,Pin_13*%
%TO.N,GND*%
X153980000Y-71100000D03*
%TO.P,J1,14,Pin_14*%
%TO.N,/SDA*%
X156520000Y-71100000D03*
%TO.P,J1,15,Pin_15*%
%TO.N,GND*%
X153980000Y-73640000D03*
%TO.P,J1,16,Pin_16*%
%TO.N,/SWIO*%
X156520000Y-73640000D03*
%TD*%
D14*
%TO.P,U3,1,K*%
%TO.N,Net-(U3-K)*%
X178937500Y-64200000D03*
%TO.P,U3,2,REF*%
X178937500Y-62300000D03*
%TO.P,U3,3,A*%
%TO.N,GND*%
X177062500Y-63250000D03*
%TD*%
D10*
%TO.P,C8,1*%
%TO.N,/Vctrl*%
X164500000Y-78847349D03*
D11*
%TO.P,C8,2*%
%TO.N,GND*%
X164500000Y-82347349D03*
%TD*%
D15*
%TO.P,U4,1,Out*%
%TO.N,Net-(U4-Out)*%
X163650000Y-53650000D03*
%TO.P,U4,2,GND*%
%TO.N,GND*%
X163650000Y-63250000D03*
%TO.P,U4,3,Vctrl*%
%TO.N,/Vctrl*%
X163650000Y-72850000D03*
%TO.P,U4,4,NC*%
%TO.N,unconnected-(U4-NC-Pad4)*%
X182850000Y-72850000D03*
%TO.P,U4,5,Vcc*%
%TO.N,+5V*%
X182850000Y-53650000D03*
%TD*%
D16*
%TO.P,H1,1,1*%
%TO.N,GND*%
X153000000Y-82000000D03*
%TD*%
D17*
%TO.P,U2,1,DQ*%
%TO.N,/ONEWIRE*%
X173025000Y-65362500D03*
%TO.P,U2,2,NC*%
%TO.N,unconnected-(U2-NC-Pad2)*%
X173675000Y-65362500D03*
%TO.P,U2,3,NC*%
%TO.N,unconnected-(U2-NC-Pad3)*%
X174325000Y-65362500D03*
%TO.P,U2,4,GND*%
%TO.N,GND*%
X174975000Y-65362500D03*
%TO.P,U2,5,NC*%
%TO.N,unconnected-(U2-NC-Pad5)*%
X174975000Y-61137500D03*
%TO.P,U2,6,NC*%
%TO.N,unconnected-(U2-NC-Pad6)*%
X174325000Y-61137500D03*
%TO.P,U2,7,NC*%
%TO.N,unconnected-(U2-NC-Pad7)*%
X173675000Y-61137500D03*
%TO.P,U2,8,V_{DD}*%
%TO.N,+5V*%
X173025000Y-61137500D03*
%TD*%
D10*
%TO.P,C6,1*%
%TO.N,Net-(C6-Pad1)*%
X173250000Y-78847349D03*
D11*
%TO.P,C6,2*%
%TO.N,GND*%
X173250000Y-82347349D03*
%TD*%
D18*
%TO.N,+5V*%
X173000000Y-59500000D03*
%TO.N,GND*%
X179750000Y-56250000D03*
X172500000Y-68000000D03*
%TO.N,Net-(U3-K)*%
X180250000Y-63250000D03*
%TO.N,/ONEWIRE*%
X171250000Y-65000000D03*
%TD*%
D19*
%TO.N,+5V*%
X173025000Y-61137500D02*
X173025000Y-59525000D01*
X173025000Y-59525000D02*
X173000000Y-59500000D01*
D20*
X158070000Y-59950000D02*
X158070000Y-61930000D01*
X158070000Y-61930000D02*
X156520000Y-63480000D01*
X156520000Y-58400000D02*
X158070000Y-59950000D01*
D19*
%TO.N,Net-(U3-K)*%
X178937500Y-62300000D02*
X178937500Y-63250000D01*
X180250000Y-63250000D02*
X178937500Y-63250000D01*
X178937500Y-63250000D02*
X178937500Y-64200000D01*
%TO.N,/ONEWIRE*%
X173025000Y-65362500D02*
X171612500Y-65362500D01*
X171612500Y-65362500D02*
X171250000Y-65000000D01*
%TD*%
%TA.AperFunction,Conductor*%
%TO.N,GND*%
G36*
X185942539Y-50520185D02*
G01*
X185988294Y-50572989D01*
X185999500Y-50624500D01*
X185999500Y-84375500D01*
X185979815Y-84442539D01*
X185927011Y-84488294D01*
X185875500Y-84499500D01*
X150624500Y-84499500D01*
X150557461Y-84479815D01*
X150511706Y-84427011D01*
X150500500Y-84375500D01*
X150500500Y-79672027D01*
X163449500Y-79672027D01*
X163464032Y-79745084D01*
X163464033Y-79745088D01*
X163464034Y-79745089D01*
X163519399Y-79827950D01*
X163602260Y-79883315D01*
X163602264Y-79883316D01*
X163675321Y-79897848D01*
X163675324Y-79897849D01*
X163675326Y-79897849D01*
X165324676Y-79897849D01*
X165324677Y-79897848D01*
X165397740Y-79883315D01*
X165480601Y-79827950D01*
X165535966Y-79745089D01*
X165550499Y-79672027D01*
X172199500Y-79672027D01*
X172214032Y-79745084D01*
X172214033Y-79745088D01*
X172214034Y-79745089D01*
X172269399Y-79827950D01*
X172352260Y-79883315D01*
X172352264Y-79883316D01*
X172425321Y-79897848D01*
X172425324Y-79897849D01*
X172425326Y-79897849D01*
X174074676Y-79897849D01*
X174074677Y-79897848D01*
X174147740Y-79883315D01*
X174230601Y-79827950D01*
X174285966Y-79745089D01*
X174300499Y-79672027D01*
X180949500Y-79672027D01*
X180964032Y-79745084D01*
X180964033Y-79745088D01*
X180964034Y-79745089D01*
X181019399Y-79827950D01*
X181102260Y-79883315D01*
X181102264Y-79883316D01*
X181175321Y-79897848D01*
X181175324Y-79897849D01*
X181175326Y-79897849D01*
X182824676Y-79897849D01*
X182824677Y-79897848D01*
X182897740Y-79883315D01*
X182980601Y-79827950D01*
X183035966Y-79745089D01*
X183050500Y-79672023D01*
X183050500Y-78022675D01*
X183050500Y-78022672D01*
X183050499Y-78022670D01*
X183035967Y-77949613D01*
X183035966Y-77949609D01*
X182980601Y-77866748D01*
X182897740Y-77811383D01*
X182897739Y-77811382D01*
X182897735Y-77811381D01*
X182824677Y-77796849D01*
X182824674Y-77796849D01*
X181175326Y-77796849D01*
X181175323Y-77796849D01*
X181102264Y-77811381D01*
X181102260Y-77811382D01*
X181019399Y-77866748D01*
X180964033Y-77949609D01*
X180964032Y-77949613D01*
X180949500Y-78022670D01*
X180949500Y-79672027D01*
X174300499Y-79672027D01*
X174300500Y-79672023D01*
X174300500Y-78022675D01*
X174300500Y-78022672D01*
X174300499Y-78022670D01*
X174285967Y-77949613D01*
X174285966Y-77949609D01*
X174230601Y-77866748D01*
X174147740Y-77811383D01*
X174147739Y-77811382D01*
X174147735Y-77811381D01*
X174074677Y-77796849D01*
X174074674Y-77796849D01*
X172425326Y-77796849D01*
X172425323Y-77796849D01*
X172352264Y-77811381D01*
X172352260Y-77811382D01*
X172269399Y-77866748D01*
X172214033Y-77949609D01*
X172214032Y-77949613D01*
X172199500Y-78022670D01*
X172199500Y-79672027D01*
X165550499Y-79672027D01*
X165550500Y-79672023D01*
X165550500Y-78022675D01*
X165550500Y-78022672D01*
X165550499Y-78022670D01*
X165535967Y-77949613D01*
X165535966Y-77949609D01*
X165480601Y-77866748D01*
X165397740Y-77811383D01*
X165397739Y-77811382D01*
X165397735Y-77811381D01*
X165324677Y-77796849D01*
X165324674Y-77796849D01*
X163675326Y-77796849D01*
X163675323Y-77796849D01*
X163602264Y-77811381D01*
X163602260Y-77811382D01*
X163519399Y-77866748D01*
X163464033Y-77949609D01*
X163464032Y-77949613D01*
X163449500Y-78022670D01*
X163449500Y-79672027D01*
X150500500Y-79672027D01*
X150500500Y-73640000D01*
X155414785Y-73640000D01*
X155433602Y-73843082D01*
X155489417Y-74039247D01*
X155489422Y-74039260D01*
X155580327Y-74221821D01*
X155703237Y-74384581D01*
X155853958Y-74521980D01*
X155853960Y-74521982D01*
X155953141Y-74583392D01*
X156027363Y-74629348D01*
X156217544Y-74703024D01*
X156418024Y-74740500D01*
X156418026Y-74740500D01*
X156621974Y-74740500D01*
X156621976Y-74740500D01*
X156822456Y-74703024D01*
X157012637Y-74629348D01*
X157186041Y-74521981D01*
X157336764Y-74384579D01*
X157459673Y-74221821D01*
X157550582Y-74039250D01*
X157606397Y-73843083D01*
X157625215Y-73640000D01*
X157606397Y-73436917D01*
X157550582Y-73240750D01*
X157459673Y-73058179D01*
X157336764Y-72895421D01*
X157336762Y-72895418D01*
X157286945Y-72850004D01*
X161870524Y-72850004D01*
X161890398Y-73115214D01*
X161949578Y-73374498D01*
X161949581Y-73374510D01*
X162046748Y-73622086D01*
X162179728Y-73852415D01*
X162313661Y-74020361D01*
X162345555Y-74060355D01*
X162519575Y-74221821D01*
X162540515Y-74241250D01*
X162760262Y-74391071D01*
X162999880Y-74506465D01*
X162999881Y-74506465D01*
X162999884Y-74506467D01*
X163254029Y-74584861D01*
X163254030Y-74584861D01*
X163254033Y-74584862D01*
X163517012Y-74624499D01*
X163517017Y-74624499D01*
X163517020Y-74624500D01*
X163517021Y-74624500D01*
X163782979Y-74624500D01*
X163782980Y-74624500D01*
X163782987Y-74624499D01*
X164045966Y-74584862D01*
X164045967Y-74584861D01*
X164045971Y-74584861D01*
X164300116Y-74506467D01*
X164539738Y-74391071D01*
X164759485Y-74241250D01*
X164954448Y-74060351D01*
X165120272Y-73852415D01*
X165253252Y-73622086D01*
X165350419Y-73374510D01*
X165409601Y-73115217D01*
X165426072Y-72895421D01*
X165429476Y-72850004D01*
X181070524Y-72850004D01*
X181090398Y-73115214D01*
X181149578Y-73374498D01*
X181149581Y-73374510D01*
X181246748Y-73622086D01*
X181379728Y-73852415D01*
X181513661Y-74020361D01*
X181545555Y-74060355D01*
X181719575Y-74221821D01*
X181740515Y-74241250D01*
X181960262Y-74391071D01*
X182199880Y-74506465D01*
X182199881Y-74506465D01*
X182199884Y-74506467D01*
X182454029Y-74584861D01*
X182454030Y-74584861D01*
X182454033Y-74584862D01*
X182717012Y-74624499D01*
X182717017Y-74624499D01*
X182717020Y-74624500D01*
X182717021Y-74624500D01*
X182982979Y-74624500D01*
X182982980Y-74624500D01*
X182982987Y-74624499D01*
X183245966Y-74584862D01*
X183245967Y-74584861D01*
X183245971Y-74584861D01*
X183500116Y-74506467D01*
X183739738Y-74391071D01*
X183959485Y-74241250D01*
X184154448Y-74060351D01*
X184320272Y-73852415D01*
X184453252Y-73622086D01*
X184550419Y-73374510D01*
X184609601Y-73115217D01*
X184626072Y-72895421D01*
X184629476Y-72850004D01*
X184629476Y-72849995D01*
X184609601Y-72584785D01*
X184599265Y-72539500D01*
X184550419Y-72325490D01*
X184453252Y-72077914D01*
X184320272Y-71847585D01*
X184154448Y-71639649D01*
X184154447Y-71639648D01*
X184154444Y-71639644D01*
X183959485Y-71458750D01*
X183739738Y-71308929D01*
X183739734Y-71308927D01*
X183739731Y-71308925D01*
X183739729Y-71308924D01*
X183500118Y-71193534D01*
X183500120Y-71193534D01*
X183245972Y-71115139D01*
X183245966Y-71115137D01*
X182982987Y-71075500D01*
X182982980Y-71075500D01*
X182717020Y-71075500D01*
X182717012Y-71075500D01*
X182454033Y-71115137D01*
X182454027Y-71115139D01*
X182199880Y-71193534D01*
X181960270Y-71308924D01*
X181960268Y-71308925D01*
X181740514Y-71458750D01*
X181545555Y-71639644D01*
X181379728Y-71847585D01*
X181246748Y-72077913D01*
X181149583Y-72325484D01*
X181149578Y-72325501D01*
X181090398Y-72584785D01*
X181070524Y-72849995D01*
X181070524Y-72850004D01*
X165429476Y-72850004D01*
X165429476Y-72849995D01*
X165409601Y-72584785D01*
X165399265Y-72539500D01*
X165350419Y-72325490D01*
X165253252Y-72077914D01*
X165120272Y-71847585D01*
X164954448Y-71639649D01*
X164954447Y-71639648D01*
X164954444Y-71639644D01*
X164759485Y-71458750D01*
X164539738Y-71308929D01*
X164539734Y-71308927D01*
X164539731Y-71308925D01*
X164539729Y-71308924D01*
X164300118Y-71193534D01*
X164300120Y-71193534D01*
X164045972Y-71115139D01*
X164045966Y-71115137D01*
X163782987Y-71075500D01*
X163782980Y-71075500D01*
X163517020Y-71075500D01*
X163517012Y-71075500D01*
X163254033Y-71115137D01*
X163254027Y-71115139D01*
X162999880Y-71193534D01*
X162760270Y-71308924D01*
X162760268Y-71308925D01*
X162540514Y-71458750D01*
X162345555Y-71639644D01*
X162179728Y-71847585D01*
X162046748Y-72077913D01*
X161949583Y-72325484D01*
X161949578Y-72325501D01*
X161890398Y-72584785D01*
X161870524Y-72849995D01*
X161870524Y-72850004D01*
X157286945Y-72850004D01*
X157186041Y-72758019D01*
X157186039Y-72758017D01*
X157012642Y-72650655D01*
X157012635Y-72650651D01*
X156842608Y-72584783D01*
X156822456Y-72576976D01*
X156621976Y-72539500D01*
X156418024Y-72539500D01*
X156217544Y-72576976D01*
X156217541Y-72576976D01*
X156217541Y-72576977D01*
X156027364Y-72650651D01*
X156027357Y-72650655D01*
X155853960Y-72758017D01*
X155853958Y-72758019D01*
X155703237Y-72895418D01*
X155580327Y-73058178D01*
X155489422Y-73240739D01*
X155489417Y-73240752D01*
X155433602Y-73436917D01*
X155414785Y-73639999D01*
X155414785Y-73640000D01*
X150500500Y-73640000D01*
X150500500Y-71100000D01*
X155414785Y-71100000D01*
X155433602Y-71303082D01*
X155489417Y-71499247D01*
X155489422Y-71499260D01*
X155580327Y-71681821D01*
X155703237Y-71844581D01*
X155853958Y-71981980D01*
X155853960Y-71981982D01*
X155953141Y-72043392D01*
X156027363Y-72089348D01*
X156217544Y-72163024D01*
X156418024Y-72200500D01*
X156418026Y-72200500D01*
X156621974Y-72200500D01*
X156621976Y-72200500D01*
X156822456Y-72163024D01*
X157012637Y-72089348D01*
X157186041Y-71981981D01*
X157336764Y-71844579D01*
X157459673Y-71681821D01*
X157550582Y-71499250D01*
X157606397Y-71303083D01*
X157625215Y-71100000D01*
X157606397Y-70896917D01*
X157550582Y-70700750D01*
X157459673Y-70518179D01*
X157336764Y-70355421D01*
X157336762Y-70355418D01*
X157186041Y-70218019D01*
X157186039Y-70218017D01*
X157012642Y-70110655D01*
X157012635Y-70110651D01*
X156917546Y-70073814D01*
X156822456Y-70036976D01*
X156621976Y-69999500D01*
X156418024Y-69999500D01*
X156217544Y-70036976D01*
X156217541Y-70036976D01*
X156217541Y-70036977D01*
X156027364Y-70110651D01*
X156027357Y-70110655D01*
X155853960Y-70218017D01*
X155853958Y-70218019D01*
X155703237Y-70355418D01*
X155580327Y-70518178D01*
X155489422Y-70700739D01*
X155489417Y-70700752D01*
X155433602Y-70896917D01*
X155414785Y-71099999D01*
X155414785Y-71100000D01*
X150500500Y-71100000D01*
X150500500Y-68560000D01*
X155414785Y-68560000D01*
X155433602Y-68763082D01*
X155489417Y-68959247D01*
X155489422Y-68959260D01*
X155580327Y-69141821D01*
X155703237Y-69304581D01*
X155853958Y-69441980D01*
X155853960Y-69441982D01*
X155953141Y-69503392D01*
X156027363Y-69549348D01*
X156217544Y-69623024D01*
X156418024Y-69660500D01*
X156418026Y-69660500D01*
X156621974Y-69660500D01*
X156621976Y-69660500D01*
X156822456Y-69623024D01*
X157012637Y-69549348D01*
X157186041Y-69441981D01*
X157336764Y-69304579D01*
X157459673Y-69141821D01*
X157550582Y-68959250D01*
X157606397Y-68763083D01*
X157625215Y-68560000D01*
X157606397Y-68356917D01*
X157550582Y-68160750D01*
X157459673Y-67978179D01*
X157336764Y-67815421D01*
X157336762Y-67815418D01*
X157186041Y-67678019D01*
X157186039Y-67678017D01*
X157012642Y-67570655D01*
X157012635Y-67570651D01*
X156917546Y-67533814D01*
X156822456Y-67496976D01*
X156621976Y-67459500D01*
X156418024Y-67459500D01*
X156217544Y-67496976D01*
X156217541Y-67496976D01*
X156217541Y-67496977D01*
X156027364Y-67570651D01*
X156027357Y-67570655D01*
X155853960Y-67678017D01*
X155853958Y-67678019D01*
X155703237Y-67815418D01*
X155580327Y-67978178D01*
X155489422Y-68160739D01*
X155489417Y-68160752D01*
X155433602Y-68356917D01*
X155414785Y-68559999D01*
X155414785Y-68560000D01*
X150500500Y-68560000D01*
X150500500Y-66020000D01*
X155414785Y-66020000D01*
X155433602Y-66223082D01*
X155489417Y-66419247D01*
X155489422Y-66419260D01*
X155580327Y-66601821D01*
X155703237Y-66764581D01*
X155853958Y-66901980D01*
X155853960Y-66901982D01*
X155953141Y-66963392D01*
X156027363Y-67009348D01*
X156217544Y-67083024D01*
X156418024Y-67120500D01*
X156418026Y-67120500D01*
X156621974Y-67120500D01*
X156621976Y-67120500D01*
X156822456Y-67083024D01*
X157012637Y-67009348D01*
X157186041Y-66901981D01*
X157336764Y-66764579D01*
X157459673Y-66601821D01*
X157550582Y-66419250D01*
X157606397Y-66223083D01*
X157625215Y-66020000D01*
X157606397Y-65816917D01*
X157550582Y-65620750D01*
X157459673Y-65438179D01*
X157400704Y-65360091D01*
X157336762Y-65275418D01*
X157186041Y-65138019D01*
X157186039Y-65138017D01*
X157012642Y-65030655D01*
X157012635Y-65030651D01*
X156933515Y-65000000D01*
X170694750Y-65000000D01*
X170698785Y-65030652D01*
X170713670Y-65143708D01*
X170713671Y-65143712D01*
X170769137Y-65277622D01*
X170769138Y-65277624D01*
X170769139Y-65277625D01*
X170857379Y-65392621D01*
X170972375Y-65480861D01*
X171106291Y-65536330D01*
X171250000Y-65555250D01*
X171258129Y-65555250D01*
X171258129Y-65559084D01*
X171309346Y-65566281D01*
X171345878Y-65591559D01*
X171397288Y-65642969D01*
X171397291Y-65642970D01*
X171397294Y-65642973D01*
X171477206Y-65689111D01*
X171477207Y-65689111D01*
X171477212Y-65689114D01*
X171566356Y-65713000D01*
X172450500Y-65713000D01*
X172517539Y-65732685D01*
X172563294Y-65785489D01*
X172574500Y-65837000D01*
X172574500Y-66108260D01*
X172584426Y-66176391D01*
X172635803Y-66281485D01*
X172718514Y-66364196D01*
X172718515Y-66364196D01*
X172718517Y-66364198D01*
X172823607Y-66415573D01*
X172857673Y-66420536D01*
X172891739Y-66425500D01*
X172891740Y-66425500D01*
X173158261Y-66425500D01*
X173180971Y-66422191D01*
X173226393Y-66415573D01*
X173295541Y-66381768D01*
X173364413Y-66370010D01*
X173404458Y-66381768D01*
X173473607Y-66415573D01*
X173507673Y-66420536D01*
X173541739Y-66425500D01*
X173541740Y-66425500D01*
X173808261Y-66425500D01*
X173830971Y-66422191D01*
X173876393Y-66415573D01*
X173945541Y-66381768D01*
X174014413Y-66370010D01*
X174054458Y-66381768D01*
X174123607Y-66415573D01*
X174157673Y-66420536D01*
X174191739Y-66425500D01*
X174191740Y-66425500D01*
X174458261Y-66425500D01*
X174480971Y-66422191D01*
X174526393Y-66415573D01*
X174631483Y-66364198D01*
X174714198Y-66281483D01*
X174765573Y-66176393D01*
X174775500Y-66108260D01*
X174775500Y-64616740D01*
X174765573Y-64548607D01*
X174714198Y-64443517D01*
X174714196Y-64443515D01*
X174714196Y-64443514D01*
X174652199Y-64381517D01*
X177949500Y-64381517D01*
X177959319Y-64443514D01*
X177964354Y-64475304D01*
X178021950Y-64588342D01*
X178021952Y-64588344D01*
X178021954Y-64588347D01*
X178111652Y-64678045D01*
X178111654Y-64678046D01*
X178111658Y-64678050D01*
X178224694Y-64735645D01*
X178224698Y-64735647D01*
X178318475Y-64750499D01*
X178318481Y-64750500D01*
X179556518Y-64750499D01*
X179650304Y-64735646D01*
X179763342Y-64678050D01*
X179853050Y-64588342D01*
X179910646Y-64475304D01*
X179910646Y-64475302D01*
X179910647Y-64475301D01*
X179925499Y-64381524D01*
X179925500Y-64381519D01*
X179925499Y-64018482D01*
X179910646Y-63924696D01*
X179910645Y-63924694D01*
X179909119Y-63915057D01*
X179911040Y-63914752D01*
X179909389Y-63857154D01*
X179945463Y-63797317D01*
X180008161Y-63766482D01*
X180076769Y-63774101D01*
X180106291Y-63786330D01*
X180233280Y-63803048D01*
X180249999Y-63805250D01*
X180250000Y-63805250D01*
X180250001Y-63805250D01*
X180264977Y-63803278D01*
X180393709Y-63786330D01*
X180527625Y-63730861D01*
X180642621Y-63642621D01*
X180730861Y-63527625D01*
X180786330Y-63393709D01*
X180805250Y-63250000D01*
X180786330Y-63106291D01*
X180730861Y-62972375D01*
X180642621Y-62857379D01*
X180527625Y-62769139D01*
X180527624Y-62769138D01*
X180527622Y-62769137D01*
X180393712Y-62713671D01*
X180393710Y-62713670D01*
X180393709Y-62713670D01*
X180305737Y-62702088D01*
X180250001Y-62694750D01*
X180249999Y-62694750D01*
X180106291Y-62713670D01*
X180106287Y-62713671D01*
X180076770Y-62725897D01*
X180007300Y-62733364D01*
X179944822Y-62702088D01*
X179909171Y-62641998D01*
X179910998Y-62585240D01*
X179909120Y-62584943D01*
X179925499Y-62481524D01*
X179925500Y-62481519D01*
X179925499Y-62118482D01*
X179910646Y-62024696D01*
X179853050Y-61911658D01*
X179853046Y-61911654D01*
X179853045Y-61911652D01*
X179763347Y-61821954D01*
X179763344Y-61821952D01*
X179763342Y-61821950D01*
X179686517Y-61782805D01*
X179650301Y-61764352D01*
X179556524Y-61749500D01*
X178318482Y-61749500D01*
X178237519Y-61762323D01*
X178224696Y-61764354D01*
X178111658Y-61821950D01*
X178111657Y-61821951D01*
X178111652Y-61821954D01*
X178021954Y-61911652D01*
X178021951Y-61911657D01*
X178021950Y-61911658D01*
X178011856Y-61931468D01*
X177964352Y-62024698D01*
X177949500Y-62118475D01*
X177949500Y-62481517D01*
X177960292Y-62549657D01*
X177964354Y-62575304D01*
X178021950Y-62688342D01*
X178021952Y-62688344D01*
X178021954Y-62688347D01*
X178111652Y-62778045D01*
X178111654Y-62778046D01*
X178111658Y-62778050D01*
X178224696Y-62835646D01*
X178224698Y-62835647D01*
X178318475Y-62850499D01*
X178318481Y-62850500D01*
X178463000Y-62850499D01*
X178530039Y-62870183D01*
X178575794Y-62922987D01*
X178587000Y-62974499D01*
X178587000Y-63525500D01*
X178567315Y-63592539D01*
X178514511Y-63638294D01*
X178463001Y-63649500D01*
X178318482Y-63649500D01*
X178237519Y-63662323D01*
X178224696Y-63664354D01*
X178111658Y-63721950D01*
X178111657Y-63721951D01*
X178111652Y-63721954D01*
X178021954Y-63811652D01*
X178021951Y-63811657D01*
X177964352Y-63924698D01*
X177949500Y-64018475D01*
X177949500Y-64381517D01*
X174652199Y-64381517D01*
X174631485Y-64360803D01*
X174526391Y-64309426D01*
X174458261Y-64299500D01*
X174458260Y-64299500D01*
X174191740Y-64299500D01*
X174191739Y-64299500D01*
X174123607Y-64309426D01*
X174123606Y-64309426D01*
X174054459Y-64343230D01*
X173985586Y-64354988D01*
X173945541Y-64343230D01*
X173876393Y-64309426D01*
X173808261Y-64299500D01*
X173808260Y-64299500D01*
X173541740Y-64299500D01*
X173541739Y-64299500D01*
X173473607Y-64309426D01*
X173473606Y-64309426D01*
X173404459Y-64343230D01*
X173335586Y-64354988D01*
X173295541Y-64343230D01*
X173226393Y-64309426D01*
X173158261Y-64299500D01*
X173158260Y-64299500D01*
X172891740Y-64299500D01*
X172891739Y-64299500D01*
X172823608Y-64309426D01*
X172718514Y-64360803D01*
X172635803Y-64443514D01*
X172584426Y-64548608D01*
X172574500Y-64616739D01*
X172574500Y-64888000D01*
X172554815Y-64955039D01*
X172502011Y-65000794D01*
X172450500Y-65012000D01*
X171915574Y-65012000D01*
X171848535Y-64992315D01*
X171802780Y-64939511D01*
X171792635Y-64904185D01*
X171790504Y-64888000D01*
X171786330Y-64856291D01*
X171730861Y-64722375D01*
X171642621Y-64607379D01*
X171527625Y-64519139D01*
X171527624Y-64519138D01*
X171527622Y-64519137D01*
X171393712Y-64463671D01*
X171393710Y-64463670D01*
X171393709Y-64463670D01*
X171321854Y-64454210D01*
X171250001Y-64444750D01*
X171249999Y-64444750D01*
X171106291Y-64463670D01*
X171106287Y-64463671D01*
X170972377Y-64519137D01*
X170857379Y-64607379D01*
X170769137Y-64722377D01*
X170713671Y-64856287D01*
X170713670Y-64856291D01*
X170707365Y-64904185D01*
X170694750Y-65000000D01*
X156933515Y-65000000D01*
X156913677Y-64992315D01*
X156822456Y-64956976D01*
X156621976Y-64919500D01*
X156418024Y-64919500D01*
X156217544Y-64956976D01*
X156217541Y-64956976D01*
X156217541Y-64956977D01*
X156027364Y-65030651D01*
X156027357Y-65030655D01*
X155853960Y-65138017D01*
X155853958Y-65138019D01*
X155703237Y-65275418D01*
X155580327Y-65438178D01*
X155489422Y-65620739D01*
X155489417Y-65620752D01*
X155433602Y-65816917D01*
X155414785Y-66019999D01*
X155414785Y-66020000D01*
X150500500Y-66020000D01*
X150500500Y-63480000D01*
X155414785Y-63480000D01*
X155433602Y-63683082D01*
X155489417Y-63879247D01*
X155489422Y-63879260D01*
X155580327Y-64061821D01*
X155703237Y-64224581D01*
X155853958Y-64361980D01*
X155853960Y-64361982D01*
X155885512Y-64381518D01*
X156027363Y-64469348D01*
X156217544Y-64543024D01*
X156418024Y-64580500D01*
X156418026Y-64580500D01*
X156621974Y-64580500D01*
X156621976Y-64580500D01*
X156822456Y-64543024D01*
X157012637Y-64469348D01*
X157186041Y-64361981D01*
X157336764Y-64224579D01*
X157459673Y-64061821D01*
X157550582Y-63879250D01*
X157606397Y-63683083D01*
X157625215Y-63480000D01*
X157625214Y-63479999D01*
X157625562Y-63476255D01*
X157651348Y-63411318D01*
X157661352Y-63400015D01*
X158088992Y-62972375D01*
X158652952Y-62408416D01*
X158702186Y-62334729D01*
X158735084Y-62285495D01*
X158791658Y-62148913D01*
X158820500Y-62003918D01*
X158820500Y-59876082D01*
X158820500Y-59876079D01*
X158791659Y-59731092D01*
X158791658Y-59731091D01*
X158791658Y-59731087D01*
X158735084Y-59594505D01*
X158702186Y-59545270D01*
X158702185Y-59545268D01*
X158671939Y-59500000D01*
X172444750Y-59500000D01*
X172463670Y-59643708D01*
X172463671Y-59643712D01*
X172519137Y-59777622D01*
X172519138Y-59777623D01*
X172519139Y-59777625D01*
X172607379Y-59892621D01*
X172625986Y-59906899D01*
X172667189Y-59963325D01*
X172674500Y-60005274D01*
X172674500Y-60128456D01*
X172654815Y-60195495D01*
X172638181Y-60216137D01*
X172635803Y-60218514D01*
X172584426Y-60323608D01*
X172574500Y-60391739D01*
X172574500Y-61883260D01*
X172584426Y-61951391D01*
X172635803Y-62056485D01*
X172718514Y-62139196D01*
X172718515Y-62139196D01*
X172718517Y-62139198D01*
X172823607Y-62190573D01*
X172857673Y-62195536D01*
X172891739Y-62200500D01*
X172891740Y-62200500D01*
X173158261Y-62200500D01*
X173180971Y-62197191D01*
X173226393Y-62190573D01*
X173295541Y-62156768D01*
X173364413Y-62145010D01*
X173404458Y-62156768D01*
X173473607Y-62190573D01*
X173507673Y-62195536D01*
X173541739Y-62200500D01*
X173541740Y-62200500D01*
X173808261Y-62200500D01*
X173830971Y-62197191D01*
X173876393Y-62190573D01*
X173945541Y-62156768D01*
X174014413Y-62145010D01*
X174054458Y-62156768D01*
X174123607Y-62190573D01*
X174157673Y-62195536D01*
X174191739Y-62200500D01*
X174191740Y-62200500D01*
X174458261Y-62200500D01*
X174480971Y-62197191D01*
X174526393Y-62190573D01*
X174595541Y-62156768D01*
X174664413Y-62145010D01*
X174704458Y-62156768D01*
X174773607Y-62190573D01*
X174807673Y-62195536D01*
X174841739Y-62200500D01*
X174841740Y-62200500D01*
X175108261Y-62200500D01*
X175130971Y-62197191D01*
X175176393Y-62190573D01*
X175281483Y-62139198D01*
X175364198Y-62056483D01*
X175415573Y-61951393D01*
X175425500Y-61883260D01*
X175425500Y-60391740D01*
X175415573Y-60323607D01*
X175364198Y-60218517D01*
X175364196Y-60218515D01*
X175364196Y-60218514D01*
X175281485Y-60135803D01*
X175274499Y-60132388D01*
X175176393Y-60084427D01*
X175176391Y-60084426D01*
X175108261Y-60074500D01*
X175108260Y-60074500D01*
X174841740Y-60074500D01*
X174841739Y-60074500D01*
X174773607Y-60084426D01*
X174773606Y-60084426D01*
X174704459Y-60118230D01*
X174635586Y-60129988D01*
X174595541Y-60118230D01*
X174526393Y-60084426D01*
X174458261Y-60074500D01*
X174458260Y-60074500D01*
X174191740Y-60074500D01*
X174191739Y-60074500D01*
X174123607Y-60084426D01*
X174123606Y-60084426D01*
X174054459Y-60118230D01*
X173985586Y-60129988D01*
X173945541Y-60118230D01*
X173876393Y-60084426D01*
X173808261Y-60074500D01*
X173808260Y-60074500D01*
X173541740Y-60074500D01*
X173537122Y-60075172D01*
X173518826Y-60077838D01*
X173449649Y-60068022D01*
X173396761Y-60022365D01*
X173376952Y-59955362D01*
X173396513Y-59888287D01*
X173402577Y-59879646D01*
X173480860Y-59777626D01*
X173480859Y-59777626D01*
X173480861Y-59777625D01*
X173536330Y-59643709D01*
X173555250Y-59500000D01*
X173536330Y-59356291D01*
X173480861Y-59222375D01*
X173392621Y-59107379D01*
X173277625Y-59019139D01*
X173277624Y-59019138D01*
X173277622Y-59019137D01*
X173143712Y-58963671D01*
X173143710Y-58963670D01*
X173143709Y-58963670D01*
X173071854Y-58954210D01*
X173000001Y-58944750D01*
X172999999Y-58944750D01*
X172856291Y-58963670D01*
X172856287Y-58963671D01*
X172722377Y-59019137D01*
X172607379Y-59107379D01*
X172519137Y-59222377D01*
X172463671Y-59356287D01*
X172463670Y-59356291D01*
X172444750Y-59499999D01*
X172444750Y-59500000D01*
X158671939Y-59500000D01*
X158652956Y-59471589D01*
X158652952Y-59471584D01*
X157661351Y-58479983D01*
X157627866Y-58418660D01*
X157625561Y-58403743D01*
X157625214Y-58400004D01*
X157625215Y-58400000D01*
X157606397Y-58196917D01*
X157550582Y-58000750D01*
X157459673Y-57818179D01*
X157336764Y-57655421D01*
X157336762Y-57655418D01*
X157186041Y-57518019D01*
X157186039Y-57518017D01*
X157012642Y-57410655D01*
X157012635Y-57410651D01*
X156917546Y-57373814D01*
X156822456Y-57336976D01*
X156621976Y-57299500D01*
X156418024Y-57299500D01*
X156217544Y-57336976D01*
X156217541Y-57336976D01*
X156217541Y-57336977D01*
X156027364Y-57410651D01*
X156027357Y-57410655D01*
X155853960Y-57518017D01*
X155853958Y-57518019D01*
X155703237Y-57655418D01*
X155580327Y-57818178D01*
X155489422Y-58000739D01*
X155489417Y-58000752D01*
X155433602Y-58196917D01*
X155414785Y-58399999D01*
X155414785Y-58400000D01*
X155433602Y-58603082D01*
X155489417Y-58799247D01*
X155489422Y-58799260D01*
X155580327Y-58981821D01*
X155703237Y-59144581D01*
X155853958Y-59281980D01*
X155853960Y-59281982D01*
X155953141Y-59343392D01*
X156027363Y-59389348D01*
X156217544Y-59463024D01*
X156418024Y-59500500D01*
X156507770Y-59500500D01*
X156574809Y-59520185D01*
X156595451Y-59536819D01*
X156686451Y-59627819D01*
X156719936Y-59689142D01*
X156714952Y-59758834D01*
X156673080Y-59814767D01*
X156607616Y-59839184D01*
X156598770Y-59839500D01*
X156418024Y-59839500D01*
X156217544Y-59876976D01*
X156217541Y-59876976D01*
X156217541Y-59876977D01*
X156027364Y-59950651D01*
X156027357Y-59950655D01*
X155853960Y-60058017D01*
X155853958Y-60058019D01*
X155703237Y-60195418D01*
X155580327Y-60358178D01*
X155489422Y-60540739D01*
X155489417Y-60540752D01*
X155433602Y-60736917D01*
X155414785Y-60939999D01*
X155414785Y-60940000D01*
X155433602Y-61143082D01*
X155489417Y-61339247D01*
X155489422Y-61339260D01*
X155580327Y-61521821D01*
X155703237Y-61684581D01*
X155853958Y-61821980D01*
X155853960Y-61821982D01*
X155952928Y-61883260D01*
X156027363Y-61929348D01*
X156217544Y-62003024D01*
X156418024Y-62040500D01*
X156418026Y-62040500D01*
X156598770Y-62040500D01*
X156665809Y-62060185D01*
X156711564Y-62112989D01*
X156721508Y-62182147D01*
X156692483Y-62245703D01*
X156686451Y-62252181D01*
X156595451Y-62343181D01*
X156534128Y-62376666D01*
X156507770Y-62379500D01*
X156418024Y-62379500D01*
X156217544Y-62416976D01*
X156217541Y-62416976D01*
X156217541Y-62416977D01*
X156027364Y-62490651D01*
X156027357Y-62490655D01*
X155853960Y-62598017D01*
X155853958Y-62598019D01*
X155703237Y-62735418D01*
X155580327Y-62898178D01*
X155489422Y-63080739D01*
X155489417Y-63080752D01*
X155433602Y-63276917D01*
X155414785Y-63479999D01*
X155414785Y-63480000D01*
X150500500Y-63480000D01*
X150500500Y-55860000D01*
X155414785Y-55860000D01*
X155433602Y-56063082D01*
X155489417Y-56259247D01*
X155489422Y-56259260D01*
X155580327Y-56441821D01*
X155703237Y-56604581D01*
X155853958Y-56741980D01*
X155853960Y-56741982D01*
X155953141Y-56803392D01*
X156027363Y-56849348D01*
X156217544Y-56923024D01*
X156418024Y-56960500D01*
X156418026Y-56960500D01*
X156621974Y-56960500D01*
X156621976Y-56960500D01*
X156822456Y-56923024D01*
X157012637Y-56849348D01*
X157186041Y-56741981D01*
X157336764Y-56604579D01*
X157459673Y-56441821D01*
X157550582Y-56259250D01*
X157606397Y-56063083D01*
X157625215Y-55860000D01*
X157606397Y-55656917D01*
X157550582Y-55460750D01*
X157532531Y-55424499D01*
X157506272Y-55371764D01*
X157459673Y-55278179D01*
X157336764Y-55115421D01*
X157336762Y-55115418D01*
X157186041Y-54978019D01*
X157186039Y-54978017D01*
X157012642Y-54870655D01*
X157012635Y-54870651D01*
X156917546Y-54833814D01*
X156822456Y-54796976D01*
X156621976Y-54759500D01*
X156418024Y-54759500D01*
X156217544Y-54796976D01*
X156217541Y-54796976D01*
X156217541Y-54796977D01*
X156027364Y-54870651D01*
X156027357Y-54870655D01*
X155853960Y-54978017D01*
X155853958Y-54978019D01*
X155703237Y-55115418D01*
X155580327Y-55278178D01*
X155489422Y-55460739D01*
X155489417Y-55460752D01*
X155433602Y-55656917D01*
X155414785Y-55859999D01*
X155414785Y-55860000D01*
X150500500Y-55860000D01*
X150500500Y-53650004D01*
X161870524Y-53650004D01*
X161890398Y-53915214D01*
X161890399Y-53915217D01*
X161949581Y-54174510D01*
X162046748Y-54422086D01*
X162179728Y-54652415D01*
X162265126Y-54759500D01*
X162345555Y-54860355D01*
X162472366Y-54978017D01*
X162540515Y-55041250D01*
X162760262Y-55191071D01*
X162999880Y-55306465D01*
X162999881Y-55306465D01*
X162999884Y-55306467D01*
X163254029Y-55384861D01*
X163254030Y-55384861D01*
X163254033Y-55384862D01*
X163517012Y-55424499D01*
X163517017Y-55424499D01*
X163517020Y-55424500D01*
X163517021Y-55424500D01*
X163782979Y-55424500D01*
X163782980Y-55424500D01*
X163782987Y-55424499D01*
X164045966Y-55384862D01*
X164045967Y-55384861D01*
X164045971Y-55384861D01*
X164300116Y-55306467D01*
X164539738Y-55191071D01*
X164759485Y-55041250D01*
X164954448Y-54860351D01*
X165120272Y-54652415D01*
X165253252Y-54422086D01*
X165350419Y-54174510D01*
X165409601Y-53915217D01*
X165429476Y-53650004D01*
X181070524Y-53650004D01*
X181090398Y-53915214D01*
X181090399Y-53915217D01*
X181149581Y-54174510D01*
X181246748Y-54422086D01*
X181379728Y-54652415D01*
X181465126Y-54759500D01*
X181545555Y-54860355D01*
X181672366Y-54978017D01*
X181740515Y-55041250D01*
X181960262Y-55191071D01*
X182199880Y-55306465D01*
X182199881Y-55306465D01*
X182199884Y-55306467D01*
X182454029Y-55384861D01*
X182454030Y-55384861D01*
X182454033Y-55384862D01*
X182717012Y-55424499D01*
X182717017Y-55424499D01*
X182717020Y-55424500D01*
X182717021Y-55424500D01*
X182982979Y-55424500D01*
X182982980Y-55424500D01*
X182982987Y-55424499D01*
X183245966Y-55384862D01*
X183245967Y-55384861D01*
X183245971Y-55384861D01*
X183500116Y-55306467D01*
X183739738Y-55191071D01*
X183959485Y-55041250D01*
X184154448Y-54860351D01*
X184320272Y-54652415D01*
X184453252Y-54422086D01*
X184550419Y-54174510D01*
X184609601Y-53915217D01*
X184629476Y-53650000D01*
X184609601Y-53384783D01*
X184550419Y-53125490D01*
X184453252Y-52877914D01*
X184320272Y-52647585D01*
X184154448Y-52439649D01*
X184154447Y-52439648D01*
X184154444Y-52439644D01*
X183959485Y-52258750D01*
X183739738Y-52108929D01*
X183739734Y-52108927D01*
X183739731Y-52108925D01*
X183739729Y-52108924D01*
X183500118Y-51993534D01*
X183500120Y-51993534D01*
X183245972Y-51915139D01*
X183245966Y-51915137D01*
X182982987Y-51875500D01*
X182982980Y-51875500D01*
X182717020Y-51875500D01*
X182717012Y-51875500D01*
X182454033Y-51915137D01*
X182454027Y-51915139D01*
X182199880Y-51993534D01*
X181960270Y-52108924D01*
X181960268Y-52108925D01*
X181740514Y-52258750D01*
X181545555Y-52439644D01*
X181379728Y-52647585D01*
X181246748Y-52877913D01*
X181149583Y-53125484D01*
X181149578Y-53125501D01*
X181090398Y-53384785D01*
X181070524Y-53649995D01*
X181070524Y-53650004D01*
X165429476Y-53650004D01*
X165429476Y-53650000D01*
X165409601Y-53384783D01*
X165350419Y-53125490D01*
X165253252Y-52877914D01*
X165120272Y-52647585D01*
X164954448Y-52439649D01*
X164954447Y-52439648D01*
X164954444Y-52439644D01*
X164759485Y-52258750D01*
X164539738Y-52108929D01*
X164539734Y-52108927D01*
X164539731Y-52108925D01*
X164539729Y-52108924D01*
X164300118Y-51993534D01*
X164300120Y-51993534D01*
X164045972Y-51915139D01*
X164045966Y-51915137D01*
X163782987Y-51875500D01*
X163782980Y-51875500D01*
X163517020Y-51875500D01*
X163517012Y-51875500D01*
X163254033Y-51915137D01*
X163254027Y-51915139D01*
X162999880Y-51993534D01*
X162760270Y-52108924D01*
X162760268Y-52108925D01*
X162540514Y-52258750D01*
X162345555Y-52439644D01*
X162179728Y-52647585D01*
X162046748Y-52877913D01*
X161949583Y-53125484D01*
X161949578Y-53125501D01*
X161890398Y-53384785D01*
X161870524Y-53649995D01*
X161870524Y-53650004D01*
X150500500Y-53650004D01*
X150500500Y-50624500D01*
X150520185Y-50557461D01*
X150572989Y-50511706D01*
X150624500Y-50500500D01*
X185875500Y-50500500D01*
X185942539Y-50520185D01*
G37*
%TD.AperFunction*%
%TD*%
M02*
