M48
; DRILL file {KiCad 8.0.1-8.0.1-1~ubuntu22.04.1} date 2024-04-07T13:34:18+0300
; FORMAT={-:-/ absolute / inch / decimal}
; #@! TF.CreationDate,2024-04-07T13:34:18+03:00
; #@! TF.GenerationSoftware,Kicad,Pcbnew,8.0.1-8.0.1-1~ubuntu22.04.1
; #@! TF.FileFunction,Plated,1,2,PTH
FMAT,2
INCH
; #@! TA.AperFunction,Plated,PTH,ViaDrill
T1C0.0118
; #@! TA.AperFunction,Plated,PTH,ComponentDrill
T2C0.0315
; #@! TA.AperFunction,Plated,PTH,ComponentDrill
T3C0.0394
; #@! TA.AperFunction,Plated,PTH,ComponentDrill
T4C0.1063
%
G90
G05
T1
X6.7421Y-2.5591
X6.7913Y-2.6772
X6.811Y-2.3425
X7.0768Y-2.2146
X7.0965Y-2.4902
T2
X6.4764Y-3.1042
X6.4764Y-3.242
X6.8209Y-3.1042
X6.8209Y-3.242
X7.1654Y-3.1042
X7.1654Y-3.242
T3
X6.0622Y-2.1992
X6.0622Y-2.2992
X6.0622Y-2.3992
X6.0622Y-2.4992
X6.0622Y-2.5992
X6.0622Y-2.6992
X6.0622Y-2.7992
X6.0622Y-2.8992
X6.1622Y-2.1992
X6.1622Y-2.2992
X6.1622Y-2.3992
X6.1622Y-2.4992
X6.1622Y-2.5992
X6.1622Y-2.6992
X6.1622Y-2.7992
X6.1622Y-2.8992
X6.4429Y-2.1122
X6.4429Y-2.4902
X6.4429Y-2.8681
X7.1988Y-2.1122
X7.1988Y-2.8681
T4
X6.0236Y-3.2283
M30
