%TF.GenerationSoftware,KiCad,Pcbnew,8.0.1-8.0.1-1~ubuntu22.04.1*%
%TF.CreationDate,2024-04-07T13:34:13+03:00*%
%TF.ProjectId,ocxo_board,6f63786f-5f62-46f6-9172-642e6b696361,rev?*%
%TF.SameCoordinates,Original*%
%TF.FileFunction,Legend,Bot*%
%TF.FilePolarity,Positive*%
%FSLAX46Y46*%
G04 Gerber Fmt 4.6, Leading zero omitted, Abs format (unit mm)*
G04 Created by KiCad (PCBNEW 8.0.1-8.0.1-1~ubuntu22.04.1) date 2024-04-07 13:34:13*
%MOMM*%
%LPD*%
G01*
G04 APERTURE LIST*
%ADD10C,0.150000*%
%ADD11C,0.120000*%
G04 APERTURE END LIST*
D10*
X162908209Y-75759875D02*
X162717733Y-75759875D01*
X162717733Y-75759875D02*
X162622495Y-75807494D01*
X162622495Y-75807494D02*
X162527257Y-75902732D01*
X162527257Y-75902732D02*
X162479638Y-76093208D01*
X162479638Y-76093208D02*
X162479638Y-76426541D01*
X162479638Y-76426541D02*
X162527257Y-76617017D01*
X162527257Y-76617017D02*
X162622495Y-76712256D01*
X162622495Y-76712256D02*
X162717733Y-76759875D01*
X162717733Y-76759875D02*
X162908209Y-76759875D01*
X162908209Y-76759875D02*
X163003447Y-76712256D01*
X163003447Y-76712256D02*
X163098685Y-76617017D01*
X163098685Y-76617017D02*
X163146304Y-76426541D01*
X163146304Y-76426541D02*
X163146304Y-76093208D01*
X163146304Y-76093208D02*
X163098685Y-75902732D01*
X163098685Y-75902732D02*
X163003447Y-75807494D01*
X163003447Y-75807494D02*
X162908209Y-75759875D01*
X161479638Y-76664636D02*
X161527257Y-76712256D01*
X161527257Y-76712256D02*
X161670114Y-76759875D01*
X161670114Y-76759875D02*
X161765352Y-76759875D01*
X161765352Y-76759875D02*
X161908209Y-76712256D01*
X161908209Y-76712256D02*
X162003447Y-76617017D01*
X162003447Y-76617017D02*
X162051066Y-76521779D01*
X162051066Y-76521779D02*
X162098685Y-76331303D01*
X162098685Y-76331303D02*
X162098685Y-76188446D01*
X162098685Y-76188446D02*
X162051066Y-75997970D01*
X162051066Y-75997970D02*
X162003447Y-75902732D01*
X162003447Y-75902732D02*
X161908209Y-75807494D01*
X161908209Y-75807494D02*
X161765352Y-75759875D01*
X161765352Y-75759875D02*
X161670114Y-75759875D01*
X161670114Y-75759875D02*
X161527257Y-75807494D01*
X161527257Y-75807494D02*
X161479638Y-75855113D01*
X161146304Y-75759875D02*
X160479638Y-76759875D01*
X160479638Y-75759875D02*
X161146304Y-76759875D01*
X159908209Y-75759875D02*
X159717733Y-75759875D01*
X159717733Y-75759875D02*
X159622495Y-75807494D01*
X159622495Y-75807494D02*
X159527257Y-75902732D01*
X159527257Y-75902732D02*
X159479638Y-76093208D01*
X159479638Y-76093208D02*
X159479638Y-76426541D01*
X159479638Y-76426541D02*
X159527257Y-76617017D01*
X159527257Y-76617017D02*
X159622495Y-76712256D01*
X159622495Y-76712256D02*
X159717733Y-76759875D01*
X159717733Y-76759875D02*
X159908209Y-76759875D01*
X159908209Y-76759875D02*
X160003447Y-76712256D01*
X160003447Y-76712256D02*
X160098685Y-76617017D01*
X160098685Y-76617017D02*
X160146304Y-76426541D01*
X160146304Y-76426541D02*
X160146304Y-76093208D01*
X160146304Y-76093208D02*
X160098685Y-75902732D01*
X160098685Y-75902732D02*
X160003447Y-75807494D01*
X160003447Y-75807494D02*
X159908209Y-75759875D01*
X157717733Y-76664636D02*
X157765352Y-76712256D01*
X157765352Y-76712256D02*
X157908209Y-76759875D01*
X157908209Y-76759875D02*
X158003447Y-76759875D01*
X158003447Y-76759875D02*
X158146304Y-76712256D01*
X158146304Y-76712256D02*
X158241542Y-76617017D01*
X158241542Y-76617017D02*
X158289161Y-76521779D01*
X158289161Y-76521779D02*
X158336780Y-76331303D01*
X158336780Y-76331303D02*
X158336780Y-76188446D01*
X158336780Y-76188446D02*
X158289161Y-75997970D01*
X158289161Y-75997970D02*
X158241542Y-75902732D01*
X158241542Y-75902732D02*
X158146304Y-75807494D01*
X158146304Y-75807494D02*
X158003447Y-75759875D01*
X158003447Y-75759875D02*
X157908209Y-75759875D01*
X157908209Y-75759875D02*
X157765352Y-75807494D01*
X157765352Y-75807494D02*
X157717733Y-75855113D01*
X157432018Y-75759875D02*
X156860590Y-75759875D01*
X157146304Y-76759875D02*
X157146304Y-75759875D01*
X155955828Y-76759875D02*
X156289161Y-76283684D01*
X156527256Y-76759875D02*
X156527256Y-75759875D01*
X156527256Y-75759875D02*
X156146304Y-75759875D01*
X156146304Y-75759875D02*
X156051066Y-75807494D01*
X156051066Y-75807494D02*
X156003447Y-75855113D01*
X156003447Y-75855113D02*
X155955828Y-75950351D01*
X155955828Y-75950351D02*
X155955828Y-76093208D01*
X155955828Y-76093208D02*
X156003447Y-76188446D01*
X156003447Y-76188446D02*
X156051066Y-76236065D01*
X156051066Y-76236065D02*
X156146304Y-76283684D01*
X156146304Y-76283684D02*
X156527256Y-76283684D01*
X155051066Y-76759875D02*
X155527256Y-76759875D01*
X155527256Y-76759875D02*
X155527256Y-75759875D01*
X153955827Y-76759875D02*
X153955827Y-76093208D01*
X153955827Y-76283684D02*
X153908208Y-76188446D01*
X153908208Y-76188446D02*
X153860589Y-76140827D01*
X153860589Y-76140827D02*
X153765351Y-76093208D01*
X153765351Y-76093208D02*
X153670113Y-76093208D01*
X152955827Y-76712256D02*
X153051065Y-76759875D01*
X153051065Y-76759875D02*
X153241541Y-76759875D01*
X153241541Y-76759875D02*
X153336779Y-76712256D01*
X153336779Y-76712256D02*
X153384398Y-76617017D01*
X153384398Y-76617017D02*
X153384398Y-76236065D01*
X153384398Y-76236065D02*
X153336779Y-76140827D01*
X153336779Y-76140827D02*
X153241541Y-76093208D01*
X153241541Y-76093208D02*
X153051065Y-76093208D01*
X153051065Y-76093208D02*
X152955827Y-76140827D01*
X152955827Y-76140827D02*
X152908208Y-76236065D01*
X152908208Y-76236065D02*
X152908208Y-76331303D01*
X152908208Y-76331303D02*
X153384398Y-76426541D01*
X152574874Y-76093208D02*
X152336779Y-76759875D01*
X152336779Y-76759875D02*
X152098684Y-76093208D01*
X151765350Y-76474160D02*
X151289160Y-76474160D01*
X151860588Y-76759875D02*
X151527255Y-75759875D01*
X151527255Y-75759875D02*
X151193922Y-76759875D01*
X159384398Y-78084104D02*
X158908208Y-78084104D01*
X159479636Y-78369819D02*
X159146303Y-77369819D01*
X159146303Y-77369819D02*
X158812970Y-78369819D01*
X158479636Y-78369819D02*
X158479636Y-77369819D01*
X158479636Y-77846009D02*
X157908208Y-77846009D01*
X157908208Y-78369819D02*
X157908208Y-77369819D01*
X156241541Y-77703152D02*
X156241541Y-78369819D01*
X156479636Y-77322200D02*
X156717731Y-78036485D01*
X156717731Y-78036485D02*
X156098684Y-78036485D01*
X155003446Y-77322200D02*
X155860588Y-78607914D01*
X154717731Y-77465057D02*
X154670112Y-77417438D01*
X154670112Y-77417438D02*
X154574874Y-77369819D01*
X154574874Y-77369819D02*
X154336779Y-77369819D01*
X154336779Y-77369819D02*
X154241541Y-77417438D01*
X154241541Y-77417438D02*
X154193922Y-77465057D01*
X154193922Y-77465057D02*
X154146303Y-77560295D01*
X154146303Y-77560295D02*
X154146303Y-77655533D01*
X154146303Y-77655533D02*
X154193922Y-77798390D01*
X154193922Y-77798390D02*
X154765350Y-78369819D01*
X154765350Y-78369819D02*
X154146303Y-78369819D01*
X153527255Y-77369819D02*
X153432017Y-77369819D01*
X153432017Y-77369819D02*
X153336779Y-77417438D01*
X153336779Y-77417438D02*
X153289160Y-77465057D01*
X153289160Y-77465057D02*
X153241541Y-77560295D01*
X153241541Y-77560295D02*
X153193922Y-77750771D01*
X153193922Y-77750771D02*
X153193922Y-77988866D01*
X153193922Y-77988866D02*
X153241541Y-78179342D01*
X153241541Y-78179342D02*
X153289160Y-78274580D01*
X153289160Y-78274580D02*
X153336779Y-78322200D01*
X153336779Y-78322200D02*
X153432017Y-78369819D01*
X153432017Y-78369819D02*
X153527255Y-78369819D01*
X153527255Y-78369819D02*
X153622493Y-78322200D01*
X153622493Y-78322200D02*
X153670112Y-78274580D01*
X153670112Y-78274580D02*
X153717731Y-78179342D01*
X153717731Y-78179342D02*
X153765350Y-77988866D01*
X153765350Y-77988866D02*
X153765350Y-77750771D01*
X153765350Y-77750771D02*
X153717731Y-77560295D01*
X153717731Y-77560295D02*
X153670112Y-77465057D01*
X153670112Y-77465057D02*
X153622493Y-77417438D01*
X153622493Y-77417438D02*
X153527255Y-77369819D01*
X152812969Y-77465057D02*
X152765350Y-77417438D01*
X152765350Y-77417438D02*
X152670112Y-77369819D01*
X152670112Y-77369819D02*
X152432017Y-77369819D01*
X152432017Y-77369819D02*
X152336779Y-77417438D01*
X152336779Y-77417438D02*
X152289160Y-77465057D01*
X152289160Y-77465057D02*
X152241541Y-77560295D01*
X152241541Y-77560295D02*
X152241541Y-77655533D01*
X152241541Y-77655533D02*
X152289160Y-77798390D01*
X152289160Y-77798390D02*
X152860588Y-78369819D01*
X152860588Y-78369819D02*
X152241541Y-78369819D01*
X151384398Y-77703152D02*
X151384398Y-78369819D01*
X151622493Y-77322200D02*
X151860588Y-78036485D01*
X151860588Y-78036485D02*
X151241541Y-78036485D01*
X171666666Y-73204819D02*
X171999999Y-72728628D01*
X172238094Y-73204819D02*
X172238094Y-72204819D01*
X172238094Y-72204819D02*
X171857142Y-72204819D01*
X171857142Y-72204819D02*
X171761904Y-72252438D01*
X171761904Y-72252438D02*
X171714285Y-72300057D01*
X171714285Y-72300057D02*
X171666666Y-72395295D01*
X171666666Y-72395295D02*
X171666666Y-72538152D01*
X171666666Y-72538152D02*
X171714285Y-72633390D01*
X171714285Y-72633390D02*
X171761904Y-72681009D01*
X171761904Y-72681009D02*
X171857142Y-72728628D01*
X171857142Y-72728628D02*
X172238094Y-72728628D01*
X170761904Y-72204819D02*
X171238094Y-72204819D01*
X171238094Y-72204819D02*
X171285713Y-72681009D01*
X171285713Y-72681009D02*
X171238094Y-72633390D01*
X171238094Y-72633390D02*
X171142856Y-72585771D01*
X171142856Y-72585771D02*
X170904761Y-72585771D01*
X170904761Y-72585771D02*
X170809523Y-72633390D01*
X170809523Y-72633390D02*
X170761904Y-72681009D01*
X170761904Y-72681009D02*
X170714285Y-72776247D01*
X170714285Y-72776247D02*
X170714285Y-73014342D01*
X170714285Y-73014342D02*
X170761904Y-73109580D01*
X170761904Y-73109580D02*
X170809523Y-73157200D01*
X170809523Y-73157200D02*
X170904761Y-73204819D01*
X170904761Y-73204819D02*
X171142856Y-73204819D01*
X171142856Y-73204819D02*
X171238094Y-73157200D01*
X171238094Y-73157200D02*
X171285713Y-73109580D01*
X177916667Y-53859579D02*
X177964286Y-53907199D01*
X177964286Y-53907199D02*
X178107143Y-53954818D01*
X178107143Y-53954818D02*
X178202381Y-53954818D01*
X178202381Y-53954818D02*
X178345238Y-53907199D01*
X178345238Y-53907199D02*
X178440476Y-53811960D01*
X178440476Y-53811960D02*
X178488095Y-53716722D01*
X178488095Y-53716722D02*
X178535714Y-53526246D01*
X178535714Y-53526246D02*
X178535714Y-53383389D01*
X178535714Y-53383389D02*
X178488095Y-53192913D01*
X178488095Y-53192913D02*
X178440476Y-53097675D01*
X178440476Y-53097675D02*
X178345238Y-53002437D01*
X178345238Y-53002437D02*
X178202381Y-52954818D01*
X178202381Y-52954818D02*
X178107143Y-52954818D01*
X178107143Y-52954818D02*
X177964286Y-53002437D01*
X177964286Y-53002437D02*
X177916667Y-53050056D01*
X177583333Y-52954818D02*
X176964286Y-52954818D01*
X176964286Y-52954818D02*
X177297619Y-53335770D01*
X177297619Y-53335770D02*
X177154762Y-53335770D01*
X177154762Y-53335770D02*
X177059524Y-53383389D01*
X177059524Y-53383389D02*
X177011905Y-53431008D01*
X177011905Y-53431008D02*
X176964286Y-53526246D01*
X176964286Y-53526246D02*
X176964286Y-53764341D01*
X176964286Y-53764341D02*
X177011905Y-53859579D01*
X177011905Y-53859579D02*
X177059524Y-53907199D01*
X177059524Y-53907199D02*
X177154762Y-53954818D01*
X177154762Y-53954818D02*
X177440476Y-53954818D01*
X177440476Y-53954818D02*
X177535714Y-53907199D01*
X177535714Y-53907199D02*
X177583333Y-53859579D01*
X171416666Y-60454819D02*
X171749999Y-59978628D01*
X171988094Y-60454819D02*
X171988094Y-59454819D01*
X171988094Y-59454819D02*
X171607142Y-59454819D01*
X171607142Y-59454819D02*
X171511904Y-59502438D01*
X171511904Y-59502438D02*
X171464285Y-59550057D01*
X171464285Y-59550057D02*
X171416666Y-59645295D01*
X171416666Y-59645295D02*
X171416666Y-59788152D01*
X171416666Y-59788152D02*
X171464285Y-59883390D01*
X171464285Y-59883390D02*
X171511904Y-59931009D01*
X171511904Y-59931009D02*
X171607142Y-59978628D01*
X171607142Y-59978628D02*
X171988094Y-59978628D01*
X170464285Y-60454819D02*
X171035713Y-60454819D01*
X170749999Y-60454819D02*
X170749999Y-59454819D01*
X170749999Y-59454819D02*
X170845237Y-59597676D01*
X170845237Y-59597676D02*
X170940475Y-59692914D01*
X170940475Y-59692914D02*
X171035713Y-59740533D01*
X174166667Y-65859580D02*
X174214286Y-65907200D01*
X174214286Y-65907200D02*
X174357143Y-65954819D01*
X174357143Y-65954819D02*
X174452381Y-65954819D01*
X174452381Y-65954819D02*
X174595238Y-65907200D01*
X174595238Y-65907200D02*
X174690476Y-65811961D01*
X174690476Y-65811961D02*
X174738095Y-65716723D01*
X174738095Y-65716723D02*
X174785714Y-65526247D01*
X174785714Y-65526247D02*
X174785714Y-65383390D01*
X174785714Y-65383390D02*
X174738095Y-65192914D01*
X174738095Y-65192914D02*
X174690476Y-65097676D01*
X174690476Y-65097676D02*
X174595238Y-65002438D01*
X174595238Y-65002438D02*
X174452381Y-64954819D01*
X174452381Y-64954819D02*
X174357143Y-64954819D01*
X174357143Y-64954819D02*
X174214286Y-65002438D01*
X174214286Y-65002438D02*
X174166667Y-65050057D01*
X173833333Y-64954819D02*
X173166667Y-64954819D01*
X173166667Y-64954819D02*
X173595238Y-65954819D01*
X174916666Y-68454819D02*
X175249999Y-67978628D01*
X175488094Y-68454819D02*
X175488094Y-67454819D01*
X175488094Y-67454819D02*
X175107142Y-67454819D01*
X175107142Y-67454819D02*
X175011904Y-67502438D01*
X175011904Y-67502438D02*
X174964285Y-67550057D01*
X174964285Y-67550057D02*
X174916666Y-67645295D01*
X174916666Y-67645295D02*
X174916666Y-67788152D01*
X174916666Y-67788152D02*
X174964285Y-67883390D01*
X174964285Y-67883390D02*
X175011904Y-67931009D01*
X175011904Y-67931009D02*
X175107142Y-67978628D01*
X175107142Y-67978628D02*
X175488094Y-67978628D01*
X174583332Y-67454819D02*
X173964285Y-67454819D01*
X173964285Y-67454819D02*
X174297618Y-67835771D01*
X174297618Y-67835771D02*
X174154761Y-67835771D01*
X174154761Y-67835771D02*
X174059523Y-67883390D01*
X174059523Y-67883390D02*
X174011904Y-67931009D01*
X174011904Y-67931009D02*
X173964285Y-68026247D01*
X173964285Y-68026247D02*
X173964285Y-68264342D01*
X173964285Y-68264342D02*
X174011904Y-68359580D01*
X174011904Y-68359580D02*
X174059523Y-68407200D01*
X174059523Y-68407200D02*
X174154761Y-68454819D01*
X174154761Y-68454819D02*
X174440475Y-68454819D01*
X174440475Y-68454819D02*
X174535713Y-68407200D01*
X174535713Y-68407200D02*
X174583332Y-68359580D01*
X168916666Y-80954819D02*
X169249999Y-80478628D01*
X169488094Y-80954819D02*
X169488094Y-79954819D01*
X169488094Y-79954819D02*
X169107142Y-79954819D01*
X169107142Y-79954819D02*
X169011904Y-80002438D01*
X169011904Y-80002438D02*
X168964285Y-80050057D01*
X168964285Y-80050057D02*
X168916666Y-80145295D01*
X168916666Y-80145295D02*
X168916666Y-80288152D01*
X168916666Y-80288152D02*
X168964285Y-80383390D01*
X168964285Y-80383390D02*
X169011904Y-80431009D01*
X169011904Y-80431009D02*
X169107142Y-80478628D01*
X169107142Y-80478628D02*
X169488094Y-80478628D01*
X168059523Y-79954819D02*
X168249999Y-79954819D01*
X168249999Y-79954819D02*
X168345237Y-80002438D01*
X168345237Y-80002438D02*
X168392856Y-80050057D01*
X168392856Y-80050057D02*
X168488094Y-80192914D01*
X168488094Y-80192914D02*
X168535713Y-80383390D01*
X168535713Y-80383390D02*
X168535713Y-80764342D01*
X168535713Y-80764342D02*
X168488094Y-80859580D01*
X168488094Y-80859580D02*
X168440475Y-80907200D01*
X168440475Y-80907200D02*
X168345237Y-80954819D01*
X168345237Y-80954819D02*
X168154761Y-80954819D01*
X168154761Y-80954819D02*
X168059523Y-80907200D01*
X168059523Y-80907200D02*
X168011904Y-80859580D01*
X168011904Y-80859580D02*
X167964285Y-80764342D01*
X167964285Y-80764342D02*
X167964285Y-80526247D01*
X167964285Y-80526247D02*
X168011904Y-80431009D01*
X168011904Y-80431009D02*
X168059523Y-80383390D01*
X168059523Y-80383390D02*
X168154761Y-80335771D01*
X168154761Y-80335771D02*
X168345237Y-80335771D01*
X168345237Y-80335771D02*
X168440475Y-80383390D01*
X168440475Y-80383390D02*
X168488094Y-80431009D01*
X168488094Y-80431009D02*
X168535713Y-80526247D01*
X177916666Y-65454819D02*
X178249999Y-64978628D01*
X178488094Y-65454819D02*
X178488094Y-64454819D01*
X178488094Y-64454819D02*
X178107142Y-64454819D01*
X178107142Y-64454819D02*
X178011904Y-64502438D01*
X178011904Y-64502438D02*
X177964285Y-64550057D01*
X177964285Y-64550057D02*
X177916666Y-64645295D01*
X177916666Y-64645295D02*
X177916666Y-64788152D01*
X177916666Y-64788152D02*
X177964285Y-64883390D01*
X177964285Y-64883390D02*
X178011904Y-64931009D01*
X178011904Y-64931009D02*
X178107142Y-64978628D01*
X178107142Y-64978628D02*
X178488094Y-64978628D01*
X177535713Y-64550057D02*
X177488094Y-64502438D01*
X177488094Y-64502438D02*
X177392856Y-64454819D01*
X177392856Y-64454819D02*
X177154761Y-64454819D01*
X177154761Y-64454819D02*
X177059523Y-64502438D01*
X177059523Y-64502438D02*
X177011904Y-64550057D01*
X177011904Y-64550057D02*
X176964285Y-64645295D01*
X176964285Y-64645295D02*
X176964285Y-64740533D01*
X176964285Y-64740533D02*
X177011904Y-64883390D01*
X177011904Y-64883390D02*
X177583332Y-65454819D01*
X177583332Y-65454819D02*
X176964285Y-65454819D01*
X177916666Y-76704819D02*
X178249999Y-76228628D01*
X178488094Y-76704819D02*
X178488094Y-75704819D01*
X178488094Y-75704819D02*
X178107142Y-75704819D01*
X178107142Y-75704819D02*
X178011904Y-75752438D01*
X178011904Y-75752438D02*
X177964285Y-75800057D01*
X177964285Y-75800057D02*
X177916666Y-75895295D01*
X177916666Y-75895295D02*
X177916666Y-76038152D01*
X177916666Y-76038152D02*
X177964285Y-76133390D01*
X177964285Y-76133390D02*
X178011904Y-76181009D01*
X178011904Y-76181009D02*
X178107142Y-76228628D01*
X178107142Y-76228628D02*
X178488094Y-76228628D01*
X177059523Y-76038152D02*
X177059523Y-76704819D01*
X177297618Y-75657200D02*
X177535713Y-76371485D01*
X177535713Y-76371485D02*
X176916666Y-76371485D01*
X168166666Y-62679580D02*
X168214285Y-62727200D01*
X168214285Y-62727200D02*
X168357142Y-62774819D01*
X168357142Y-62774819D02*
X168452380Y-62774819D01*
X168452380Y-62774819D02*
X168595237Y-62727200D01*
X168595237Y-62727200D02*
X168690475Y-62631961D01*
X168690475Y-62631961D02*
X168738094Y-62536723D01*
X168738094Y-62536723D02*
X168785713Y-62346247D01*
X168785713Y-62346247D02*
X168785713Y-62203390D01*
X168785713Y-62203390D02*
X168738094Y-62012914D01*
X168738094Y-62012914D02*
X168690475Y-61917676D01*
X168690475Y-61917676D02*
X168595237Y-61822438D01*
X168595237Y-61822438D02*
X168452380Y-61774819D01*
X168452380Y-61774819D02*
X168357142Y-61774819D01*
X168357142Y-61774819D02*
X168214285Y-61822438D01*
X168214285Y-61822438D02*
X168166666Y-61870057D01*
X167214285Y-62774819D02*
X167785713Y-62774819D01*
X167499999Y-62774819D02*
X167499999Y-61774819D01*
X167499999Y-61774819D02*
X167595237Y-61917676D01*
X167595237Y-61917676D02*
X167690475Y-62012914D01*
X167690475Y-62012914D02*
X167785713Y-62060533D01*
X159666666Y-62704819D02*
X159999999Y-62228628D01*
X160238094Y-62704819D02*
X160238094Y-61704819D01*
X160238094Y-61704819D02*
X159857142Y-61704819D01*
X159857142Y-61704819D02*
X159761904Y-61752438D01*
X159761904Y-61752438D02*
X159714285Y-61800057D01*
X159714285Y-61800057D02*
X159666666Y-61895295D01*
X159666666Y-61895295D02*
X159666666Y-62038152D01*
X159666666Y-62038152D02*
X159714285Y-62133390D01*
X159714285Y-62133390D02*
X159761904Y-62181009D01*
X159761904Y-62181009D02*
X159857142Y-62228628D01*
X159857142Y-62228628D02*
X160238094Y-62228628D01*
X159333332Y-61704819D02*
X158666666Y-61704819D01*
X158666666Y-61704819D02*
X159095237Y-62704819D01*
X179166666Y-83609580D02*
X179214285Y-83657200D01*
X179214285Y-83657200D02*
X179357142Y-83704819D01*
X179357142Y-83704819D02*
X179452380Y-83704819D01*
X179452380Y-83704819D02*
X179595237Y-83657200D01*
X179595237Y-83657200D02*
X179690475Y-83561961D01*
X179690475Y-83561961D02*
X179738094Y-83466723D01*
X179738094Y-83466723D02*
X179785713Y-83276247D01*
X179785713Y-83276247D02*
X179785713Y-83133390D01*
X179785713Y-83133390D02*
X179738094Y-82942914D01*
X179738094Y-82942914D02*
X179690475Y-82847676D01*
X179690475Y-82847676D02*
X179595237Y-82752438D01*
X179595237Y-82752438D02*
X179452380Y-82704819D01*
X179452380Y-82704819D02*
X179357142Y-82704819D01*
X179357142Y-82704819D02*
X179214285Y-82752438D01*
X179214285Y-82752438D02*
X179166666Y-82800057D01*
X178309523Y-83038152D02*
X178309523Y-83704819D01*
X178547618Y-82657200D02*
X178785713Y-83371485D01*
X178785713Y-83371485D02*
X178166666Y-83371485D01*
X168761904Y-70954819D02*
X168761904Y-71764342D01*
X168761904Y-71764342D02*
X168714285Y-71859580D01*
X168714285Y-71859580D02*
X168666666Y-71907200D01*
X168666666Y-71907200D02*
X168571428Y-71954819D01*
X168571428Y-71954819D02*
X168380952Y-71954819D01*
X168380952Y-71954819D02*
X168285714Y-71907200D01*
X168285714Y-71907200D02*
X168238095Y-71859580D01*
X168238095Y-71859580D02*
X168190476Y-71764342D01*
X168190476Y-71764342D02*
X168190476Y-70954819D01*
X167190476Y-71954819D02*
X167761904Y-71954819D01*
X167476190Y-71954819D02*
X167476190Y-70954819D01*
X167476190Y-70954819D02*
X167571428Y-71097676D01*
X167571428Y-71097676D02*
X167666666Y-71192914D01*
X167666666Y-71192914D02*
X167761904Y-71240533D01*
X176416666Y-83609580D02*
X176464285Y-83657200D01*
X176464285Y-83657200D02*
X176607142Y-83704819D01*
X176607142Y-83704819D02*
X176702380Y-83704819D01*
X176702380Y-83704819D02*
X176845237Y-83657200D01*
X176845237Y-83657200D02*
X176940475Y-83561961D01*
X176940475Y-83561961D02*
X176988094Y-83466723D01*
X176988094Y-83466723D02*
X177035713Y-83276247D01*
X177035713Y-83276247D02*
X177035713Y-83133390D01*
X177035713Y-83133390D02*
X176988094Y-82942914D01*
X176988094Y-82942914D02*
X176940475Y-82847676D01*
X176940475Y-82847676D02*
X176845237Y-82752438D01*
X176845237Y-82752438D02*
X176702380Y-82704819D01*
X176702380Y-82704819D02*
X176607142Y-82704819D01*
X176607142Y-82704819D02*
X176464285Y-82752438D01*
X176464285Y-82752438D02*
X176416666Y-82800057D01*
X175511904Y-82704819D02*
X175988094Y-82704819D01*
X175988094Y-82704819D02*
X176035713Y-83181009D01*
X176035713Y-83181009D02*
X175988094Y-83133390D01*
X175988094Y-83133390D02*
X175892856Y-83085771D01*
X175892856Y-83085771D02*
X175654761Y-83085771D01*
X175654761Y-83085771D02*
X175559523Y-83133390D01*
X175559523Y-83133390D02*
X175511904Y-83181009D01*
X175511904Y-83181009D02*
X175464285Y-83276247D01*
X175464285Y-83276247D02*
X175464285Y-83514342D01*
X175464285Y-83514342D02*
X175511904Y-83609580D01*
X175511904Y-83609580D02*
X175559523Y-83657200D01*
X175559523Y-83657200D02*
X175654761Y-83704819D01*
X175654761Y-83704819D02*
X175892856Y-83704819D01*
X175892856Y-83704819D02*
X175988094Y-83657200D01*
X175988094Y-83657200D02*
X176035713Y-83609580D01*
X177845238Y-73550057D02*
X177940476Y-73502438D01*
X177940476Y-73502438D02*
X178035714Y-73407200D01*
X178035714Y-73407200D02*
X178178571Y-73264342D01*
X178178571Y-73264342D02*
X178273809Y-73216723D01*
X178273809Y-73216723D02*
X178369047Y-73216723D01*
X178321428Y-73454819D02*
X178416666Y-73407200D01*
X178416666Y-73407200D02*
X178511904Y-73311961D01*
X178511904Y-73311961D02*
X178559523Y-73121485D01*
X178559523Y-73121485D02*
X178559523Y-72788152D01*
X178559523Y-72788152D02*
X178511904Y-72597676D01*
X178511904Y-72597676D02*
X178416666Y-72502438D01*
X178416666Y-72502438D02*
X178321428Y-72454819D01*
X178321428Y-72454819D02*
X178130952Y-72454819D01*
X178130952Y-72454819D02*
X178035714Y-72502438D01*
X178035714Y-72502438D02*
X177940476Y-72597676D01*
X177940476Y-72597676D02*
X177892857Y-72788152D01*
X177892857Y-72788152D02*
X177892857Y-73121485D01*
X177892857Y-73121485D02*
X177940476Y-73311961D01*
X177940476Y-73311961D02*
X178035714Y-73407200D01*
X178035714Y-73407200D02*
X178130952Y-73454819D01*
X178130952Y-73454819D02*
X178321428Y-73454819D01*
X176940476Y-73454819D02*
X177511904Y-73454819D01*
X177226190Y-73454819D02*
X177226190Y-72454819D01*
X177226190Y-72454819D02*
X177321428Y-72597676D01*
X177321428Y-72597676D02*
X177416666Y-72692914D01*
X177416666Y-72692914D02*
X177511904Y-72740533D01*
D11*
%TO.C,R5*%
X170765000Y-75477064D02*
X170765000Y-75022936D01*
X172235000Y-75477064D02*
X172235000Y-75022936D01*
%TO.C,C3*%
X179015000Y-53761252D02*
X179015000Y-53238748D01*
X180485000Y-53761252D02*
X180485000Y-53238748D01*
%TO.C,R1*%
X170515000Y-62522936D02*
X170515000Y-62977064D01*
X171985000Y-62522936D02*
X171985000Y-62977064D01*
%TO.C,C7*%
X173302500Y-63011252D02*
X173302500Y-62488748D01*
X174772500Y-63011252D02*
X174772500Y-62488748D01*
%TO.C,R3*%
X174522936Y-69015000D02*
X174977064Y-69015000D01*
X174522936Y-70485000D02*
X174977064Y-70485000D01*
%TO.C,R6*%
X168522936Y-78015000D02*
X168977064Y-78015000D01*
X168522936Y-79485000D02*
X168977064Y-79485000D01*
%TO.C,R2*%
X177977064Y-62515000D02*
X177522936Y-62515000D01*
X177977064Y-63985000D02*
X177522936Y-63985000D01*
%TO.C,R4*%
X174522936Y-75515000D02*
X174977064Y-75515000D01*
X174522936Y-76985000D02*
X174977064Y-76985000D01*
%TO.C,C1*%
X167738748Y-63265000D02*
X168261252Y-63265000D01*
X167738748Y-64735000D02*
X168261252Y-64735000D01*
%TO.C,R7*%
X159272936Y-59765000D02*
X159727064Y-59765000D01*
X159272936Y-61235000D02*
X159727064Y-61235000D01*
%TO.C,C4*%
X178265000Y-80761252D02*
X178265000Y-80238748D01*
X179735000Y-80761252D02*
X179735000Y-80238748D01*
%TO.C,U1*%
X166050000Y-65440000D02*
X168000000Y-65440000D01*
X166050000Y-70560000D02*
X168000000Y-70560000D01*
X169950000Y-65440000D02*
X168000000Y-65440000D01*
X169950000Y-70560000D02*
X168000000Y-70560000D01*
X170700000Y-65535000D02*
X170460000Y-65205000D01*
X170940000Y-65205000D01*
X170700000Y-65535000D01*
G36*
X170700000Y-65535000D02*
G01*
X170460000Y-65205000D01*
X170940000Y-65205000D01*
X170700000Y-65535000D01*
G37*
%TO.C,C5*%
X175515000Y-80761252D02*
X175515000Y-80238748D01*
X176985000Y-80761252D02*
X176985000Y-80238748D01*
%TO.C,Q1*%
X173190000Y-72350000D02*
X173190000Y-73000000D01*
X173190000Y-73650000D02*
X173190000Y-73000000D01*
X176310000Y-72350000D02*
X176310000Y-73000000D01*
X176310000Y-73650000D02*
X176310000Y-73000000D01*
X173240000Y-71837500D02*
X172910000Y-72077500D01*
X172910000Y-71597500D01*
X173240000Y-71837500D01*
G36*
X173240000Y-71837500D02*
G01*
X172910000Y-72077500D01*
X172910000Y-71597500D01*
X173240000Y-71837500D01*
G37*
%TD*%
M02*
