%TF.GenerationSoftware,KiCad,Pcbnew,8.0.1-8.0.1-1~ubuntu22.04.1*%
%TF.CreationDate,2024-04-07T13:34:12+03:00*%
%TF.ProjectId,ocxo_board,6f63786f-5f62-46f6-9172-642e6b696361,rev?*%
%TF.SameCoordinates,Original*%
%TF.FileFunction,Copper,L2,Bot*%
%TF.FilePolarity,Positive*%
%FSLAX46Y46*%
G04 Gerber Fmt 4.6, Leading zero omitted, Abs format (unit mm)*
G04 Created by KiCad (PCBNEW 8.0.1-8.0.1-1~ubuntu22.04.1) date 2024-04-07 13:34:12*
%MOMM*%
%LPD*%
G01*
G04 APERTURE LIST*
G04 Aperture macros list*
%AMRoundRect*
0 Rectangle with rounded corners*
0 $1 Rounding radius*
0 $2 $3 $4 $5 $6 $7 $8 $9 X,Y pos of 4 corners*
0 Add a 4 corners polygon primitive as box body*
4,1,4,$2,$3,$4,$5,$6,$7,$8,$9,$2,$3,0*
0 Add four circle primitives for the rounded corners*
1,1,$1+$1,$2,$3*
1,1,$1+$1,$4,$5*
1,1,$1+$1,$6,$7*
1,1,$1+$1,$8,$9*
0 Add four rect primitives between the rounded corners*
20,1,$1+$1,$2,$3,$4,$5,0*
20,1,$1+$1,$4,$5,$6,$7,0*
20,1,$1+$1,$6,$7,$8,$9,0*
20,1,$1+$1,$8,$9,$2,$3,0*%
G04 Aperture macros list end*
%TA.AperFunction,ComponentPad*%
%ADD10R,1.600000X1.600000*%
%TD*%
%TA.AperFunction,ComponentPad*%
%ADD11C,1.600000*%
%TD*%
%TA.AperFunction,ComponentPad*%
%ADD12RoundRect,0.250000X-0.600000X-0.600000X0.600000X-0.600000X0.600000X0.600000X-0.600000X0.600000X0*%
%TD*%
%TA.AperFunction,ComponentPad*%
%ADD13C,1.700000*%
%TD*%
%TA.AperFunction,ComponentPad*%
%ADD14C,3.048000*%
%TD*%
%TA.AperFunction,ComponentPad*%
%ADD15C,4.700000*%
%TD*%
%TA.AperFunction,SMDPad,CuDef*%
%ADD16RoundRect,0.250000X-0.450000X0.350000X-0.450000X-0.350000X0.450000X-0.350000X0.450000X0.350000X0*%
%TD*%
%TA.AperFunction,SMDPad,CuDef*%
%ADD17RoundRect,0.250000X-0.475000X0.337500X-0.475000X-0.337500X0.475000X-0.337500X0.475000X0.337500X0*%
%TD*%
%TA.AperFunction,SMDPad,CuDef*%
%ADD18RoundRect,0.250000X0.450000X-0.350000X0.450000X0.350000X-0.450000X0.350000X-0.450000X-0.350000X0*%
%TD*%
%TA.AperFunction,SMDPad,CuDef*%
%ADD19RoundRect,0.250000X0.350000X0.450000X-0.350000X0.450000X-0.350000X-0.450000X0.350000X-0.450000X0*%
%TD*%
%TA.AperFunction,SMDPad,CuDef*%
%ADD20RoundRect,0.250000X-0.350000X-0.450000X0.350000X-0.450000X0.350000X0.450000X-0.350000X0.450000X0*%
%TD*%
%TA.AperFunction,SMDPad,CuDef*%
%ADD21RoundRect,0.250000X0.337500X0.475000X-0.337500X0.475000X-0.337500X-0.475000X0.337500X-0.475000X0*%
%TD*%
%TA.AperFunction,SMDPad,CuDef*%
%ADD22RoundRect,0.150000X0.675000X0.150000X-0.675000X0.150000X-0.675000X-0.150000X0.675000X-0.150000X0*%
%TD*%
%TA.AperFunction,SMDPad,CuDef*%
%ADD23RoundRect,0.150000X-0.150000X0.587500X-0.150000X-0.587500X0.150000X-0.587500X0.150000X0.587500X0*%
%TD*%
%TA.AperFunction,ViaPad*%
%ADD24C,0.600000*%
%TD*%
%TA.AperFunction,Conductor*%
%ADD25C,1.000000*%
%TD*%
%TA.AperFunction,Conductor*%
%ADD26C,0.200000*%
%TD*%
G04 APERTURE END LIST*
D10*
%TO.P,C2,1*%
%TO.N,+5V*%
X182000000Y-78847349D03*
D11*
%TO.P,C2,2*%
%TO.N,GND*%
X182000000Y-82347349D03*
%TD*%
D12*
%TO.P,J1,1,Pin_1*%
%TO.N,GND*%
X153980000Y-55860000D03*
D13*
%TO.P,J1,2,Pin_2*%
%TO.N,+5V*%
X156520000Y-55860000D03*
%TO.P,J1,3,Pin_3*%
%TO.N,GND*%
X153980000Y-58400000D03*
%TO.P,J1,4,Pin_4*%
%TO.N,+5V*%
X156520000Y-58400000D03*
%TO.P,J1,5,Pin_5*%
%TO.N,GND*%
X153980000Y-60940000D03*
%TO.P,J1,6,Pin_6*%
%TO.N,/CLK_OUT*%
X156520000Y-60940000D03*
%TO.P,J1,7,Pin_7*%
%TO.N,GND*%
X153980000Y-63480000D03*
%TO.P,J1,8,Pin_8*%
%TO.N,+5V*%
X156520000Y-63480000D03*
%TO.P,J1,9,Pin_9*%
%TO.N,GND*%
X153980000Y-66020000D03*
%TO.P,J1,10,Pin_10*%
%TO.N,+5V*%
X156520000Y-66020000D03*
%TO.P,J1,11,Pin_11*%
%TO.N,GND*%
X153980000Y-68560000D03*
%TO.P,J1,12,Pin_12*%
%TO.N,/SCL*%
X156520000Y-68560000D03*
%TO.P,J1,13,Pin_13*%
%TO.N,GND*%
X153980000Y-71100000D03*
%TO.P,J1,14,Pin_14*%
%TO.N,/SDA*%
X156520000Y-71100000D03*
%TO.P,J1,15,Pin_15*%
%TO.N,GND*%
X153980000Y-73640000D03*
%TO.P,J1,16,Pin_16*%
%TO.N,/SWIO*%
X156520000Y-73640000D03*
%TD*%
D10*
%TO.P,C8,1*%
%TO.N,/Vctrl*%
X164500000Y-78847349D03*
D11*
%TO.P,C8,2*%
%TO.N,GND*%
X164500000Y-82347349D03*
%TD*%
D14*
%TO.P,U4,1,Out*%
%TO.N,Net-(U4-Out)*%
X163650000Y-53650000D03*
%TO.P,U4,2,GND*%
%TO.N,GND*%
X163650000Y-63250000D03*
%TO.P,U4,3,Vctrl*%
%TO.N,/Vctrl*%
X163650000Y-72850000D03*
%TO.P,U4,4,NC*%
%TO.N,unconnected-(U4-NC-Pad4)*%
X182850000Y-72850000D03*
%TO.P,U4,5,Vcc*%
%TO.N,+5V*%
X182850000Y-53650000D03*
%TD*%
D15*
%TO.P,H1,1,1*%
%TO.N,GND*%
X153000000Y-82000000D03*
%TD*%
D10*
%TO.P,C6,1*%
%TO.N,Net-(C6-Pad1)*%
X173250000Y-78847349D03*
D11*
%TO.P,C6,2*%
%TO.N,GND*%
X173250000Y-82347349D03*
%TD*%
D16*
%TO.P,R5,1*%
%TO.N,Net-(Q1-D)*%
X171500000Y-74250000D03*
%TO.P,R5,2*%
%TO.N,Net-(C6-Pad1)*%
X171500000Y-76250000D03*
%TD*%
D17*
%TO.P,C3,1*%
%TO.N,+5V*%
X179750000Y-52462500D03*
%TO.P,C3,2*%
%TO.N,GND*%
X179750000Y-54537500D03*
%TD*%
D18*
%TO.P,R1,1*%
%TO.N,/ONEWIRE*%
X171250000Y-63750000D03*
%TO.P,R1,2*%
%TO.N,+5V*%
X171250000Y-61750000D03*
%TD*%
D17*
%TO.P,C7,1*%
%TO.N,+5V*%
X174037500Y-61712500D03*
%TO.P,C7,2*%
%TO.N,GND*%
X174037500Y-63787500D03*
%TD*%
D19*
%TO.P,R3,1*%
%TO.N,GND*%
X175750000Y-69750000D03*
%TO.P,R3,2*%
%TO.N,/PWM*%
X173750000Y-69750000D03*
%TD*%
%TO.P,R6,1*%
%TO.N,Net-(C6-Pad1)*%
X169750000Y-78750000D03*
%TO.P,R6,2*%
%TO.N,/Vctrl*%
X167750000Y-78750000D03*
%TD*%
D20*
%TO.P,R2,1*%
%TO.N,+5V*%
X176750000Y-63250000D03*
%TO.P,R2,2*%
%TO.N,Net-(U3-K)*%
X178750000Y-63250000D03*
%TD*%
D19*
%TO.P,R4,1*%
%TO.N,Net-(U3-K)*%
X175750000Y-76250000D03*
%TO.P,R4,2*%
%TO.N,Net-(C6-Pad1)*%
X173750000Y-76250000D03*
%TD*%
D21*
%TO.P,C1,1*%
%TO.N,+5V*%
X169037500Y-64000000D03*
%TO.P,C1,2*%
%TO.N,GND*%
X166962500Y-64000000D03*
%TD*%
D19*
%TO.P,R7,1*%
%TO.N,Net-(U4-Out)*%
X160500000Y-60500000D03*
%TO.P,R7,2*%
%TO.N,/CLK_OUT*%
X158500000Y-60500000D03*
%TD*%
D17*
%TO.P,C4,1*%
%TO.N,Net-(U3-K)*%
X179000000Y-79462500D03*
%TO.P,C4,2*%
%TO.N,GND*%
X179000000Y-81537500D03*
%TD*%
D22*
%TO.P,U1,1,PA1/PD6*%
%TO.N,/ONEWIRE*%
X170625000Y-66095000D03*
%TO.P,U1,2,VSS*%
%TO.N,GND*%
X170625000Y-67365000D03*
%TO.P,U1,3,PA2*%
%TO.N,unconnected-(U1-PA2-Pad3)*%
X170625000Y-68635000D03*
%TO.P,U1,4,VDD*%
%TO.N,+5V*%
X170625000Y-69905000D03*
%TO.P,U1,5,PC1*%
%TO.N,/SDA*%
X165375000Y-69905000D03*
%TO.P,U1,6,PC2*%
%TO.N,/SCL*%
X165375000Y-68635000D03*
%TO.P,U1,7,PC4*%
%TO.N,/PWM*%
X165375000Y-67365000D03*
%TO.P,U1,8,PD1/PD4/PD5*%
%TO.N,/SWIO*%
X165375000Y-66095000D03*
%TD*%
D17*
%TO.P,C5,1*%
%TO.N,Net-(U3-K)*%
X176250000Y-79462500D03*
%TO.P,C5,2*%
%TO.N,GND*%
X176250000Y-81537500D03*
%TD*%
D23*
%TO.P,Q1,1,G*%
%TO.N,/PWM*%
X173800000Y-72062500D03*
%TO.P,Q1,2,S*%
%TO.N,GND*%
X175700000Y-72062500D03*
%TO.P,Q1,3,D*%
%TO.N,Net-(Q1-D)*%
X174750000Y-73937500D03*
%TD*%
D24*
%TO.N,+5V*%
X173000000Y-59500000D03*
%TO.N,GND*%
X179750000Y-56250000D03*
X172500000Y-68000000D03*
%TO.N,Net-(U3-K)*%
X180250000Y-63250000D03*
%TO.N,/ONEWIRE*%
X171250000Y-65000000D03*
%TD*%
D25*
%TO.N,+5V*%
X171250000Y-51000000D02*
X179750000Y-51000000D01*
X156520000Y-63480000D02*
X156520000Y-66020000D01*
D26*
X170625000Y-69905000D02*
X169655000Y-69905000D01*
X169037500Y-69287500D02*
X169037500Y-64000000D01*
D25*
X161380000Y-51000000D02*
X171250000Y-51000000D01*
X181000000Y-51000000D02*
X182850000Y-52850000D01*
D26*
X171250000Y-61750000D02*
X171250000Y-51000000D01*
D25*
X183902651Y-78847349D02*
X182000000Y-78847349D01*
D26*
X171250000Y-61750000D02*
X173000000Y-61750000D01*
X169037500Y-64000000D02*
X169037500Y-63212500D01*
D25*
X185500000Y-55500000D02*
X185500000Y-77250000D01*
X185500000Y-77250000D02*
X183902651Y-78847349D01*
X156520000Y-55860000D02*
X161380000Y-51000000D01*
X179750000Y-51000000D02*
X181000000Y-51000000D01*
X156520000Y-55860000D02*
X156520000Y-58400000D01*
D26*
X169037500Y-63212500D02*
X170500000Y-61750000D01*
X173000000Y-59500000D02*
X173000000Y-61750000D01*
X173000000Y-61750000D02*
X175250000Y-61750000D01*
D25*
X183650000Y-53650000D02*
X185500000Y-55500000D01*
D26*
X170500000Y-61750000D02*
X171250000Y-61750000D01*
D25*
X182850000Y-53650000D02*
X183650000Y-53650000D01*
D26*
X175250000Y-61750000D02*
X176750000Y-63250000D01*
D25*
X179750000Y-52462500D02*
X179750000Y-51000000D01*
D26*
X169655000Y-69905000D02*
X169037500Y-69287500D01*
D25*
X182850000Y-52850000D02*
X182850000Y-53650000D01*
D26*
%TO.N,Net-(U3-K)*%
X175750000Y-76250000D02*
X176250000Y-76750000D01*
X179000000Y-79462500D02*
X176250000Y-79462500D01*
X178750000Y-63250000D02*
X180250000Y-63250000D01*
X178750000Y-63250000D02*
X179000000Y-63500000D01*
X179000000Y-63500000D02*
X179000000Y-79462500D01*
X176250000Y-76750000D02*
X176250000Y-79462500D01*
%TO.N,/Vctrl*%
X164500000Y-73700000D02*
X163650000Y-72850000D01*
X164597349Y-78750000D02*
X164500000Y-78847349D01*
X164500000Y-78847349D02*
X164500000Y-73700000D01*
X167750000Y-78750000D02*
X164597349Y-78750000D01*
%TO.N,/SDA*%
X157715000Y-69905000D02*
X156520000Y-71100000D01*
X165375000Y-69905000D02*
X157715000Y-69905000D01*
%TO.N,/SCL*%
X156595000Y-68635000D02*
X156520000Y-68560000D01*
X165375000Y-68635000D02*
X156595000Y-68635000D01*
%TO.N,/SWIO*%
X163250000Y-67250000D02*
X164405000Y-66095000D01*
X155250000Y-68000000D02*
X156000000Y-67250000D01*
X164405000Y-66095000D02*
X165375000Y-66095000D01*
X155250000Y-72370000D02*
X155250000Y-68000000D01*
X156000000Y-67250000D02*
X163250000Y-67250000D01*
X156520000Y-73640000D02*
X155250000Y-72370000D01*
%TO.N,/CLK_OUT*%
X156960000Y-60500000D02*
X156520000Y-60940000D01*
X158500000Y-60500000D02*
X156960000Y-60500000D01*
%TO.N,Net-(Q1-D)*%
X174750000Y-73937500D02*
X174437500Y-74250000D01*
X174437500Y-74250000D02*
X171500000Y-74250000D01*
%TO.N,/PWM*%
X165375000Y-67365000D02*
X166365000Y-67365000D01*
X166750000Y-67750000D02*
X166750000Y-70250000D01*
X173750000Y-69750000D02*
X173750000Y-72012500D01*
X168500000Y-72000000D02*
X173737500Y-72000000D01*
X173750000Y-72012500D02*
X173800000Y-72062500D01*
X173737500Y-72000000D02*
X173800000Y-72062500D01*
X166750000Y-70250000D02*
X168500000Y-72000000D01*
X166365000Y-67365000D02*
X166750000Y-67750000D01*
%TO.N,/ONEWIRE*%
X171250000Y-65470000D02*
X171250000Y-65000000D01*
X171250000Y-65000000D02*
X171250000Y-63750000D01*
X170625000Y-66095000D02*
X171250000Y-65470000D01*
%TO.N,Net-(U4-Out)*%
X162000000Y-55300000D02*
X163650000Y-53650000D01*
X160500000Y-60500000D02*
X160750000Y-60500000D01*
X160750000Y-60500000D02*
X162000000Y-59250000D01*
X162000000Y-59250000D02*
X162000000Y-55300000D01*
%TO.N,Net-(C6-Pad1)*%
X169750000Y-78750000D02*
X173152651Y-78750000D01*
X173750000Y-78347349D02*
X173250000Y-78847349D01*
X173750000Y-76250000D02*
X173750000Y-78347349D01*
X173152651Y-78750000D02*
X173250000Y-78847349D01*
X171500000Y-76250000D02*
X173750000Y-76250000D01*
%TD*%
%TA.AperFunction,Conductor*%
%TO.N,GND*%
G36*
X160585809Y-50520185D02*
G01*
X160631564Y-50572989D01*
X160641508Y-50642147D01*
X160612483Y-50705703D01*
X160606451Y-50712181D01*
X156595451Y-54723181D01*
X156534128Y-54756666D01*
X156507770Y-54759500D01*
X156418024Y-54759500D01*
X156217544Y-54796976D01*
X156217541Y-54796976D01*
X156217541Y-54796977D01*
X156027364Y-54870651D01*
X156027357Y-54870655D01*
X155853960Y-54978017D01*
X155853958Y-54978019D01*
X155703237Y-55115418D01*
X155580327Y-55278178D01*
X155489422Y-55460739D01*
X155489417Y-55460752D01*
X155433602Y-55656917D01*
X155414785Y-55859999D01*
X155414785Y-55860000D01*
X155433602Y-56063082D01*
X155489417Y-56259247D01*
X155489422Y-56259260D01*
X155580327Y-56441821D01*
X155703237Y-56604580D01*
X155729038Y-56628101D01*
X155765320Y-56687812D01*
X155769500Y-56719738D01*
X155769500Y-57540261D01*
X155749815Y-57607300D01*
X155729040Y-57631897D01*
X155703235Y-57655421D01*
X155580327Y-57818178D01*
X155489422Y-58000739D01*
X155489417Y-58000752D01*
X155433602Y-58196917D01*
X155414785Y-58399999D01*
X155414785Y-58400000D01*
X155433602Y-58603082D01*
X155489417Y-58799247D01*
X155489422Y-58799260D01*
X155580327Y-58981821D01*
X155703237Y-59144581D01*
X155853958Y-59281980D01*
X155853960Y-59281982D01*
X155876831Y-59296143D01*
X156027363Y-59389348D01*
X156217544Y-59463024D01*
X156418024Y-59500500D01*
X156418026Y-59500500D01*
X156621974Y-59500500D01*
X156621976Y-59500500D01*
X156822456Y-59463024D01*
X157012637Y-59389348D01*
X157186041Y-59281981D01*
X157336764Y-59144579D01*
X157459673Y-58981821D01*
X157550582Y-58799250D01*
X157606397Y-58603083D01*
X157625215Y-58400000D01*
X157606397Y-58196917D01*
X157550582Y-58000750D01*
X157459673Y-57818179D01*
X157336764Y-57655421D01*
X157310960Y-57631897D01*
X157274680Y-57572185D01*
X157270500Y-57540261D01*
X157270500Y-56719738D01*
X157290185Y-56652699D01*
X157310962Y-56628101D01*
X157321938Y-56618093D01*
X157336764Y-56604579D01*
X157459673Y-56441821D01*
X157550582Y-56259250D01*
X157606397Y-56063083D01*
X157625215Y-55860000D01*
X157625214Y-55859999D01*
X157625562Y-55856254D01*
X157651348Y-55791317D01*
X157661344Y-55780022D01*
X161654549Y-51786819D01*
X161715872Y-51753334D01*
X161742230Y-51750500D01*
X162965093Y-51750500D01*
X163032132Y-51770185D01*
X163077887Y-51822989D01*
X163087831Y-51892147D01*
X163058806Y-51955703D01*
X163004039Y-51991427D01*
X163004201Y-51991839D01*
X163002212Y-51992619D01*
X163001644Y-51992989D01*
X163000384Y-51993378D01*
X162999880Y-51993534D01*
X162760270Y-52108924D01*
X162760268Y-52108925D01*
X162540514Y-52258750D01*
X162345555Y-52439644D01*
X162179728Y-52647585D01*
X162046748Y-52877913D01*
X161949583Y-53125484D01*
X161949578Y-53125501D01*
X161890398Y-53384785D01*
X161870524Y-53649995D01*
X161870524Y-53650004D01*
X161890398Y-53915214D01*
X161890399Y-53915217D01*
X161949581Y-54174510D01*
X161949583Y-54174515D01*
X162046747Y-54422084D01*
X162121969Y-54552374D01*
X162138441Y-54620274D01*
X162115588Y-54686301D01*
X162102262Y-54702054D01*
X161719531Y-55084786D01*
X161719529Y-55084789D01*
X161685053Y-55144505D01*
X161685051Y-55144508D01*
X161673386Y-55164709D01*
X161649500Y-55253856D01*
X161649500Y-59053455D01*
X161629815Y-59120494D01*
X161613181Y-59141136D01*
X161189309Y-59565008D01*
X161127986Y-59598493D01*
X161058295Y-59593509D01*
X160957482Y-59555908D01*
X160957483Y-59555908D01*
X160897883Y-59549501D01*
X160897881Y-59549500D01*
X160897873Y-59549500D01*
X160897864Y-59549500D01*
X160102129Y-59549500D01*
X160102123Y-59549501D01*
X160042516Y-59555908D01*
X159907671Y-59606202D01*
X159907664Y-59606206D01*
X159792455Y-59692452D01*
X159792452Y-59692455D01*
X159706206Y-59807664D01*
X159706202Y-59807671D01*
X159655908Y-59942517D01*
X159651224Y-59986092D01*
X159649501Y-60002123D01*
X159649500Y-60002135D01*
X159649500Y-60997870D01*
X159649501Y-60997876D01*
X159655908Y-61057483D01*
X159706202Y-61192328D01*
X159706206Y-61192335D01*
X159792452Y-61307544D01*
X159792455Y-61307547D01*
X159907664Y-61393793D01*
X159907671Y-61393797D01*
X160042517Y-61444091D01*
X160042516Y-61444091D01*
X160049444Y-61444835D01*
X160102127Y-61450500D01*
X160897872Y-61450499D01*
X160957483Y-61444091D01*
X161092331Y-61393796D01*
X161207546Y-61307546D01*
X161293796Y-61192331D01*
X161344091Y-61057483D01*
X161350500Y-60997873D01*
X161350499Y-60446542D01*
X161370183Y-60379504D01*
X161386813Y-60358867D01*
X162280470Y-59465212D01*
X162326614Y-59385288D01*
X162332127Y-59364712D01*
X162350500Y-59296144D01*
X162350500Y-55496542D01*
X162370185Y-55429503D01*
X162386815Y-55408865D01*
X162595065Y-55200614D01*
X162656386Y-55167131D01*
X162726077Y-55172115D01*
X162752593Y-55185842D01*
X162760262Y-55191071D01*
X162999880Y-55306465D01*
X162999881Y-55306465D01*
X162999884Y-55306467D01*
X163254029Y-55384861D01*
X163254030Y-55384861D01*
X163254033Y-55384862D01*
X163517012Y-55424499D01*
X163517017Y-55424499D01*
X163517020Y-55424500D01*
X163517021Y-55424500D01*
X163782979Y-55424500D01*
X163782980Y-55424500D01*
X163782987Y-55424499D01*
X164045966Y-55384862D01*
X164045967Y-55384861D01*
X164045971Y-55384861D01*
X164300116Y-55306467D01*
X164539738Y-55191071D01*
X164759485Y-55041250D01*
X164954448Y-54860351D01*
X165120272Y-54652415D01*
X165253252Y-54422086D01*
X165350419Y-54174510D01*
X165409601Y-53915217D01*
X165429476Y-53650000D01*
X165420684Y-53532684D01*
X165409601Y-53384785D01*
X165409601Y-53384783D01*
X165350419Y-53125490D01*
X165253252Y-52877914D01*
X165120272Y-52647585D01*
X164954448Y-52439649D01*
X164954447Y-52439648D01*
X164954444Y-52439644D01*
X164759485Y-52258750D01*
X164539738Y-52108929D01*
X164539734Y-52108927D01*
X164539731Y-52108925D01*
X164539729Y-52108924D01*
X164300118Y-51993534D01*
X164300120Y-51993534D01*
X164299615Y-51993378D01*
X164298355Y-51992989D01*
X164297807Y-51992627D01*
X164295799Y-51991839D01*
X164295967Y-51991409D01*
X164240098Y-51954420D01*
X164211940Y-51890476D01*
X164222824Y-51821459D01*
X164269293Y-51769282D01*
X164334907Y-51750500D01*
X170775500Y-51750500D01*
X170842539Y-51770185D01*
X170888294Y-51822989D01*
X170899500Y-51874500D01*
X170899500Y-60775500D01*
X170879815Y-60842539D01*
X170827011Y-60888294D01*
X170775505Y-60899500D01*
X170752132Y-60899500D01*
X170752123Y-60899501D01*
X170692516Y-60905908D01*
X170557671Y-60956202D01*
X170557664Y-60956206D01*
X170442455Y-61042452D01*
X170442452Y-61042455D01*
X170356206Y-61157664D01*
X170356202Y-61157671D01*
X170305908Y-61292517D01*
X170299501Y-61352116D01*
X170299500Y-61352135D01*
X170299500Y-61403456D01*
X170279815Y-61470495D01*
X170263181Y-61491137D01*
X168766136Y-62988181D01*
X168704813Y-63021666D01*
X168678459Y-63024500D01*
X168652131Y-63024500D01*
X168652123Y-63024501D01*
X168592516Y-63030908D01*
X168457671Y-63081202D01*
X168457664Y-63081206D01*
X168342455Y-63167452D01*
X168342452Y-63167455D01*
X168256206Y-63282664D01*
X168256202Y-63282671D01*
X168205908Y-63417517D01*
X168199501Y-63477116D01*
X168199501Y-63477123D01*
X168199500Y-63477135D01*
X168199500Y-64522870D01*
X168199501Y-64522876D01*
X168205908Y-64582483D01*
X168256202Y-64717328D01*
X168256206Y-64717335D01*
X168342452Y-64832544D01*
X168342455Y-64832547D01*
X168457664Y-64918793D01*
X168457671Y-64918797D01*
X168599785Y-64971802D01*
X168599242Y-64973255D01*
X168652228Y-65003424D01*
X168684616Y-65065334D01*
X168687000Y-65089531D01*
X168687000Y-69333645D01*
X168704645Y-69399498D01*
X168710885Y-69422785D01*
X168710887Y-69422790D01*
X168757027Y-69502708D01*
X168757029Y-69502711D01*
X168757030Y-69502712D01*
X169439788Y-70185470D01*
X169496165Y-70218019D01*
X169519712Y-70231614D01*
X169548558Y-70239343D01*
X169608218Y-70275706D01*
X169616781Y-70286228D01*
X169621947Y-70293338D01*
X169621948Y-70293339D01*
X169621950Y-70293342D01*
X169711658Y-70383050D01*
X169824694Y-70440645D01*
X169824698Y-70440647D01*
X169918475Y-70455499D01*
X169918481Y-70455500D01*
X171331518Y-70455499D01*
X171425304Y-70440646D01*
X171538342Y-70383050D01*
X171628050Y-70293342D01*
X171685646Y-70180304D01*
X171685646Y-70180302D01*
X171685647Y-70180301D01*
X171700499Y-70086524D01*
X171700500Y-70086519D01*
X171700499Y-69723482D01*
X171685646Y-69629696D01*
X171628050Y-69516658D01*
X171628046Y-69516654D01*
X171628045Y-69516652D01*
X171538347Y-69426954D01*
X171538343Y-69426951D01*
X171538342Y-69426950D01*
X171530168Y-69422785D01*
X171447147Y-69380483D01*
X171396352Y-69332509D01*
X171379557Y-69264687D01*
X171402095Y-69198553D01*
X171447145Y-69159517D01*
X171538342Y-69113050D01*
X171628050Y-69023342D01*
X171685646Y-68910304D01*
X171685646Y-68910302D01*
X171685647Y-68910301D01*
X171700499Y-68816524D01*
X171700500Y-68816519D01*
X171700499Y-68453482D01*
X171685646Y-68359696D01*
X171628050Y-68246658D01*
X171628046Y-68246654D01*
X171628045Y-68246652D01*
X171538347Y-68156954D01*
X171538344Y-68156952D01*
X171538342Y-68156950D01*
X171447150Y-68110485D01*
X171425301Y-68099352D01*
X171331524Y-68084500D01*
X169918482Y-68084500D01*
X169837519Y-68097323D01*
X169824696Y-68099354D01*
X169711658Y-68156950D01*
X169711657Y-68156951D01*
X169711652Y-68156954D01*
X169621954Y-68246652D01*
X169616217Y-68254550D01*
X169614926Y-68253612D01*
X169574509Y-68296406D01*
X169506687Y-68313200D01*
X169440553Y-68290661D01*
X169397102Y-68235946D01*
X169388000Y-68189314D01*
X169388000Y-66540685D01*
X169407685Y-66473646D01*
X169460489Y-66427891D01*
X169529647Y-66417947D01*
X169593203Y-66446972D01*
X169615752Y-66475787D01*
X169616217Y-66475450D01*
X169621954Y-66483347D01*
X169711652Y-66573045D01*
X169711654Y-66573046D01*
X169711658Y-66573050D01*
X169824694Y-66630645D01*
X169824698Y-66630647D01*
X169918475Y-66645499D01*
X169918481Y-66645500D01*
X171331518Y-66645499D01*
X171425304Y-66630646D01*
X171538342Y-66573050D01*
X171628050Y-66483342D01*
X171685646Y-66370304D01*
X171685646Y-66370302D01*
X171685647Y-66370301D01*
X171700499Y-66276524D01*
X171700500Y-66276519D01*
X171700499Y-65913482D01*
X171685646Y-65819696D01*
X171628050Y-65706658D01*
X171628046Y-65706654D01*
X171628045Y-65706652D01*
X171616684Y-65695291D01*
X171583199Y-65633968D01*
X171584589Y-65575521D01*
X171600500Y-65516144D01*
X171600500Y-65486092D01*
X171620185Y-65419053D01*
X171638114Y-65399609D01*
X171636874Y-65398369D01*
X171642619Y-65392623D01*
X171642621Y-65392621D01*
X171730861Y-65277625D01*
X171786330Y-65143709D01*
X171805250Y-65000000D01*
X171786330Y-64856291D01*
X171744264Y-64754734D01*
X171736796Y-64685268D01*
X171768071Y-64622789D01*
X171815494Y-64591103D01*
X171942326Y-64543798D01*
X171942326Y-64543797D01*
X171942331Y-64543796D01*
X172057546Y-64457546D01*
X172143796Y-64342331D01*
X172194091Y-64207483D01*
X172200500Y-64147873D01*
X172200499Y-63352128D01*
X172194091Y-63292517D01*
X172178233Y-63250000D01*
X172143797Y-63157671D01*
X172143793Y-63157664D01*
X172057547Y-63042455D01*
X172057544Y-63042452D01*
X171942335Y-62956206D01*
X171942328Y-62956202D01*
X171807482Y-62905908D01*
X171807483Y-62905908D01*
X171747883Y-62899501D01*
X171747881Y-62899500D01*
X171747873Y-62899500D01*
X171747864Y-62899500D01*
X170752129Y-62899500D01*
X170752123Y-62899501D01*
X170692516Y-62905908D01*
X170557671Y-62956202D01*
X170557664Y-62956206D01*
X170442455Y-63042452D01*
X170442452Y-63042455D01*
X170356206Y-63157664D01*
X170356202Y-63157671D01*
X170305908Y-63292517D01*
X170299501Y-63352116D01*
X170299501Y-63352123D01*
X170299500Y-63352135D01*
X170299500Y-64147870D01*
X170299501Y-64147876D01*
X170305908Y-64207483D01*
X170356202Y-64342328D01*
X170356206Y-64342335D01*
X170442452Y-64457544D01*
X170442455Y-64457547D01*
X170557664Y-64543793D01*
X170557671Y-64543797D01*
X170684506Y-64591103D01*
X170740440Y-64632974D01*
X170764857Y-64698438D01*
X170755734Y-64754737D01*
X170713671Y-64856287D01*
X170713670Y-64856291D01*
X170694750Y-64999999D01*
X170694750Y-65000000D01*
X170713670Y-65143708D01*
X170713671Y-65143712D01*
X170769138Y-65277623D01*
X170769139Y-65277625D01*
X170780028Y-65291816D01*
X170805222Y-65356985D01*
X170791183Y-65425430D01*
X170769333Y-65454983D01*
X170716135Y-65508181D01*
X170654812Y-65541666D01*
X170628454Y-65544500D01*
X169918482Y-65544500D01*
X169837519Y-65557323D01*
X169824696Y-65559354D01*
X169711658Y-65616950D01*
X169711657Y-65616951D01*
X169711652Y-65616954D01*
X169621954Y-65706652D01*
X169616217Y-65714550D01*
X169614926Y-65713612D01*
X169574509Y-65756406D01*
X169506687Y-65773200D01*
X169440553Y-65750661D01*
X169397102Y-65695946D01*
X169388000Y-65649314D01*
X169388000Y-65089531D01*
X169407685Y-65022492D01*
X169460489Y-64976737D01*
X169478951Y-64970408D01*
X169482481Y-64969091D01*
X169482483Y-64969091D01*
X169617331Y-64918796D01*
X169732546Y-64832546D01*
X169818796Y-64717331D01*
X169869091Y-64582483D01*
X169875500Y-64522873D01*
X169875499Y-63477128D01*
X169869091Y-63417517D01*
X169860212Y-63393712D01*
X169818797Y-63282671D01*
X169818793Y-63282664D01*
X169730871Y-63165216D01*
X169706453Y-63099752D01*
X169721304Y-63031479D01*
X169742453Y-63003227D01*
X170278224Y-62467455D01*
X170339547Y-62433971D01*
X170409239Y-62438955D01*
X170440216Y-62455871D01*
X170557664Y-62543793D01*
X170557671Y-62543797D01*
X170692517Y-62594091D01*
X170692516Y-62594091D01*
X170699444Y-62594835D01*
X170752127Y-62600500D01*
X171747872Y-62600499D01*
X171807483Y-62594091D01*
X171942331Y-62543796D01*
X172057546Y-62457546D01*
X172143796Y-62342331D01*
X172194091Y-62207483D01*
X172194091Y-62207481D01*
X172195874Y-62199938D01*
X172198146Y-62200474D01*
X172220429Y-62146688D01*
X172277823Y-62106843D01*
X172316976Y-62100500D01*
X172953856Y-62100500D01*
X172961060Y-62100500D01*
X173028099Y-62120185D01*
X173073854Y-62172989D01*
X173077242Y-62181167D01*
X173118702Y-62292328D01*
X173118706Y-62292335D01*
X173204952Y-62407544D01*
X173204955Y-62407547D01*
X173320164Y-62493793D01*
X173320171Y-62493797D01*
X173455017Y-62544091D01*
X173455016Y-62544091D01*
X173461944Y-62544835D01*
X173514627Y-62550500D01*
X174560372Y-62550499D01*
X174619983Y-62544091D01*
X174754831Y-62493796D01*
X174870046Y-62407546D01*
X174956296Y-62292331D01*
X174981327Y-62225220D01*
X175023198Y-62169286D01*
X175088662Y-62144869D01*
X175156935Y-62159720D01*
X175185190Y-62180872D01*
X175863181Y-62858862D01*
X175896666Y-62920185D01*
X175899500Y-62946543D01*
X175899500Y-63747870D01*
X175899501Y-63747876D01*
X175905908Y-63807483D01*
X175956202Y-63942328D01*
X175956206Y-63942335D01*
X176042452Y-64057544D01*
X176042455Y-64057547D01*
X176157664Y-64143793D01*
X176157671Y-64143797D01*
X176292517Y-64194091D01*
X176292516Y-64194091D01*
X176299444Y-64194835D01*
X176352127Y-64200500D01*
X177147872Y-64200499D01*
X177207483Y-64194091D01*
X177342331Y-64143796D01*
X177457546Y-64057546D01*
X177543796Y-63942331D01*
X177594091Y-63807483D01*
X177600500Y-63747873D01*
X177600499Y-62752128D01*
X177594091Y-62692517D01*
X177543796Y-62557669D01*
X177543795Y-62557668D01*
X177543793Y-62557664D01*
X177457547Y-62442455D01*
X177457544Y-62442452D01*
X177342335Y-62356206D01*
X177342328Y-62356202D01*
X177207482Y-62305908D01*
X177207483Y-62305908D01*
X177147883Y-62299501D01*
X177147881Y-62299500D01*
X177147873Y-62299500D01*
X177147864Y-62299500D01*
X176348808Y-62299501D01*
X176348808Y-62298380D01*
X176285290Y-62283365D01*
X176258978Y-62263297D01*
X175465213Y-61469531D01*
X175465208Y-61469527D01*
X175385290Y-61423387D01*
X175385289Y-61423386D01*
X175385288Y-61423386D01*
X175296144Y-61399500D01*
X175296143Y-61399500D01*
X175132164Y-61399500D01*
X175065125Y-61379815D01*
X175019370Y-61327011D01*
X175008874Y-61288754D01*
X175008670Y-61286857D01*
X175006591Y-61267517D01*
X174956296Y-61132669D01*
X174956295Y-61132668D01*
X174956293Y-61132664D01*
X174870047Y-61017455D01*
X174870044Y-61017452D01*
X174754835Y-60931206D01*
X174754828Y-60931202D01*
X174619982Y-60880908D01*
X174619983Y-60880908D01*
X174560383Y-60874501D01*
X174560381Y-60874500D01*
X174560373Y-60874500D01*
X174560364Y-60874500D01*
X173514629Y-60874500D01*
X173514615Y-60874501D01*
X173487750Y-60877389D01*
X173418991Y-60864981D01*
X173367856Y-60817368D01*
X173350500Y-60754099D01*
X173350500Y-59986092D01*
X173370185Y-59919053D01*
X173388114Y-59899609D01*
X173386874Y-59898369D01*
X173392619Y-59892623D01*
X173404625Y-59876977D01*
X173480861Y-59777625D01*
X173536330Y-59643709D01*
X173555250Y-59500000D01*
X173536330Y-59356291D01*
X173480861Y-59222375D01*
X173392621Y-59107379D01*
X173277625Y-59019139D01*
X173277624Y-59019138D01*
X173277622Y-59019137D01*
X173143712Y-58963671D01*
X173143710Y-58963670D01*
X173143709Y-58963670D01*
X173071854Y-58954210D01*
X173000001Y-58944750D01*
X172999999Y-58944750D01*
X172856291Y-58963670D01*
X172856287Y-58963671D01*
X172722377Y-59019137D01*
X172607379Y-59107379D01*
X172519137Y-59222377D01*
X172463671Y-59356287D01*
X172463670Y-59356291D01*
X172444750Y-59499999D01*
X172444750Y-59500000D01*
X172463670Y-59643708D01*
X172463671Y-59643712D01*
X172519138Y-59777623D01*
X172519139Y-59777625D01*
X172607380Y-59892623D01*
X172613126Y-59898369D01*
X172610574Y-59900920D01*
X172642091Y-59943873D01*
X172649500Y-59986092D01*
X172649500Y-61275500D01*
X172629815Y-61342539D01*
X172577011Y-61388294D01*
X172525500Y-61399500D01*
X172316977Y-61399500D01*
X172249938Y-61379815D01*
X172204183Y-61327011D01*
X172196733Y-61299865D01*
X172195876Y-61300068D01*
X172194092Y-61292520D01*
X172143797Y-61157671D01*
X172143793Y-61157664D01*
X172057547Y-61042455D01*
X172057544Y-61042452D01*
X171942335Y-60956206D01*
X171942328Y-60956202D01*
X171807482Y-60905908D01*
X171807483Y-60905908D01*
X171747883Y-60899501D01*
X171747881Y-60899500D01*
X171747873Y-60899500D01*
X171747865Y-60899500D01*
X171724500Y-60899500D01*
X171657461Y-60879815D01*
X171611706Y-60827011D01*
X171600500Y-60775500D01*
X171600500Y-51874500D01*
X171620185Y-51807461D01*
X171672989Y-51761706D01*
X171724500Y-51750500D01*
X178701906Y-51750500D01*
X178768945Y-51770185D01*
X178814700Y-51822989D01*
X178824644Y-51892147D01*
X178818088Y-51917833D01*
X178789854Y-51993533D01*
X178780909Y-52017517D01*
X178774500Y-52077127D01*
X178774500Y-52077134D01*
X178774500Y-52077135D01*
X178774500Y-52847870D01*
X178774501Y-52847876D01*
X178780908Y-52907483D01*
X178831202Y-53042328D01*
X178831206Y-53042335D01*
X178917452Y-53157544D01*
X178917455Y-53157547D01*
X179032664Y-53243793D01*
X179032671Y-53243797D01*
X179167517Y-53294091D01*
X179167516Y-53294091D01*
X179174444Y-53294835D01*
X179227127Y-53300500D01*
X180272872Y-53300499D01*
X180332483Y-53294091D01*
X180467331Y-53243796D01*
X180582546Y-53157546D01*
X180668796Y-53042331D01*
X180719091Y-52907483D01*
X180725500Y-52847873D01*
X180725499Y-52086227D01*
X180745183Y-52019189D01*
X180797987Y-51973434D01*
X180867146Y-51963490D01*
X180930702Y-51992515D01*
X180937170Y-51998537D01*
X181197383Y-52258750D01*
X181392983Y-52454350D01*
X181426468Y-52515673D01*
X181421484Y-52585365D01*
X181402250Y-52619342D01*
X181379729Y-52647582D01*
X181246748Y-52877913D01*
X181149583Y-53125484D01*
X181149578Y-53125501D01*
X181090398Y-53384785D01*
X181070524Y-53649995D01*
X181070524Y-53650004D01*
X181090398Y-53915214D01*
X181090399Y-53915217D01*
X181149581Y-54174510D01*
X181246748Y-54422086D01*
X181379728Y-54652415D01*
X181458797Y-54751564D01*
X181545555Y-54860355D01*
X181672366Y-54978017D01*
X181740515Y-55041250D01*
X181960262Y-55191071D01*
X182199880Y-55306465D01*
X182199881Y-55306465D01*
X182199884Y-55306467D01*
X182454029Y-55384861D01*
X182454030Y-55384861D01*
X182454033Y-55384862D01*
X182717012Y-55424499D01*
X182717017Y-55424499D01*
X182717020Y-55424500D01*
X182717021Y-55424500D01*
X182982979Y-55424500D01*
X182982980Y-55424500D01*
X182982987Y-55424499D01*
X183245966Y-55384862D01*
X183245967Y-55384861D01*
X183245971Y-55384861D01*
X183500116Y-55306467D01*
X183739738Y-55191071D01*
X183886728Y-55090854D01*
X183953206Y-55069354D01*
X184020756Y-55087208D01*
X184044260Y-55105627D01*
X184713181Y-55774548D01*
X184746666Y-55835871D01*
X184749500Y-55862229D01*
X184749500Y-72177386D01*
X184729815Y-72244425D01*
X184677011Y-72290180D01*
X184607853Y-72300124D01*
X184544297Y-72271099D01*
X184510072Y-72222688D01*
X184501364Y-72200500D01*
X184453252Y-72077914D01*
X184320272Y-71847585D01*
X184154448Y-71639649D01*
X184154447Y-71639648D01*
X184154444Y-71639644D01*
X183959485Y-71458750D01*
X183937081Y-71443475D01*
X183739738Y-71308929D01*
X183739734Y-71308927D01*
X183739731Y-71308925D01*
X183739729Y-71308924D01*
X183500118Y-71193534D01*
X183500120Y-71193534D01*
X183245972Y-71115139D01*
X183245966Y-71115137D01*
X182982987Y-71075500D01*
X182982980Y-71075500D01*
X182717020Y-71075500D01*
X182717012Y-71075500D01*
X182454033Y-71115137D01*
X182454027Y-71115139D01*
X182199880Y-71193534D01*
X181960270Y-71308924D01*
X181960268Y-71308925D01*
X181740514Y-71458750D01*
X181545555Y-71639644D01*
X181379728Y-71847585D01*
X181246748Y-72077913D01*
X181149583Y-72325484D01*
X181149578Y-72325501D01*
X181090398Y-72584785D01*
X181070524Y-72849995D01*
X181070524Y-72850004D01*
X181090398Y-73115214D01*
X181136793Y-73318482D01*
X181149581Y-73374510D01*
X181246748Y-73622086D01*
X181379728Y-73852415D01*
X181513661Y-74020361D01*
X181545555Y-74060355D01*
X181609839Y-74120001D01*
X181740515Y-74241250D01*
X181960262Y-74391071D01*
X182199880Y-74506465D01*
X182199881Y-74506465D01*
X182199884Y-74506467D01*
X182454029Y-74584861D01*
X182454030Y-74584861D01*
X182454033Y-74584862D01*
X182717012Y-74624499D01*
X182717017Y-74624499D01*
X182717020Y-74624500D01*
X182717021Y-74624500D01*
X182982979Y-74624500D01*
X182982980Y-74624500D01*
X183011609Y-74620185D01*
X183245966Y-74584862D01*
X183245967Y-74584861D01*
X183245971Y-74584861D01*
X183500116Y-74506467D01*
X183739738Y-74391071D01*
X183959485Y-74241250D01*
X184154448Y-74060351D01*
X184320272Y-73852415D01*
X184453252Y-73622086D01*
X184510072Y-73477310D01*
X184552888Y-73422097D01*
X184618758Y-73398796D01*
X184686768Y-73414807D01*
X184735327Y-73465045D01*
X184749500Y-73522613D01*
X184749500Y-76887770D01*
X184729815Y-76954809D01*
X184713181Y-76975451D01*
X183628102Y-78060530D01*
X183566779Y-78094015D01*
X183540421Y-78096849D01*
X183167019Y-78096849D01*
X183099980Y-78077164D01*
X183054225Y-78024360D01*
X183045402Y-77997041D01*
X183035967Y-77949612D01*
X183035966Y-77949609D01*
X183031184Y-77942452D01*
X182980601Y-77866748D01*
X182905608Y-77816640D01*
X182897739Y-77811382D01*
X182897735Y-77811381D01*
X182824677Y-77796849D01*
X182824674Y-77796849D01*
X181175326Y-77796849D01*
X181175323Y-77796849D01*
X181102264Y-77811381D01*
X181102260Y-77811382D01*
X181019399Y-77866748D01*
X180964033Y-77949609D01*
X180964032Y-77949613D01*
X180949500Y-78022670D01*
X180949500Y-79672027D01*
X180964032Y-79745084D01*
X180964033Y-79745088D01*
X180964034Y-79745089D01*
X181019399Y-79827950D01*
X181102260Y-79883315D01*
X181102264Y-79883316D01*
X181175321Y-79897848D01*
X181175324Y-79897849D01*
X181175326Y-79897849D01*
X182824676Y-79897849D01*
X182824677Y-79897848D01*
X182897740Y-79883315D01*
X182980601Y-79827950D01*
X183035966Y-79745089D01*
X183035967Y-79745084D01*
X183045402Y-79697657D01*
X183077788Y-79635746D01*
X183138504Y-79601172D01*
X183167019Y-79597849D01*
X183976571Y-79597849D01*
X184074113Y-79578445D01*
X184121564Y-79569007D01*
X184258146Y-79512433D01*
X184317386Y-79472850D01*
X184381067Y-79430301D01*
X185787819Y-78023547D01*
X185849142Y-77990063D01*
X185918834Y-77995047D01*
X185974767Y-78036919D01*
X185999184Y-78102383D01*
X185999500Y-78111229D01*
X185999500Y-84375500D01*
X185979815Y-84442539D01*
X185927011Y-84488294D01*
X185875500Y-84499500D01*
X150624500Y-84499500D01*
X150557461Y-84479815D01*
X150511706Y-84427011D01*
X150500500Y-84375500D01*
X150500500Y-72416143D01*
X154899500Y-72416143D01*
X154920497Y-72494506D01*
X154923385Y-72505288D01*
X154969527Y-72585208D01*
X154969531Y-72585213D01*
X155471422Y-73087104D01*
X155504907Y-73148427D01*
X155499923Y-73218119D01*
X155494745Y-73230049D01*
X155489419Y-73240745D01*
X155489419Y-73240746D01*
X155433602Y-73436917D01*
X155414785Y-73639999D01*
X155414785Y-73640000D01*
X155433602Y-73843082D01*
X155489417Y-74039247D01*
X155489422Y-74039260D01*
X155580327Y-74221821D01*
X155703237Y-74384581D01*
X155853958Y-74521980D01*
X155853960Y-74521982D01*
X155903937Y-74552926D01*
X156027363Y-74629348D01*
X156217544Y-74703024D01*
X156418024Y-74740500D01*
X156418026Y-74740500D01*
X156621974Y-74740500D01*
X156621976Y-74740500D01*
X156822456Y-74703024D01*
X157012637Y-74629348D01*
X157186041Y-74521981D01*
X157336764Y-74384579D01*
X157459673Y-74221821D01*
X157550582Y-74039250D01*
X157606397Y-73843083D01*
X157625215Y-73640000D01*
X157606397Y-73436917D01*
X157550582Y-73240750D01*
X157539313Y-73218119D01*
X157474076Y-73087104D01*
X157459673Y-73058179D01*
X157336764Y-72895421D01*
X157336762Y-72895418D01*
X157286945Y-72850004D01*
X161870524Y-72850004D01*
X161890398Y-73115214D01*
X161936793Y-73318482D01*
X161949581Y-73374510D01*
X162046748Y-73622086D01*
X162179728Y-73852415D01*
X162313661Y-74020361D01*
X162345555Y-74060355D01*
X162409839Y-74120001D01*
X162540515Y-74241250D01*
X162760262Y-74391071D01*
X162999880Y-74506465D01*
X162999881Y-74506465D01*
X162999884Y-74506467D01*
X163254029Y-74584861D01*
X163254030Y-74584861D01*
X163254033Y-74584862D01*
X163517012Y-74624499D01*
X163517017Y-74624499D01*
X163517020Y-74624500D01*
X163517021Y-74624500D01*
X163782979Y-74624500D01*
X163782980Y-74624500D01*
X164007019Y-74590732D01*
X164076243Y-74600205D01*
X164129357Y-74645600D01*
X164149497Y-74712504D01*
X164149500Y-74713347D01*
X164149500Y-77672849D01*
X164129815Y-77739888D01*
X164077011Y-77785643D01*
X164025500Y-77796849D01*
X163675323Y-77796849D01*
X163602264Y-77811381D01*
X163602260Y-77811382D01*
X163519399Y-77866748D01*
X163464033Y-77949609D01*
X163464032Y-77949613D01*
X163449500Y-78022670D01*
X163449500Y-79672027D01*
X163464032Y-79745084D01*
X163464033Y-79745088D01*
X163464034Y-79745089D01*
X163519399Y-79827950D01*
X163602260Y-79883315D01*
X163602264Y-79883316D01*
X163675321Y-79897848D01*
X163675324Y-79897849D01*
X163675326Y-79897849D01*
X165324676Y-79897849D01*
X165324677Y-79897848D01*
X165397740Y-79883315D01*
X165480601Y-79827950D01*
X165535966Y-79745089D01*
X165550500Y-79672023D01*
X165550500Y-79224500D01*
X165570185Y-79157461D01*
X165622989Y-79111706D01*
X165674500Y-79100500D01*
X166775501Y-79100500D01*
X166842540Y-79120185D01*
X166888295Y-79172989D01*
X166899501Y-79224500D01*
X166899501Y-79247876D01*
X166905908Y-79307483D01*
X166956202Y-79442328D01*
X166956206Y-79442335D01*
X167042452Y-79557544D01*
X167042455Y-79557547D01*
X167157664Y-79643793D01*
X167157671Y-79643797D01*
X167292517Y-79694091D01*
X167292516Y-79694091D01*
X167299444Y-79694835D01*
X167352127Y-79700500D01*
X168147872Y-79700499D01*
X168207483Y-79694091D01*
X168342331Y-79643796D01*
X168457546Y-79557546D01*
X168543796Y-79442331D01*
X168594091Y-79307483D01*
X168600500Y-79247873D01*
X168600500Y-79247870D01*
X168899500Y-79247870D01*
X168899501Y-79247876D01*
X168905908Y-79307483D01*
X168956202Y-79442328D01*
X168956206Y-79442335D01*
X169042452Y-79557544D01*
X169042455Y-79557547D01*
X169157664Y-79643793D01*
X169157671Y-79643797D01*
X169292517Y-79694091D01*
X169292516Y-79694091D01*
X169299444Y-79694835D01*
X169352127Y-79700500D01*
X170147872Y-79700499D01*
X170207483Y-79694091D01*
X170342331Y-79643796D01*
X170457546Y-79557546D01*
X170543796Y-79442331D01*
X170594091Y-79307483D01*
X170600500Y-79247873D01*
X170600500Y-79224500D01*
X170620185Y-79157461D01*
X170672989Y-79111706D01*
X170724500Y-79100500D01*
X172075500Y-79100500D01*
X172142539Y-79120185D01*
X172188294Y-79172989D01*
X172199500Y-79224500D01*
X172199500Y-79672027D01*
X172214032Y-79745084D01*
X172214033Y-79745088D01*
X172214034Y-79745089D01*
X172269399Y-79827950D01*
X172352260Y-79883315D01*
X172352264Y-79883316D01*
X172425321Y-79897848D01*
X172425324Y-79897849D01*
X172425326Y-79897849D01*
X174074676Y-79897849D01*
X174074677Y-79897848D01*
X174147740Y-79883315D01*
X174230601Y-79827950D01*
X174285966Y-79745089D01*
X174300500Y-79672023D01*
X174300500Y-78022675D01*
X174300500Y-78022672D01*
X174300499Y-78022670D01*
X174285967Y-77949613D01*
X174285966Y-77949609D01*
X174230600Y-77866747D01*
X174155609Y-77816640D01*
X174110804Y-77763028D01*
X174100500Y-77713538D01*
X174100500Y-77316976D01*
X174120185Y-77249937D01*
X174172989Y-77204182D01*
X174200135Y-77196736D01*
X174199932Y-77195876D01*
X174207479Y-77194092D01*
X174207481Y-77194091D01*
X174207483Y-77194091D01*
X174342331Y-77143796D01*
X174457546Y-77057546D01*
X174543796Y-76942331D01*
X174594091Y-76807483D01*
X174600500Y-76747873D01*
X174600500Y-76747870D01*
X174899500Y-76747870D01*
X174899501Y-76747876D01*
X174905908Y-76807483D01*
X174956202Y-76942328D01*
X174956206Y-76942335D01*
X175042452Y-77057544D01*
X175042455Y-77057547D01*
X175157664Y-77143793D01*
X175157671Y-77143797D01*
X175202618Y-77160561D01*
X175292517Y-77194091D01*
X175352127Y-77200500D01*
X175775500Y-77200499D01*
X175842539Y-77220183D01*
X175888294Y-77272987D01*
X175899500Y-77324499D01*
X175899500Y-78500500D01*
X175879815Y-78567539D01*
X175827011Y-78613294D01*
X175775502Y-78624500D01*
X175727131Y-78624500D01*
X175727123Y-78624501D01*
X175667516Y-78630908D01*
X175532671Y-78681202D01*
X175532664Y-78681206D01*
X175417455Y-78767452D01*
X175417452Y-78767455D01*
X175331206Y-78882664D01*
X175331202Y-78882671D01*
X175280910Y-79017513D01*
X175280909Y-79017517D01*
X175274500Y-79077127D01*
X175274500Y-79077134D01*
X175274500Y-79077135D01*
X175274500Y-79847870D01*
X175274501Y-79847876D01*
X175280908Y-79907483D01*
X175331202Y-80042328D01*
X175331206Y-80042335D01*
X175417452Y-80157544D01*
X175417455Y-80157547D01*
X175532664Y-80243793D01*
X175532671Y-80243797D01*
X175667517Y-80294091D01*
X175667516Y-80294091D01*
X175674444Y-80294835D01*
X175727127Y-80300500D01*
X176772872Y-80300499D01*
X176832483Y-80294091D01*
X176967331Y-80243796D01*
X177082546Y-80157546D01*
X177168796Y-80042331D01*
X177219091Y-79907483D01*
X177219090Y-79907483D01*
X177221802Y-79900215D01*
X177223255Y-79900757D01*
X177253424Y-79847772D01*
X177315334Y-79815384D01*
X177339531Y-79813000D01*
X177910469Y-79813000D01*
X177977508Y-79832685D01*
X178023263Y-79885489D01*
X178029591Y-79903951D01*
X178081202Y-80042328D01*
X178081206Y-80042335D01*
X178167452Y-80157544D01*
X178167455Y-80157547D01*
X178282664Y-80243793D01*
X178282671Y-80243797D01*
X178417517Y-80294091D01*
X178417516Y-80294091D01*
X178424444Y-80294835D01*
X178477127Y-80300500D01*
X179522872Y-80300499D01*
X179582483Y-80294091D01*
X179717331Y-80243796D01*
X179832546Y-80157546D01*
X179918796Y-80042331D01*
X179969091Y-79907483D01*
X179975500Y-79847873D01*
X179975499Y-79077128D01*
X179969091Y-79017517D01*
X179918796Y-78882669D01*
X179918795Y-78882668D01*
X179918793Y-78882664D01*
X179832547Y-78767455D01*
X179832544Y-78767452D01*
X179717335Y-78681206D01*
X179717328Y-78681202D01*
X179582482Y-78630908D01*
X179582483Y-78630908D01*
X179522883Y-78624501D01*
X179522881Y-78624500D01*
X179522873Y-78624500D01*
X179522865Y-78624500D01*
X179474500Y-78624500D01*
X179407461Y-78604815D01*
X179361706Y-78552011D01*
X179350500Y-78500500D01*
X179350500Y-64199749D01*
X179370185Y-64132710D01*
X179400190Y-64100482D01*
X179451835Y-64061821D01*
X179457546Y-64057546D01*
X179543796Y-63942331D01*
X179594091Y-63807483D01*
X179600500Y-63747873D01*
X179600500Y-63724500D01*
X179620185Y-63657461D01*
X179672989Y-63611706D01*
X179724500Y-63600500D01*
X179763908Y-63600500D01*
X179830947Y-63620185D01*
X179850412Y-63638086D01*
X179851628Y-63636871D01*
X179857372Y-63642615D01*
X179857377Y-63642619D01*
X179857379Y-63642621D01*
X179972375Y-63730861D01*
X180106291Y-63786330D01*
X180233280Y-63803048D01*
X180249999Y-63805250D01*
X180250000Y-63805250D01*
X180250001Y-63805250D01*
X180264977Y-63803278D01*
X180393709Y-63786330D01*
X180527625Y-63730861D01*
X180642621Y-63642621D01*
X180730861Y-63527625D01*
X180786330Y-63393709D01*
X180805250Y-63250000D01*
X180786330Y-63106291D01*
X180730861Y-62972375D01*
X180642621Y-62857379D01*
X180527625Y-62769139D01*
X180527624Y-62769138D01*
X180527622Y-62769137D01*
X180393712Y-62713671D01*
X180393710Y-62713670D01*
X180393709Y-62713670D01*
X180321854Y-62704210D01*
X180250001Y-62694750D01*
X180249999Y-62694750D01*
X180106291Y-62713670D01*
X180106287Y-62713671D01*
X179972377Y-62769137D01*
X179857372Y-62857384D01*
X179851628Y-62863129D01*
X179849111Y-62860612D01*
X179805817Y-62892203D01*
X179763908Y-62899500D01*
X179724499Y-62899500D01*
X179657460Y-62879815D01*
X179611705Y-62827011D01*
X179600499Y-62775500D01*
X179600499Y-62752129D01*
X179600498Y-62752123D01*
X179600497Y-62752116D01*
X179594091Y-62692517D01*
X179543796Y-62557669D01*
X179543795Y-62557668D01*
X179543793Y-62557664D01*
X179457547Y-62442455D01*
X179457544Y-62442452D01*
X179342335Y-62356206D01*
X179342328Y-62356202D01*
X179207482Y-62305908D01*
X179207483Y-62305908D01*
X179147883Y-62299501D01*
X179147881Y-62299500D01*
X179147873Y-62299500D01*
X179147864Y-62299500D01*
X178352129Y-62299500D01*
X178352123Y-62299501D01*
X178292516Y-62305908D01*
X178157671Y-62356202D01*
X178157664Y-62356206D01*
X178042455Y-62442452D01*
X178042452Y-62442455D01*
X177956206Y-62557664D01*
X177956202Y-62557671D01*
X177905908Y-62692517D01*
X177901296Y-62735418D01*
X177899501Y-62752123D01*
X177899500Y-62752135D01*
X177899500Y-63747870D01*
X177899501Y-63747876D01*
X177905908Y-63807483D01*
X177956202Y-63942328D01*
X177956206Y-63942335D01*
X178042452Y-64057544D01*
X178042455Y-64057547D01*
X178157664Y-64143793D01*
X178157671Y-64143797D01*
X178202618Y-64160561D01*
X178292517Y-64194091D01*
X178352127Y-64200500D01*
X178525500Y-64200499D01*
X178592539Y-64220183D01*
X178638294Y-64272987D01*
X178649500Y-64324499D01*
X178649500Y-78500500D01*
X178629815Y-78567539D01*
X178577011Y-78613294D01*
X178525502Y-78624500D01*
X178477131Y-78624500D01*
X178477123Y-78624501D01*
X178417516Y-78630908D01*
X178282671Y-78681202D01*
X178282664Y-78681206D01*
X178167455Y-78767452D01*
X178167452Y-78767455D01*
X178081206Y-78882664D01*
X178081202Y-78882671D01*
X178028198Y-79024785D01*
X178026744Y-79024242D01*
X177996576Y-79077228D01*
X177934666Y-79109616D01*
X177910469Y-79112000D01*
X177339531Y-79112000D01*
X177272492Y-79092315D01*
X177226737Y-79039511D01*
X177220408Y-79021048D01*
X177168797Y-78882671D01*
X177168793Y-78882664D01*
X177082547Y-78767455D01*
X177082544Y-78767452D01*
X176967335Y-78681206D01*
X176967328Y-78681202D01*
X176832482Y-78630908D01*
X176832483Y-78630908D01*
X176772883Y-78624501D01*
X176772881Y-78624500D01*
X176772873Y-78624500D01*
X176772865Y-78624500D01*
X176724500Y-78624500D01*
X176657461Y-78604815D01*
X176611706Y-78552011D01*
X176600500Y-78500500D01*
X176600500Y-76679194D01*
X176600499Y-76679188D01*
X176600499Y-75752129D01*
X176600498Y-75752123D01*
X176600497Y-75752116D01*
X176594091Y-75692517D01*
X176581094Y-75657671D01*
X176543797Y-75557671D01*
X176543793Y-75557664D01*
X176457547Y-75442455D01*
X176457544Y-75442452D01*
X176342335Y-75356206D01*
X176342328Y-75356202D01*
X176207482Y-75305908D01*
X176207483Y-75305908D01*
X176147883Y-75299501D01*
X176147881Y-75299500D01*
X176147873Y-75299500D01*
X176147864Y-75299500D01*
X175352129Y-75299500D01*
X175352123Y-75299501D01*
X175292516Y-75305908D01*
X175157671Y-75356202D01*
X175157664Y-75356206D01*
X175042455Y-75442452D01*
X175042452Y-75442455D01*
X174956206Y-75557664D01*
X174956202Y-75557671D01*
X174905908Y-75692517D01*
X174899501Y-75752116D01*
X174899501Y-75752123D01*
X174899500Y-75752135D01*
X174899500Y-76747870D01*
X174600500Y-76747870D01*
X174600499Y-75752128D01*
X174594091Y-75692517D01*
X174581094Y-75657671D01*
X174543797Y-75557671D01*
X174543793Y-75557664D01*
X174457547Y-75442455D01*
X174457544Y-75442452D01*
X174342335Y-75356206D01*
X174342328Y-75356202D01*
X174207482Y-75305908D01*
X174207483Y-75305908D01*
X174147883Y-75299501D01*
X174147881Y-75299500D01*
X174147873Y-75299500D01*
X174147864Y-75299500D01*
X173352129Y-75299500D01*
X173352123Y-75299501D01*
X173292516Y-75305908D01*
X173157671Y-75356202D01*
X173157664Y-75356206D01*
X173042455Y-75442452D01*
X173042452Y-75442455D01*
X172956206Y-75557664D01*
X172956202Y-75557671D01*
X172905908Y-75692517D01*
X172899501Y-75752116D01*
X172899501Y-75752123D01*
X172899500Y-75752135D01*
X172899500Y-75775500D01*
X172879815Y-75842539D01*
X172827011Y-75888294D01*
X172775500Y-75899500D01*
X172566977Y-75899500D01*
X172499938Y-75879815D01*
X172454183Y-75827011D01*
X172446733Y-75799865D01*
X172445876Y-75800068D01*
X172444092Y-75792520D01*
X172429029Y-75752135D01*
X172428055Y-75749522D01*
X172393797Y-75657671D01*
X172393793Y-75657664D01*
X172307547Y-75542455D01*
X172307544Y-75542452D01*
X172192335Y-75456206D01*
X172192328Y-75456202D01*
X172057482Y-75405908D01*
X172057483Y-75405908D01*
X171997883Y-75399501D01*
X171997881Y-75399500D01*
X171997873Y-75399500D01*
X171997864Y-75399500D01*
X171002129Y-75399500D01*
X171002123Y-75399501D01*
X170942516Y-75405908D01*
X170807671Y-75456202D01*
X170807664Y-75456206D01*
X170692455Y-75542452D01*
X170692452Y-75542455D01*
X170606206Y-75657664D01*
X170606202Y-75657671D01*
X170555908Y-75792517D01*
X170549501Y-75852116D01*
X170549500Y-75852135D01*
X170549500Y-76647870D01*
X170549501Y-76647876D01*
X170555908Y-76707483D01*
X170606202Y-76842328D01*
X170606206Y-76842335D01*
X170692452Y-76957544D01*
X170692455Y-76957547D01*
X170807664Y-77043793D01*
X170807671Y-77043797D01*
X170942517Y-77094091D01*
X170942516Y-77094091D01*
X170949444Y-77094835D01*
X171002127Y-77100500D01*
X171997872Y-77100499D01*
X172057483Y-77094091D01*
X172192331Y-77043796D01*
X172307546Y-76957546D01*
X172393796Y-76842331D01*
X172444091Y-76707483D01*
X172444091Y-76707481D01*
X172445874Y-76699938D01*
X172448146Y-76700474D01*
X172470429Y-76646688D01*
X172527823Y-76606843D01*
X172566976Y-76600500D01*
X172775501Y-76600500D01*
X172842540Y-76620185D01*
X172888295Y-76672989D01*
X172899501Y-76724500D01*
X172899501Y-76747876D01*
X172905908Y-76807483D01*
X172956202Y-76942328D01*
X172956206Y-76942335D01*
X173042452Y-77057544D01*
X173042455Y-77057547D01*
X173157664Y-77143793D01*
X173157671Y-77143797D01*
X173292517Y-77194091D01*
X173300062Y-77195874D01*
X173299523Y-77198151D01*
X173353287Y-77220408D01*
X173393147Y-77277793D01*
X173399500Y-77316975D01*
X173399500Y-77672849D01*
X173379815Y-77739888D01*
X173327011Y-77785643D01*
X173275500Y-77796849D01*
X172425323Y-77796849D01*
X172352264Y-77811381D01*
X172352260Y-77811382D01*
X172269399Y-77866748D01*
X172214033Y-77949609D01*
X172214032Y-77949613D01*
X172199500Y-78022670D01*
X172199500Y-78275500D01*
X172179815Y-78342539D01*
X172127011Y-78388294D01*
X172075500Y-78399500D01*
X170724499Y-78399500D01*
X170657460Y-78379815D01*
X170611705Y-78327011D01*
X170600499Y-78275500D01*
X170600499Y-78252129D01*
X170600498Y-78252123D01*
X170600497Y-78252116D01*
X170594091Y-78192517D01*
X170560473Y-78102383D01*
X170543797Y-78057671D01*
X170543793Y-78057664D01*
X170457547Y-77942455D01*
X170457544Y-77942452D01*
X170342335Y-77856206D01*
X170342328Y-77856202D01*
X170207482Y-77805908D01*
X170207483Y-77805908D01*
X170147883Y-77799501D01*
X170147881Y-77799500D01*
X170147873Y-77799500D01*
X170147864Y-77799500D01*
X169352129Y-77799500D01*
X169352123Y-77799501D01*
X169292516Y-77805908D01*
X169157671Y-77856202D01*
X169157664Y-77856206D01*
X169042455Y-77942452D01*
X169042452Y-77942455D01*
X168956206Y-78057664D01*
X168956202Y-78057671D01*
X168905908Y-78192517D01*
X168899501Y-78252116D01*
X168899501Y-78252123D01*
X168899500Y-78252135D01*
X168899500Y-79247870D01*
X168600500Y-79247870D01*
X168600499Y-78252128D01*
X168594091Y-78192517D01*
X168560473Y-78102383D01*
X168543797Y-78057671D01*
X168543793Y-78057664D01*
X168457547Y-77942455D01*
X168457544Y-77942452D01*
X168342335Y-77856206D01*
X168342328Y-77856202D01*
X168207482Y-77805908D01*
X168207483Y-77805908D01*
X168147883Y-77799501D01*
X168147881Y-77799500D01*
X168147873Y-77799500D01*
X168147864Y-77799500D01*
X167352129Y-77799500D01*
X167352123Y-77799501D01*
X167292516Y-77805908D01*
X167157671Y-77856202D01*
X167157664Y-77856206D01*
X167042455Y-77942452D01*
X167042452Y-77942455D01*
X166956206Y-78057664D01*
X166956202Y-78057671D01*
X166905908Y-78192517D01*
X166899501Y-78252116D01*
X166899501Y-78252123D01*
X166899500Y-78252135D01*
X166899500Y-78275500D01*
X166879815Y-78342539D01*
X166827011Y-78388294D01*
X166775500Y-78399500D01*
X165674500Y-78399500D01*
X165607461Y-78379815D01*
X165561706Y-78327011D01*
X165550500Y-78275500D01*
X165550500Y-78022672D01*
X165550499Y-78022670D01*
X165535967Y-77949613D01*
X165535966Y-77949609D01*
X165531184Y-77942452D01*
X165480601Y-77866748D01*
X165405608Y-77816640D01*
X165397739Y-77811382D01*
X165397735Y-77811381D01*
X165324677Y-77796849D01*
X165324674Y-77796849D01*
X164974500Y-77796849D01*
X164907461Y-77777164D01*
X164861706Y-77724360D01*
X164850500Y-77672849D01*
X164850500Y-74210900D01*
X164870185Y-74143861D01*
X164890154Y-74120005D01*
X164954448Y-74060351D01*
X165120272Y-73852415D01*
X165253252Y-73622086D01*
X165350419Y-73374510D01*
X165409601Y-73115217D01*
X165419880Y-72978048D01*
X165429476Y-72850004D01*
X165429476Y-72849995D01*
X165409601Y-72584785D01*
X165399265Y-72539500D01*
X165350419Y-72325490D01*
X165253252Y-72077914D01*
X165120272Y-71847585D01*
X164954448Y-71639649D01*
X164954447Y-71639648D01*
X164954444Y-71639644D01*
X164759485Y-71458750D01*
X164737081Y-71443475D01*
X164539738Y-71308929D01*
X164539734Y-71308927D01*
X164539731Y-71308925D01*
X164539729Y-71308924D01*
X164300118Y-71193534D01*
X164300120Y-71193534D01*
X164045972Y-71115139D01*
X164045966Y-71115137D01*
X163782987Y-71075500D01*
X163782980Y-71075500D01*
X163517020Y-71075500D01*
X163517012Y-71075500D01*
X163254033Y-71115137D01*
X163254027Y-71115139D01*
X162999880Y-71193534D01*
X162760270Y-71308924D01*
X162760268Y-71308925D01*
X162540514Y-71458750D01*
X162345555Y-71639644D01*
X162179728Y-71847585D01*
X162046748Y-72077913D01*
X161949583Y-72325484D01*
X161949578Y-72325501D01*
X161890398Y-72584785D01*
X161870524Y-72849995D01*
X161870524Y-72850004D01*
X157286945Y-72850004D01*
X157186041Y-72758019D01*
X157186039Y-72758017D01*
X157012642Y-72650655D01*
X157012635Y-72650651D01*
X156868734Y-72594904D01*
X156822456Y-72576976D01*
X156621976Y-72539500D01*
X156418024Y-72539500D01*
X156217544Y-72576976D01*
X156217541Y-72576976D01*
X156217541Y-72576977D01*
X156101963Y-72621752D01*
X156032339Y-72627614D01*
X155970599Y-72594904D01*
X155969488Y-72593806D01*
X155636819Y-72261137D01*
X155603334Y-72199814D01*
X155600500Y-72173456D01*
X155600500Y-72031755D01*
X155620185Y-71964716D01*
X155672989Y-71918961D01*
X155742147Y-71909017D01*
X155805703Y-71938042D01*
X155808039Y-71940119D01*
X155853958Y-71981980D01*
X155853960Y-71981982D01*
X155934347Y-72031755D01*
X156027363Y-72089348D01*
X156217544Y-72163024D01*
X156418024Y-72200500D01*
X156418026Y-72200500D01*
X156621974Y-72200500D01*
X156621976Y-72200500D01*
X156822456Y-72163024D01*
X157012637Y-72089348D01*
X157186041Y-71981981D01*
X157336764Y-71844579D01*
X157459673Y-71681821D01*
X157550582Y-71499250D01*
X157606397Y-71303083D01*
X157625215Y-71100000D01*
X157606397Y-70896917D01*
X157550582Y-70700750D01*
X157545256Y-70690055D01*
X157532996Y-70621272D01*
X157559869Y-70556777D01*
X157568556Y-70547124D01*
X157823864Y-70291816D01*
X157885186Y-70258334D01*
X157911544Y-70255500D01*
X164282745Y-70255500D01*
X164349784Y-70275185D01*
X164370426Y-70291819D01*
X164461652Y-70383045D01*
X164461654Y-70383046D01*
X164461658Y-70383050D01*
X164574694Y-70440645D01*
X164574698Y-70440647D01*
X164668475Y-70455499D01*
X164668481Y-70455500D01*
X166081518Y-70455499D01*
X166175304Y-70440646D01*
X166286847Y-70383811D01*
X166355513Y-70370916D01*
X166420253Y-70397192D01*
X166450526Y-70432297D01*
X166469527Y-70465208D01*
X166469529Y-70465211D01*
X166469530Y-70465212D01*
X168284788Y-72280470D01*
X168284790Y-72280471D01*
X168284794Y-72280474D01*
X168359934Y-72323856D01*
X168359935Y-72323856D01*
X168364712Y-72326614D01*
X168453856Y-72350500D01*
X168453857Y-72350500D01*
X168546144Y-72350500D01*
X173125501Y-72350500D01*
X173192540Y-72370185D01*
X173238295Y-72422989D01*
X173249501Y-72474500D01*
X173249501Y-72681518D01*
X173264354Y-72775304D01*
X173321950Y-72888342D01*
X173321952Y-72888344D01*
X173321954Y-72888347D01*
X173411652Y-72978045D01*
X173411654Y-72978046D01*
X173411658Y-72978050D01*
X173521699Y-73034119D01*
X173524698Y-73035647D01*
X173618475Y-73050499D01*
X173618481Y-73050500D01*
X173981518Y-73050499D01*
X174075304Y-73035646D01*
X174075305Y-73035645D01*
X174084943Y-73034119D01*
X174085263Y-73036143D01*
X174142500Y-73034504D01*
X174202335Y-73070580D01*
X174233168Y-73133279D01*
X174225209Y-73202693D01*
X174221472Y-73210726D01*
X174214353Y-73224697D01*
X174214352Y-73224698D01*
X174199500Y-73318475D01*
X174199500Y-73775500D01*
X174179815Y-73842539D01*
X174127011Y-73888294D01*
X174075500Y-73899500D01*
X172566977Y-73899500D01*
X172499938Y-73879815D01*
X172454183Y-73827011D01*
X172446733Y-73799865D01*
X172445876Y-73800068D01*
X172444092Y-73792520D01*
X172393797Y-73657671D01*
X172393793Y-73657664D01*
X172307547Y-73542455D01*
X172307544Y-73542452D01*
X172192335Y-73456206D01*
X172192328Y-73456202D01*
X172057482Y-73405908D01*
X172057483Y-73405908D01*
X171997883Y-73399501D01*
X171997881Y-73399500D01*
X171997873Y-73399500D01*
X171997864Y-73399500D01*
X171002129Y-73399500D01*
X171002123Y-73399501D01*
X170942516Y-73405908D01*
X170807671Y-73456202D01*
X170807664Y-73456206D01*
X170692455Y-73542452D01*
X170692452Y-73542455D01*
X170606206Y-73657664D01*
X170606202Y-73657671D01*
X170555908Y-73792517D01*
X170549501Y-73852116D01*
X170549500Y-73852135D01*
X170549500Y-74647870D01*
X170549501Y-74647876D01*
X170555908Y-74707483D01*
X170606202Y-74842328D01*
X170606206Y-74842335D01*
X170692452Y-74957544D01*
X170692455Y-74957547D01*
X170807664Y-75043793D01*
X170807671Y-75043797D01*
X170942517Y-75094091D01*
X170942516Y-75094091D01*
X170949444Y-75094835D01*
X171002127Y-75100500D01*
X171997872Y-75100499D01*
X172057483Y-75094091D01*
X172192331Y-75043796D01*
X172307546Y-74957546D01*
X172393796Y-74842331D01*
X172444091Y-74707483D01*
X172444091Y-74707481D01*
X172445874Y-74699938D01*
X172448146Y-74700474D01*
X172470429Y-74646688D01*
X172527823Y-74606843D01*
X172566976Y-74600500D01*
X174112990Y-74600500D01*
X174180029Y-74620185D01*
X174223474Y-74668204D01*
X174271949Y-74763340D01*
X174271954Y-74763347D01*
X174361652Y-74853045D01*
X174361654Y-74853046D01*
X174361658Y-74853050D01*
X174474694Y-74910645D01*
X174474698Y-74910647D01*
X174568475Y-74925499D01*
X174568481Y-74925500D01*
X174931518Y-74925499D01*
X175025304Y-74910646D01*
X175138342Y-74853050D01*
X175228050Y-74763342D01*
X175285646Y-74650304D01*
X175285646Y-74650302D01*
X175285647Y-74650301D01*
X175300499Y-74556524D01*
X175300500Y-74556519D01*
X175300499Y-73318482D01*
X175285646Y-73224696D01*
X175228050Y-73111658D01*
X175228046Y-73111654D01*
X175228045Y-73111652D01*
X175138347Y-73021954D01*
X175138344Y-73021952D01*
X175138342Y-73021950D01*
X175052174Y-72978045D01*
X175025301Y-72964352D01*
X174931524Y-72949500D01*
X174568482Y-72949500D01*
X174497649Y-72960718D01*
X174474696Y-72964354D01*
X174474695Y-72964354D01*
X174465057Y-72965881D01*
X174464736Y-72963859D01*
X174407478Y-72965489D01*
X174347649Y-72929402D01*
X174316827Y-72866698D01*
X174324799Y-72797285D01*
X174328514Y-72789300D01*
X174335646Y-72775304D01*
X174350500Y-72681519D01*
X174350499Y-71443482D01*
X174335646Y-71349696D01*
X174278050Y-71236658D01*
X174278046Y-71236654D01*
X174278045Y-71236652D01*
X174188347Y-71146954D01*
X174188343Y-71146951D01*
X174188342Y-71146950D01*
X174168204Y-71136689D01*
X174117409Y-71088714D01*
X174100500Y-71026205D01*
X174100500Y-70816976D01*
X174120185Y-70749937D01*
X174172989Y-70704182D01*
X174200135Y-70696736D01*
X174199932Y-70695876D01*
X174207479Y-70694092D01*
X174207481Y-70694091D01*
X174207483Y-70694091D01*
X174342331Y-70643796D01*
X174457546Y-70557546D01*
X174543796Y-70442331D01*
X174594091Y-70307483D01*
X174600500Y-70247873D01*
X174600499Y-69252128D01*
X174594091Y-69192517D01*
X174591473Y-69185499D01*
X174543797Y-69057671D01*
X174543793Y-69057664D01*
X174457547Y-68942455D01*
X174457544Y-68942452D01*
X174342335Y-68856206D01*
X174342328Y-68856202D01*
X174207482Y-68805908D01*
X174207483Y-68805908D01*
X174147883Y-68799501D01*
X174147881Y-68799500D01*
X174147873Y-68799500D01*
X174147864Y-68799500D01*
X173352129Y-68799500D01*
X173352123Y-68799501D01*
X173292516Y-68805908D01*
X173157671Y-68856202D01*
X173157664Y-68856206D01*
X173042455Y-68942452D01*
X173042452Y-68942455D01*
X172956206Y-69057664D01*
X172956202Y-69057671D01*
X172905908Y-69192517D01*
X172899501Y-69252116D01*
X172899501Y-69252123D01*
X172899500Y-69252135D01*
X172899500Y-70247870D01*
X172899501Y-70247876D01*
X172905908Y-70307483D01*
X172956202Y-70442328D01*
X172956206Y-70442335D01*
X173042452Y-70557544D01*
X173042455Y-70557547D01*
X173157664Y-70643793D01*
X173157671Y-70643797D01*
X173292517Y-70694091D01*
X173300062Y-70695874D01*
X173299523Y-70698151D01*
X173353287Y-70720408D01*
X173393147Y-70777793D01*
X173399500Y-70816975D01*
X173399500Y-71107745D01*
X173379815Y-71174784D01*
X173363181Y-71195426D01*
X173321954Y-71236652D01*
X173321951Y-71236657D01*
X173264352Y-71349698D01*
X173249500Y-71443475D01*
X173249500Y-71525500D01*
X173229815Y-71592539D01*
X173177011Y-71638294D01*
X173125500Y-71649500D01*
X168696544Y-71649500D01*
X168629505Y-71629815D01*
X168608863Y-71613181D01*
X167136819Y-70141137D01*
X167103334Y-70079814D01*
X167100500Y-70053456D01*
X167100500Y-67703858D01*
X167100500Y-67703856D01*
X167076614Y-67614712D01*
X167068408Y-67600499D01*
X167054619Y-67576615D01*
X167054617Y-67576613D01*
X167054616Y-67576612D01*
X167030470Y-67534788D01*
X166580212Y-67084530D01*
X166580211Y-67084529D01*
X166580208Y-67084527D01*
X166500290Y-67038387D01*
X166500289Y-67038386D01*
X166482629Y-67033654D01*
X166446602Y-67024001D01*
X166386944Y-66987637D01*
X166378376Y-66977107D01*
X166378046Y-66976653D01*
X166288347Y-66886954D01*
X166288343Y-66886951D01*
X166288342Y-66886950D01*
X166261806Y-66873429D01*
X166197147Y-66840483D01*
X166146352Y-66792509D01*
X166129557Y-66724687D01*
X166152095Y-66658553D01*
X166197145Y-66619517D01*
X166288342Y-66573050D01*
X166378050Y-66483342D01*
X166435646Y-66370304D01*
X166435646Y-66370302D01*
X166435647Y-66370301D01*
X166450499Y-66276524D01*
X166450500Y-66276519D01*
X166450499Y-65913482D01*
X166435646Y-65819696D01*
X166378050Y-65706658D01*
X166378046Y-65706654D01*
X166378045Y-65706652D01*
X166288347Y-65616954D01*
X166288344Y-65616952D01*
X166288342Y-65616950D01*
X166207022Y-65575515D01*
X166175301Y-65559352D01*
X166081524Y-65544500D01*
X164668482Y-65544500D01*
X164587519Y-65557323D01*
X164574696Y-65559354D01*
X164461658Y-65616950D01*
X164461657Y-65616951D01*
X164461652Y-65616954D01*
X164371950Y-65706656D01*
X164366781Y-65713771D01*
X164311449Y-65756434D01*
X164298562Y-65760655D01*
X164269714Y-65768385D01*
X164269709Y-65768387D01*
X164189791Y-65814527D01*
X164189786Y-65814531D01*
X163141137Y-66863181D01*
X163079814Y-66896666D01*
X163053456Y-66899500D01*
X157483902Y-66899500D01*
X157416863Y-66879815D01*
X157371108Y-66827011D01*
X157361164Y-66757853D01*
X157384948Y-66700773D01*
X157426688Y-66645500D01*
X157459673Y-66601821D01*
X157550582Y-66419250D01*
X157606397Y-66223083D01*
X157625215Y-66020000D01*
X157606397Y-65816917D01*
X157550582Y-65620750D01*
X157548690Y-65616951D01*
X157494530Y-65508181D01*
X157459673Y-65438179D01*
X157336764Y-65275421D01*
X157310960Y-65251897D01*
X157274680Y-65192185D01*
X157270500Y-65160261D01*
X157270500Y-64339738D01*
X157290185Y-64272699D01*
X157310962Y-64248101D01*
X157321938Y-64238093D01*
X157336764Y-64224579D01*
X157459673Y-64061821D01*
X157550582Y-63879250D01*
X157606397Y-63683083D01*
X157625215Y-63480000D01*
X157624948Y-63477123D01*
X157606397Y-63276917D01*
X157575252Y-63167455D01*
X157550582Y-63080750D01*
X157531513Y-63042455D01*
X157483755Y-62946543D01*
X157459673Y-62898179D01*
X157349377Y-62752123D01*
X157336762Y-62735418D01*
X157186041Y-62598019D01*
X157186039Y-62598017D01*
X157012642Y-62490655D01*
X157012635Y-62490651D01*
X156888223Y-62442454D01*
X156822456Y-62416976D01*
X156621976Y-62379500D01*
X156418024Y-62379500D01*
X156217544Y-62416976D01*
X156217541Y-62416976D01*
X156217541Y-62416977D01*
X156027364Y-62490651D01*
X156027357Y-62490655D01*
X155853960Y-62598017D01*
X155853958Y-62598019D01*
X155703237Y-62735418D01*
X155580327Y-62898178D01*
X155489422Y-63080739D01*
X155489417Y-63080752D01*
X155433602Y-63276917D01*
X155414785Y-63479999D01*
X155414785Y-63480000D01*
X155433602Y-63683082D01*
X155489417Y-63879247D01*
X155489422Y-63879260D01*
X155520828Y-63942331D01*
X155580327Y-64061821D01*
X155699916Y-64220183D01*
X155703237Y-64224580D01*
X155729038Y-64248101D01*
X155765320Y-64307812D01*
X155769500Y-64339738D01*
X155769500Y-65160261D01*
X155749815Y-65227300D01*
X155729040Y-65251897D01*
X155703235Y-65275421D01*
X155580327Y-65438178D01*
X155489422Y-65620739D01*
X155489417Y-65620752D01*
X155433602Y-65816917D01*
X155414785Y-66019999D01*
X155414785Y-66020000D01*
X155433602Y-66223082D01*
X155489417Y-66419247D01*
X155489422Y-66419260D01*
X155580327Y-66601821D01*
X155703235Y-66764578D01*
X155757139Y-66813718D01*
X155793420Y-66873429D01*
X155791659Y-66943277D01*
X155761281Y-66993036D01*
X154969531Y-67784786D01*
X154969527Y-67784791D01*
X154938611Y-67838341D01*
X154938611Y-67838342D01*
X154923386Y-67864711D01*
X154899500Y-67953856D01*
X154899500Y-72416143D01*
X150500500Y-72416143D01*
X150500500Y-60940000D01*
X155414785Y-60940000D01*
X155433602Y-61143082D01*
X155489417Y-61339247D01*
X155489422Y-61339260D01*
X155580327Y-61521821D01*
X155703237Y-61684581D01*
X155853958Y-61821980D01*
X155853960Y-61821982D01*
X155953141Y-61883392D01*
X156027363Y-61929348D01*
X156217544Y-62003024D01*
X156418024Y-62040500D01*
X156418026Y-62040500D01*
X156621974Y-62040500D01*
X156621976Y-62040500D01*
X156822456Y-62003024D01*
X157012637Y-61929348D01*
X157186041Y-61821981D01*
X157336764Y-61684579D01*
X157459673Y-61521821D01*
X157550582Y-61339250D01*
X157555221Y-61322943D01*
X157592498Y-61263852D01*
X157655806Y-61234292D01*
X157725046Y-61243653D01*
X157773753Y-61282565D01*
X157792455Y-61307547D01*
X157907664Y-61393793D01*
X157907671Y-61393797D01*
X158042517Y-61444091D01*
X158042516Y-61444091D01*
X158049444Y-61444835D01*
X158102127Y-61450500D01*
X158897872Y-61450499D01*
X158957483Y-61444091D01*
X159092331Y-61393796D01*
X159207546Y-61307546D01*
X159293796Y-61192331D01*
X159344091Y-61057483D01*
X159350500Y-60997873D01*
X159350499Y-60002128D01*
X159344966Y-59950655D01*
X159344091Y-59942516D01*
X159293797Y-59807671D01*
X159293793Y-59807664D01*
X159207547Y-59692455D01*
X159207544Y-59692452D01*
X159092335Y-59606206D01*
X159092328Y-59606202D01*
X158957482Y-59555908D01*
X158957483Y-59555908D01*
X158897883Y-59549501D01*
X158897881Y-59549500D01*
X158897873Y-59549500D01*
X158897864Y-59549500D01*
X158102129Y-59549500D01*
X158102123Y-59549501D01*
X158042516Y-59555908D01*
X157907671Y-59606202D01*
X157907664Y-59606206D01*
X157792455Y-59692452D01*
X157792452Y-59692455D01*
X157706206Y-59807664D01*
X157706202Y-59807671D01*
X157655908Y-59942517D01*
X157651224Y-59986092D01*
X157649501Y-60002123D01*
X157649500Y-60002135D01*
X157649500Y-60025500D01*
X157629815Y-60092539D01*
X157577011Y-60138294D01*
X157525500Y-60149500D01*
X157334429Y-60149500D01*
X157267390Y-60129815D01*
X157250891Y-60117137D01*
X157186041Y-60058019D01*
X157186039Y-60058017D01*
X157012642Y-59950655D01*
X157012635Y-59950651D01*
X156862846Y-59892623D01*
X156822456Y-59876976D01*
X156621976Y-59839500D01*
X156418024Y-59839500D01*
X156217544Y-59876976D01*
X156217541Y-59876976D01*
X156217541Y-59876977D01*
X156027364Y-59950651D01*
X156027357Y-59950655D01*
X155853960Y-60058017D01*
X155853958Y-60058019D01*
X155703237Y-60195418D01*
X155580327Y-60358178D01*
X155489422Y-60540739D01*
X155489417Y-60540752D01*
X155433602Y-60736917D01*
X155414785Y-60939999D01*
X155414785Y-60940000D01*
X150500500Y-60940000D01*
X150500500Y-50624500D01*
X150520185Y-50557461D01*
X150572989Y-50511706D01*
X150624500Y-50500500D01*
X160518770Y-50500500D01*
X160585809Y-50520185D01*
G37*
%TD.AperFunction*%
%TD*%
M02*
