%TF.GenerationSoftware,KiCad,Pcbnew,8.0.1-8.0.1-1~ubuntu22.04.1*%
%TF.CreationDate,2024-04-07T16:32:49+03:00*%
%TF.ProjectId,main_board,6d61696e-5f62-46f6-9172-642e6b696361,rev?*%
%TF.SameCoordinates,Original*%
%TF.FileFunction,Legend,Top*%
%TF.FilePolarity,Positive*%
%FSLAX46Y46*%
G04 Gerber Fmt 4.6, Leading zero omitted, Abs format (unit mm)*
G04 Created by KiCad (PCBNEW 8.0.1-8.0.1-1~ubuntu22.04.1) date 2024-04-07 16:32:49*
%MOMM*%
%LPD*%
G01*
G04 APERTURE LIST*
%ADD10C,0.150000*%
%ADD11C,0.100000*%
%ADD12C,0.120000*%
G04 APERTURE END LIST*
D10*
X103755819Y-129960476D02*
X103755819Y-130531904D01*
X103755819Y-130246190D02*
X102755819Y-130246190D01*
X102755819Y-130246190D02*
X102898676Y-130341428D01*
X102898676Y-130341428D02*
X102993914Y-130436666D01*
X102993914Y-130436666D02*
X103041533Y-130531904D01*
X102755819Y-129341428D02*
X102755819Y-129246190D01*
X102755819Y-129246190D02*
X102803438Y-129150952D01*
X102803438Y-129150952D02*
X102851057Y-129103333D01*
X102851057Y-129103333D02*
X102946295Y-129055714D01*
X102946295Y-129055714D02*
X103136771Y-129008095D01*
X103136771Y-129008095D02*
X103374866Y-129008095D01*
X103374866Y-129008095D02*
X103565342Y-129055714D01*
X103565342Y-129055714D02*
X103660580Y-129103333D01*
X103660580Y-129103333D02*
X103708200Y-129150952D01*
X103708200Y-129150952D02*
X103755819Y-129246190D01*
X103755819Y-129246190D02*
X103755819Y-129341428D01*
X103755819Y-129341428D02*
X103708200Y-129436666D01*
X103708200Y-129436666D02*
X103660580Y-129484285D01*
X103660580Y-129484285D02*
X103565342Y-129531904D01*
X103565342Y-129531904D02*
X103374866Y-129579523D01*
X103374866Y-129579523D02*
X103136771Y-129579523D01*
X103136771Y-129579523D02*
X102946295Y-129531904D01*
X102946295Y-129531904D02*
X102851057Y-129484285D01*
X102851057Y-129484285D02*
X102803438Y-129436666D01*
X102803438Y-129436666D02*
X102755819Y-129341428D01*
X103755819Y-128579523D02*
X102755819Y-128579523D01*
X102755819Y-128579523D02*
X103470104Y-128246190D01*
X103470104Y-128246190D02*
X102755819Y-127912857D01*
X102755819Y-127912857D02*
X103755819Y-127912857D01*
X103755819Y-127436666D02*
X102755819Y-127436666D01*
X103232009Y-127436666D02*
X103232009Y-126865238D01*
X103755819Y-126865238D02*
X102755819Y-126865238D01*
X103089152Y-126484285D02*
X103089152Y-125960476D01*
X103089152Y-125960476D02*
X103755819Y-126484285D01*
X103755819Y-126484285D02*
X103755819Y-125960476D01*
X103755819Y-101568094D02*
X102755819Y-101568094D01*
X102755819Y-101568094D02*
X102755819Y-101187142D01*
X102755819Y-101187142D02*
X102803438Y-101091904D01*
X102803438Y-101091904D02*
X102851057Y-101044285D01*
X102851057Y-101044285D02*
X102946295Y-100996666D01*
X102946295Y-100996666D02*
X103089152Y-100996666D01*
X103089152Y-100996666D02*
X103184390Y-101044285D01*
X103184390Y-101044285D02*
X103232009Y-101091904D01*
X103232009Y-101091904D02*
X103279628Y-101187142D01*
X103279628Y-101187142D02*
X103279628Y-101568094D01*
X103755819Y-100568094D02*
X102755819Y-100568094D01*
X102755819Y-100568094D02*
X102755819Y-100187142D01*
X102755819Y-100187142D02*
X102803438Y-100091904D01*
X102803438Y-100091904D02*
X102851057Y-100044285D01*
X102851057Y-100044285D02*
X102946295Y-99996666D01*
X102946295Y-99996666D02*
X103089152Y-99996666D01*
X103089152Y-99996666D02*
X103184390Y-100044285D01*
X103184390Y-100044285D02*
X103232009Y-100091904D01*
X103232009Y-100091904D02*
X103279628Y-100187142D01*
X103279628Y-100187142D02*
X103279628Y-100568094D01*
X103708200Y-99615713D02*
X103755819Y-99472856D01*
X103755819Y-99472856D02*
X103755819Y-99234761D01*
X103755819Y-99234761D02*
X103708200Y-99139523D01*
X103708200Y-99139523D02*
X103660580Y-99091904D01*
X103660580Y-99091904D02*
X103565342Y-99044285D01*
X103565342Y-99044285D02*
X103470104Y-99044285D01*
X103470104Y-99044285D02*
X103374866Y-99091904D01*
X103374866Y-99091904D02*
X103327247Y-99139523D01*
X103327247Y-99139523D02*
X103279628Y-99234761D01*
X103279628Y-99234761D02*
X103232009Y-99425237D01*
X103232009Y-99425237D02*
X103184390Y-99520475D01*
X103184390Y-99520475D02*
X103136771Y-99568094D01*
X103136771Y-99568094D02*
X103041533Y-99615713D01*
X103041533Y-99615713D02*
X102946295Y-99615713D01*
X102946295Y-99615713D02*
X102851057Y-99568094D01*
X102851057Y-99568094D02*
X102803438Y-99520475D01*
X102803438Y-99520475D02*
X102755819Y-99425237D01*
X102755819Y-99425237D02*
X102755819Y-99187142D01*
X102755819Y-99187142D02*
X102803438Y-99044285D01*
X77533810Y-90801819D02*
X77533810Y-89801819D01*
X77533810Y-89801819D02*
X77914762Y-89801819D01*
X77914762Y-89801819D02*
X78010000Y-89849438D01*
X78010000Y-89849438D02*
X78057619Y-89897057D01*
X78057619Y-89897057D02*
X78105238Y-89992295D01*
X78105238Y-89992295D02*
X78105238Y-90135152D01*
X78105238Y-90135152D02*
X78057619Y-90230390D01*
X78057619Y-90230390D02*
X78010000Y-90278009D01*
X78010000Y-90278009D02*
X77914762Y-90325628D01*
X77914762Y-90325628D02*
X77533810Y-90325628D01*
X78438572Y-89801819D02*
X78676667Y-90801819D01*
X78676667Y-90801819D02*
X78867143Y-90087533D01*
X78867143Y-90087533D02*
X79057619Y-90801819D01*
X79057619Y-90801819D02*
X79295715Y-89801819D01*
X80248095Y-90801819D02*
X79914762Y-90325628D01*
X79676667Y-90801819D02*
X79676667Y-89801819D01*
X79676667Y-89801819D02*
X80057619Y-89801819D01*
X80057619Y-89801819D02*
X80152857Y-89849438D01*
X80152857Y-89849438D02*
X80200476Y-89897057D01*
X80200476Y-89897057D02*
X80248095Y-89992295D01*
X80248095Y-89992295D02*
X80248095Y-90135152D01*
X80248095Y-90135152D02*
X80200476Y-90230390D01*
X80200476Y-90230390D02*
X80152857Y-90278009D01*
X80152857Y-90278009D02*
X80057619Y-90325628D01*
X80057619Y-90325628D02*
X79676667Y-90325628D01*
X81438572Y-90801819D02*
X81438572Y-89801819D01*
X81914762Y-90801819D02*
X81914762Y-89801819D01*
X81914762Y-89801819D02*
X82486190Y-90801819D01*
X82486190Y-90801819D02*
X82486190Y-89801819D01*
X57464438Y-135913428D02*
X57416819Y-136008666D01*
X57416819Y-136008666D02*
X57416819Y-136151523D01*
X57416819Y-136151523D02*
X57464438Y-136294380D01*
X57464438Y-136294380D02*
X57559676Y-136389618D01*
X57559676Y-136389618D02*
X57654914Y-136437237D01*
X57654914Y-136437237D02*
X57845390Y-136484856D01*
X57845390Y-136484856D02*
X57988247Y-136484856D01*
X57988247Y-136484856D02*
X58178723Y-136437237D01*
X58178723Y-136437237D02*
X58273961Y-136389618D01*
X58273961Y-136389618D02*
X58369200Y-136294380D01*
X58369200Y-136294380D02*
X58416819Y-136151523D01*
X58416819Y-136151523D02*
X58416819Y-136056285D01*
X58416819Y-136056285D02*
X58369200Y-135913428D01*
X58369200Y-135913428D02*
X58321580Y-135865809D01*
X58321580Y-135865809D02*
X57988247Y-135865809D01*
X57988247Y-135865809D02*
X57988247Y-136056285D01*
X58416819Y-135437237D02*
X57416819Y-135437237D01*
X57416819Y-135437237D02*
X58416819Y-134865809D01*
X58416819Y-134865809D02*
X57416819Y-134865809D01*
X58369200Y-134437237D02*
X58416819Y-134294380D01*
X58416819Y-134294380D02*
X58416819Y-134056285D01*
X58416819Y-134056285D02*
X58369200Y-133961047D01*
X58369200Y-133961047D02*
X58321580Y-133913428D01*
X58321580Y-133913428D02*
X58226342Y-133865809D01*
X58226342Y-133865809D02*
X58131104Y-133865809D01*
X58131104Y-133865809D02*
X58035866Y-133913428D01*
X58035866Y-133913428D02*
X57988247Y-133961047D01*
X57988247Y-133961047D02*
X57940628Y-134056285D01*
X57940628Y-134056285D02*
X57893009Y-134246761D01*
X57893009Y-134246761D02*
X57845390Y-134341999D01*
X57845390Y-134341999D02*
X57797771Y-134389618D01*
X57797771Y-134389618D02*
X57702533Y-134437237D01*
X57702533Y-134437237D02*
X57607295Y-134437237D01*
X57607295Y-134437237D02*
X57512057Y-134389618D01*
X57512057Y-134389618D02*
X57464438Y-134341999D01*
X57464438Y-134341999D02*
X57416819Y-134246761D01*
X57416819Y-134246761D02*
X57416819Y-134008666D01*
X57416819Y-134008666D02*
X57464438Y-133865809D01*
X58369200Y-133484856D02*
X58416819Y-133341999D01*
X58416819Y-133341999D02*
X58416819Y-133103904D01*
X58416819Y-133103904D02*
X58369200Y-133008666D01*
X58369200Y-133008666D02*
X58321580Y-132961047D01*
X58321580Y-132961047D02*
X58226342Y-132913428D01*
X58226342Y-132913428D02*
X58131104Y-132913428D01*
X58131104Y-132913428D02*
X58035866Y-132961047D01*
X58035866Y-132961047D02*
X57988247Y-133008666D01*
X57988247Y-133008666D02*
X57940628Y-133103904D01*
X57940628Y-133103904D02*
X57893009Y-133294380D01*
X57893009Y-133294380D02*
X57845390Y-133389618D01*
X57845390Y-133389618D02*
X57797771Y-133437237D01*
X57797771Y-133437237D02*
X57702533Y-133484856D01*
X57702533Y-133484856D02*
X57607295Y-133484856D01*
X57607295Y-133484856D02*
X57512057Y-133437237D01*
X57512057Y-133437237D02*
X57464438Y-133389618D01*
X57464438Y-133389618D02*
X57416819Y-133294380D01*
X57416819Y-133294380D02*
X57416819Y-133056285D01*
X57416819Y-133056285D02*
X57464438Y-132913428D01*
X58416819Y-131722951D02*
X57416819Y-131722951D01*
X57416819Y-131722951D02*
X57416819Y-131341999D01*
X57416819Y-131341999D02*
X57464438Y-131246761D01*
X57464438Y-131246761D02*
X57512057Y-131199142D01*
X57512057Y-131199142D02*
X57607295Y-131151523D01*
X57607295Y-131151523D02*
X57750152Y-131151523D01*
X57750152Y-131151523D02*
X57845390Y-131199142D01*
X57845390Y-131199142D02*
X57893009Y-131246761D01*
X57893009Y-131246761D02*
X57940628Y-131341999D01*
X57940628Y-131341999D02*
X57940628Y-131722951D01*
X58416819Y-130722951D02*
X57416819Y-130722951D01*
X57416819Y-130722951D02*
X57416819Y-130341999D01*
X57416819Y-130341999D02*
X57464438Y-130246761D01*
X57464438Y-130246761D02*
X57512057Y-130199142D01*
X57512057Y-130199142D02*
X57607295Y-130151523D01*
X57607295Y-130151523D02*
X57750152Y-130151523D01*
X57750152Y-130151523D02*
X57845390Y-130199142D01*
X57845390Y-130199142D02*
X57893009Y-130246761D01*
X57893009Y-130246761D02*
X57940628Y-130341999D01*
X57940628Y-130341999D02*
X57940628Y-130722951D01*
X58369200Y-129770570D02*
X58416819Y-129627713D01*
X58416819Y-129627713D02*
X58416819Y-129389618D01*
X58416819Y-129389618D02*
X58369200Y-129294380D01*
X58369200Y-129294380D02*
X58321580Y-129246761D01*
X58321580Y-129246761D02*
X58226342Y-129199142D01*
X58226342Y-129199142D02*
X58131104Y-129199142D01*
X58131104Y-129199142D02*
X58035866Y-129246761D01*
X58035866Y-129246761D02*
X57988247Y-129294380D01*
X57988247Y-129294380D02*
X57940628Y-129389618D01*
X57940628Y-129389618D02*
X57893009Y-129580094D01*
X57893009Y-129580094D02*
X57845390Y-129675332D01*
X57845390Y-129675332D02*
X57797771Y-129722951D01*
X57797771Y-129722951D02*
X57702533Y-129770570D01*
X57702533Y-129770570D02*
X57607295Y-129770570D01*
X57607295Y-129770570D02*
X57512057Y-129722951D01*
X57512057Y-129722951D02*
X57464438Y-129675332D01*
X57464438Y-129675332D02*
X57416819Y-129580094D01*
X57416819Y-129580094D02*
X57416819Y-129341999D01*
X57416819Y-129341999D02*
X57464438Y-129199142D01*
X88676362Y-147256619D02*
X88866838Y-147256619D01*
X88866838Y-147256619D02*
X88962076Y-147304238D01*
X88962076Y-147304238D02*
X89057314Y-147399476D01*
X89057314Y-147399476D02*
X89104933Y-147589952D01*
X89104933Y-147589952D02*
X89104933Y-147923285D01*
X89104933Y-147923285D02*
X89057314Y-148113761D01*
X89057314Y-148113761D02*
X88962076Y-148209000D01*
X88962076Y-148209000D02*
X88866838Y-148256619D01*
X88866838Y-148256619D02*
X88676362Y-148256619D01*
X88676362Y-148256619D02*
X88581124Y-148209000D01*
X88581124Y-148209000D02*
X88485886Y-148113761D01*
X88485886Y-148113761D02*
X88438267Y-147923285D01*
X88438267Y-147923285D02*
X88438267Y-147589952D01*
X88438267Y-147589952D02*
X88485886Y-147399476D01*
X88485886Y-147399476D02*
X88581124Y-147304238D01*
X88581124Y-147304238D02*
X88676362Y-147256619D01*
X90104933Y-148161380D02*
X90057314Y-148209000D01*
X90057314Y-148209000D02*
X89914457Y-148256619D01*
X89914457Y-148256619D02*
X89819219Y-148256619D01*
X89819219Y-148256619D02*
X89676362Y-148209000D01*
X89676362Y-148209000D02*
X89581124Y-148113761D01*
X89581124Y-148113761D02*
X89533505Y-148018523D01*
X89533505Y-148018523D02*
X89485886Y-147828047D01*
X89485886Y-147828047D02*
X89485886Y-147685190D01*
X89485886Y-147685190D02*
X89533505Y-147494714D01*
X89533505Y-147494714D02*
X89581124Y-147399476D01*
X89581124Y-147399476D02*
X89676362Y-147304238D01*
X89676362Y-147304238D02*
X89819219Y-147256619D01*
X89819219Y-147256619D02*
X89914457Y-147256619D01*
X89914457Y-147256619D02*
X90057314Y-147304238D01*
X90057314Y-147304238D02*
X90104933Y-147351857D01*
X90438267Y-147256619D02*
X91104933Y-148256619D01*
X91104933Y-147256619D02*
X90438267Y-148256619D01*
X91676362Y-147256619D02*
X91866838Y-147256619D01*
X91866838Y-147256619D02*
X91962076Y-147304238D01*
X91962076Y-147304238D02*
X92057314Y-147399476D01*
X92057314Y-147399476D02*
X92104933Y-147589952D01*
X92104933Y-147589952D02*
X92104933Y-147923285D01*
X92104933Y-147923285D02*
X92057314Y-148113761D01*
X92057314Y-148113761D02*
X91962076Y-148209000D01*
X91962076Y-148209000D02*
X91866838Y-148256619D01*
X91866838Y-148256619D02*
X91676362Y-148256619D01*
X91676362Y-148256619D02*
X91581124Y-148209000D01*
X91581124Y-148209000D02*
X91485886Y-148113761D01*
X91485886Y-148113761D02*
X91438267Y-147923285D01*
X91438267Y-147923285D02*
X91438267Y-147589952D01*
X91438267Y-147589952D02*
X91485886Y-147399476D01*
X91485886Y-147399476D02*
X91581124Y-147304238D01*
X91581124Y-147304238D02*
X91676362Y-147256619D01*
X57893009Y-117418999D02*
X57893009Y-117085666D01*
X58416819Y-116942809D02*
X58416819Y-117418999D01*
X58416819Y-117418999D02*
X57416819Y-117418999D01*
X57416819Y-117418999D02*
X57416819Y-116942809D01*
X57416819Y-116609475D02*
X58416819Y-115942809D01*
X57416819Y-115942809D02*
X58416819Y-116609475D01*
X57416819Y-115704713D02*
X57416819Y-115133285D01*
X58416819Y-115418999D02*
X57416819Y-115418999D01*
X58416819Y-114038046D02*
X57416819Y-114038046D01*
X57893009Y-113228523D02*
X57893009Y-113561856D01*
X58416819Y-113561856D02*
X57416819Y-113561856D01*
X57416819Y-113561856D02*
X57416819Y-113085666D01*
X58131104Y-112752332D02*
X58131104Y-112276142D01*
X58416819Y-112847570D02*
X57416819Y-112514237D01*
X57416819Y-112514237D02*
X58416819Y-112180904D01*
X58321580Y-111276142D02*
X58369200Y-111323761D01*
X58369200Y-111323761D02*
X58416819Y-111466618D01*
X58416819Y-111466618D02*
X58416819Y-111561856D01*
X58416819Y-111561856D02*
X58369200Y-111704713D01*
X58369200Y-111704713D02*
X58273961Y-111799951D01*
X58273961Y-111799951D02*
X58178723Y-111847570D01*
X58178723Y-111847570D02*
X57988247Y-111895189D01*
X57988247Y-111895189D02*
X57845390Y-111895189D01*
X57845390Y-111895189D02*
X57654914Y-111847570D01*
X57654914Y-111847570D02*
X57559676Y-111799951D01*
X57559676Y-111799951D02*
X57464438Y-111704713D01*
X57464438Y-111704713D02*
X57416819Y-111561856D01*
X57416819Y-111561856D02*
X57416819Y-111466618D01*
X57416819Y-111466618D02*
X57464438Y-111323761D01*
X57464438Y-111323761D02*
X57512057Y-111276142D01*
X57893009Y-110847570D02*
X57893009Y-110514237D01*
X58416819Y-110371380D02*
X58416819Y-110847570D01*
X58416819Y-110847570D02*
X57416819Y-110847570D01*
X57416819Y-110847570D02*
X57416819Y-110371380D01*
X103755819Y-115990476D02*
X103755819Y-116561904D01*
X103755819Y-116276190D02*
X102755819Y-116276190D01*
X102755819Y-116276190D02*
X102898676Y-116371428D01*
X102898676Y-116371428D02*
X102993914Y-116466666D01*
X102993914Y-116466666D02*
X103041533Y-116561904D01*
X102755819Y-115371428D02*
X102755819Y-115276190D01*
X102755819Y-115276190D02*
X102803438Y-115180952D01*
X102803438Y-115180952D02*
X102851057Y-115133333D01*
X102851057Y-115133333D02*
X102946295Y-115085714D01*
X102946295Y-115085714D02*
X103136771Y-115038095D01*
X103136771Y-115038095D02*
X103374866Y-115038095D01*
X103374866Y-115038095D02*
X103565342Y-115085714D01*
X103565342Y-115085714D02*
X103660580Y-115133333D01*
X103660580Y-115133333D02*
X103708200Y-115180952D01*
X103708200Y-115180952D02*
X103755819Y-115276190D01*
X103755819Y-115276190D02*
X103755819Y-115371428D01*
X103755819Y-115371428D02*
X103708200Y-115466666D01*
X103708200Y-115466666D02*
X103660580Y-115514285D01*
X103660580Y-115514285D02*
X103565342Y-115561904D01*
X103565342Y-115561904D02*
X103374866Y-115609523D01*
X103374866Y-115609523D02*
X103136771Y-115609523D01*
X103136771Y-115609523D02*
X102946295Y-115561904D01*
X102946295Y-115561904D02*
X102851057Y-115514285D01*
X102851057Y-115514285D02*
X102803438Y-115466666D01*
X102803438Y-115466666D02*
X102755819Y-115371428D01*
X103755819Y-114609523D02*
X102755819Y-114609523D01*
X102755819Y-114609523D02*
X103470104Y-114276190D01*
X103470104Y-114276190D02*
X102755819Y-113942857D01*
X102755819Y-113942857D02*
X103755819Y-113942857D01*
X103755819Y-113466666D02*
X102755819Y-113466666D01*
X103232009Y-113466666D02*
X103232009Y-112895238D01*
X103755819Y-112895238D02*
X102755819Y-112895238D01*
X103089152Y-112514285D02*
X103089152Y-111990476D01*
X103089152Y-111990476D02*
X103755819Y-112514285D01*
X103755819Y-112514285D02*
X103755819Y-111990476D01*
X103755819Y-109005476D02*
X103755819Y-109576904D01*
X103755819Y-109291190D02*
X102755819Y-109291190D01*
X102755819Y-109291190D02*
X102898676Y-109386428D01*
X102898676Y-109386428D02*
X102993914Y-109481666D01*
X102993914Y-109481666D02*
X103041533Y-109576904D01*
X102755819Y-108386428D02*
X102755819Y-108291190D01*
X102755819Y-108291190D02*
X102803438Y-108195952D01*
X102803438Y-108195952D02*
X102851057Y-108148333D01*
X102851057Y-108148333D02*
X102946295Y-108100714D01*
X102946295Y-108100714D02*
X103136771Y-108053095D01*
X103136771Y-108053095D02*
X103374866Y-108053095D01*
X103374866Y-108053095D02*
X103565342Y-108100714D01*
X103565342Y-108100714D02*
X103660580Y-108148333D01*
X103660580Y-108148333D02*
X103708200Y-108195952D01*
X103708200Y-108195952D02*
X103755819Y-108291190D01*
X103755819Y-108291190D02*
X103755819Y-108386428D01*
X103755819Y-108386428D02*
X103708200Y-108481666D01*
X103708200Y-108481666D02*
X103660580Y-108529285D01*
X103660580Y-108529285D02*
X103565342Y-108576904D01*
X103565342Y-108576904D02*
X103374866Y-108624523D01*
X103374866Y-108624523D02*
X103136771Y-108624523D01*
X103136771Y-108624523D02*
X102946295Y-108576904D01*
X102946295Y-108576904D02*
X102851057Y-108529285D01*
X102851057Y-108529285D02*
X102803438Y-108481666D01*
X102803438Y-108481666D02*
X102755819Y-108386428D01*
X103755819Y-107624523D02*
X102755819Y-107624523D01*
X102755819Y-107624523D02*
X103470104Y-107291190D01*
X103470104Y-107291190D02*
X102755819Y-106957857D01*
X102755819Y-106957857D02*
X103755819Y-106957857D01*
X103755819Y-106481666D02*
X102755819Y-106481666D01*
X103232009Y-106481666D02*
X103232009Y-105910238D01*
X103755819Y-105910238D02*
X102755819Y-105910238D01*
X103089152Y-105529285D02*
X103089152Y-105005476D01*
X103089152Y-105005476D02*
X103755819Y-105529285D01*
X103755819Y-105529285D02*
X103755819Y-105005476D01*
X103755819Y-122975476D02*
X103755819Y-123546904D01*
X103755819Y-123261190D02*
X102755819Y-123261190D01*
X102755819Y-123261190D02*
X102898676Y-123356428D01*
X102898676Y-123356428D02*
X102993914Y-123451666D01*
X102993914Y-123451666D02*
X103041533Y-123546904D01*
X102755819Y-122356428D02*
X102755819Y-122261190D01*
X102755819Y-122261190D02*
X102803438Y-122165952D01*
X102803438Y-122165952D02*
X102851057Y-122118333D01*
X102851057Y-122118333D02*
X102946295Y-122070714D01*
X102946295Y-122070714D02*
X103136771Y-122023095D01*
X103136771Y-122023095D02*
X103374866Y-122023095D01*
X103374866Y-122023095D02*
X103565342Y-122070714D01*
X103565342Y-122070714D02*
X103660580Y-122118333D01*
X103660580Y-122118333D02*
X103708200Y-122165952D01*
X103708200Y-122165952D02*
X103755819Y-122261190D01*
X103755819Y-122261190D02*
X103755819Y-122356428D01*
X103755819Y-122356428D02*
X103708200Y-122451666D01*
X103708200Y-122451666D02*
X103660580Y-122499285D01*
X103660580Y-122499285D02*
X103565342Y-122546904D01*
X103565342Y-122546904D02*
X103374866Y-122594523D01*
X103374866Y-122594523D02*
X103136771Y-122594523D01*
X103136771Y-122594523D02*
X102946295Y-122546904D01*
X102946295Y-122546904D02*
X102851057Y-122499285D01*
X102851057Y-122499285D02*
X102803438Y-122451666D01*
X102803438Y-122451666D02*
X102755819Y-122356428D01*
X103755819Y-121594523D02*
X102755819Y-121594523D01*
X102755819Y-121594523D02*
X103470104Y-121261190D01*
X103470104Y-121261190D02*
X102755819Y-120927857D01*
X102755819Y-120927857D02*
X103755819Y-120927857D01*
X103755819Y-120451666D02*
X102755819Y-120451666D01*
X103232009Y-120451666D02*
X103232009Y-119880238D01*
X103755819Y-119880238D02*
X102755819Y-119880238D01*
X103089152Y-119499285D02*
X103089152Y-118975476D01*
X103089152Y-118975476D02*
X103755819Y-119499285D01*
X103755819Y-119499285D02*
X103755819Y-118975476D01*
X66516667Y-90801819D02*
X66516667Y-89801819D01*
X66992857Y-90801819D02*
X66992857Y-89801819D01*
X66992857Y-89801819D02*
X67564285Y-90801819D01*
X67564285Y-90801819D02*
X67564285Y-89801819D01*
X67897619Y-89801819D02*
X68469047Y-89801819D01*
X68183333Y-90801819D02*
X68183333Y-89801819D01*
X69564286Y-90801819D02*
X69564286Y-89801819D01*
X70373809Y-90278009D02*
X70040476Y-90278009D01*
X70040476Y-90801819D02*
X70040476Y-89801819D01*
X70040476Y-89801819D02*
X70516666Y-89801819D01*
X70850000Y-90516104D02*
X71326190Y-90516104D01*
X70754762Y-90801819D02*
X71088095Y-89801819D01*
X71088095Y-89801819D02*
X71421428Y-90801819D01*
X72326190Y-90706580D02*
X72278571Y-90754200D01*
X72278571Y-90754200D02*
X72135714Y-90801819D01*
X72135714Y-90801819D02*
X72040476Y-90801819D01*
X72040476Y-90801819D02*
X71897619Y-90754200D01*
X71897619Y-90754200D02*
X71802381Y-90658961D01*
X71802381Y-90658961D02*
X71754762Y-90563723D01*
X71754762Y-90563723D02*
X71707143Y-90373247D01*
X71707143Y-90373247D02*
X71707143Y-90230390D01*
X71707143Y-90230390D02*
X71754762Y-90039914D01*
X71754762Y-90039914D02*
X71802381Y-89944676D01*
X71802381Y-89944676D02*
X71897619Y-89849438D01*
X71897619Y-89849438D02*
X72040476Y-89801819D01*
X72040476Y-89801819D02*
X72135714Y-89801819D01*
X72135714Y-89801819D02*
X72278571Y-89849438D01*
X72278571Y-89849438D02*
X72326190Y-89897057D01*
X72754762Y-90278009D02*
X73088095Y-90278009D01*
X73230952Y-90801819D02*
X72754762Y-90801819D01*
X72754762Y-90801819D02*
X72754762Y-89801819D01*
X72754762Y-89801819D02*
X73230952Y-89801819D01*
X83410588Y-132308494D02*
X83315350Y-132260875D01*
X83315350Y-132260875D02*
X83172493Y-132260875D01*
X83172493Y-132260875D02*
X83029636Y-132308494D01*
X83029636Y-132308494D02*
X82934398Y-132403732D01*
X82934398Y-132403732D02*
X82886779Y-132498970D01*
X82886779Y-132498970D02*
X82839160Y-132689446D01*
X82839160Y-132689446D02*
X82839160Y-132832303D01*
X82839160Y-132832303D02*
X82886779Y-133022779D01*
X82886779Y-133022779D02*
X82934398Y-133118017D01*
X82934398Y-133118017D02*
X83029636Y-133213256D01*
X83029636Y-133213256D02*
X83172493Y-133260875D01*
X83172493Y-133260875D02*
X83267731Y-133260875D01*
X83267731Y-133260875D02*
X83410588Y-133213256D01*
X83410588Y-133213256D02*
X83458207Y-133165636D01*
X83458207Y-133165636D02*
X83458207Y-132832303D01*
X83458207Y-132832303D02*
X83267731Y-132832303D01*
X83886779Y-133260875D02*
X83886779Y-132260875D01*
X83886779Y-132260875D02*
X84267731Y-132260875D01*
X84267731Y-132260875D02*
X84362969Y-132308494D01*
X84362969Y-132308494D02*
X84410588Y-132356113D01*
X84410588Y-132356113D02*
X84458207Y-132451351D01*
X84458207Y-132451351D02*
X84458207Y-132594208D01*
X84458207Y-132594208D02*
X84410588Y-132689446D01*
X84410588Y-132689446D02*
X84362969Y-132737065D01*
X84362969Y-132737065D02*
X84267731Y-132784684D01*
X84267731Y-132784684D02*
X83886779Y-132784684D01*
X84839160Y-133213256D02*
X84982017Y-133260875D01*
X84982017Y-133260875D02*
X85220112Y-133260875D01*
X85220112Y-133260875D02*
X85315350Y-133213256D01*
X85315350Y-133213256D02*
X85362969Y-133165636D01*
X85362969Y-133165636D02*
X85410588Y-133070398D01*
X85410588Y-133070398D02*
X85410588Y-132975160D01*
X85410588Y-132975160D02*
X85362969Y-132879922D01*
X85362969Y-132879922D02*
X85315350Y-132832303D01*
X85315350Y-132832303D02*
X85220112Y-132784684D01*
X85220112Y-132784684D02*
X85029636Y-132737065D01*
X85029636Y-132737065D02*
X84934398Y-132689446D01*
X84934398Y-132689446D02*
X84886779Y-132641827D01*
X84886779Y-132641827D02*
X84839160Y-132546589D01*
X84839160Y-132546589D02*
X84839160Y-132451351D01*
X84839160Y-132451351D02*
X84886779Y-132356113D01*
X84886779Y-132356113D02*
X84934398Y-132308494D01*
X84934398Y-132308494D02*
X85029636Y-132260875D01*
X85029636Y-132260875D02*
X85267731Y-132260875D01*
X85267731Y-132260875D02*
X85410588Y-132308494D01*
X85839160Y-133260875D02*
X85839160Y-132260875D01*
X85839160Y-132260875D02*
X86077255Y-132260875D01*
X86077255Y-132260875D02*
X86220112Y-132308494D01*
X86220112Y-132308494D02*
X86315350Y-132403732D01*
X86315350Y-132403732D02*
X86362969Y-132498970D01*
X86362969Y-132498970D02*
X86410588Y-132689446D01*
X86410588Y-132689446D02*
X86410588Y-132832303D01*
X86410588Y-132832303D02*
X86362969Y-133022779D01*
X86362969Y-133022779D02*
X86315350Y-133118017D01*
X86315350Y-133118017D02*
X86220112Y-133213256D01*
X86220112Y-133213256D02*
X86077255Y-133260875D01*
X86077255Y-133260875D02*
X85839160Y-133260875D01*
X87029636Y-132260875D02*
X87220112Y-132260875D01*
X87220112Y-132260875D02*
X87315350Y-132308494D01*
X87315350Y-132308494D02*
X87410588Y-132403732D01*
X87410588Y-132403732D02*
X87458207Y-132594208D01*
X87458207Y-132594208D02*
X87458207Y-132927541D01*
X87458207Y-132927541D02*
X87410588Y-133118017D01*
X87410588Y-133118017D02*
X87315350Y-133213256D01*
X87315350Y-133213256D02*
X87220112Y-133260875D01*
X87220112Y-133260875D02*
X87029636Y-133260875D01*
X87029636Y-133260875D02*
X86934398Y-133213256D01*
X86934398Y-133213256D02*
X86839160Y-133118017D01*
X86839160Y-133118017D02*
X86791541Y-132927541D01*
X86791541Y-132927541D02*
X86791541Y-132594208D01*
X86791541Y-132594208D02*
X86839160Y-132403732D01*
X86839160Y-132403732D02*
X86934398Y-132308494D01*
X86934398Y-132308494D02*
X87029636Y-132260875D01*
X88648684Y-133260875D02*
X88648684Y-132260875D01*
X88648684Y-132260875D02*
X88982017Y-132975160D01*
X88982017Y-132975160D02*
X89315350Y-132260875D01*
X89315350Y-132260875D02*
X89315350Y-133260875D01*
X90124874Y-132737065D02*
X90267731Y-132784684D01*
X90267731Y-132784684D02*
X90315350Y-132832303D01*
X90315350Y-132832303D02*
X90362969Y-132927541D01*
X90362969Y-132927541D02*
X90362969Y-133070398D01*
X90362969Y-133070398D02*
X90315350Y-133165636D01*
X90315350Y-133165636D02*
X90267731Y-133213256D01*
X90267731Y-133213256D02*
X90172493Y-133260875D01*
X90172493Y-133260875D02*
X89791541Y-133260875D01*
X89791541Y-133260875D02*
X89791541Y-132260875D01*
X89791541Y-132260875D02*
X90124874Y-132260875D01*
X90124874Y-132260875D02*
X90220112Y-132308494D01*
X90220112Y-132308494D02*
X90267731Y-132356113D01*
X90267731Y-132356113D02*
X90315350Y-132451351D01*
X90315350Y-132451351D02*
X90315350Y-132546589D01*
X90315350Y-132546589D02*
X90267731Y-132641827D01*
X90267731Y-132641827D02*
X90220112Y-132689446D01*
X90220112Y-132689446D02*
X90124874Y-132737065D01*
X90124874Y-132737065D02*
X89791541Y-132737065D01*
X91553446Y-133260875D02*
X91553446Y-132594208D01*
X91553446Y-132784684D02*
X91601065Y-132689446D01*
X91601065Y-132689446D02*
X91648684Y-132641827D01*
X91648684Y-132641827D02*
X91743922Y-132594208D01*
X91743922Y-132594208D02*
X91839160Y-132594208D01*
X92553446Y-133213256D02*
X92458208Y-133260875D01*
X92458208Y-133260875D02*
X92267732Y-133260875D01*
X92267732Y-133260875D02*
X92172494Y-133213256D01*
X92172494Y-133213256D02*
X92124875Y-133118017D01*
X92124875Y-133118017D02*
X92124875Y-132737065D01*
X92124875Y-132737065D02*
X92172494Y-132641827D01*
X92172494Y-132641827D02*
X92267732Y-132594208D01*
X92267732Y-132594208D02*
X92458208Y-132594208D01*
X92458208Y-132594208D02*
X92553446Y-132641827D01*
X92553446Y-132641827D02*
X92601065Y-132737065D01*
X92601065Y-132737065D02*
X92601065Y-132832303D01*
X92601065Y-132832303D02*
X92124875Y-132927541D01*
X92934399Y-132594208D02*
X93172494Y-133260875D01*
X93172494Y-133260875D02*
X93410589Y-132594208D01*
X93743923Y-132975160D02*
X94220113Y-132975160D01*
X93648685Y-133260875D02*
X93982018Y-132260875D01*
X93982018Y-132260875D02*
X94315351Y-133260875D01*
X82839160Y-134585104D02*
X83315350Y-134585104D01*
X82743922Y-134870819D02*
X83077255Y-133870819D01*
X83077255Y-133870819D02*
X83410588Y-134870819D01*
X83743922Y-134870819D02*
X83743922Y-133870819D01*
X83743922Y-134347009D02*
X84315350Y-134347009D01*
X84315350Y-134870819D02*
X84315350Y-133870819D01*
X85982017Y-134204152D02*
X85982017Y-134870819D01*
X85743922Y-133823200D02*
X85505827Y-134537485D01*
X85505827Y-134537485D02*
X86124874Y-134537485D01*
X87220112Y-133823200D02*
X86362970Y-135108914D01*
X87505827Y-133966057D02*
X87553446Y-133918438D01*
X87553446Y-133918438D02*
X87648684Y-133870819D01*
X87648684Y-133870819D02*
X87886779Y-133870819D01*
X87886779Y-133870819D02*
X87982017Y-133918438D01*
X87982017Y-133918438D02*
X88029636Y-133966057D01*
X88029636Y-133966057D02*
X88077255Y-134061295D01*
X88077255Y-134061295D02*
X88077255Y-134156533D01*
X88077255Y-134156533D02*
X88029636Y-134299390D01*
X88029636Y-134299390D02*
X87458208Y-134870819D01*
X87458208Y-134870819D02*
X88077255Y-134870819D01*
X88696303Y-133870819D02*
X88791541Y-133870819D01*
X88791541Y-133870819D02*
X88886779Y-133918438D01*
X88886779Y-133918438D02*
X88934398Y-133966057D01*
X88934398Y-133966057D02*
X88982017Y-134061295D01*
X88982017Y-134061295D02*
X89029636Y-134251771D01*
X89029636Y-134251771D02*
X89029636Y-134489866D01*
X89029636Y-134489866D02*
X88982017Y-134680342D01*
X88982017Y-134680342D02*
X88934398Y-134775580D01*
X88934398Y-134775580D02*
X88886779Y-134823200D01*
X88886779Y-134823200D02*
X88791541Y-134870819D01*
X88791541Y-134870819D02*
X88696303Y-134870819D01*
X88696303Y-134870819D02*
X88601065Y-134823200D01*
X88601065Y-134823200D02*
X88553446Y-134775580D01*
X88553446Y-134775580D02*
X88505827Y-134680342D01*
X88505827Y-134680342D02*
X88458208Y-134489866D01*
X88458208Y-134489866D02*
X88458208Y-134251771D01*
X88458208Y-134251771D02*
X88505827Y-134061295D01*
X88505827Y-134061295D02*
X88553446Y-133966057D01*
X88553446Y-133966057D02*
X88601065Y-133918438D01*
X88601065Y-133918438D02*
X88696303Y-133870819D01*
X89410589Y-133966057D02*
X89458208Y-133918438D01*
X89458208Y-133918438D02*
X89553446Y-133870819D01*
X89553446Y-133870819D02*
X89791541Y-133870819D01*
X89791541Y-133870819D02*
X89886779Y-133918438D01*
X89886779Y-133918438D02*
X89934398Y-133966057D01*
X89934398Y-133966057D02*
X89982017Y-134061295D01*
X89982017Y-134061295D02*
X89982017Y-134156533D01*
X89982017Y-134156533D02*
X89934398Y-134299390D01*
X89934398Y-134299390D02*
X89362970Y-134870819D01*
X89362970Y-134870819D02*
X89982017Y-134870819D01*
X90839160Y-134204152D02*
X90839160Y-134870819D01*
X90601065Y-133823200D02*
X90362970Y-134537485D01*
X90362970Y-134537485D02*
X90982017Y-134537485D01*
X74326905Y-133315104D02*
X74803095Y-133315104D01*
X74231667Y-133600819D02*
X74565000Y-132600819D01*
X74565000Y-132600819D02*
X74898333Y-133600819D01*
X75231667Y-132600819D02*
X75231667Y-133410342D01*
X75231667Y-133410342D02*
X75279286Y-133505580D01*
X75279286Y-133505580D02*
X75326905Y-133553200D01*
X75326905Y-133553200D02*
X75422143Y-133600819D01*
X75422143Y-133600819D02*
X75612619Y-133600819D01*
X75612619Y-133600819D02*
X75707857Y-133553200D01*
X75707857Y-133553200D02*
X75755476Y-133505580D01*
X75755476Y-133505580D02*
X75803095Y-133410342D01*
X75803095Y-133410342D02*
X75803095Y-132600819D01*
X76184048Y-132600819D02*
X76850714Y-133600819D01*
X76850714Y-132600819D02*
X76184048Y-133600819D01*
%TO.C,U10*%
D11*
X69315000Y-96795000D02*
X81815000Y-96795000D01*
X81815000Y-115295000D01*
X69315000Y-115295000D01*
X69315000Y-96795000D01*
X70993000Y-96795000D02*
X70493000Y-96295000D01*
X71493000Y-96295000D01*
X70993000Y-96795000D01*
G36*
X70993000Y-96795000D02*
G01*
X70493000Y-96295000D01*
X71493000Y-96295000D01*
X70993000Y-96795000D01*
G37*
D12*
%TO.C,R25*%
X93117936Y-99595000D02*
X93572064Y-99595000D01*
X93117936Y-101065000D02*
X93572064Y-101065000D01*
%TO.C,C6*%
X95531000Y-119641252D02*
X95531000Y-119118748D01*
X97001000Y-119641252D02*
X97001000Y-119118748D01*
%TO.C,R24*%
X93117936Y-101500000D02*
X93572064Y-101500000D01*
X93117936Y-102970000D02*
X93572064Y-102970000D01*
%TO.C,J9*%
X97458000Y-109425000D02*
X97458000Y-110675000D01*
X97458000Y-110675000D02*
X98708000Y-110675000D01*
X97558000Y-108615000D02*
X97558000Y-108915000D01*
X97558000Y-108915000D02*
X97758000Y-108915000D01*
X97658000Y-108615000D02*
X97658000Y-108915000D01*
X97758000Y-104255000D02*
X97758000Y-110375000D01*
X97758000Y-107815000D02*
X98368000Y-107815000D01*
X97758000Y-108615000D02*
X97558000Y-108615000D01*
X97758000Y-110375000D02*
X102478000Y-110375000D01*
X98368000Y-104865000D02*
X98368000Y-106815000D01*
X98368000Y-106815000D02*
X97758000Y-106815000D01*
X98368000Y-107815000D02*
X98368000Y-109765000D01*
X98368000Y-109765000D02*
X101868000Y-109765000D01*
X99068000Y-104255000D02*
X99068000Y-104865000D01*
X99068000Y-110375000D02*
X99068000Y-109765000D01*
X100368000Y-104255000D02*
X100368000Y-104865000D01*
X100368000Y-110375000D02*
X100368000Y-109765000D01*
X101368000Y-107215000D02*
X101868000Y-107215000D01*
X101368000Y-107415000D02*
X101368000Y-107215000D01*
X101868000Y-104865000D02*
X98368000Y-104865000D01*
X101868000Y-107315000D02*
X101368000Y-107315000D01*
X101868000Y-107415000D02*
X101368000Y-107415000D01*
X101868000Y-109765000D02*
X101868000Y-104865000D01*
X102478000Y-104255000D02*
X97758000Y-104255000D01*
X102478000Y-110375000D02*
X102478000Y-104255000D01*
%TO.C,C20*%
X94353748Y-137695000D02*
X94876252Y-137695000D01*
X94353748Y-139165000D02*
X94876252Y-139165000D01*
%TO.C,J8*%
X97458000Y-116410000D02*
X97458000Y-117660000D01*
X97458000Y-117660000D02*
X98708000Y-117660000D01*
X97558000Y-115600000D02*
X97558000Y-115900000D01*
X97558000Y-115900000D02*
X97758000Y-115900000D01*
X97658000Y-115600000D02*
X97658000Y-115900000D01*
X97758000Y-111240000D02*
X97758000Y-117360000D01*
X97758000Y-114800000D02*
X98368000Y-114800000D01*
X97758000Y-115600000D02*
X97558000Y-115600000D01*
X97758000Y-117360000D02*
X102478000Y-117360000D01*
X98368000Y-111850000D02*
X98368000Y-113800000D01*
X98368000Y-113800000D02*
X97758000Y-113800000D01*
X98368000Y-114800000D02*
X98368000Y-116750000D01*
X98368000Y-116750000D02*
X101868000Y-116750000D01*
X99068000Y-111240000D02*
X99068000Y-111850000D01*
X99068000Y-117360000D02*
X99068000Y-116750000D01*
X100368000Y-111240000D02*
X100368000Y-111850000D01*
X100368000Y-117360000D02*
X100368000Y-116750000D01*
X101368000Y-114200000D02*
X101868000Y-114200000D01*
X101368000Y-114400000D02*
X101368000Y-114200000D01*
X101868000Y-111850000D02*
X98368000Y-111850000D01*
X101868000Y-114300000D02*
X101368000Y-114300000D01*
X101868000Y-114400000D02*
X101368000Y-114400000D01*
X101868000Y-116750000D02*
X101868000Y-111850000D01*
X102478000Y-111240000D02*
X97758000Y-111240000D01*
X102478000Y-117360000D02*
X102478000Y-111240000D01*
%TO.C,R19*%
X93117936Y-114200000D02*
X93572064Y-114200000D01*
X93117936Y-115670000D02*
X93572064Y-115670000D01*
%TO.C,U7*%
X87630000Y-93990000D02*
X85680000Y-93990000D01*
X87630000Y-93990000D02*
X89580000Y-93990000D01*
X87630000Y-102860000D02*
X85680000Y-102860000D01*
X87630000Y-102860000D02*
X89580000Y-102860000D01*
X84930000Y-94055000D02*
X84690000Y-93725000D01*
X85170000Y-93725000D01*
X84930000Y-94055000D01*
G36*
X84930000Y-94055000D02*
G01*
X84690000Y-93725000D01*
X85170000Y-93725000D01*
X84930000Y-94055000D01*
G37*
%TO.C,U6*%
X87630000Y-106690000D02*
X85680000Y-106690000D01*
X87630000Y-106690000D02*
X89580000Y-106690000D01*
X87630000Y-115560000D02*
X85680000Y-115560000D01*
X87630000Y-115560000D02*
X89580000Y-115560000D01*
X84930000Y-106755000D02*
X84690000Y-106425000D01*
X85170000Y-106425000D01*
X84930000Y-106755000D01*
G36*
X84930000Y-106755000D02*
G01*
X84690000Y-106425000D01*
X85170000Y-106425000D01*
X84930000Y-106755000D01*
G37*
%TO.C,C2*%
X77208748Y-118010000D02*
X77731252Y-118010000D01*
X77208748Y-119480000D02*
X77731252Y-119480000D01*
%TO.C,C11*%
X87368748Y-91340000D02*
X87891252Y-91340000D01*
X87368748Y-92810000D02*
X87891252Y-92810000D01*
%TO.C,J3*%
X64005000Y-137680000D02*
X92205000Y-137680000D01*
X64005000Y-146800000D02*
X64005000Y-137680000D01*
X65305000Y-138990000D02*
X90905000Y-138990000D01*
X65305000Y-145490000D02*
X65305000Y-138990000D01*
X68715000Y-148190000D02*
X69715000Y-148190000D01*
X69215000Y-147190000D02*
X68715000Y-148190000D01*
X69715000Y-148190000D02*
X69215000Y-147190000D01*
X76055000Y-145490000D02*
X65305000Y-145490000D01*
X76055000Y-146800000D02*
X76055000Y-145490000D01*
X80155000Y-145490000D02*
X80155000Y-145490000D01*
X80155000Y-145490000D02*
X80155000Y-146800000D01*
X90905000Y-138990000D02*
X90905000Y-145490000D01*
X90905000Y-145490000D02*
X80155000Y-145490000D01*
X92205000Y-137680000D02*
X92205000Y-146800000D01*
X92205000Y-146800000D02*
X64005000Y-146800000D01*
%TO.C,U2*%
X75565000Y-120630000D02*
X73615000Y-120630000D01*
X75565000Y-120630000D02*
X77515000Y-120630000D01*
X75565000Y-125750000D02*
X73615000Y-125750000D01*
X75565000Y-125750000D02*
X77515000Y-125750000D01*
X78505000Y-125985000D02*
X78025000Y-125985000D01*
X78265000Y-125655000D01*
X78505000Y-125985000D01*
G36*
X78505000Y-125985000D02*
G01*
X78025000Y-125985000D01*
X78265000Y-125655000D01*
X78505000Y-125985000D01*
G37*
%TO.C,R1*%
X73887064Y-118010000D02*
X73432936Y-118010000D01*
X73887064Y-119480000D02*
X73432936Y-119480000D01*
%TO.C,R18*%
X93117936Y-106580000D02*
X93572064Y-106580000D01*
X93117936Y-108050000D02*
X93572064Y-108050000D01*
%TO.C,J6*%
X97458000Y-130380000D02*
X97458000Y-131630000D01*
X97458000Y-131630000D02*
X98708000Y-131630000D01*
X97558000Y-129570000D02*
X97558000Y-129870000D01*
X97558000Y-129870000D02*
X97758000Y-129870000D01*
X97658000Y-129570000D02*
X97658000Y-129870000D01*
X97758000Y-125210000D02*
X97758000Y-131330000D01*
X97758000Y-128770000D02*
X98368000Y-128770000D01*
X97758000Y-129570000D02*
X97558000Y-129570000D01*
X97758000Y-131330000D02*
X102478000Y-131330000D01*
X98368000Y-125820000D02*
X98368000Y-127770000D01*
X98368000Y-127770000D02*
X97758000Y-127770000D01*
X98368000Y-128770000D02*
X98368000Y-130720000D01*
X98368000Y-130720000D02*
X101868000Y-130720000D01*
X99068000Y-125210000D02*
X99068000Y-125820000D01*
X99068000Y-131330000D02*
X99068000Y-130720000D01*
X100368000Y-125210000D02*
X100368000Y-125820000D01*
X100368000Y-131330000D02*
X100368000Y-130720000D01*
X101368000Y-128170000D02*
X101868000Y-128170000D01*
X101368000Y-128370000D02*
X101368000Y-128170000D01*
X101868000Y-125820000D02*
X98368000Y-125820000D01*
X101868000Y-128270000D02*
X101368000Y-128270000D01*
X101868000Y-128370000D02*
X101368000Y-128370000D01*
X101868000Y-130720000D02*
X101868000Y-125820000D01*
X102478000Y-125210000D02*
X97758000Y-125210000D01*
X102478000Y-131330000D02*
X102478000Y-125210000D01*
%TO.C,U4*%
X87630000Y-119390000D02*
X85680000Y-119390000D01*
X87630000Y-119390000D02*
X89580000Y-119390000D01*
X87630000Y-128260000D02*
X85680000Y-128260000D01*
X87630000Y-128260000D02*
X89580000Y-128260000D01*
X84930000Y-119455000D02*
X84690000Y-119125000D01*
X85170000Y-119125000D01*
X84930000Y-119455000D01*
G36*
X84930000Y-119455000D02*
G01*
X84690000Y-119125000D01*
X85170000Y-119125000D01*
X84930000Y-119455000D01*
G37*
%TO.C,R10*%
X93117936Y-124995000D02*
X93572064Y-124995000D01*
X93117936Y-126465000D02*
X93572064Y-126465000D01*
%TO.C,J11*%
X72205000Y-127430000D02*
X72205000Y-128680000D01*
X72505000Y-127730000D02*
X72505000Y-132450000D01*
X72505000Y-129040000D02*
X73115000Y-129040000D01*
X72505000Y-130340000D02*
X73115000Y-130340000D01*
X72505000Y-132450000D02*
X78625000Y-132450000D01*
X73115000Y-128340000D02*
X73115000Y-131840000D01*
X73115000Y-131840000D02*
X78015000Y-131840000D01*
X73455000Y-127430000D02*
X72205000Y-127430000D01*
X73965000Y-127530000D02*
X73965000Y-127730000D01*
X74265000Y-127530000D02*
X73965000Y-127530000D01*
X74265000Y-127630000D02*
X73965000Y-127630000D01*
X74265000Y-127730000D02*
X74265000Y-127530000D01*
X75065000Y-127730000D02*
X75065000Y-128340000D01*
X75065000Y-128340000D02*
X73115000Y-128340000D01*
X75465000Y-131340000D02*
X75665000Y-131340000D01*
X75465000Y-131840000D02*
X75465000Y-131340000D01*
X75565000Y-131840000D02*
X75565000Y-131340000D01*
X75665000Y-131340000D02*
X75665000Y-131840000D01*
X76065000Y-128340000D02*
X76065000Y-127730000D01*
X78015000Y-128340000D02*
X76065000Y-128340000D01*
X78015000Y-131840000D02*
X78015000Y-128340000D01*
X78625000Y-127730000D02*
X72505000Y-127730000D01*
X78625000Y-129040000D02*
X78015000Y-129040000D01*
X78625000Y-130340000D02*
X78015000Y-130340000D01*
X78625000Y-132450000D02*
X78625000Y-127730000D01*
%TO.C,J5*%
X63790000Y-90985000D02*
X63790000Y-95705000D01*
X63790000Y-93095000D02*
X64400000Y-93095000D01*
X63790000Y-94395000D02*
X64400000Y-94395000D01*
X63790000Y-95705000D02*
X75910000Y-95705000D01*
X64400000Y-91595000D02*
X64400000Y-95095000D01*
X64400000Y-95095000D02*
X66350000Y-95095000D01*
X66350000Y-95095000D02*
X66350000Y-95705000D01*
X66750000Y-92095000D02*
X66750000Y-91595000D01*
X66850000Y-91595000D02*
X66850000Y-92095000D01*
X66950000Y-91595000D02*
X66950000Y-92095000D01*
X66950000Y-92095000D02*
X66750000Y-92095000D01*
X68750000Y-92095000D02*
X68750000Y-91595000D01*
X68850000Y-91595000D02*
X68850000Y-92095000D01*
X68950000Y-91595000D02*
X68950000Y-92095000D01*
X68950000Y-92095000D02*
X68750000Y-92095000D01*
X70750000Y-92095000D02*
X70750000Y-91595000D01*
X70850000Y-91595000D02*
X70850000Y-92095000D01*
X70950000Y-91595000D02*
X70950000Y-92095000D01*
X70950000Y-92095000D02*
X70750000Y-92095000D01*
X72750000Y-92095000D02*
X72750000Y-91595000D01*
X72850000Y-91595000D02*
X72850000Y-92095000D01*
X72950000Y-91595000D02*
X72950000Y-92095000D01*
X72950000Y-92095000D02*
X72750000Y-92095000D01*
X73350000Y-95095000D02*
X75300000Y-95095000D01*
X73350000Y-95705000D02*
X73350000Y-95095000D01*
X74150000Y-95705000D02*
X74150000Y-95905000D01*
X74150000Y-95805000D02*
X74450000Y-95805000D01*
X74150000Y-95905000D02*
X74450000Y-95905000D01*
X74450000Y-95905000D02*
X74450000Y-95705000D01*
X74960000Y-96005000D02*
X76210000Y-96005000D01*
X75300000Y-91595000D02*
X64400000Y-91595000D01*
X75300000Y-95095000D02*
X75300000Y-91595000D01*
X75910000Y-90985000D02*
X63790000Y-90985000D01*
X75910000Y-93095000D02*
X75300000Y-93095000D01*
X75910000Y-94395000D02*
X75300000Y-94395000D01*
X75910000Y-95705000D02*
X75910000Y-90985000D01*
X76210000Y-96005000D02*
X76210000Y-94755000D01*
%TO.C,R8*%
X93117936Y-119280000D02*
X93572064Y-119280000D01*
X93117936Y-120750000D02*
X93572064Y-120750000D01*
%TO.C,R23*%
X93117936Y-93880000D02*
X93572064Y-93880000D01*
X93117936Y-95350000D02*
X93572064Y-95350000D01*
%TO.C,C10*%
X95531000Y-106941252D02*
X95531000Y-106418748D01*
X97001000Y-106941252D02*
X97001000Y-106418748D01*
%TO.C,C18*%
X94353748Y-145950000D02*
X94876252Y-145950000D01*
X94353748Y-147420000D02*
X94876252Y-147420000D01*
%TO.C,R27*%
X93117936Y-95785000D02*
X93572064Y-95785000D01*
X93117936Y-97255000D02*
X93572064Y-97255000D01*
%TO.C,C22*%
X94353748Y-140235000D02*
X94876252Y-140235000D01*
X94353748Y-141705000D02*
X94876252Y-141705000D01*
%TO.C,J2*%
X57550000Y-123325000D02*
X57550000Y-124325000D01*
X57550000Y-124325000D02*
X58550000Y-123825000D01*
X58550000Y-123825000D02*
X57550000Y-123325000D01*
X58940000Y-118615000D02*
X68060000Y-118615000D01*
X58940000Y-125585000D02*
X60250000Y-125585000D01*
X58940000Y-136655000D02*
X58940000Y-118615000D01*
X60250000Y-119915000D02*
X66750000Y-119915000D01*
X60250000Y-125585000D02*
X60250000Y-119915000D01*
X60250000Y-129685000D02*
X58940000Y-129685000D01*
X60250000Y-129685000D02*
X60250000Y-129685000D01*
X60250000Y-135355000D02*
X60250000Y-129685000D01*
X66750000Y-119915000D02*
X66750000Y-135355000D01*
X66750000Y-135355000D02*
X60250000Y-135355000D01*
X68060000Y-118615000D02*
X68060000Y-136655000D01*
X68060000Y-136655000D02*
X58940000Y-136655000D01*
%TO.C,C9*%
X87368748Y-104040000D02*
X87891252Y-104040000D01*
X87368748Y-105510000D02*
X87891252Y-105510000D01*
%TO.C,R11*%
X93117936Y-123090000D02*
X93572064Y-123090000D01*
X93117936Y-124560000D02*
X93572064Y-124560000D01*
%TO.C,C16*%
X94353748Y-143410000D02*
X94876252Y-143410000D01*
X94353748Y-144880000D02*
X94876252Y-144880000D01*
%TO.C,R12*%
X93117936Y-121185000D02*
X93572064Y-121185000D01*
X93117936Y-122655000D02*
X93572064Y-122655000D01*
%TO.C,C5*%
X87368748Y-116740000D02*
X87891252Y-116740000D01*
X87368748Y-118210000D02*
X87891252Y-118210000D01*
%TO.C,J7*%
X97458000Y-123395000D02*
X97458000Y-124645000D01*
X97458000Y-124645000D02*
X98708000Y-124645000D01*
X97558000Y-122585000D02*
X97558000Y-122885000D01*
X97558000Y-122885000D02*
X97758000Y-122885000D01*
X97658000Y-122585000D02*
X97658000Y-122885000D01*
X97758000Y-118225000D02*
X97758000Y-124345000D01*
X97758000Y-121785000D02*
X98368000Y-121785000D01*
X97758000Y-122585000D02*
X97558000Y-122585000D01*
X97758000Y-124345000D02*
X102478000Y-124345000D01*
X98368000Y-118835000D02*
X98368000Y-120785000D01*
X98368000Y-120785000D02*
X97758000Y-120785000D01*
X98368000Y-121785000D02*
X98368000Y-123735000D01*
X98368000Y-123735000D02*
X101868000Y-123735000D01*
X99068000Y-118225000D02*
X99068000Y-118835000D01*
X99068000Y-124345000D02*
X99068000Y-123735000D01*
X100368000Y-118225000D02*
X100368000Y-118835000D01*
X100368000Y-124345000D02*
X100368000Y-123735000D01*
X101368000Y-121185000D02*
X101868000Y-121185000D01*
X101368000Y-121385000D02*
X101368000Y-121185000D01*
X101868000Y-118835000D02*
X98368000Y-118835000D01*
X101868000Y-121285000D02*
X101368000Y-121285000D01*
X101868000Y-121385000D02*
X101368000Y-121385000D01*
X101868000Y-123735000D02*
X101868000Y-118835000D01*
X102478000Y-118225000D02*
X97758000Y-118225000D01*
X102478000Y-124345000D02*
X102478000Y-118225000D01*
%TO.C,J10*%
X97458000Y-102440000D02*
X97458000Y-103690000D01*
X97458000Y-103690000D02*
X98708000Y-103690000D01*
X97558000Y-101630000D02*
X97558000Y-101930000D01*
X97558000Y-101930000D02*
X97758000Y-101930000D01*
X97658000Y-101630000D02*
X97658000Y-101930000D01*
X97758000Y-97270000D02*
X97758000Y-103390000D01*
X97758000Y-100830000D02*
X98368000Y-100830000D01*
X97758000Y-101630000D02*
X97558000Y-101630000D01*
X97758000Y-103390000D02*
X102478000Y-103390000D01*
X98368000Y-97880000D02*
X98368000Y-99830000D01*
X98368000Y-99830000D02*
X97758000Y-99830000D01*
X98368000Y-100830000D02*
X98368000Y-102780000D01*
X98368000Y-102780000D02*
X101868000Y-102780000D01*
X99068000Y-97270000D02*
X99068000Y-97880000D01*
X99068000Y-103390000D02*
X99068000Y-102780000D01*
X100368000Y-97270000D02*
X100368000Y-97880000D01*
X100368000Y-103390000D02*
X100368000Y-102780000D01*
X101368000Y-100230000D02*
X101868000Y-100230000D01*
X101368000Y-100430000D02*
X101368000Y-100230000D01*
X101868000Y-97880000D02*
X98368000Y-97880000D01*
X101868000Y-100330000D02*
X101368000Y-100330000D01*
X101868000Y-100430000D02*
X101368000Y-100430000D01*
X101868000Y-102780000D02*
X101868000Y-97880000D01*
X102478000Y-97270000D02*
X97758000Y-97270000D01*
X102478000Y-103390000D02*
X102478000Y-97270000D01*
%TO.C,R26*%
X93117936Y-97690000D02*
X93572064Y-97690000D01*
X93117936Y-99160000D02*
X93572064Y-99160000D01*
%TO.C,R21*%
X93117936Y-110390000D02*
X93572064Y-110390000D01*
X93117936Y-111860000D02*
X93572064Y-111860000D01*
%TO.C,R20*%
X93117936Y-112295000D02*
X93572064Y-112295000D01*
X93117936Y-113765000D02*
X93572064Y-113765000D01*
%TO.C,J1*%
X76950000Y-90985000D02*
X76950000Y-95705000D01*
X76950000Y-93095000D02*
X77560000Y-93095000D01*
X76950000Y-94395000D02*
X77560000Y-94395000D01*
X76950000Y-95705000D02*
X83070000Y-95705000D01*
X77560000Y-91595000D02*
X77560000Y-95095000D01*
X77560000Y-95095000D02*
X79510000Y-95095000D01*
X79510000Y-95095000D02*
X79510000Y-95705000D01*
X79910000Y-92095000D02*
X79910000Y-91595000D01*
X80010000Y-91595000D02*
X80010000Y-92095000D01*
X80110000Y-91595000D02*
X80110000Y-92095000D01*
X80110000Y-92095000D02*
X79910000Y-92095000D01*
X80510000Y-95095000D02*
X82460000Y-95095000D01*
X80510000Y-95705000D02*
X80510000Y-95095000D01*
X81310000Y-95705000D02*
X81310000Y-95905000D01*
X81310000Y-95805000D02*
X81610000Y-95805000D01*
X81310000Y-95905000D02*
X81610000Y-95905000D01*
X81610000Y-95905000D02*
X81610000Y-95705000D01*
X82120000Y-96005000D02*
X83370000Y-96005000D01*
X82460000Y-91595000D02*
X77560000Y-91595000D01*
X82460000Y-95095000D02*
X82460000Y-91595000D01*
X83070000Y-90985000D02*
X76950000Y-90985000D01*
X83070000Y-93095000D02*
X82460000Y-93095000D01*
X83070000Y-94395000D02*
X82460000Y-94395000D01*
X83070000Y-95705000D02*
X83070000Y-90985000D01*
X83370000Y-96005000D02*
X83370000Y-94755000D01*
%TO.C,R22*%
X93117936Y-108485000D02*
X93572064Y-108485000D01*
X93117936Y-109955000D02*
X93572064Y-109955000D01*
%TO.C,R9*%
X93117936Y-126900000D02*
X93572064Y-126900000D01*
X93117936Y-128370000D02*
X93572064Y-128370000D01*
%TO.C,J4*%
X57550000Y-101735000D02*
X57550000Y-102735000D01*
X57550000Y-102735000D02*
X58550000Y-102235000D01*
X58550000Y-102235000D02*
X57550000Y-101735000D01*
X58940000Y-97025000D02*
X68060000Y-97025000D01*
X58940000Y-105265000D02*
X60250000Y-105265000D01*
X58940000Y-117605000D02*
X58940000Y-97025000D01*
X60250000Y-98325000D02*
X66750000Y-98325000D01*
X60250000Y-105265000D02*
X60250000Y-98325000D01*
X60250000Y-109365000D02*
X58940000Y-109365000D01*
X60250000Y-109365000D02*
X60250000Y-109365000D01*
X60250000Y-116305000D02*
X60250000Y-109365000D01*
X66750000Y-98325000D02*
X66750000Y-116305000D01*
X66750000Y-116305000D02*
X60250000Y-116305000D01*
X68060000Y-97025000D02*
X68060000Y-117605000D01*
X68060000Y-117605000D02*
X58940000Y-117605000D01*
%TO.C,C12*%
X95531000Y-95623748D02*
X95531000Y-96146252D01*
X97001000Y-95623748D02*
X97001000Y-96146252D01*
%TD*%
M02*
