%TF.GenerationSoftware,KiCad,Pcbnew,8.0.1-8.0.1-1~ubuntu22.04.1*%
%TF.CreationDate,2024-04-07T16:32:49+03:00*%
%TF.ProjectId,main_board,6d61696e-5f62-46f6-9172-642e6b696361,rev?*%
%TF.SameCoordinates,Original*%
%TF.FileFunction,Paste,Top*%
%TF.FilePolarity,Positive*%
%FSLAX46Y46*%
G04 Gerber Fmt 4.6, Leading zero omitted, Abs format (unit mm)*
G04 Created by KiCad (PCBNEW 8.0.1-8.0.1-1~ubuntu22.04.1) date 2024-04-07 16:32:49*
%MOMM*%
%LPD*%
G01*
G04 APERTURE LIST*
G04 Aperture macros list*
%AMRoundRect*
0 Rectangle with rounded corners*
0 $1 Rounding radius*
0 $2 $3 $4 $5 $6 $7 $8 $9 X,Y pos of 4 corners*
0 Add a 4 corners polygon primitive as box body*
4,1,4,$2,$3,$4,$5,$6,$7,$8,$9,$2,$3,0*
0 Add four circle primitives for the rounded corners*
1,1,$1+$1,$2,$3*
1,1,$1+$1,$4,$5*
1,1,$1+$1,$6,$7*
1,1,$1+$1,$8,$9*
0 Add four rect primitives between the rounded corners*
20,1,$1+$1,$2,$3,$4,$5,0*
20,1,$1+$1,$4,$5,$6,$7,0*
20,1,$1+$1,$6,$7,$8,$9,0*
20,1,$1+$1,$8,$9,$2,$3,0*%
G04 Aperture macros list end*
%ADD10RoundRect,0.625000X-0.625000X0.625000X-0.625000X-0.625000X0.625000X-0.625000X0.625000X0.625000X0*%
%ADD11RoundRect,0.250000X-0.350000X-0.450000X0.350000X-0.450000X0.350000X0.450000X-0.350000X0.450000X0*%
%ADD12RoundRect,0.250000X0.475000X-0.337500X0.475000X0.337500X-0.475000X0.337500X-0.475000X-0.337500X0*%
%ADD13RoundRect,0.250000X-0.337500X-0.475000X0.337500X-0.475000X0.337500X0.475000X-0.337500X0.475000X0*%
%ADD14RoundRect,0.150000X-0.825000X-0.150000X0.825000X-0.150000X0.825000X0.150000X-0.825000X0.150000X0*%
%ADD15RoundRect,0.150000X0.675000X0.150000X-0.675000X0.150000X-0.675000X-0.150000X0.675000X-0.150000X0*%
%ADD16RoundRect,0.250000X0.350000X0.450000X-0.350000X0.450000X-0.350000X-0.450000X0.350000X-0.450000X0*%
%ADD17RoundRect,0.250000X-0.475000X0.337500X-0.475000X-0.337500X0.475000X-0.337500X0.475000X0.337500X0*%
G04 APERTURE END LIST*
D10*
%TO.C,U10*%
X71065000Y-98425000D03*
X71065000Y-113665000D03*
X80065000Y-98425000D03*
X80065000Y-113665000D03*
%TD*%
D11*
%TO.C,R25*%
X92345000Y-100330000D03*
X94345000Y-100330000D03*
%TD*%
D12*
%TO.C,C6*%
X96266000Y-120417500D03*
X96266000Y-118342500D03*
%TD*%
D11*
%TO.C,R24*%
X92345000Y-102235000D03*
X94345000Y-102235000D03*
%TD*%
D13*
%TO.C,C20*%
X93577500Y-138430000D03*
X95652500Y-138430000D03*
%TD*%
D11*
%TO.C,R19*%
X92345000Y-114935000D03*
X94345000Y-114935000D03*
%TD*%
D14*
%TO.C,U7*%
X85155000Y-94615000D03*
X85155000Y-95885000D03*
X85155000Y-97155000D03*
X85155000Y-98425000D03*
X85155000Y-99695000D03*
X85155000Y-100965000D03*
X85155000Y-102235000D03*
X90105000Y-102235000D03*
X90105000Y-100965000D03*
X90105000Y-99695000D03*
X90105000Y-98425000D03*
X90105000Y-97155000D03*
X90105000Y-95885000D03*
X90105000Y-94615000D03*
%TD*%
%TO.C,U6*%
X85155000Y-107315000D03*
X85155000Y-108585000D03*
X85155000Y-109855000D03*
X85155000Y-111125000D03*
X85155000Y-112395000D03*
X85155000Y-113665000D03*
X85155000Y-114935000D03*
X90105000Y-114935000D03*
X90105000Y-113665000D03*
X90105000Y-112395000D03*
X90105000Y-111125000D03*
X90105000Y-109855000D03*
X90105000Y-108585000D03*
X90105000Y-107315000D03*
%TD*%
D13*
%TO.C,C2*%
X76432500Y-118745000D03*
X78507500Y-118745000D03*
%TD*%
%TO.C,C11*%
X86592500Y-92075000D03*
X88667500Y-92075000D03*
%TD*%
D15*
%TO.C,U2*%
X78190000Y-125095000D03*
X78190000Y-123825000D03*
X78190000Y-122555000D03*
X78190000Y-121285000D03*
X72940000Y-121285000D03*
X72940000Y-122555000D03*
X72940000Y-123825000D03*
X72940000Y-125095000D03*
%TD*%
D16*
%TO.C,R1*%
X74660000Y-118745000D03*
X72660000Y-118745000D03*
%TD*%
D11*
%TO.C,R18*%
X92345000Y-107315000D03*
X94345000Y-107315000D03*
%TD*%
D14*
%TO.C,U4*%
X85155000Y-120015000D03*
X85155000Y-121285000D03*
X85155000Y-122555000D03*
X85155000Y-123825000D03*
X85155000Y-125095000D03*
X85155000Y-126365000D03*
X85155000Y-127635000D03*
X90105000Y-127635000D03*
X90105000Y-126365000D03*
X90105000Y-125095000D03*
X90105000Y-123825000D03*
X90105000Y-122555000D03*
X90105000Y-121285000D03*
X90105000Y-120015000D03*
%TD*%
D11*
%TO.C,R10*%
X92345000Y-125730000D03*
X94345000Y-125730000D03*
%TD*%
%TO.C,R8*%
X92345000Y-120015000D03*
X94345000Y-120015000D03*
%TD*%
%TO.C,R23*%
X92345000Y-94615000D03*
X94345000Y-94615000D03*
%TD*%
D12*
%TO.C,C10*%
X96266000Y-107717500D03*
X96266000Y-105642500D03*
%TD*%
D13*
%TO.C,C18*%
X93577500Y-146685000D03*
X95652500Y-146685000D03*
%TD*%
D11*
%TO.C,R27*%
X92345000Y-96520000D03*
X94345000Y-96520000D03*
%TD*%
D13*
%TO.C,C22*%
X93577500Y-140970000D03*
X95652500Y-140970000D03*
%TD*%
%TO.C,C9*%
X86592500Y-104775000D03*
X88667500Y-104775000D03*
%TD*%
D11*
%TO.C,R11*%
X92345000Y-123825000D03*
X94345000Y-123825000D03*
%TD*%
D13*
%TO.C,C16*%
X93577500Y-144145000D03*
X95652500Y-144145000D03*
%TD*%
D11*
%TO.C,R12*%
X92345000Y-121920000D03*
X94345000Y-121920000D03*
%TD*%
D13*
%TO.C,C5*%
X86592500Y-117475000D03*
X88667500Y-117475000D03*
%TD*%
D11*
%TO.C,R26*%
X92345000Y-98425000D03*
X94345000Y-98425000D03*
%TD*%
%TO.C,R21*%
X92345000Y-111125000D03*
X94345000Y-111125000D03*
%TD*%
%TO.C,R20*%
X92345000Y-113030000D03*
X94345000Y-113030000D03*
%TD*%
%TO.C,R22*%
X92345000Y-109220000D03*
X94345000Y-109220000D03*
%TD*%
%TO.C,R9*%
X92345000Y-127635000D03*
X94345000Y-127635000D03*
%TD*%
D17*
%TO.C,C12*%
X96266000Y-94847500D03*
X96266000Y-96922500D03*
%TD*%
M02*
