M48
; DRILL file {KiCad 8.0.1-8.0.1-1~ubuntu22.04.1} date 2024-04-07T16:32:59+0300
; FORMAT={-:-/ absolute / inch / decimal}
; #@! TF.CreationDate,2024-04-07T16:32:59+03:00
; #@! TF.GenerationSoftware,Kicad,Pcbnew,8.0.1-8.0.1-1~ubuntu22.04.1
; #@! TF.FileFunction,Plated,1,4,PTH
FMAT,2
INCH
; #@! TA.AperFunction,Plated,PTH,ViaDrill
T1C0.0118
; #@! TA.AperFunction,Plated,PTH,ComponentDrill
T2C0.0295
; #@! TA.AperFunction,Plated,PTH,ComponentDrill
T3C0.0394
; #@! TA.AperFunction,Plated,PTH,ComponentDrill
T4C0.1260
%
G90
G05
T1
X2.3Y-4.075
X2.3Y-4.925
X2.325Y-4.225
X2.325Y-5.45
X2.35Y-4.175
X2.35Y-5.5
X2.375Y-4.6
X2.5Y-4.65
X2.5Y-5.4
X2.625Y-5.425
X2.65Y-4.5
X2.675Y-4.025
X2.7Y-4.475
X2.725Y-4.425
X2.75Y-4.375
X2.75Y-4.575
X2.775Y-4.375
X2.775Y-4.575
X2.775Y-4.8
X2.8Y-4.375
X2.8Y-4.575
X2.8Y-4.875
X2.85Y-4.375
X2.85Y-4.575
X2.85Y-4.625
X2.875Y-4.375
X2.875Y-4.575
X2.875Y-4.725
X2.875Y-4.975
X2.9Y-5.475
X2.925Y-4.3
X2.95Y-4.3
X2.95Y-5.475
X2.975Y-4.3
X2.975Y-4.6
X2.975Y-4.675
X2.975Y-4.775
X2.975Y-4.825
X3.025Y-4.925
X3.125Y-4.15
X3.125Y-4.3
X3.125Y-4.975
X3.15Y-4.15
X3.15Y-4.3
X3.15Y-4.375
X3.15Y-4.575
X3.15Y-4.675
X3.15Y-4.875
X3.15Y-4.925
X3.175Y-4.075
X3.175Y-4.15
X3.175Y-4.3
X3.175Y-4.975
X3.2Y-4.375
X3.2Y-4.575
X3.225Y-3.775
X3.225Y-4.75
X3.25Y-3.575
X3.25Y-4.075
X3.25Y-4.575
X3.25Y-5.075
X3.275Y-4.225
X3.275Y-4.725
X3.275Y-4.925
X3.35Y-3.625
X3.35Y-4.125
X3.35Y-4.625
X3.35Y-5.125
X3.425Y-4.025
X3.425Y-4.225
X3.425Y-4.525
X3.425Y-4.725
X3.425Y-5.025
X3.53Y-5.425
X3.53Y-5.45
X3.53Y-5.475
X3.53Y-5.5
X3.55Y-4.625
X3.55Y-5.125
X3.555Y-5.725
X3.555Y-5.7
X3.555Y-5.75
X3.635Y-5.375
X3.66Y-5.375
X3.685Y-5.375
X3.71Y-5.375
X3.735Y-5.375
X3.74Y-5.725
X3.74Y-5.825
X3.81Y-5.725
X3.81Y-5.825
X3.84Y-5.425
X3.84Y-5.45
X3.84Y-5.475
X3.84Y-5.5
T2
X2.5925Y-3.6967
X2.6713Y-3.6967
X2.75Y-3.6967
X2.8287Y-3.6967
X2.9075Y-3.6967
X2.9356Y-5.1
X3.0144Y-5.1
X3.1106Y-3.6967
X3.1894Y-3.6967
X3.92Y-3.9106
X3.92Y-3.9894
X3.92Y-4.1856
X3.92Y-4.2644
X3.92Y-4.4606
X3.92Y-4.5394
X3.92Y-4.7356
X3.92Y-4.8144
X3.92Y-5.0106
X3.92Y-5.0894
T3
X2.45Y-4.025
X2.45Y-4.125
X2.45Y-4.225
X2.45Y-4.325
X2.45Y-4.425
X2.45Y-4.875
X2.45Y-4.975
X2.45Y-5.075
X2.45Y-5.175
X2.55Y-4.025
X2.55Y-4.125
X2.55Y-4.225
X2.55Y-4.325
X2.55Y-4.425
X2.55Y-4.875
X2.55Y-4.975
X2.55Y-5.075
X2.55Y-5.175
X2.725Y-5.55
X2.725Y-5.65
X2.825Y-5.55
X2.825Y-5.65
X2.925Y-5.55
X2.925Y-5.65
X3.025Y-5.55
X3.025Y-5.65
X3.125Y-5.55
X3.125Y-5.65
X3.225Y-5.55
X3.225Y-5.65
X3.325Y-5.55
X3.325Y-5.65
X3.425Y-5.55
X3.425Y-5.65
T4
X2.375Y-3.65
X2.375Y-5.725
X3.975Y-3.65
X3.975Y-5.725
M30
