%TF.GenerationSoftware,KiCad,Pcbnew,8.0.1-8.0.1-1~ubuntu22.04.1*%
%TF.CreationDate,2024-04-07T16:32:49+03:00*%
%TF.ProjectId,main_board,6d61696e-5f62-46f6-9172-642e6b696361,rev?*%
%TF.SameCoordinates,Original*%
%TF.FileFunction,Paste,Bot*%
%TF.FilePolarity,Positive*%
%FSLAX46Y46*%
G04 Gerber Fmt 4.6, Leading zero omitted, Abs format (unit mm)*
G04 Created by KiCad (PCBNEW 8.0.1-8.0.1-1~ubuntu22.04.1) date 2024-04-07 16:32:49*
%MOMM*%
%LPD*%
G01*
G04 APERTURE LIST*
G04 Aperture macros list*
%AMRoundRect*
0 Rectangle with rounded corners*
0 $1 Rounding radius*
0 $2 $3 $4 $5 $6 $7 $8 $9 X,Y pos of 4 corners*
0 Add a 4 corners polygon primitive as box body*
4,1,4,$2,$3,$4,$5,$6,$7,$8,$9,$2,$3,0*
0 Add four circle primitives for the rounded corners*
1,1,$1+$1,$2,$3*
1,1,$1+$1,$4,$5*
1,1,$1+$1,$6,$7*
1,1,$1+$1,$8,$9*
0 Add four rect primitives between the rounded corners*
20,1,$1+$1,$2,$3,$4,$5,0*
20,1,$1+$1,$4,$5,$6,$7,0*
20,1,$1+$1,$6,$7,$8,$9,0*
20,1,$1+$1,$8,$9,$2,$3,0*%
G04 Aperture macros list end*
%ADD10RoundRect,0.250000X-0.350000X-0.450000X0.350000X-0.450000X0.350000X0.450000X-0.350000X0.450000X0*%
%ADD11RoundRect,0.250000X-0.475000X0.337500X-0.475000X-0.337500X0.475000X-0.337500X0.475000X0.337500X0*%
%ADD12RoundRect,0.250000X-0.450000X0.350000X-0.450000X-0.350000X0.450000X-0.350000X0.450000X0.350000X0*%
%ADD13RoundRect,0.250000X0.350000X-0.850000X0.350000X0.850000X-0.350000X0.850000X-0.350000X-0.850000X0*%
%ADD14RoundRect,0.250000X1.125000X-1.275000X1.125000X1.275000X-1.125000X1.275000X-1.125000X-1.275000X0*%
%ADD15RoundRect,0.250000X-0.337500X-0.475000X0.337500X-0.475000X0.337500X0.475000X-0.337500X0.475000X0*%
%ADD16RoundRect,0.250000X0.475000X-0.337500X0.475000X0.337500X-0.475000X0.337500X-0.475000X-0.337500X0*%
%ADD17RoundRect,0.150000X-0.150000X0.825000X-0.150000X-0.825000X0.150000X-0.825000X0.150000X0.825000X0*%
%ADD18RoundRect,0.250000X0.450000X-0.350000X0.450000X0.350000X-0.450000X0.350000X-0.450000X-0.350000X0*%
%ADD19RoundRect,0.150000X-0.825000X-0.150000X0.825000X-0.150000X0.825000X0.150000X-0.825000X0.150000X0*%
%ADD20RoundRect,0.150000X-0.675000X-0.150000X0.675000X-0.150000X0.675000X0.150000X-0.675000X0.150000X0*%
%ADD21RoundRect,0.150000X0.150000X-0.825000X0.150000X0.825000X-0.150000X0.825000X-0.150000X-0.825000X0*%
%ADD22RoundRect,0.250000X0.350000X0.450000X-0.350000X0.450000X-0.350000X-0.450000X0.350000X-0.450000X0*%
G04 APERTURE END LIST*
D10*
%TO.C,R5*%
X92345000Y-121920000D03*
X94345000Y-121920000D03*
%TD*%
D11*
%TO.C,C14*%
X61595000Y-138027500D03*
X61595000Y-140102500D03*
%TD*%
D12*
%TO.C,R29*%
X61595000Y-134255000D03*
X61595000Y-136255000D03*
%TD*%
D13*
%TO.C,U12*%
X91319000Y-146645000D03*
D14*
X95124000Y-138670000D03*
X92074000Y-138670000D03*
X95124000Y-142020000D03*
X92074000Y-142020000D03*
D13*
X95879000Y-146645000D03*
%TD*%
D15*
%TO.C,C21*%
X78337500Y-112395000D03*
X80412500Y-112395000D03*
%TD*%
D16*
%TO.C,C4*%
X96266000Y-127402500D03*
X96266000Y-125327500D03*
%TD*%
D17*
%TO.C,U8*%
X63500000Y-115635000D03*
X64770000Y-115635000D03*
X66040000Y-115635000D03*
X67310000Y-115635000D03*
X67310000Y-120585000D03*
X66040000Y-120585000D03*
X64770000Y-120585000D03*
X63500000Y-120585000D03*
%TD*%
D10*
%TO.C,R15*%
X92345000Y-109220000D03*
X94345000Y-109220000D03*
%TD*%
D16*
%TO.C,C8*%
X96266000Y-114702500D03*
X96266000Y-112627500D03*
%TD*%
%TO.C,C13*%
X61595000Y-117242500D03*
X61595000Y-115167500D03*
%TD*%
D15*
%TO.C,C19*%
X78337500Y-114935000D03*
X80412500Y-114935000D03*
%TD*%
%TO.C,C1*%
X76432500Y-118745000D03*
X78507500Y-118745000D03*
%TD*%
D18*
%TO.C,R28*%
X61595000Y-121015000D03*
X61595000Y-119015000D03*
%TD*%
D19*
%TO.C,U3*%
X85155000Y-127635000D03*
X85155000Y-126365000D03*
X85155000Y-125095000D03*
X85155000Y-123825000D03*
X85155000Y-122555000D03*
X85155000Y-121285000D03*
X85155000Y-120015000D03*
X90105000Y-120015000D03*
X90105000Y-121285000D03*
X90105000Y-122555000D03*
X90105000Y-123825000D03*
X90105000Y-125095000D03*
X90105000Y-126365000D03*
X90105000Y-127635000D03*
%TD*%
D15*
%TO.C,C7*%
X86592500Y-117475000D03*
X88667500Y-117475000D03*
%TD*%
D20*
%TO.C,U1*%
X72940000Y-125095000D03*
X72940000Y-123825000D03*
X72940000Y-122555000D03*
X72940000Y-121285000D03*
X78190000Y-121285000D03*
X78190000Y-122555000D03*
X78190000Y-123825000D03*
X78190000Y-125095000D03*
%TD*%
D21*
%TO.C,U9*%
X67310000Y-139635000D03*
X66040000Y-139635000D03*
X64770000Y-139635000D03*
X63500000Y-139635000D03*
X63500000Y-134685000D03*
X64770000Y-134685000D03*
X66040000Y-134685000D03*
X67310000Y-134685000D03*
%TD*%
D10*
%TO.C,R4*%
X92345000Y-120015000D03*
X94345000Y-120015000D03*
%TD*%
D15*
%TO.C,C15*%
X70717500Y-112395000D03*
X72792500Y-112395000D03*
%TD*%
D10*
%TO.C,R3*%
X92345000Y-127635000D03*
X94345000Y-127635000D03*
%TD*%
D15*
%TO.C,C3*%
X86592500Y-130175000D03*
X88667500Y-130175000D03*
%TD*%
D19*
%TO.C,U5*%
X85155000Y-114935000D03*
X85155000Y-113665000D03*
X85155000Y-112395000D03*
X85155000Y-111125000D03*
X85155000Y-109855000D03*
X85155000Y-108585000D03*
X85155000Y-107315000D03*
X90105000Y-107315000D03*
X90105000Y-108585000D03*
X90105000Y-109855000D03*
X90105000Y-111125000D03*
X90105000Y-112395000D03*
X90105000Y-113665000D03*
X90105000Y-114935000D03*
%TD*%
D10*
%TO.C,R14*%
X92345000Y-107315000D03*
X94345000Y-107315000D03*
%TD*%
%TO.C,R13*%
X92345000Y-114935000D03*
X94345000Y-114935000D03*
%TD*%
D13*
%TO.C,U11*%
X79750000Y-107275000D03*
D14*
X75945000Y-102650000D03*
X78995000Y-102650000D03*
X75945000Y-99300000D03*
X78995000Y-99300000D03*
D13*
X75190000Y-107275000D03*
%TD*%
D10*
%TO.C,R6*%
X92345000Y-123825000D03*
X94345000Y-123825000D03*
%TD*%
D15*
%TO.C,C17*%
X70717500Y-114935000D03*
X72792500Y-114935000D03*
%TD*%
D22*
%TO.C,R2*%
X74660000Y-118745000D03*
X72660000Y-118745000D03*
%TD*%
D10*
%TO.C,R7*%
X92345000Y-125730000D03*
X94345000Y-125730000D03*
%TD*%
%TO.C,R17*%
X92345000Y-113030000D03*
X94345000Y-113030000D03*
%TD*%
%TO.C,R16*%
X92345000Y-111125000D03*
X94345000Y-111125000D03*
%TD*%
M02*
