%TF.GenerationSoftware,KiCad,Pcbnew,8.0.1-8.0.1-1~ubuntu22.04.1*%
%TF.CreationDate,2024-04-07T16:32:48+03:00*%
%TF.ProjectId,main_board,6d61696e-5f62-46f6-9172-642e6b696361,rev?*%
%TF.SameCoordinates,Original*%
%TF.FileFunction,Copper,L1,Top*%
%TF.FilePolarity,Positive*%
%FSLAX46Y46*%
G04 Gerber Fmt 4.6, Leading zero omitted, Abs format (unit mm)*
G04 Created by KiCad (PCBNEW 8.0.1-8.0.1-1~ubuntu22.04.1) date 2024-04-07 16:32:48*
%MOMM*%
%LPD*%
G01*
G04 APERTURE LIST*
G04 Aperture macros list*
%AMRoundRect*
0 Rectangle with rounded corners*
0 $1 Rounding radius*
0 $2 $3 $4 $5 $6 $7 $8 $9 X,Y pos of 4 corners*
0 Add a 4 corners polygon primitive as box body*
4,1,4,$2,$3,$4,$5,$6,$7,$8,$9,$2,$3,0*
0 Add four circle primitives for the rounded corners*
1,1,$1+$1,$2,$3*
1,1,$1+$1,$4,$5*
1,1,$1+$1,$6,$7*
1,1,$1+$1,$8,$9*
0 Add four rect primitives between the rounded corners*
20,1,$1+$1,$2,$3,$4,$5,0*
20,1,$1+$1,$4,$5,$6,$7,0*
20,1,$1+$1,$6,$7,$8,$9,0*
20,1,$1+$1,$8,$9,$2,$3,0*%
G04 Aperture macros list end*
%TA.AperFunction,SMDPad,CuDef*%
%ADD10RoundRect,0.625000X-0.625000X0.625000X-0.625000X-0.625000X0.625000X-0.625000X0.625000X0.625000X0*%
%TD*%
%TA.AperFunction,SMDPad,CuDef*%
%ADD11RoundRect,0.250000X-0.350000X-0.450000X0.350000X-0.450000X0.350000X0.450000X-0.350000X0.450000X0*%
%TD*%
%TA.AperFunction,SMDPad,CuDef*%
%ADD12RoundRect,0.250000X0.475000X-0.337500X0.475000X0.337500X-0.475000X0.337500X-0.475000X-0.337500X0*%
%TD*%
%TA.AperFunction,ComponentPad*%
%ADD13RoundRect,0.250000X0.625000X-0.350000X0.625000X0.350000X-0.625000X0.350000X-0.625000X-0.350000X0*%
%TD*%
%TA.AperFunction,ComponentPad*%
%ADD14O,1.750000X1.200000*%
%TD*%
%TA.AperFunction,SMDPad,CuDef*%
%ADD15RoundRect,0.250000X-0.337500X-0.475000X0.337500X-0.475000X0.337500X0.475000X-0.337500X0.475000X0*%
%TD*%
%TA.AperFunction,SMDPad,CuDef*%
%ADD16RoundRect,0.150000X-0.825000X-0.150000X0.825000X-0.150000X0.825000X0.150000X-0.825000X0.150000X0*%
%TD*%
%TA.AperFunction,ComponentPad*%
%ADD17C,5.600000*%
%TD*%
%TA.AperFunction,ComponentPad*%
%ADD18RoundRect,0.250000X0.600000X-0.600000X0.600000X0.600000X-0.600000X0.600000X-0.600000X-0.600000X0*%
%TD*%
%TA.AperFunction,ComponentPad*%
%ADD19C,1.700000*%
%TD*%
%TA.AperFunction,SMDPad,CuDef*%
%ADD20RoundRect,0.150000X0.675000X0.150000X-0.675000X0.150000X-0.675000X-0.150000X0.675000X-0.150000X0*%
%TD*%
%TA.AperFunction,SMDPad,CuDef*%
%ADD21RoundRect,0.250000X0.350000X0.450000X-0.350000X0.450000X-0.350000X-0.450000X0.350000X-0.450000X0*%
%TD*%
%TA.AperFunction,ComponentPad*%
%ADD22RoundRect,0.250000X-0.350000X-0.625000X0.350000X-0.625000X0.350000X0.625000X-0.350000X0.625000X0*%
%TD*%
%TA.AperFunction,ComponentPad*%
%ADD23O,1.200000X1.750000*%
%TD*%
%TA.AperFunction,ComponentPad*%
%ADD24RoundRect,0.250000X0.350000X0.625000X-0.350000X0.625000X-0.350000X-0.625000X0.350000X-0.625000X0*%
%TD*%
%TA.AperFunction,ComponentPad*%
%ADD25RoundRect,0.250000X-0.600000X-0.600000X0.600000X-0.600000X0.600000X0.600000X-0.600000X0.600000X0*%
%TD*%
%TA.AperFunction,SMDPad,CuDef*%
%ADD26RoundRect,0.250000X-0.475000X0.337500X-0.475000X-0.337500X0.475000X-0.337500X0.475000X0.337500X0*%
%TD*%
%TA.AperFunction,ViaPad*%
%ADD27C,0.600000*%
%TD*%
%TA.AperFunction,Conductor*%
%ADD28C,0.400000*%
%TD*%
%TA.AperFunction,Conductor*%
%ADD29C,0.200000*%
%TD*%
G04 APERTURE END LIST*
D10*
%TO.P,U10,1,IN*%
%TO.N,/Supplies/+12V*%
X71065000Y-98425000D03*
%TO.P,U10,2,OUT*%
%TO.N,/6.5V*%
X71065000Y-113665000D03*
%TO.P,U10,3,GND*%
%TO.N,GND*%
X80065000Y-98425000D03*
X80065000Y-113665000D03*
%TD*%
D11*
%TO.P,R25,1*%
%TO.N,Net-(R25-Pad1)*%
X92345000Y-100330000D03*
%TO.P,R25,2*%
%TO.N,Net-(C12-Pad1)*%
X94345000Y-100330000D03*
%TD*%
D12*
%TO.P,C6,1*%
%TO.N,Net-(C6-Pad1)*%
X96266000Y-120417500D03*
%TO.P,C6,2*%
%TO.N,/10MHz_O2*%
X96266000Y-118342500D03*
%TD*%
D11*
%TO.P,R24,1*%
%TO.N,Net-(R24-Pad1)*%
X92345000Y-102235000D03*
%TO.P,R24,2*%
%TO.N,Net-(C12-Pad1)*%
X94345000Y-102235000D03*
%TD*%
D13*
%TO.P,J9,1,Pin_1*%
%TO.N,GND*%
X99568000Y-108315000D03*
D14*
%TO.P,J9,2,Pin_2*%
%TO.N,/10MHz_O4*%
X99568000Y-106315000D03*
%TD*%
D15*
%TO.P,C20,1*%
%TO.N,+5V_OCXO*%
X93577500Y-138430000D03*
%TO.P,C20,2*%
%TO.N,GND*%
X95652500Y-138430000D03*
%TD*%
D13*
%TO.P,J8,1,Pin_1*%
%TO.N,GND*%
X99568000Y-115300000D03*
D14*
%TO.P,J8,2,Pin_2*%
%TO.N,/10MHz_O3*%
X99568000Y-113300000D03*
%TD*%
D11*
%TO.P,R19,1*%
%TO.N,Net-(R19-Pad1)*%
X92345000Y-114935000D03*
%TO.P,R19,2*%
%TO.N,Net-(C10-Pad1)*%
X94345000Y-114935000D03*
%TD*%
D16*
%TO.P,U7,1*%
%TO.N,/PPS_CLEAN*%
X85155000Y-94615000D03*
%TO.P,U7,2*%
%TO.N,Net-(U7-Pad11)*%
X85155000Y-95885000D03*
%TO.P,U7,3*%
X85155000Y-97155000D03*
%TO.P,U7,4*%
%TO.N,Net-(R23-Pad1)*%
X85155000Y-98425000D03*
%TO.P,U7,5*%
%TO.N,Net-(U7-Pad11)*%
X85155000Y-99695000D03*
%TO.P,U7,6*%
%TO.N,Net-(R24-Pad1)*%
X85155000Y-100965000D03*
%TO.P,U7,7,GND*%
%TO.N,GND*%
X85155000Y-102235000D03*
%TO.P,U7,8*%
%TO.N,Net-(R25-Pad1)*%
X90105000Y-102235000D03*
%TO.P,U7,9*%
%TO.N,Net-(U7-Pad11)*%
X90105000Y-100965000D03*
%TO.P,U7,10*%
%TO.N,Net-(R26-Pad1)*%
X90105000Y-99695000D03*
%TO.P,U7,11*%
%TO.N,Net-(U7-Pad11)*%
X90105000Y-98425000D03*
%TO.P,U7,12*%
%TO.N,Net-(R27-Pad1)*%
X90105000Y-97155000D03*
%TO.P,U7,13*%
%TO.N,Net-(U7-Pad11)*%
X90105000Y-95885000D03*
%TO.P,U7,14,VCC*%
%TO.N,+5V_MAIN*%
X90105000Y-94615000D03*
%TD*%
D17*
%TO.P,H3,1,1*%
%TO.N,GND*%
X60325000Y-145415000D03*
%TD*%
D16*
%TO.P,U6,1*%
%TO.N,/10MHz*%
X85155000Y-107315000D03*
%TO.P,U6,2*%
%TO.N,Net-(U6-Pad11)*%
X85155000Y-108585000D03*
%TO.P,U6,3*%
X85155000Y-109855000D03*
%TO.P,U6,4*%
%TO.N,Net-(R18-Pad1)*%
X85155000Y-111125000D03*
%TO.P,U6,5*%
%TO.N,Net-(U6-Pad11)*%
X85155000Y-112395000D03*
%TO.P,U6,6*%
%TO.N,Net-(R19-Pad1)*%
X85155000Y-113665000D03*
%TO.P,U6,7,GND*%
%TO.N,GND*%
X85155000Y-114935000D03*
%TO.P,U6,8*%
%TO.N,Net-(R20-Pad1)*%
X90105000Y-114935000D03*
%TO.P,U6,9*%
%TO.N,Net-(U6-Pad11)*%
X90105000Y-113665000D03*
%TO.P,U6,10*%
%TO.N,Net-(R21-Pad1)*%
X90105000Y-112395000D03*
%TO.P,U6,11*%
%TO.N,Net-(U6-Pad11)*%
X90105000Y-111125000D03*
%TO.P,U6,12*%
%TO.N,Net-(R22-Pad1)*%
X90105000Y-109855000D03*
%TO.P,U6,13*%
%TO.N,Net-(U6-Pad11)*%
X90105000Y-108585000D03*
%TO.P,U6,14,VCC*%
%TO.N,+5V_MAIN*%
X90105000Y-107315000D03*
%TD*%
D15*
%TO.P,C2,1*%
%TO.N,+5V_MAIN*%
X76432500Y-118745000D03*
%TO.P,C2,2*%
%TO.N,GND*%
X78507500Y-118745000D03*
%TD*%
%TO.P,C11,1*%
%TO.N,GND*%
X86592500Y-92075000D03*
%TO.P,C11,2*%
%TO.N,+5V_MAIN*%
X88667500Y-92075000D03*
%TD*%
D18*
%TO.P,J3,1,Pin_1*%
%TO.N,GND*%
X69215000Y-143510000D03*
D19*
%TO.P,J3,2,Pin_2*%
%TO.N,+5V_OCXO*%
X69215000Y-140970000D03*
%TO.P,J3,3,Pin_3*%
%TO.N,GND*%
X71755000Y-143510000D03*
%TO.P,J3,4,Pin_4*%
%TO.N,+5V_OCXO*%
X71755000Y-140970000D03*
%TO.P,J3,5,Pin_5*%
%TO.N,GND*%
X74295000Y-143510000D03*
%TO.P,J3,6,Pin_6*%
%TO.N,/10MHz*%
X74295000Y-140970000D03*
%TO.P,J3,7,Pin_7*%
%TO.N,GND*%
X76835000Y-143510000D03*
%TO.P,J3,8,Pin_8*%
%TO.N,+5V_OCXO*%
X76835000Y-140970000D03*
%TO.P,J3,9,Pin_9*%
%TO.N,GND*%
X79375000Y-143510000D03*
%TO.P,J3,10,Pin_10*%
%TO.N,+5V_OCXO*%
X79375000Y-140970000D03*
%TO.P,J3,11,Pin_11*%
%TO.N,GND*%
X81915000Y-143510000D03*
%TO.P,J3,12,Pin_12*%
%TO.N,/SCL*%
X81915000Y-140970000D03*
%TO.P,J3,13,Pin_13*%
%TO.N,GND*%
X84455000Y-143510000D03*
%TO.P,J3,14,Pin_14*%
%TO.N,/SDA*%
X84455000Y-140970000D03*
%TO.P,J3,15,Pin_15*%
%TO.N,GND*%
X86995000Y-143510000D03*
%TO.P,J3,16,Pin_16*%
%TO.N,/SWIO_PWM*%
X86995000Y-140970000D03*
%TD*%
D20*
%TO.P,U2,1,PA1/PD6*%
%TO.N,/10MHz*%
X78190000Y-125095000D03*
%TO.P,U2,2,VSS*%
%TO.N,GND*%
X78190000Y-123825000D03*
%TO.P,U2,3,PA2*%
%TO.N,/PPS_CLEAN*%
X78190000Y-122555000D03*
%TO.P,U2,4,VDD*%
%TO.N,+5V_MAIN*%
X78190000Y-121285000D03*
%TO.P,U2,5,PC1*%
%TO.N,/SDA*%
X72940000Y-121285000D03*
%TO.P,U2,6,PC2*%
%TO.N,/SCL*%
X72940000Y-122555000D03*
%TO.P,U2,7,PC4*%
%TO.N,/GPS_PPS*%
X72940000Y-123825000D03*
%TO.P,U2,8,PD1/PD4/PD5*%
%TO.N,/SWIO_PFD*%
X72940000Y-125095000D03*
%TD*%
D21*
%TO.P,R1,1*%
%TO.N,+5V_MAIN*%
X74660000Y-118745000D03*
%TO.P,R1,2*%
%TO.N,/SCL*%
X72660000Y-118745000D03*
%TD*%
D11*
%TO.P,R18,1*%
%TO.N,Net-(R18-Pad1)*%
X92345000Y-107315000D03*
%TO.P,R18,2*%
%TO.N,Net-(C10-Pad1)*%
X94345000Y-107315000D03*
%TD*%
D13*
%TO.P,J6,1,Pin_1*%
%TO.N,GND*%
X99568000Y-129270000D03*
D14*
%TO.P,J6,2,Pin_2*%
%TO.N,/10MHz_O1*%
X99568000Y-127270000D03*
%TD*%
D16*
%TO.P,U4,1*%
%TO.N,/10MHz*%
X85155000Y-120015000D03*
%TO.P,U4,2*%
%TO.N,Net-(U4-Pad11)*%
X85155000Y-121285000D03*
%TO.P,U4,3*%
X85155000Y-122555000D03*
%TO.P,U4,4*%
%TO.N,Net-(R8-Pad1)*%
X85155000Y-123825000D03*
%TO.P,U4,5*%
%TO.N,Net-(U4-Pad11)*%
X85155000Y-125095000D03*
%TO.P,U4,6*%
%TO.N,Net-(R9-Pad1)*%
X85155000Y-126365000D03*
%TO.P,U4,7,GND*%
%TO.N,GND*%
X85155000Y-127635000D03*
%TO.P,U4,8*%
%TO.N,Net-(R10-Pad1)*%
X90105000Y-127635000D03*
%TO.P,U4,9*%
%TO.N,Net-(U4-Pad11)*%
X90105000Y-126365000D03*
%TO.P,U4,10*%
%TO.N,Net-(R11-Pad1)*%
X90105000Y-125095000D03*
%TO.P,U4,11*%
%TO.N,Net-(U4-Pad11)*%
X90105000Y-123825000D03*
%TO.P,U4,12*%
%TO.N,Net-(R12-Pad1)*%
X90105000Y-122555000D03*
%TO.P,U4,13*%
%TO.N,Net-(U4-Pad11)*%
X90105000Y-121285000D03*
%TO.P,U4,14,VCC*%
%TO.N,+5V_MAIN*%
X90105000Y-120015000D03*
%TD*%
D11*
%TO.P,R10,1*%
%TO.N,Net-(R10-Pad1)*%
X92345000Y-125730000D03*
%TO.P,R10,2*%
%TO.N,Net-(C6-Pad1)*%
X94345000Y-125730000D03*
%TD*%
D22*
%TO.P,J11,1,Pin_1*%
%TO.N,GND*%
X74565000Y-129540000D03*
D23*
%TO.P,J11,2,Pin_2*%
%TO.N,/AUX*%
X76565000Y-129540000D03*
%TD*%
D24*
%TO.P,J5,1,Pin_1*%
%TO.N,GND*%
X73850000Y-93895000D03*
D23*
%TO.P,J5,2,Pin_2*%
%TO.N,/6.5V*%
X71850000Y-93895000D03*
%TO.P,J5,3,Pin_3*%
%TO.N,/SCL*%
X69850000Y-93895000D03*
%TO.P,J5,4,Pin_4*%
%TO.N,/SDA*%
X67850000Y-93895000D03*
%TO.P,J5,5,Pin_5*%
%TO.N,/SWIO_LCD*%
X65850000Y-93895000D03*
%TD*%
D11*
%TO.P,R8,1*%
%TO.N,Net-(R8-Pad1)*%
X92345000Y-120015000D03*
%TO.P,R8,2*%
%TO.N,Net-(C6-Pad1)*%
X94345000Y-120015000D03*
%TD*%
%TO.P,R23,1*%
%TO.N,Net-(R23-Pad1)*%
X92345000Y-94615000D03*
%TO.P,R23,2*%
%TO.N,Net-(C12-Pad1)*%
X94345000Y-94615000D03*
%TD*%
D12*
%TO.P,C10,1*%
%TO.N,Net-(C10-Pad1)*%
X96266000Y-107717500D03*
%TO.P,C10,2*%
%TO.N,/10MHz_O4*%
X96266000Y-105642500D03*
%TD*%
D15*
%TO.P,C18,1*%
%TO.N,/6.5V*%
X93577500Y-146685000D03*
%TO.P,C18,2*%
%TO.N,GND*%
X95652500Y-146685000D03*
%TD*%
D11*
%TO.P,R27,1*%
%TO.N,Net-(R27-Pad1)*%
X92345000Y-96520000D03*
%TO.P,R27,2*%
%TO.N,Net-(C12-Pad1)*%
X94345000Y-96520000D03*
%TD*%
D17*
%TO.P,H2,1,1*%
%TO.N,GND*%
X60325000Y-92710000D03*
%TD*%
D15*
%TO.P,C22,1*%
%TO.N,+5V_OCXO*%
X93577500Y-140970000D03*
%TO.P,C22,2*%
%TO.N,GND*%
X95652500Y-140970000D03*
%TD*%
D25*
%TO.P,J2,1,Pin_1*%
%TO.N,/RX+*%
X62230000Y-123825000D03*
D19*
%TO.P,J2,2,Pin_2*%
%TO.N,/RX-*%
X64770000Y-123825000D03*
%TO.P,J2,3,Pin_3*%
%TO.N,/TX+*%
X62230000Y-126365000D03*
%TO.P,J2,4,Pin_4*%
%TO.N,GND*%
X64770000Y-126365000D03*
%TO.P,J2,5,Pin_5*%
%TO.N,/6.5V*%
X62230000Y-128905000D03*
%TO.P,J2,6,Pin_6*%
%TO.N,/TX-*%
X64770000Y-128905000D03*
%TO.P,J2,7,Pin_7*%
%TO.N,/PPS+*%
X62230000Y-131445000D03*
%TO.P,J2,8,Pin_8*%
%TO.N,/PPS-*%
X64770000Y-131445000D03*
%TD*%
D15*
%TO.P,C9,1*%
%TO.N,GND*%
X86592500Y-104775000D03*
%TO.P,C9,2*%
%TO.N,+5V_MAIN*%
X88667500Y-104775000D03*
%TD*%
D11*
%TO.P,R11,1*%
%TO.N,Net-(R11-Pad1)*%
X92345000Y-123825000D03*
%TO.P,R11,2*%
%TO.N,Net-(C6-Pad1)*%
X94345000Y-123825000D03*
%TD*%
D15*
%TO.P,C16,1*%
%TO.N,/6.5V*%
X93577500Y-144145000D03*
%TO.P,C16,2*%
%TO.N,GND*%
X95652500Y-144145000D03*
%TD*%
D11*
%TO.P,R12,1*%
%TO.N,Net-(R12-Pad1)*%
X92345000Y-121920000D03*
%TO.P,R12,2*%
%TO.N,Net-(C6-Pad1)*%
X94345000Y-121920000D03*
%TD*%
D15*
%TO.P,C5,1*%
%TO.N,GND*%
X86592500Y-117475000D03*
%TO.P,C5,2*%
%TO.N,+5V_MAIN*%
X88667500Y-117475000D03*
%TD*%
D13*
%TO.P,J7,1,Pin_1*%
%TO.N,GND*%
X99568000Y-122285000D03*
D14*
%TO.P,J7,2,Pin_2*%
%TO.N,/10MHz_O2*%
X99568000Y-120285000D03*
%TD*%
D13*
%TO.P,J10,1,Pin_1*%
%TO.N,GND*%
X99568000Y-101330000D03*
D14*
%TO.P,J10,2,Pin_2*%
%TO.N,/PPS_OUT*%
X99568000Y-99330000D03*
%TD*%
D11*
%TO.P,R26,1*%
%TO.N,Net-(R26-Pad1)*%
X92345000Y-98425000D03*
%TO.P,R26,2*%
%TO.N,Net-(C12-Pad1)*%
X94345000Y-98425000D03*
%TD*%
%TO.P,R21,1*%
%TO.N,Net-(R21-Pad1)*%
X92345000Y-111125000D03*
%TO.P,R21,2*%
%TO.N,Net-(C10-Pad1)*%
X94345000Y-111125000D03*
%TD*%
%TO.P,R20,1*%
%TO.N,Net-(R20-Pad1)*%
X92345000Y-113030000D03*
%TO.P,R20,2*%
%TO.N,Net-(C10-Pad1)*%
X94345000Y-113030000D03*
%TD*%
D24*
%TO.P,J1,1,Pin_1*%
%TO.N,GND*%
X81010000Y-93895000D03*
D23*
%TO.P,J1,2,Pin_2*%
%TO.N,/Supplies/+12V*%
X79010000Y-93895000D03*
%TD*%
D11*
%TO.P,R22,1*%
%TO.N,Net-(R22-Pad1)*%
X92345000Y-109220000D03*
%TO.P,R22,2*%
%TO.N,Net-(C10-Pad1)*%
X94345000Y-109220000D03*
%TD*%
D17*
%TO.P,H1,1,1*%
%TO.N,GND*%
X100965000Y-92710000D03*
%TD*%
D11*
%TO.P,R9,1*%
%TO.N,Net-(R9-Pad1)*%
X92345000Y-127635000D03*
%TO.P,R9,2*%
%TO.N,Net-(C6-Pad1)*%
X94345000Y-127635000D03*
%TD*%
D17*
%TO.P,H4,1,1*%
%TO.N,GND*%
X100965000Y-145415000D03*
%TD*%
D25*
%TO.P,J4,1,Pin_1*%
%TO.N,GND*%
X62230000Y-102235000D03*
D19*
%TO.P,J4,2,Pin_2*%
%TO.N,/SWIO_IFACE*%
X64770000Y-102235000D03*
%TO.P,J4,3,Pin_3*%
%TO.N,/RX*%
X62230000Y-104775000D03*
%TO.P,J4,4,Pin_4*%
%TO.N,/SWIO_PFD*%
X64770000Y-104775000D03*
%TO.P,J4,5,Pin_5*%
%TO.N,/GPS_PPS*%
X62230000Y-107315000D03*
%TO.P,J4,6,Pin_6*%
%TO.N,/SWIO_PWM*%
X64770000Y-107315000D03*
%TO.P,J4,7,Pin_7*%
%TO.N,/SCL*%
X62230000Y-109855000D03*
%TO.P,J4,8,Pin_8*%
%TO.N,/SWIO_LCD*%
X64770000Y-109855000D03*
%TO.P,J4,9,Pin_9*%
%TO.N,/SDA*%
X62230000Y-112395000D03*
%TO.P,J4,10,Pin_10*%
%TO.N,/6.5V*%
X64770000Y-112395000D03*
%TD*%
D26*
%TO.P,C12,1*%
%TO.N,Net-(C12-Pad1)*%
X96266000Y-94847500D03*
%TO.P,C12,2*%
%TO.N,/PPS_OUT*%
X96266000Y-96922500D03*
%TD*%
D27*
%TO.N,GND*%
X96774000Y-147955000D03*
X85090000Y-104775000D03*
X80645000Y-126365000D03*
X74930000Y-139065000D03*
X86995000Y-102235000D03*
X80010000Y-111125000D03*
X86995000Y-127635000D03*
X81280000Y-111125000D03*
X94996000Y-147955000D03*
X85090000Y-130175000D03*
X80010000Y-116205000D03*
X85090000Y-117475000D03*
X79375000Y-105410000D03*
X86995000Y-120015000D03*
X80010000Y-118745000D03*
X73025000Y-116205000D03*
X79375000Y-126365000D03*
X86995000Y-114935000D03*
X80010000Y-123825000D03*
X72390000Y-116205000D03*
X73660000Y-139065000D03*
X94996000Y-145415000D03*
X79375000Y-109220000D03*
X96774000Y-145415000D03*
X63500000Y-118110000D03*
X80645000Y-105410000D03*
X80010000Y-109220000D03*
X67310000Y-114300000D03*
X80010000Y-105410000D03*
X73025000Y-111125000D03*
X63500000Y-137160000D03*
X71120000Y-123825000D03*
X86995000Y-107315000D03*
X80645000Y-109220000D03*
X72390000Y-111125000D03*
X85090000Y-92075000D03*
X81280000Y-116205000D03*
%TO.N,+5V_MAIN*%
X90170000Y-117475000D03*
X75565000Y-116840000D03*
X90170000Y-130175000D03*
X82550000Y-90805014D03*
X75565000Y-118745000D03*
X60325000Y-116840000D03*
X80645000Y-103505000D03*
X82550000Y-128905000D03*
X82550000Y-116205000D03*
X82550000Y-103505000D03*
%TO.N,+5V_OCXO*%
X97536000Y-138430000D03*
X94234000Y-136525000D03*
X97536000Y-139065000D03*
X89662000Y-139065000D03*
X89662000Y-138430000D03*
X92329000Y-136525000D03*
X89662000Y-139700000D03*
X92964000Y-136525000D03*
X93599000Y-136525000D03*
X94869000Y-136525000D03*
X97536000Y-137795000D03*
X89662000Y-137795000D03*
X97536000Y-139700000D03*
%TO.N,/SCL*%
X72390000Y-117475000D03*
X69215000Y-112395000D03*
X75565000Y-122555000D03*
%TO.N,/SDA*%
X73025000Y-120015000D03*
X75565000Y-121285000D03*
X68580000Y-113665000D03*
%TO.N,/SWIO_PWM*%
X59690000Y-139700000D03*
X59690000Y-106045000D03*
%TO.N,/10MHz*%
X80010000Y-125095000D03*
X83185000Y-125095000D03*
X83185000Y-120015000D03*
X83185000Y-107315000D03*
%TO.N,/SWIO_PFD*%
X58420000Y-103505000D03*
X58420000Y-125095000D03*
%TO.N,/SWIO_IFACE*%
X76835000Y-125095000D03*
X67945000Y-102235000D03*
X70485000Y-121920000D03*
%TO.N,/GPS_PPS*%
X59055000Y-138430000D03*
X66675000Y-137795000D03*
X59055000Y-107315000D03*
X73025000Y-126365000D03*
%TO.N,/PPS_CLEAN*%
X81915000Y-95885000D03*
X81915000Y-120650000D03*
%TO.N,/6.5V*%
X75565000Y-109220000D03*
X90297000Y-146050000D03*
X70485000Y-111125000D03*
X71120000Y-116205000D03*
X69850000Y-111125000D03*
X74295000Y-109220000D03*
X74930000Y-109220000D03*
X69850000Y-116205000D03*
X71120000Y-111125000D03*
X90297000Y-144780000D03*
X90296998Y-145415000D03*
X70485000Y-116205000D03*
%TD*%
D28*
%TO.N,/6.5V*%
X93577500Y-144145000D02*
X90932000Y-144145000D01*
X90297000Y-145414998D02*
X90297000Y-144780000D01*
X90932000Y-144145000D02*
X90297000Y-144780000D01*
X90296998Y-145415000D02*
X90297000Y-145414998D01*
X90296998Y-145415000D02*
X90296998Y-146049998D01*
X90932000Y-146685000D02*
X90297000Y-146050000D01*
X90296998Y-146049998D02*
X90297000Y-146050000D01*
X93577500Y-146685000D02*
X90932000Y-146685000D01*
%TO.N,GND*%
X100330000Y-146685000D02*
X101600000Y-145415000D01*
X95652500Y-140970000D02*
X95652500Y-144145000D01*
X95652500Y-138430000D02*
X95652500Y-140970000D01*
D29*
%TO.N,+5V_MAIN*%
X87558764Y-90805014D02*
X82550000Y-90805014D01*
X88667500Y-92075000D02*
X88667500Y-91913750D01*
X88667500Y-104775000D02*
X88667500Y-105877500D01*
X88667500Y-117475000D02*
X88667500Y-118577500D01*
X88667500Y-92075000D02*
X88667500Y-93177500D01*
X76432500Y-118745000D02*
X74660000Y-118745000D01*
X88667500Y-117313750D02*
X87558750Y-116205000D01*
X76432500Y-119527500D02*
X76432500Y-118745000D01*
X80645000Y-103505000D02*
X82550000Y-103505000D01*
X88900000Y-130175000D02*
X87630000Y-128905000D01*
X87630000Y-128905000D02*
X82550000Y-128905000D01*
X88667500Y-91913750D02*
X87558764Y-90805014D01*
X88667500Y-105877500D02*
X90105000Y-107315000D01*
X88667500Y-93177500D02*
X90105000Y-94615000D01*
X90170000Y-130175000D02*
X88900000Y-130175000D01*
X87558750Y-116205000D02*
X82550000Y-116205000D01*
X60325000Y-116840000D02*
X75565000Y-116840000D01*
X88667500Y-117475000D02*
X88667500Y-117313750D01*
X88667500Y-104775000D02*
X88667500Y-104050000D01*
X88900000Y-117475000D02*
X90170000Y-117475000D01*
X88667500Y-104050000D02*
X88122500Y-103505000D01*
X88667500Y-117475000D02*
X88900000Y-117475000D01*
X78190000Y-121285000D02*
X76432500Y-119527500D01*
X88122500Y-103505000D02*
X82550000Y-103505000D01*
X88667500Y-118577500D02*
X90105000Y-120015000D01*
%TO.N,/10MHz_O2*%
X96266000Y-118342500D02*
X97625500Y-118342500D01*
X97625500Y-118342500D02*
X99568000Y-120285000D01*
%TO.N,Net-(C6-Pad1)*%
X94345000Y-121920000D02*
X94345000Y-123825000D01*
X94345000Y-123825000D02*
X94345000Y-125730000D01*
X94747500Y-120417500D02*
X94345000Y-120015000D01*
X94345000Y-125730000D02*
X94345000Y-127635000D01*
X94345000Y-120015000D02*
X94345000Y-121920000D01*
X96266000Y-120417500D02*
X94747500Y-120417500D01*
%TO.N,Net-(C10-Pad1)*%
X94345000Y-107315000D02*
X94345000Y-109220000D01*
X94345000Y-113030000D02*
X94345000Y-114935000D01*
X94747500Y-107717500D02*
X94345000Y-107315000D01*
X94345000Y-109220000D02*
X94345000Y-111125000D01*
X96266000Y-107717500D02*
X94747500Y-107717500D01*
X94345000Y-111125000D02*
X94345000Y-113030000D01*
%TO.N,/10MHz_O4*%
X96266000Y-105642500D02*
X98895500Y-105642500D01*
X98895500Y-105642500D02*
X99568000Y-106315000D01*
%TO.N,/PPS_OUT*%
X96266000Y-96922500D02*
X98007500Y-96922500D01*
X99568000Y-98483000D02*
X99568000Y-99330000D01*
X98007500Y-96922500D02*
X99568000Y-98483000D01*
%TO.N,Net-(C12-Pad1)*%
X94345000Y-98425000D02*
X94345000Y-100330000D01*
X94345000Y-100330000D02*
X94345000Y-102235000D01*
X94577500Y-94847500D02*
X94345000Y-94615000D01*
X94345000Y-94615000D02*
X94345000Y-96520000D01*
X94345000Y-96520000D02*
X94345000Y-98425000D01*
X96266000Y-94847500D02*
X94577500Y-94847500D01*
D28*
%TO.N,+5V_OCXO*%
X75565000Y-142240000D02*
X76835000Y-140970000D01*
X79375000Y-140970000D02*
X80645000Y-142240000D01*
X92710000Y-140970000D02*
X93577500Y-140970000D01*
X76835000Y-140970000D02*
X79375000Y-140970000D01*
X71755000Y-140970000D02*
X73025000Y-142240000D01*
X91440000Y-142240000D02*
X92710000Y-140970000D01*
X69215000Y-140970000D02*
X71755000Y-140970000D01*
X73025000Y-142240000D02*
X75565000Y-142240000D01*
X80645000Y-142240000D02*
X91440000Y-142240000D01*
X93599000Y-136525000D02*
X93599000Y-136525000D01*
%TO.N,/Supplies/+12V*%
X71065000Y-98425000D02*
X74480000Y-98425000D01*
X74480000Y-98425000D02*
X79010000Y-93895000D01*
D29*
%TO.N,/SCL*%
X72940000Y-122555000D02*
X75565000Y-122555000D01*
X72660000Y-118745000D02*
X72390000Y-118745000D01*
X71755000Y-121920000D02*
X71755000Y-119515000D01*
X72390000Y-122555000D02*
X71755000Y-121920000D01*
X67945000Y-111125000D02*
X69215000Y-112395000D01*
X71755000Y-119515000D02*
X72525000Y-118745000D01*
X63500000Y-111125000D02*
X67945000Y-111125000D01*
X72390000Y-118745000D02*
X72390000Y-117475000D01*
X72940000Y-122555000D02*
X72390000Y-122555000D01*
X62230000Y-109855000D02*
X63500000Y-111125000D01*
X72525000Y-118745000D02*
X72660000Y-118745000D01*
%TO.N,/SDA*%
X62230000Y-112395000D02*
X63500000Y-113665000D01*
X72940000Y-121285000D02*
X75565000Y-121285000D01*
X73025000Y-121200000D02*
X73025000Y-120015000D01*
X72940000Y-121285000D02*
X73025000Y-121200000D01*
X63500000Y-113665000D02*
X68580000Y-113665000D01*
%TO.N,/SWIO_PWM*%
X63500000Y-106045000D02*
X64770000Y-107315000D01*
X86995000Y-140970000D02*
X85725000Y-139700000D01*
X59690000Y-106045000D02*
X63500000Y-106045000D01*
X85725000Y-139700000D02*
X59690000Y-139700000D01*
%TO.N,/10MHz*%
X85155000Y-107315000D02*
X83185000Y-107315000D01*
X85155000Y-120015000D02*
X83185000Y-120015000D01*
X78740000Y-125095000D02*
X83185000Y-125095000D01*
X78190000Y-125095000D02*
X80010000Y-125095000D01*
%TO.N,/SWIO_PFD*%
X64770000Y-104775000D02*
X63500000Y-103505000D01*
X63500000Y-103505000D02*
X58420000Y-103505000D01*
X72940000Y-125095000D02*
X58420000Y-125095000D01*
%TO.N,/SWIO_IFACE*%
X64770000Y-102235000D02*
X67945000Y-102235000D01*
X76835000Y-125095000D02*
X74930000Y-123190000D01*
X74930000Y-123190000D02*
X71755000Y-123190000D01*
X71755000Y-123190000D02*
X70485000Y-121920000D01*
%TO.N,/GPS_PPS*%
X62230000Y-107315000D02*
X59055000Y-107315000D01*
X74295000Y-124404724D02*
X74295000Y-125730000D01*
X74295000Y-125730000D02*
X73660000Y-126365000D01*
X73660000Y-126365000D02*
X73025000Y-126365000D01*
X72940000Y-123825000D02*
X73715276Y-123825000D01*
X73715276Y-123825000D02*
X74295000Y-124404724D01*
X66040000Y-138430000D02*
X66675000Y-137795000D01*
X59055000Y-138430000D02*
X66040000Y-138430000D01*
%TO.N,Net-(R8-Pad1)*%
X86995000Y-123190000D02*
X86995000Y-121285000D01*
X86360000Y-123825000D02*
X86995000Y-123190000D01*
X86995000Y-121285000D02*
X87630000Y-120650000D01*
X87630000Y-120650000D02*
X91710000Y-120650000D01*
X85155000Y-123825000D02*
X86360000Y-123825000D01*
X91710000Y-120650000D02*
X92345000Y-120015000D01*
%TO.N,Net-(R9-Pad1)*%
X88900000Y-128270000D02*
X91710000Y-128270000D01*
X86995000Y-126365000D02*
X88900000Y-128270000D01*
X85155000Y-126365000D02*
X86995000Y-126365000D01*
X91710000Y-128270000D02*
X92345000Y-127635000D01*
%TO.N,Net-(R10-Pad1)*%
X90450552Y-127635000D02*
X92345000Y-125740552D01*
X90105000Y-127635000D02*
X90450552Y-127635000D01*
X92345000Y-125740552D02*
X92345000Y-125730000D01*
%TO.N,Net-(R11-Pad1)*%
X91075000Y-125095000D02*
X92345000Y-123825000D01*
X90105000Y-125095000D02*
X91075000Y-125095000D01*
%TO.N,Net-(R12-Pad1)*%
X90105000Y-122555000D02*
X91710000Y-122555000D01*
X91710000Y-122555000D02*
X92345000Y-121920000D01*
%TO.N,Net-(R18-Pad1)*%
X87630000Y-107950000D02*
X91710000Y-107950000D01*
X86995000Y-110490000D02*
X86995000Y-108585000D01*
X85155000Y-111125000D02*
X86360000Y-111125000D01*
X86995000Y-108585000D02*
X87630000Y-107950000D01*
X86360000Y-111125000D02*
X86995000Y-110490000D01*
X91710000Y-107950000D02*
X92345000Y-107315000D01*
%TO.N,Net-(R19-Pad1)*%
X88900000Y-115570000D02*
X91710000Y-115570000D01*
X86995000Y-113665000D02*
X88900000Y-115570000D01*
X85155000Y-113665000D02*
X86995000Y-113665000D01*
X91710000Y-115570000D02*
X92345000Y-114935000D01*
%TO.N,Net-(R20-Pad1)*%
X90450552Y-114935000D02*
X92345000Y-113040552D01*
X92345000Y-113040552D02*
X92345000Y-113030000D01*
X90105000Y-114935000D02*
X90450552Y-114935000D01*
%TO.N,Net-(R21-Pad1)*%
X91075000Y-112395000D02*
X92345000Y-111125000D01*
X90105000Y-112395000D02*
X91075000Y-112395000D01*
%TO.N,Net-(R22-Pad1)*%
X91710000Y-109855000D02*
X92345000Y-109220000D01*
X90105000Y-109855000D02*
X91710000Y-109855000D01*
%TO.N,Net-(R23-Pad1)*%
X86360000Y-98425000D02*
X86995000Y-97790000D01*
X86995000Y-95885000D02*
X87630000Y-95250000D01*
X91710000Y-95250000D02*
X92345000Y-94615000D01*
X86995000Y-97790000D02*
X86995000Y-95885000D01*
X87630000Y-95250000D02*
X91710000Y-95250000D01*
X85155000Y-98425000D02*
X86360000Y-98425000D01*
%TO.N,Net-(R24-Pad1)*%
X88900000Y-102870000D02*
X91710000Y-102870000D01*
X85155000Y-100965000D02*
X86995000Y-100965000D01*
X91710000Y-102870000D02*
X92345000Y-102235000D01*
X86995000Y-100965000D02*
X88900000Y-102870000D01*
%TO.N,Net-(R25-Pad1)*%
X92345000Y-100340552D02*
X92345000Y-100330000D01*
X90105000Y-102235000D02*
X90450552Y-102235000D01*
X90450552Y-102235000D02*
X92345000Y-100340552D01*
%TO.N,Net-(R26-Pad1)*%
X91075000Y-99695000D02*
X92345000Y-98425000D01*
X90105000Y-99695000D02*
X91075000Y-99695000D01*
%TO.N,Net-(R27-Pad1)*%
X90105000Y-97155000D02*
X91710000Y-97155000D01*
X91710000Y-97155000D02*
X92345000Y-96520000D01*
%TO.N,/PPS_CLEAN*%
X78190000Y-122555000D02*
X81280000Y-122555000D01*
X81915000Y-121920000D02*
X81915000Y-120650000D01*
X85155000Y-94615000D02*
X83185000Y-94615000D01*
X81280000Y-122555000D02*
X81915000Y-121920000D01*
X83185000Y-94615000D02*
X81915000Y-95885000D01*
%TO.N,Net-(U4-Pad11)*%
X88900000Y-126365000D02*
X90105000Y-126365000D01*
X85155000Y-122555000D02*
X85155000Y-121285000D01*
X85155000Y-125095000D02*
X88265000Y-125095000D01*
X88900000Y-123825000D02*
X88265000Y-124460000D01*
X88265000Y-125730000D02*
X88900000Y-126365000D01*
X88265000Y-123190000D02*
X88900000Y-123825000D01*
X88265000Y-121920000D02*
X88265000Y-123190000D01*
X88265000Y-125095000D02*
X88265000Y-125730000D01*
X85155000Y-122555000D02*
X83820000Y-122555000D01*
X88265000Y-124460000D02*
X88265000Y-125095000D01*
X88900000Y-121285000D02*
X88265000Y-121920000D01*
X83820000Y-125095000D02*
X85155000Y-125095000D01*
X90105000Y-123825000D02*
X88900000Y-123825000D01*
X83820000Y-122555000D02*
X83820000Y-125095000D01*
X90105000Y-121285000D02*
X88900000Y-121285000D01*
%TO.N,Net-(U6-Pad11)*%
X85155000Y-109855000D02*
X83820000Y-109855000D01*
X88900000Y-111125000D02*
X88265000Y-111760000D01*
X85155000Y-109855000D02*
X85155000Y-108585000D01*
X88900000Y-113665000D02*
X90105000Y-113665000D01*
X90105000Y-108585000D02*
X88900000Y-108585000D01*
X88265000Y-109220000D02*
X88265000Y-110490000D01*
X88265000Y-110490000D02*
X88900000Y-111125000D01*
X88265000Y-113030000D02*
X88900000Y-113665000D01*
X85155000Y-112395000D02*
X88265000Y-112395000D01*
X88265000Y-112395000D02*
X88265000Y-113030000D01*
X88900000Y-108585000D02*
X88265000Y-109220000D01*
X83820000Y-109855000D02*
X83820000Y-112395000D01*
X90105000Y-111125000D02*
X88900000Y-111125000D01*
X88265000Y-111760000D02*
X88265000Y-112395000D01*
X83820000Y-112395000D02*
X85155000Y-112395000D01*
%TO.N,Net-(U7-Pad11)*%
X83820000Y-97155000D02*
X83820000Y-99695000D01*
X88265000Y-99060000D02*
X88265000Y-99695000D01*
X85155000Y-99695000D02*
X88265000Y-99695000D01*
X90105000Y-95885000D02*
X88900000Y-95885000D01*
X88265000Y-99695000D02*
X88265000Y-100330000D01*
X85155000Y-97155000D02*
X83820000Y-97155000D01*
X88900000Y-95885000D02*
X88265000Y-96520000D01*
X88900000Y-100965000D02*
X90105000Y-100965000D01*
X88900000Y-98425000D02*
X88265000Y-99060000D01*
X85155000Y-97155000D02*
X85155000Y-95885000D01*
X90105000Y-98425000D02*
X88900000Y-98425000D01*
X88265000Y-96520000D02*
X88265000Y-97790000D01*
X88265000Y-97790000D02*
X88900000Y-98425000D01*
X83820000Y-99695000D02*
X85155000Y-99695000D01*
X88265000Y-100330000D02*
X88900000Y-100965000D01*
D28*
%TO.N,/6.5V*%
X71120000Y-113610000D02*
X71065000Y-113665000D01*
X71120000Y-113720000D02*
X71065000Y-113665000D01*
X93577500Y-146685000D02*
X93577500Y-144145000D01*
X71120000Y-116205000D02*
X71120000Y-113720000D01*
X71120000Y-111125000D02*
X71120000Y-113610000D01*
X93577500Y-146685000D02*
X93345000Y-146452500D01*
%TD*%
%TA.AperFunction,Conductor*%
%TO.N,GND*%
G36*
X104217539Y-89420185D02*
G01*
X104263294Y-89472989D01*
X104274500Y-89524500D01*
X104274500Y-131088971D01*
X104254815Y-131156010D01*
X104202011Y-131201765D01*
X104132853Y-131211709D01*
X104115565Y-131207948D01*
X104087990Y-131199851D01*
X104087978Y-131199848D01*
X104016001Y-131189500D01*
X104016000Y-131189500D01*
X82039000Y-131189500D01*
X82038997Y-131189500D01*
X81984687Y-131195338D01*
X81933181Y-131206543D01*
X81933172Y-131206546D01*
X81906807Y-131213779D01*
X81906796Y-131213783D01*
X81820181Y-131263105D01*
X81820173Y-131263111D01*
X81767371Y-131308863D01*
X81735743Y-131341640D01*
X81689534Y-131429977D01*
X81689533Y-131429977D01*
X81669851Y-131497009D01*
X81669848Y-131497021D01*
X81659500Y-131568998D01*
X81659500Y-139225500D01*
X81639815Y-139292539D01*
X81587011Y-139338294D01*
X81535500Y-139349500D01*
X60176092Y-139349500D01*
X60109053Y-139329815D01*
X60089587Y-139311913D01*
X60088372Y-139313129D01*
X60082627Y-139307384D01*
X60082621Y-139307379D01*
X59967625Y-139219139D01*
X59967624Y-139219138D01*
X59967622Y-139219137D01*
X59833712Y-139163671D01*
X59833710Y-139163670D01*
X59833709Y-139163670D01*
X59761854Y-139154210D01*
X59690001Y-139144750D01*
X59689999Y-139144750D01*
X59546291Y-139163670D01*
X59546287Y-139163671D01*
X59412377Y-139219137D01*
X59297379Y-139307379D01*
X59209137Y-139422377D01*
X59153671Y-139556287D01*
X59153670Y-139556291D01*
X59134750Y-139699999D01*
X59134750Y-139700000D01*
X59153670Y-139843708D01*
X59153671Y-139843712D01*
X59209137Y-139977622D01*
X59209138Y-139977624D01*
X59209139Y-139977625D01*
X59297379Y-140092621D01*
X59412375Y-140180861D01*
X59412376Y-140180861D01*
X59412377Y-140180862D01*
X59439622Y-140192147D01*
X59546291Y-140236330D01*
X59673280Y-140253048D01*
X59689999Y-140255250D01*
X59690000Y-140255250D01*
X59690001Y-140255250D01*
X59704977Y-140253278D01*
X59833709Y-140236330D01*
X59967625Y-140180861D01*
X60082621Y-140092621D01*
X60082623Y-140092617D01*
X60082627Y-140092615D01*
X60088372Y-140086871D01*
X60090888Y-140089387D01*
X60134183Y-140057797D01*
X60176092Y-140050500D01*
X68281305Y-140050500D01*
X68348344Y-140070185D01*
X68394099Y-140122989D01*
X68404043Y-140192147D01*
X68380259Y-140249225D01*
X68360865Y-140274908D01*
X68275327Y-140388178D01*
X68184422Y-140570739D01*
X68184417Y-140570752D01*
X68128602Y-140766917D01*
X68109785Y-140969999D01*
X68109785Y-140970000D01*
X68128602Y-141173082D01*
X68184417Y-141369247D01*
X68184422Y-141369260D01*
X68275327Y-141551821D01*
X68398237Y-141714581D01*
X68548958Y-141851980D01*
X68548960Y-141851982D01*
X68600841Y-141884105D01*
X68722363Y-141959348D01*
X68912544Y-142033024D01*
X69113024Y-142070500D01*
X69113026Y-142070500D01*
X69316974Y-142070500D01*
X69316976Y-142070500D01*
X69517456Y-142033024D01*
X69707637Y-141959348D01*
X69881041Y-141851981D01*
X70031764Y-141714579D01*
X70154673Y-141551821D01*
X70185841Y-141489226D01*
X70233342Y-141437992D01*
X70296840Y-141420500D01*
X70673160Y-141420500D01*
X70740199Y-141440185D01*
X70784158Y-141489226D01*
X70815327Y-141551821D01*
X70856053Y-141605751D01*
X70938237Y-141714581D01*
X71088958Y-141851980D01*
X71088960Y-141851982D01*
X71140841Y-141884105D01*
X71262363Y-141959348D01*
X71452544Y-142033024D01*
X71653024Y-142070500D01*
X71653026Y-142070500D01*
X71856974Y-142070500D01*
X71856976Y-142070500D01*
X72057456Y-142033024D01*
X72071101Y-142027737D01*
X72140720Y-142021872D01*
X72202462Y-142054579D01*
X72203578Y-142055681D01*
X72748386Y-142600489D01*
X72851113Y-142659799D01*
X72875321Y-142666284D01*
X72875324Y-142666286D01*
X72875325Y-142666286D01*
X72905447Y-142674357D01*
X72965691Y-142690500D01*
X72965693Y-142690500D01*
X75624308Y-142690500D01*
X75624309Y-142690500D01*
X75714673Y-142666286D01*
X75738887Y-142659799D01*
X75841614Y-142600489D01*
X76386421Y-142055680D01*
X76447742Y-142022197D01*
X76517433Y-142027181D01*
X76518893Y-142027736D01*
X76530598Y-142032270D01*
X76532544Y-142033024D01*
X76733024Y-142070500D01*
X76733026Y-142070500D01*
X76936974Y-142070500D01*
X76936976Y-142070500D01*
X77137456Y-142033024D01*
X77327637Y-141959348D01*
X77501041Y-141851981D01*
X77651764Y-141714579D01*
X77774673Y-141551821D01*
X77805841Y-141489226D01*
X77853342Y-141437992D01*
X77916840Y-141420500D01*
X78293160Y-141420500D01*
X78360199Y-141440185D01*
X78404158Y-141489226D01*
X78435327Y-141551821D01*
X78476053Y-141605751D01*
X78558237Y-141714581D01*
X78708958Y-141851980D01*
X78708960Y-141851982D01*
X78760841Y-141884105D01*
X78882363Y-141959348D01*
X79072544Y-142033024D01*
X79273024Y-142070500D01*
X79273026Y-142070500D01*
X79476974Y-142070500D01*
X79476976Y-142070500D01*
X79677456Y-142033024D01*
X79691101Y-142027737D01*
X79760720Y-142021872D01*
X79822462Y-142054579D01*
X79823578Y-142055681D01*
X80368386Y-142600489D01*
X80471113Y-142659799D01*
X80495321Y-142666284D01*
X80495324Y-142666286D01*
X80495325Y-142666286D01*
X80525447Y-142674357D01*
X80585691Y-142690500D01*
X87885500Y-142690500D01*
X87952539Y-142710185D01*
X87998294Y-142762989D01*
X88009500Y-142814500D01*
X88009500Y-143386002D01*
X88015338Y-143440312D01*
X88026543Y-143491818D01*
X88026546Y-143491827D01*
X88033779Y-143518192D01*
X88033783Y-143518203D01*
X88083105Y-143604818D01*
X88083110Y-143604825D01*
X88083112Y-143604828D01*
X88109580Y-143635374D01*
X88128863Y-143657628D01*
X88128866Y-143657631D01*
X88128867Y-143657632D01*
X88161641Y-143689257D01*
X88249976Y-143735465D01*
X88249977Y-143735465D01*
X88249977Y-143735466D01*
X88296016Y-143748984D01*
X88317015Y-143755150D01*
X88317019Y-143755150D01*
X88317021Y-143755151D01*
X88328652Y-143756823D01*
X88389000Y-143765500D01*
X90375034Y-143765500D01*
X90442073Y-143785185D01*
X90487828Y-143837989D01*
X90497772Y-143907147D01*
X90468747Y-143970703D01*
X90462715Y-143977181D01*
X90232499Y-144207396D01*
X90171176Y-144240881D01*
X90161009Y-144242653D01*
X90153293Y-144243669D01*
X90153291Y-144243669D01*
X90019377Y-144299137D01*
X89904379Y-144387379D01*
X89816137Y-144502377D01*
X89760671Y-144636287D01*
X89760670Y-144636291D01*
X89741750Y-144780000D01*
X89750241Y-144844498D01*
X89760670Y-144923708D01*
X89760671Y-144923712D01*
X89812999Y-145050045D01*
X89820468Y-145119514D01*
X89813000Y-145144949D01*
X89760667Y-145271293D01*
X89741748Y-145414999D01*
X89741748Y-145415000D01*
X89760668Y-145558708D01*
X89760669Y-145558712D01*
X89812999Y-145685050D01*
X89820468Y-145754519D01*
X89812999Y-145779954D01*
X89760671Y-145906287D01*
X89760670Y-145906291D01*
X89741750Y-146050000D01*
X89751460Y-146123757D01*
X89760670Y-146193708D01*
X89760671Y-146193712D01*
X89816137Y-146327622D01*
X89816138Y-146327624D01*
X89816139Y-146327625D01*
X89904379Y-146442621D01*
X90019375Y-146530861D01*
X90086333Y-146558595D01*
X90153288Y-146586329D01*
X90153290Y-146586330D01*
X90156721Y-146586781D01*
X90160995Y-146587344D01*
X90224894Y-146615606D01*
X90232499Y-146622602D01*
X90655386Y-147045490D01*
X90758114Y-147104799D01*
X90872691Y-147135500D01*
X92620336Y-147135500D01*
X92687375Y-147155185D01*
X92733130Y-147207989D01*
X92743626Y-147246246D01*
X92745909Y-147267483D01*
X92796202Y-147402328D01*
X92796206Y-147402335D01*
X92882452Y-147517544D01*
X92882455Y-147517547D01*
X92997664Y-147603793D01*
X92997671Y-147603797D01*
X93042618Y-147620561D01*
X93132517Y-147654091D01*
X93192127Y-147660500D01*
X93962872Y-147660499D01*
X94022483Y-147654091D01*
X94157331Y-147603796D01*
X94272546Y-147517546D01*
X94358796Y-147402331D01*
X94409091Y-147267483D01*
X94415500Y-147207873D01*
X94415499Y-146162128D01*
X94409091Y-146102517D01*
X94389503Y-146050000D01*
X94358797Y-145967671D01*
X94358793Y-145967664D01*
X94272547Y-145852455D01*
X94272544Y-145852452D01*
X94157334Y-145766205D01*
X94157332Y-145766204D01*
X94108665Y-145748052D01*
X94052732Y-145706180D01*
X94028316Y-145640716D01*
X94028000Y-145631871D01*
X94028000Y-145198128D01*
X94047685Y-145131089D01*
X94100489Y-145085334D01*
X94108653Y-145081951D01*
X94157331Y-145063796D01*
X94272546Y-144977546D01*
X94358796Y-144862331D01*
X94409091Y-144727483D01*
X94415500Y-144667873D01*
X94415499Y-143889499D01*
X94435183Y-143822461D01*
X94487987Y-143776706D01*
X94539499Y-143765500D01*
X94754406Y-143765500D01*
X94755076Y-143765487D01*
X94763525Y-143765337D01*
X94772368Y-143765021D01*
X94852525Y-143749077D01*
X94917990Y-143724662D01*
X94959080Y-143705005D01*
X95033245Y-143638388D01*
X95070815Y-143588202D01*
X95070814Y-143588201D01*
X95073984Y-143583968D01*
X95075051Y-143582544D01*
X95075054Y-143582538D01*
X95077674Y-143579041D01*
X95077699Y-143579006D01*
X95099110Y-143550405D01*
X95101493Y-143546384D01*
X95129294Y-143509247D01*
X95154247Y-143484293D01*
X95182182Y-143463380D01*
X95211086Y-143447260D01*
X95219120Y-143444099D01*
X95227296Y-143440712D01*
X95296828Y-143397759D01*
X95349632Y-143352004D01*
X95381257Y-143319230D01*
X95427465Y-143230895D01*
X95447150Y-143163856D01*
X95457500Y-143091871D01*
X95457500Y-142023128D01*
X95457337Y-142014009D01*
X95457021Y-142005161D01*
X95441073Y-141924988D01*
X95416655Y-141859524D01*
X95413046Y-141851981D01*
X95396997Y-141818437D01*
X95330380Y-141744277D01*
X95330377Y-141744274D01*
X95274441Y-141702403D01*
X95274437Y-141702400D01*
X95210619Y-141667555D01*
X95206583Y-141665712D01*
X95206871Y-141665080D01*
X95182100Y-141651556D01*
X95154245Y-141630703D01*
X95129293Y-141605751D01*
X95108440Y-141577895D01*
X95091526Y-141546919D01*
X95077818Y-141510166D01*
X95070000Y-141466833D01*
X95070000Y-140473164D01*
X95077816Y-140429835D01*
X95091527Y-140393074D01*
X95108436Y-140362109D01*
X95129296Y-140334243D01*
X95154241Y-140309297D01*
X95182185Y-140288378D01*
X95211086Y-140272260D01*
X95219120Y-140269099D01*
X95227296Y-140265712D01*
X95296828Y-140222759D01*
X95349632Y-140177004D01*
X95381257Y-140144230D01*
X95427465Y-140055895D01*
X95447150Y-139988856D01*
X95457500Y-139916871D01*
X95457500Y-139483128D01*
X95457337Y-139474009D01*
X95457021Y-139465161D01*
X95441073Y-139384988D01*
X95416655Y-139319524D01*
X95413013Y-139311913D01*
X95396997Y-139278437D01*
X95330380Y-139204277D01*
X95330377Y-139204274D01*
X95274441Y-139162403D01*
X95274437Y-139162400D01*
X95210619Y-139127555D01*
X95206583Y-139125712D01*
X95206871Y-139125080D01*
X95182100Y-139111556D01*
X95154245Y-139090703D01*
X95129293Y-139065751D01*
X95108440Y-139037895D01*
X95091526Y-139006919D01*
X95077818Y-138970166D01*
X95070000Y-138926833D01*
X95070000Y-137933164D01*
X95077816Y-137889835D01*
X95091527Y-137853074D01*
X95108433Y-137822113D01*
X95129299Y-137794239D01*
X95154242Y-137769296D01*
X95182104Y-137748438D01*
X95213079Y-137731526D01*
X95249833Y-137717818D01*
X95293165Y-137710000D01*
X96011832Y-137710000D01*
X96055160Y-137717816D01*
X96091919Y-137731526D01*
X96122889Y-137748436D01*
X96150753Y-137769295D01*
X96175707Y-137794250D01*
X96196556Y-137822101D01*
X96213470Y-137853075D01*
X96227180Y-137889831D01*
X96234999Y-137933167D01*
X96234999Y-138926830D01*
X96227181Y-138970164D01*
X96213472Y-139006919D01*
X96196556Y-139037897D01*
X96175704Y-139065751D01*
X96150751Y-139090704D01*
X96122816Y-139111617D01*
X96093923Y-139127734D01*
X96085831Y-139130919D01*
X96077686Y-139134293D01*
X96077674Y-139134299D01*
X96008165Y-139177244D01*
X95955381Y-139222982D01*
X95955374Y-139222988D01*
X95923743Y-139255768D01*
X95877534Y-139344105D01*
X95877533Y-139344105D01*
X95857851Y-139411137D01*
X95857848Y-139411149D01*
X95847500Y-139483126D01*
X95847500Y-139916875D01*
X95847663Y-139925988D01*
X95847978Y-139934832D01*
X95847980Y-139934844D01*
X95863923Y-140014999D01*
X95863924Y-140015001D01*
X95888340Y-140080465D01*
X95894156Y-140092621D01*
X95907997Y-140121552D01*
X95963970Y-140183866D01*
X95974614Y-140195716D01*
X96030547Y-140237588D01*
X96094376Y-140272442D01*
X96094389Y-140272447D01*
X96098402Y-140274280D01*
X96098114Y-140274908D01*
X96122893Y-140288438D01*
X96150752Y-140309294D01*
X96175704Y-140334246D01*
X96196555Y-140362099D01*
X96213470Y-140393075D01*
X96227180Y-140429831D01*
X96234999Y-140473167D01*
X96234999Y-141466830D01*
X96227181Y-141510164D01*
X96213472Y-141546919D01*
X96196556Y-141577897D01*
X96175704Y-141605751D01*
X96150751Y-141630704D01*
X96122816Y-141651617D01*
X96093923Y-141667734D01*
X96085831Y-141670919D01*
X96077686Y-141674293D01*
X96077674Y-141674299D01*
X96008165Y-141717244D01*
X95955381Y-141762982D01*
X95955374Y-141762988D01*
X95923743Y-141795768D01*
X95877534Y-141884105D01*
X95877533Y-141884105D01*
X95857851Y-141951137D01*
X95857848Y-141951149D01*
X95847500Y-142023126D01*
X95847500Y-143091875D01*
X95847663Y-143100988D01*
X95847978Y-143109832D01*
X95847980Y-143109844D01*
X95863923Y-143189999D01*
X95863924Y-143190001D01*
X95888340Y-143255465D01*
X95900794Y-143281496D01*
X95907997Y-143296552D01*
X95957806Y-143352004D01*
X95974614Y-143370716D01*
X96030547Y-143412588D01*
X96030554Y-143412592D01*
X96030556Y-143412593D01*
X96081318Y-143440312D01*
X96094376Y-143447442D01*
X96094389Y-143447447D01*
X96098402Y-143449280D01*
X96098114Y-143449908D01*
X96122893Y-143463439D01*
X96150746Y-143484289D01*
X96175703Y-143509246D01*
X96229369Y-143580934D01*
X96235593Y-143590070D01*
X96244709Y-143604825D01*
X96244709Y-143604826D01*
X96290462Y-143657628D01*
X96290465Y-143657631D01*
X96290466Y-143657632D01*
X96323240Y-143689257D01*
X96411575Y-143735465D01*
X96411576Y-143735465D01*
X96411576Y-143735466D01*
X96457615Y-143748984D01*
X96478614Y-143755150D01*
X96478618Y-143755150D01*
X96478620Y-143755151D01*
X96490251Y-143756823D01*
X96550599Y-143765500D01*
X96550600Y-143765500D01*
X97748644Y-143765500D01*
X97748667Y-143765500D01*
X97757902Y-143765333D01*
X97766860Y-143765009D01*
X97847129Y-143748986D01*
X97847133Y-143748984D01*
X97847135Y-143748984D01*
X97912159Y-143724664D01*
X97912571Y-143724510D01*
X97976367Y-143689600D01*
X100382100Y-141885299D01*
X100447542Y-141860824D01*
X100456500Y-141860500D01*
X104016000Y-141860500D01*
X104070313Y-141854661D01*
X104121824Y-141843455D01*
X104121822Y-141843455D01*
X104123447Y-141843102D01*
X104123603Y-141843819D01*
X104190636Y-141846772D01*
X104247695Y-141887096D01*
X104273895Y-141951867D01*
X104274500Y-141964097D01*
X104274500Y-148600500D01*
X104254815Y-148667539D01*
X104202011Y-148713294D01*
X104150500Y-148724500D01*
X57139500Y-148724500D01*
X57072461Y-148704815D01*
X57026706Y-148652011D01*
X57015500Y-148600500D01*
X57015500Y-138430000D01*
X58499750Y-138430000D01*
X58518670Y-138573708D01*
X58518671Y-138573712D01*
X58574137Y-138707622D01*
X58574138Y-138707624D01*
X58574139Y-138707625D01*
X58662379Y-138822621D01*
X58777375Y-138910861D01*
X58911291Y-138966330D01*
X59038280Y-138983048D01*
X59054999Y-138985250D01*
X59055000Y-138985250D01*
X59055001Y-138985250D01*
X59069977Y-138983278D01*
X59198709Y-138966330D01*
X59332625Y-138910861D01*
X59447621Y-138822621D01*
X59447623Y-138822617D01*
X59447627Y-138822615D01*
X59453372Y-138816871D01*
X59455888Y-138819387D01*
X59499183Y-138787797D01*
X59541092Y-138780500D01*
X66086142Y-138780500D01*
X66086144Y-138780500D01*
X66175288Y-138756614D01*
X66255212Y-138710470D01*
X66579124Y-138386556D01*
X66640444Y-138353074D01*
X66666871Y-138352144D01*
X66666871Y-138350250D01*
X66675000Y-138350250D01*
X66818709Y-138331330D01*
X66952625Y-138275861D01*
X67067621Y-138187621D01*
X67155861Y-138072625D01*
X67211330Y-137938709D01*
X67230250Y-137795000D01*
X67211330Y-137651291D01*
X67155861Y-137517375D01*
X67067621Y-137402379D01*
X66952625Y-137314139D01*
X66952624Y-137314138D01*
X66952622Y-137314137D01*
X66818712Y-137258671D01*
X66818710Y-137258670D01*
X66818709Y-137258670D01*
X66746854Y-137249210D01*
X66675001Y-137239750D01*
X66674999Y-137239750D01*
X66531291Y-137258670D01*
X66531287Y-137258671D01*
X66397377Y-137314137D01*
X66282379Y-137402379D01*
X66194137Y-137517377D01*
X66138671Y-137651287D01*
X66138670Y-137651291D01*
X66119750Y-137795000D01*
X66119750Y-137803128D01*
X66116456Y-137803128D01*
X66107192Y-137857588D01*
X66083439Y-137890877D01*
X65931135Y-138043182D01*
X65869815Y-138076666D01*
X65843456Y-138079500D01*
X59541092Y-138079500D01*
X59474053Y-138059815D01*
X59454587Y-138041913D01*
X59453372Y-138043129D01*
X59447627Y-138037384D01*
X59447621Y-138037379D01*
X59332625Y-137949139D01*
X59332624Y-137949138D01*
X59332622Y-137949137D01*
X59198712Y-137893671D01*
X59198710Y-137893670D01*
X59198709Y-137893670D01*
X59126854Y-137884210D01*
X59055001Y-137874750D01*
X59054999Y-137874750D01*
X58911291Y-137893670D01*
X58911287Y-137893671D01*
X58777377Y-137949137D01*
X58662379Y-138037379D01*
X58574137Y-138152377D01*
X58518671Y-138286287D01*
X58518670Y-138286291D01*
X58499750Y-138429999D01*
X58499750Y-138430000D01*
X57015500Y-138430000D01*
X57015500Y-131445000D01*
X61124785Y-131445000D01*
X61143602Y-131648082D01*
X61199417Y-131844247D01*
X61199422Y-131844260D01*
X61290327Y-132026821D01*
X61413237Y-132189581D01*
X61563958Y-132326980D01*
X61563960Y-132326982D01*
X61663141Y-132388392D01*
X61737363Y-132434348D01*
X61927544Y-132508024D01*
X62128024Y-132545500D01*
X62128026Y-132545500D01*
X62331974Y-132545500D01*
X62331976Y-132545500D01*
X62532456Y-132508024D01*
X62722637Y-132434348D01*
X62896041Y-132326981D01*
X63046764Y-132189579D01*
X63169673Y-132026821D01*
X63260582Y-131844250D01*
X63316397Y-131648083D01*
X63335215Y-131445000D01*
X63664785Y-131445000D01*
X63683602Y-131648082D01*
X63739417Y-131844247D01*
X63739422Y-131844260D01*
X63830327Y-132026821D01*
X63953237Y-132189581D01*
X64103958Y-132326980D01*
X64103960Y-132326982D01*
X64203141Y-132388392D01*
X64277363Y-132434348D01*
X64467544Y-132508024D01*
X64668024Y-132545500D01*
X64668026Y-132545500D01*
X64871974Y-132545500D01*
X64871976Y-132545500D01*
X65072456Y-132508024D01*
X65262637Y-132434348D01*
X65436041Y-132326981D01*
X65586764Y-132189579D01*
X65709673Y-132026821D01*
X65800582Y-131844250D01*
X65856397Y-131648083D01*
X65875215Y-131445000D01*
X65865637Y-131341640D01*
X65856397Y-131241917D01*
X65848392Y-131213783D01*
X65800582Y-131045750D01*
X65709673Y-130863179D01*
X65595002Y-130711330D01*
X65586762Y-130700418D01*
X65436041Y-130563019D01*
X65436039Y-130563017D01*
X65262642Y-130455655D01*
X65262635Y-130455651D01*
X65167546Y-130418814D01*
X65072456Y-130381976D01*
X64871976Y-130344500D01*
X64668024Y-130344500D01*
X64467544Y-130381976D01*
X64467541Y-130381976D01*
X64467541Y-130381977D01*
X64277364Y-130455651D01*
X64277357Y-130455655D01*
X64103960Y-130563017D01*
X64103958Y-130563019D01*
X63953237Y-130700418D01*
X63830327Y-130863178D01*
X63739422Y-131045739D01*
X63739417Y-131045752D01*
X63683602Y-131241917D01*
X63664785Y-131444999D01*
X63664785Y-131445000D01*
X63335215Y-131445000D01*
X63325637Y-131341640D01*
X63316397Y-131241917D01*
X63308392Y-131213783D01*
X63260582Y-131045750D01*
X63169673Y-130863179D01*
X63055002Y-130711330D01*
X63046762Y-130700418D01*
X62896041Y-130563019D01*
X62896039Y-130563017D01*
X62722642Y-130455655D01*
X62722635Y-130455651D01*
X62627546Y-130418814D01*
X62532456Y-130381976D01*
X62331976Y-130344500D01*
X62128024Y-130344500D01*
X61927544Y-130381976D01*
X61927541Y-130381976D01*
X61927541Y-130381977D01*
X61737364Y-130455651D01*
X61737357Y-130455655D01*
X61563960Y-130563017D01*
X61563958Y-130563019D01*
X61413237Y-130700418D01*
X61290327Y-130863178D01*
X61199422Y-131045739D01*
X61199417Y-131045752D01*
X61143602Y-131241917D01*
X61124785Y-131444999D01*
X61124785Y-131445000D01*
X57015500Y-131445000D01*
X57015500Y-128905000D01*
X61124785Y-128905000D01*
X61143602Y-129108082D01*
X61199417Y-129304247D01*
X61199422Y-129304260D01*
X61290327Y-129486821D01*
X61413237Y-129649581D01*
X61563958Y-129786980D01*
X61563960Y-129786982D01*
X61592762Y-129804815D01*
X61737363Y-129894348D01*
X61927544Y-129968024D01*
X62128024Y-130005500D01*
X62128026Y-130005500D01*
X62331974Y-130005500D01*
X62331976Y-130005500D01*
X62532456Y-129968024D01*
X62722637Y-129894348D01*
X62896041Y-129786981D01*
X63046764Y-129649579D01*
X63169673Y-129486821D01*
X63260582Y-129304250D01*
X63316397Y-129108083D01*
X63335215Y-128905000D01*
X63664785Y-128905000D01*
X63683602Y-129108082D01*
X63739417Y-129304247D01*
X63739422Y-129304260D01*
X63830327Y-129486821D01*
X63953237Y-129649581D01*
X64103958Y-129786980D01*
X64103960Y-129786982D01*
X64132762Y-129804815D01*
X64277363Y-129894348D01*
X64467544Y-129968024D01*
X64668024Y-130005500D01*
X64668026Y-130005500D01*
X64871974Y-130005500D01*
X64871976Y-130005500D01*
X65072456Y-129968024D01*
X65251220Y-129898771D01*
X75714500Y-129898771D01*
X75747182Y-130063074D01*
X75747184Y-130063082D01*
X75811295Y-130217860D01*
X75904373Y-130357162D01*
X76022837Y-130475626D01*
X76097478Y-130525499D01*
X76162137Y-130568703D01*
X76316918Y-130632816D01*
X76481228Y-130665499D01*
X76481232Y-130665500D01*
X76481233Y-130665500D01*
X76648768Y-130665500D01*
X76648769Y-130665499D01*
X76813082Y-130632816D01*
X76967863Y-130568703D01*
X77107162Y-130475626D01*
X77225626Y-130357162D01*
X77318703Y-130217863D01*
X77382816Y-130063082D01*
X77415500Y-129898767D01*
X77415500Y-129181233D01*
X77382816Y-129016918D01*
X77336458Y-128905000D01*
X81994750Y-128905000D01*
X82009485Y-129016925D01*
X82013670Y-129048708D01*
X82013671Y-129048712D01*
X82069137Y-129182622D01*
X82069138Y-129182624D01*
X82069139Y-129182625D01*
X82157379Y-129297621D01*
X82272375Y-129385861D01*
X82406291Y-129441330D01*
X82533280Y-129458048D01*
X82549999Y-129460250D01*
X82550000Y-129460250D01*
X82550001Y-129460250D01*
X82564977Y-129458278D01*
X82693709Y-129441330D01*
X82827625Y-129385861D01*
X82942621Y-129297621D01*
X82942623Y-129297617D01*
X82942627Y-129297615D01*
X82948372Y-129291871D01*
X82950888Y-129294387D01*
X82994183Y-129262797D01*
X83036092Y-129255500D01*
X87433456Y-129255500D01*
X87500495Y-129275185D01*
X87521137Y-129291819D01*
X88684788Y-130455470D01*
X88684789Y-130455471D01*
X88684791Y-130455472D01*
X88685103Y-130455652D01*
X88764712Y-130501614D01*
X88853856Y-130525500D01*
X89683908Y-130525500D01*
X89750947Y-130545185D01*
X89770412Y-130563086D01*
X89771628Y-130561871D01*
X89777372Y-130567615D01*
X89777377Y-130567619D01*
X89777379Y-130567621D01*
X89892375Y-130655861D01*
X89892376Y-130655861D01*
X89892377Y-130655862D01*
X89915646Y-130665500D01*
X90026291Y-130711330D01*
X90153280Y-130728048D01*
X90169999Y-130730250D01*
X90170000Y-130730250D01*
X90170001Y-130730250D01*
X90184977Y-130728278D01*
X90313709Y-130711330D01*
X90447625Y-130655861D01*
X90562621Y-130567621D01*
X90650861Y-130452625D01*
X90706330Y-130318709D01*
X90725250Y-130175000D01*
X90706330Y-130031291D01*
X90650861Y-129897375D01*
X90562621Y-129782379D01*
X90447625Y-129694139D01*
X90447624Y-129694138D01*
X90447622Y-129694137D01*
X90313712Y-129638671D01*
X90313710Y-129638670D01*
X90313709Y-129638670D01*
X90241854Y-129629210D01*
X90170001Y-129619750D01*
X90169999Y-129619750D01*
X90026291Y-129638670D01*
X90026287Y-129638671D01*
X89892377Y-129694137D01*
X89777372Y-129782384D01*
X89771628Y-129788129D01*
X89769111Y-129785612D01*
X89725817Y-129817203D01*
X89683908Y-129824500D01*
X89096544Y-129824500D01*
X89029505Y-129804815D01*
X89008863Y-129788181D01*
X87845213Y-128624531D01*
X87845208Y-128624527D01*
X87765291Y-128578387D01*
X87765287Y-128578385D01*
X87759926Y-128576949D01*
X87759926Y-128576948D01*
X87691476Y-128558608D01*
X87676144Y-128554500D01*
X87676143Y-128554500D01*
X83036092Y-128554500D01*
X82969053Y-128534815D01*
X82949587Y-128516913D01*
X82948372Y-128518129D01*
X82942627Y-128512384D01*
X82942621Y-128512379D01*
X82827625Y-128424139D01*
X82827624Y-128424138D01*
X82827622Y-128424137D01*
X82693712Y-128368671D01*
X82693710Y-128368670D01*
X82693709Y-128368670D01*
X82621854Y-128359210D01*
X82550001Y-128349750D01*
X82549999Y-128349750D01*
X82406291Y-128368670D01*
X82406287Y-128368671D01*
X82272377Y-128424137D01*
X82157379Y-128512379D01*
X82069137Y-128627377D01*
X82013671Y-128761287D01*
X82013670Y-128761291D01*
X81994750Y-128905000D01*
X77336458Y-128905000D01*
X77318703Y-128862137D01*
X77251317Y-128761287D01*
X77225626Y-128722837D01*
X77107162Y-128604373D01*
X76967860Y-128511295D01*
X76813082Y-128447184D01*
X76813074Y-128447182D01*
X76648771Y-128414500D01*
X76648767Y-128414500D01*
X76481233Y-128414500D01*
X76481228Y-128414500D01*
X76316925Y-128447182D01*
X76316917Y-128447184D01*
X76162139Y-128511295D01*
X76022837Y-128604373D01*
X75904373Y-128722837D01*
X75811295Y-128862139D01*
X75747184Y-129016917D01*
X75747182Y-129016925D01*
X75714500Y-129181228D01*
X75714500Y-129898771D01*
X65251220Y-129898771D01*
X65262637Y-129894348D01*
X65436041Y-129786981D01*
X65586764Y-129649579D01*
X65709673Y-129486821D01*
X65800582Y-129304250D01*
X65856397Y-129108083D01*
X65875215Y-128905000D01*
X65871243Y-128862139D01*
X65856397Y-128701917D01*
X65835188Y-128627377D01*
X65800582Y-128505750D01*
X65709673Y-128323179D01*
X65586764Y-128160421D01*
X65586762Y-128160418D01*
X65436041Y-128023019D01*
X65436039Y-128023017D01*
X65262642Y-127915655D01*
X65262635Y-127915651D01*
X65167546Y-127878814D01*
X65072456Y-127841976D01*
X64871976Y-127804500D01*
X64668024Y-127804500D01*
X64467544Y-127841976D01*
X64467541Y-127841976D01*
X64467541Y-127841977D01*
X64277364Y-127915651D01*
X64277357Y-127915655D01*
X64103960Y-128023017D01*
X64103958Y-128023019D01*
X63953237Y-128160418D01*
X63830327Y-128323178D01*
X63739422Y-128505739D01*
X63739417Y-128505752D01*
X63683602Y-128701917D01*
X63664785Y-128904999D01*
X63664785Y-128905000D01*
X63335215Y-128905000D01*
X63331243Y-128862139D01*
X63316397Y-128701917D01*
X63295188Y-128627377D01*
X63260582Y-128505750D01*
X63169673Y-128323179D01*
X63046764Y-128160421D01*
X63046762Y-128160418D01*
X62896041Y-128023019D01*
X62896039Y-128023017D01*
X62722642Y-127915655D01*
X62722635Y-127915651D01*
X62627546Y-127878814D01*
X62532456Y-127841976D01*
X62331976Y-127804500D01*
X62128024Y-127804500D01*
X61927544Y-127841976D01*
X61927541Y-127841976D01*
X61927541Y-127841977D01*
X61737364Y-127915651D01*
X61737357Y-127915655D01*
X61563960Y-128023017D01*
X61563958Y-128023019D01*
X61413237Y-128160418D01*
X61290327Y-128323178D01*
X61199422Y-128505739D01*
X61199417Y-128505752D01*
X61143602Y-128701917D01*
X61124785Y-128904999D01*
X61124785Y-128905000D01*
X57015500Y-128905000D01*
X57015500Y-125095000D01*
X57864750Y-125095000D01*
X57882803Y-125232127D01*
X57883670Y-125238708D01*
X57883671Y-125238712D01*
X57939137Y-125372622D01*
X57939138Y-125372624D01*
X57939139Y-125372625D01*
X58027379Y-125487621D01*
X58142375Y-125575861D01*
X58142376Y-125575861D01*
X58142377Y-125575862D01*
X58163999Y-125584818D01*
X58276291Y-125631330D01*
X58403280Y-125648048D01*
X58419999Y-125650250D01*
X58420000Y-125650250D01*
X58420001Y-125650250D01*
X58434977Y-125648278D01*
X58563709Y-125631330D01*
X58697625Y-125575861D01*
X58812621Y-125487621D01*
X58812623Y-125487617D01*
X58812627Y-125487615D01*
X58818372Y-125481871D01*
X58820888Y-125484387D01*
X58864183Y-125452797D01*
X58906092Y-125445500D01*
X61296305Y-125445500D01*
X61363344Y-125465185D01*
X61409099Y-125517989D01*
X61419043Y-125587147D01*
X61395259Y-125644225D01*
X61377691Y-125667490D01*
X61290327Y-125783178D01*
X61199422Y-125965739D01*
X61199417Y-125965752D01*
X61143602Y-126161917D01*
X61124785Y-126364999D01*
X61124785Y-126365000D01*
X61143602Y-126568082D01*
X61199417Y-126764247D01*
X61199422Y-126764260D01*
X61290327Y-126946821D01*
X61413237Y-127109581D01*
X61563958Y-127246980D01*
X61563960Y-127246982D01*
X61645313Y-127297353D01*
X61737363Y-127354348D01*
X61927544Y-127428024D01*
X62128024Y-127465500D01*
X62128026Y-127465500D01*
X62331974Y-127465500D01*
X62331976Y-127465500D01*
X62532456Y-127428024D01*
X62722637Y-127354348D01*
X62896041Y-127246981D01*
X63046764Y-127109579D01*
X63169673Y-126946821D01*
X63260582Y-126764250D01*
X63316397Y-126568083D01*
X63335215Y-126365000D01*
X63322508Y-126227872D01*
X63316397Y-126161917D01*
X63297462Y-126095369D01*
X63260582Y-125965750D01*
X63252223Y-125948963D01*
X63192665Y-125829354D01*
X63169673Y-125783179D01*
X63064740Y-125644225D01*
X63040049Y-125578866D01*
X63054614Y-125510531D01*
X63103811Y-125460918D01*
X63163695Y-125445500D01*
X71847745Y-125445500D01*
X71914784Y-125465185D01*
X71935426Y-125481819D01*
X72026652Y-125573045D01*
X72026654Y-125573046D01*
X72026658Y-125573050D01*
X72121034Y-125621137D01*
X72139698Y-125630647D01*
X72233475Y-125645499D01*
X72233481Y-125645500D01*
X72700113Y-125645499D01*
X72767150Y-125665183D01*
X72812905Y-125717987D01*
X72822849Y-125787146D01*
X72793824Y-125850702D01*
X72754026Y-125879403D01*
X72754414Y-125880075D01*
X72747795Y-125883896D01*
X72747574Y-125884056D01*
X72747378Y-125884136D01*
X72632379Y-125972379D01*
X72544137Y-126087377D01*
X72488671Y-126221287D01*
X72488670Y-126221291D01*
X72469750Y-126364999D01*
X72469750Y-126365000D01*
X72488670Y-126508708D01*
X72488671Y-126508712D01*
X72544137Y-126642622D01*
X72544138Y-126642624D01*
X72544139Y-126642625D01*
X72632379Y-126757621D01*
X72747375Y-126845861D01*
X72881291Y-126901330D01*
X73008280Y-126918048D01*
X73024999Y-126920250D01*
X73025000Y-126920250D01*
X73025001Y-126920250D01*
X73039977Y-126918278D01*
X73168709Y-126901330D01*
X73302625Y-126845861D01*
X73417621Y-126757621D01*
X73417623Y-126757617D01*
X73417627Y-126757615D01*
X73423372Y-126751871D01*
X73425888Y-126754387D01*
X73469183Y-126722797D01*
X73511092Y-126715500D01*
X73706142Y-126715500D01*
X73706144Y-126715500D01*
X73795288Y-126691614D01*
X73814538Y-126680500D01*
X73875212Y-126645470D01*
X74575470Y-125945212D01*
X74621614Y-125865288D01*
X74635222Y-125814501D01*
X74645500Y-125776144D01*
X74645500Y-124358580D01*
X74621614Y-124269436D01*
X74575470Y-124189512D01*
X74138139Y-123752181D01*
X74104654Y-123690858D01*
X74109638Y-123621166D01*
X74151510Y-123565233D01*
X74216974Y-123540816D01*
X74225820Y-123540500D01*
X74733456Y-123540500D01*
X74800495Y-123560185D01*
X74821137Y-123576819D01*
X76243440Y-124999122D01*
X76276925Y-125060445D01*
X76278067Y-125086873D01*
X76279750Y-125086873D01*
X76279750Y-125094999D01*
X76279750Y-125095000D01*
X76297803Y-125232127D01*
X76298670Y-125238708D01*
X76298671Y-125238712D01*
X76354137Y-125372622D01*
X76354138Y-125372624D01*
X76354139Y-125372625D01*
X76442379Y-125487621D01*
X76557375Y-125575861D01*
X76557376Y-125575861D01*
X76557377Y-125575862D01*
X76578999Y-125584818D01*
X76691291Y-125631330D01*
X76818280Y-125648048D01*
X76834999Y-125650250D01*
X76835000Y-125650250D01*
X76835001Y-125650250D01*
X76849977Y-125648278D01*
X76978709Y-125631330D01*
X77112625Y-125575861D01*
X77120821Y-125569571D01*
X77185989Y-125544376D01*
X77254434Y-125558413D01*
X77269190Y-125567625D01*
X77276653Y-125573047D01*
X77276657Y-125573049D01*
X77276658Y-125573050D01*
X77371034Y-125621137D01*
X77389698Y-125630647D01*
X77483475Y-125645499D01*
X77483481Y-125645500D01*
X78896518Y-125645499D01*
X78990304Y-125630646D01*
X79103342Y-125573050D01*
X79142936Y-125533456D01*
X79194574Y-125481819D01*
X79255897Y-125448334D01*
X79282255Y-125445500D01*
X79523908Y-125445500D01*
X79590947Y-125465185D01*
X79610412Y-125483086D01*
X79611628Y-125481871D01*
X79617372Y-125487615D01*
X79617377Y-125487619D01*
X79617379Y-125487621D01*
X79732375Y-125575861D01*
X79732376Y-125575861D01*
X79732377Y-125575862D01*
X79753999Y-125584818D01*
X79866291Y-125631330D01*
X79993280Y-125648048D01*
X80009999Y-125650250D01*
X80010000Y-125650250D01*
X80010001Y-125650250D01*
X80024977Y-125648278D01*
X80153709Y-125631330D01*
X80287625Y-125575861D01*
X80402621Y-125487621D01*
X80402623Y-125487617D01*
X80402627Y-125487615D01*
X80408372Y-125481871D01*
X80410888Y-125484387D01*
X80454183Y-125452797D01*
X80496092Y-125445500D01*
X82698908Y-125445500D01*
X82765947Y-125465185D01*
X82785412Y-125483086D01*
X82786628Y-125481871D01*
X82792372Y-125487615D01*
X82792377Y-125487619D01*
X82792379Y-125487621D01*
X82907375Y-125575861D01*
X82907376Y-125575861D01*
X82907377Y-125575862D01*
X82928999Y-125584818D01*
X83041291Y-125631330D01*
X83168280Y-125648048D01*
X83184999Y-125650250D01*
X83185000Y-125650250D01*
X83185001Y-125650250D01*
X83199977Y-125648278D01*
X83328709Y-125631330D01*
X83462625Y-125575861D01*
X83577621Y-125487621D01*
X83587456Y-125474803D01*
X83643880Y-125433600D01*
X83713626Y-125429443D01*
X83717905Y-125430508D01*
X83773856Y-125445500D01*
X83866144Y-125445500D01*
X83912745Y-125445500D01*
X83979784Y-125465185D01*
X84000426Y-125481819D01*
X84091652Y-125573045D01*
X84091654Y-125573046D01*
X84091658Y-125573050D01*
X84182851Y-125619515D01*
X84233647Y-125667490D01*
X84250442Y-125735311D01*
X84227904Y-125801446D01*
X84182852Y-125840484D01*
X84091658Y-125886950D01*
X84091657Y-125886951D01*
X84091652Y-125886954D01*
X84001954Y-125976652D01*
X84001951Y-125976657D01*
X84001950Y-125976658D01*
X83992699Y-125994815D01*
X83944352Y-126089698D01*
X83929500Y-126183475D01*
X83929500Y-126546517D01*
X83937150Y-126594818D01*
X83944354Y-126640304D01*
X84001950Y-126753342D01*
X84001952Y-126753344D01*
X84001954Y-126753347D01*
X84091652Y-126843045D01*
X84091654Y-126843046D01*
X84091658Y-126843050D01*
X84204694Y-126900645D01*
X84204698Y-126900647D01*
X84298475Y-126915499D01*
X84298481Y-126915500D01*
X86011518Y-126915499D01*
X86105304Y-126900646D01*
X86218342Y-126843050D01*
X86233938Y-126827454D01*
X86309574Y-126751819D01*
X86370897Y-126718334D01*
X86397255Y-126715500D01*
X86798456Y-126715500D01*
X86865495Y-126735185D01*
X86886137Y-126751819D01*
X88684788Y-128550470D01*
X88764712Y-128596614D01*
X88853856Y-128620500D01*
X88853858Y-128620500D01*
X91756142Y-128620500D01*
X91756144Y-128620500D01*
X91845288Y-128596614D01*
X91845296Y-128596609D01*
X91852798Y-128593503D01*
X91853638Y-128595533D01*
X91910356Y-128581768D01*
X91917700Y-128582336D01*
X91947127Y-128585500D01*
X92742872Y-128585499D01*
X92802483Y-128579091D01*
X92937331Y-128528796D01*
X93052546Y-128442546D01*
X93138796Y-128327331D01*
X93189091Y-128192483D01*
X93195500Y-128132873D01*
X93195500Y-128132870D01*
X93494500Y-128132870D01*
X93494501Y-128132876D01*
X93500908Y-128192483D01*
X93551202Y-128327328D01*
X93551206Y-128327335D01*
X93637452Y-128442544D01*
X93637455Y-128442547D01*
X93752664Y-128528793D01*
X93752671Y-128528797D01*
X93887517Y-128579091D01*
X93887516Y-128579091D01*
X93894444Y-128579835D01*
X93947127Y-128585500D01*
X94742872Y-128585499D01*
X94802483Y-128579091D01*
X94937331Y-128528796D01*
X95052546Y-128442546D01*
X95138796Y-128327331D01*
X95189091Y-128192483D01*
X95195500Y-128132873D01*
X95195499Y-127353771D01*
X98442500Y-127353771D01*
X98475182Y-127518074D01*
X98475184Y-127518082D01*
X98539295Y-127672860D01*
X98632373Y-127812162D01*
X98750837Y-127930626D01*
X98843494Y-127992537D01*
X98890137Y-128023703D01*
X99044918Y-128087816D01*
X99209228Y-128120499D01*
X99209232Y-128120500D01*
X99209233Y-128120500D01*
X99926768Y-128120500D01*
X99926769Y-128120499D01*
X100091082Y-128087816D01*
X100245863Y-128023703D01*
X100385162Y-127930626D01*
X100503626Y-127812162D01*
X100596703Y-127672863D01*
X100660816Y-127518082D01*
X100693500Y-127353767D01*
X100693500Y-127186233D01*
X100660816Y-127021918D01*
X100596703Y-126867137D01*
X100565537Y-126820494D01*
X100503626Y-126727837D01*
X100385162Y-126609373D01*
X100245860Y-126516295D01*
X100091082Y-126452184D01*
X100091074Y-126452182D01*
X99926771Y-126419500D01*
X99926767Y-126419500D01*
X99209233Y-126419500D01*
X99209228Y-126419500D01*
X99044925Y-126452182D01*
X99044917Y-126452184D01*
X98890139Y-126516295D01*
X98750837Y-126609373D01*
X98632373Y-126727837D01*
X98539295Y-126867139D01*
X98475184Y-127021917D01*
X98475182Y-127021925D01*
X98442500Y-127186228D01*
X98442500Y-127353771D01*
X95195499Y-127353771D01*
X95195499Y-127137128D01*
X95189091Y-127077517D01*
X95138796Y-126942669D01*
X95138795Y-126942668D01*
X95138793Y-126942664D01*
X95064221Y-126843050D01*
X95052546Y-126827454D01*
X94991513Y-126781765D01*
X94949644Y-126725833D01*
X94944660Y-126656141D01*
X94978145Y-126594818D01*
X94991507Y-126583239D01*
X95052546Y-126537546D01*
X95138796Y-126422331D01*
X95189091Y-126287483D01*
X95195500Y-126227873D01*
X95195499Y-125232128D01*
X95189091Y-125172517D01*
X95184484Y-125160166D01*
X95138797Y-125037671D01*
X95138793Y-125037664D01*
X95052547Y-124922456D01*
X95052548Y-124922456D01*
X95052546Y-124922454D01*
X94991513Y-124876765D01*
X94949644Y-124820833D01*
X94944660Y-124751141D01*
X94978145Y-124689818D01*
X94991507Y-124678239D01*
X95052546Y-124632546D01*
X95138796Y-124517331D01*
X95189091Y-124382483D01*
X95195500Y-124322873D01*
X95195499Y-123327128D01*
X95189091Y-123267517D01*
X95183493Y-123252509D01*
X95138797Y-123132671D01*
X95138793Y-123132664D01*
X95087123Y-123063643D01*
X95052546Y-123017454D01*
X94991513Y-122971765D01*
X94949644Y-122915833D01*
X94944660Y-122846141D01*
X94978145Y-122784818D01*
X94991507Y-122773239D01*
X95052546Y-122727546D01*
X95138796Y-122612331D01*
X95189091Y-122477483D01*
X95195500Y-122417873D01*
X95195499Y-121422128D01*
X95189091Y-121362517D01*
X95149176Y-121255500D01*
X95138797Y-121227671D01*
X95138793Y-121227664D01*
X95069797Y-121135499D01*
X95052546Y-121112454D01*
X94991513Y-121066765D01*
X94949644Y-121010833D01*
X94944660Y-120941141D01*
X94978145Y-120879818D01*
X94991507Y-120868239D01*
X95052546Y-120822546D01*
X95056182Y-120817687D01*
X95112114Y-120775819D01*
X95155448Y-120768000D01*
X95176469Y-120768000D01*
X95243508Y-120787685D01*
X95289263Y-120840489D01*
X95295591Y-120858951D01*
X95347202Y-120997328D01*
X95347206Y-120997335D01*
X95433452Y-121112544D01*
X95433455Y-121112547D01*
X95548664Y-121198793D01*
X95548671Y-121198797D01*
X95683517Y-121249091D01*
X95683516Y-121249091D01*
X95690444Y-121249835D01*
X95743127Y-121255500D01*
X96788872Y-121255499D01*
X96848483Y-121249091D01*
X96983331Y-121198796D01*
X97098546Y-121112546D01*
X97184796Y-120997331D01*
X97235091Y-120862483D01*
X97241500Y-120802873D01*
X97241499Y-120032128D01*
X97235091Y-119972517D01*
X97201382Y-119882139D01*
X97184797Y-119837671D01*
X97184793Y-119837664D01*
X97098547Y-119722455D01*
X97098544Y-119722452D01*
X96983335Y-119636206D01*
X96983328Y-119636202D01*
X96848482Y-119585908D01*
X96848483Y-119585908D01*
X96788883Y-119579501D01*
X96788881Y-119579500D01*
X96788873Y-119579500D01*
X96788864Y-119579500D01*
X95743129Y-119579500D01*
X95743123Y-119579501D01*
X95683516Y-119585908D01*
X95548671Y-119636202D01*
X95548664Y-119636206D01*
X95433456Y-119722452D01*
X95433455Y-119722453D01*
X95433454Y-119722454D01*
X95426093Y-119732287D01*
X95418764Y-119742077D01*
X95362829Y-119783946D01*
X95293137Y-119788928D01*
X95231815Y-119755441D01*
X95198332Y-119694117D01*
X95195499Y-119667763D01*
X95195499Y-119517129D01*
X95195498Y-119517123D01*
X95195497Y-119517116D01*
X95189842Y-119464500D01*
X95189091Y-119457516D01*
X95138797Y-119322671D01*
X95138793Y-119322664D01*
X95052547Y-119207455D01*
X95052544Y-119207452D01*
X94937335Y-119121206D01*
X94937328Y-119121202D01*
X94802482Y-119070908D01*
X94802483Y-119070908D01*
X94742883Y-119064501D01*
X94742881Y-119064500D01*
X94742873Y-119064500D01*
X94742864Y-119064500D01*
X93947129Y-119064500D01*
X93947123Y-119064501D01*
X93887516Y-119070908D01*
X93752671Y-119121202D01*
X93752664Y-119121206D01*
X93637455Y-119207452D01*
X93637452Y-119207455D01*
X93551206Y-119322664D01*
X93551202Y-119322671D01*
X93500908Y-119457517D01*
X93496792Y-119495809D01*
X93494501Y-119517123D01*
X93494500Y-119517135D01*
X93494500Y-120512870D01*
X93494501Y-120512876D01*
X93500908Y-120572483D01*
X93551202Y-120707328D01*
X93551206Y-120707335D01*
X93637452Y-120822544D01*
X93637453Y-120822544D01*
X93637454Y-120822546D01*
X93661423Y-120840489D01*
X93698485Y-120868234D01*
X93740355Y-120924168D01*
X93745339Y-120993860D01*
X93711853Y-121055182D01*
X93698485Y-121066766D01*
X93637452Y-121112455D01*
X93551206Y-121227664D01*
X93551202Y-121227671D01*
X93500908Y-121362517D01*
X93495319Y-121414505D01*
X93494501Y-121422123D01*
X93494500Y-121422135D01*
X93494500Y-122417870D01*
X93494501Y-122417876D01*
X93500908Y-122477483D01*
X93551202Y-122612328D01*
X93551206Y-122612335D01*
X93637452Y-122727544D01*
X93637453Y-122727544D01*
X93637454Y-122727546D01*
X93683309Y-122761873D01*
X93698485Y-122773234D01*
X93740355Y-122829168D01*
X93745339Y-122898860D01*
X93711853Y-122960182D01*
X93698485Y-122971766D01*
X93637452Y-123017455D01*
X93551206Y-123132664D01*
X93551202Y-123132671D01*
X93500908Y-123267517D01*
X93495961Y-123313535D01*
X93494501Y-123327123D01*
X93494500Y-123327135D01*
X93494500Y-124322870D01*
X93494501Y-124322876D01*
X93500908Y-124382483D01*
X93551202Y-124517328D01*
X93551206Y-124517335D01*
X93637452Y-124632544D01*
X93637453Y-124632544D01*
X93637454Y-124632546D01*
X93669511Y-124656544D01*
X93698485Y-124678234D01*
X93740355Y-124734168D01*
X93745339Y-124803860D01*
X93711853Y-124865182D01*
X93698485Y-124876766D01*
X93637452Y-124922455D01*
X93551206Y-125037664D01*
X93551202Y-125037671D01*
X93500908Y-125172517D01*
X93494501Y-125232116D01*
X93494501Y-125232123D01*
X93494500Y-125232135D01*
X93494500Y-126227870D01*
X93494501Y-126227876D01*
X93500908Y-126287483D01*
X93551202Y-126422328D01*
X93551206Y-126422335D01*
X93637452Y-126537544D01*
X93637453Y-126537544D01*
X93637454Y-126537546D01*
X93678245Y-126568082D01*
X93698485Y-126583234D01*
X93740355Y-126639168D01*
X93745339Y-126708860D01*
X93711853Y-126770182D01*
X93698485Y-126781766D01*
X93637452Y-126827455D01*
X93551206Y-126942664D01*
X93551202Y-126942671D01*
X93500908Y-127077517D01*
X93497364Y-127110485D01*
X93494501Y-127137123D01*
X93494500Y-127137135D01*
X93494500Y-128132870D01*
X93195500Y-128132870D01*
X93195499Y-127137128D01*
X93189091Y-127077517D01*
X93138796Y-126942669D01*
X93138795Y-126942668D01*
X93138793Y-126942664D01*
X93064221Y-126843050D01*
X93052546Y-126827454D01*
X92991513Y-126781765D01*
X92949644Y-126725833D01*
X92944660Y-126656141D01*
X92978145Y-126594818D01*
X92991507Y-126583239D01*
X93052546Y-126537546D01*
X93138796Y-126422331D01*
X93189091Y-126287483D01*
X93195500Y-126227873D01*
X93195499Y-125232128D01*
X93189091Y-125172517D01*
X93184484Y-125160166D01*
X93138797Y-125037671D01*
X93138793Y-125037664D01*
X93052547Y-124922456D01*
X93052548Y-124922456D01*
X93052546Y-124922454D01*
X92991513Y-124876765D01*
X92949644Y-124820833D01*
X92944660Y-124751141D01*
X92978145Y-124689818D01*
X92991507Y-124678239D01*
X93052546Y-124632546D01*
X93138796Y-124517331D01*
X93189091Y-124382483D01*
X93195500Y-124322873D01*
X93195499Y-123327128D01*
X93189091Y-123267517D01*
X93183493Y-123252509D01*
X93138797Y-123132671D01*
X93138793Y-123132664D01*
X93087123Y-123063643D01*
X93052546Y-123017454D01*
X92991513Y-122971765D01*
X92949644Y-122915833D01*
X92944660Y-122846141D01*
X92978145Y-122784818D01*
X92991507Y-122773239D01*
X93052546Y-122727546D01*
X93138796Y-122612331D01*
X93189091Y-122477483D01*
X93195500Y-122417873D01*
X93195499Y-121422128D01*
X93189091Y-121362517D01*
X93149176Y-121255500D01*
X93138797Y-121227671D01*
X93138793Y-121227664D01*
X93069797Y-121135499D01*
X93052546Y-121112454D01*
X92991513Y-121066765D01*
X92949644Y-121010833D01*
X92944660Y-120941141D01*
X92978145Y-120879818D01*
X92991507Y-120868239D01*
X93052546Y-120822546D01*
X93138796Y-120707331D01*
X93189091Y-120572483D01*
X93195500Y-120512873D01*
X93195499Y-119517128D01*
X93189842Y-119464500D01*
X93189091Y-119457516D01*
X93138797Y-119322671D01*
X93138793Y-119322664D01*
X93052547Y-119207455D01*
X93052544Y-119207452D01*
X92937335Y-119121206D01*
X92937328Y-119121202D01*
X92802482Y-119070908D01*
X92802483Y-119070908D01*
X92742883Y-119064501D01*
X92742881Y-119064500D01*
X92742873Y-119064500D01*
X92742864Y-119064500D01*
X91947129Y-119064500D01*
X91947123Y-119064501D01*
X91887516Y-119070908D01*
X91752671Y-119121202D01*
X91752664Y-119121206D01*
X91637455Y-119207452D01*
X91637452Y-119207455D01*
X91551206Y-119322664D01*
X91551202Y-119322671D01*
X91500908Y-119457517D01*
X91496792Y-119495809D01*
X91494501Y-119517123D01*
X91494500Y-119517135D01*
X91494500Y-119574220D01*
X91474815Y-119641259D01*
X91422011Y-119687014D01*
X91352853Y-119696958D01*
X91289297Y-119667933D01*
X91260017Y-119630518D01*
X91258051Y-119626660D01*
X91258050Y-119626658D01*
X91258048Y-119626656D01*
X91258045Y-119626652D01*
X91168347Y-119536954D01*
X91168344Y-119536952D01*
X91168342Y-119536950D01*
X91087599Y-119495809D01*
X91055301Y-119479352D01*
X90961524Y-119464500D01*
X90961519Y-119464500D01*
X90101544Y-119464500D01*
X90034505Y-119444815D01*
X90013863Y-119428181D01*
X89313552Y-118727870D01*
X95290500Y-118727870D01*
X95290501Y-118727876D01*
X95296908Y-118787483D01*
X95347202Y-118922328D01*
X95347206Y-118922335D01*
X95433452Y-119037544D01*
X95433455Y-119037547D01*
X95548664Y-119123793D01*
X95548671Y-119123797D01*
X95683517Y-119174091D01*
X95683516Y-119174091D01*
X95690444Y-119174835D01*
X95743127Y-119180500D01*
X96788872Y-119180499D01*
X96848483Y-119174091D01*
X96983331Y-119123796D01*
X97098546Y-119037546D01*
X97184796Y-118922331D01*
X97203726Y-118871574D01*
X97237802Y-118780215D01*
X97239255Y-118780757D01*
X97269424Y-118727772D01*
X97331334Y-118695384D01*
X97355531Y-118693000D01*
X97428956Y-118693000D01*
X97495995Y-118712685D01*
X97516637Y-118729319D01*
X98519605Y-119732287D01*
X98553090Y-119793610D01*
X98548106Y-119863302D01*
X98541285Y-119878415D01*
X98539300Y-119882128D01*
X98475184Y-120036917D01*
X98475182Y-120036925D01*
X98442500Y-120201228D01*
X98442500Y-120368771D01*
X98475182Y-120533074D01*
X98475184Y-120533082D01*
X98539295Y-120687860D01*
X98632373Y-120827162D01*
X98750837Y-120945626D01*
X98823025Y-120993860D01*
X98890137Y-121038703D01*
X98890138Y-121038703D01*
X98890139Y-121038704D01*
X98916466Y-121049609D01*
X99044918Y-121102816D01*
X99209228Y-121135499D01*
X99209232Y-121135500D01*
X99209233Y-121135500D01*
X99926768Y-121135500D01*
X99926769Y-121135499D01*
X100091082Y-121102816D01*
X100245863Y-121038703D01*
X100385162Y-120945626D01*
X100503626Y-120827162D01*
X100596703Y-120687863D01*
X100660816Y-120533082D01*
X100693500Y-120368767D01*
X100693500Y-120201233D01*
X100660816Y-120036918D01*
X100596703Y-119882137D01*
X100537551Y-119793610D01*
X100503626Y-119742837D01*
X100385162Y-119624373D01*
X100245860Y-119531295D01*
X100091082Y-119467184D01*
X100091074Y-119467182D01*
X99926771Y-119434500D01*
X99926767Y-119434500D01*
X99264544Y-119434500D01*
X99197505Y-119414815D01*
X99176863Y-119398181D01*
X97840713Y-118062031D01*
X97840708Y-118062027D01*
X97760790Y-118015887D01*
X97760789Y-118015886D01*
X97760788Y-118015886D01*
X97671644Y-117992000D01*
X97671643Y-117992000D01*
X97355531Y-117992000D01*
X97288492Y-117972315D01*
X97242737Y-117919511D01*
X97236408Y-117901048D01*
X97184797Y-117762671D01*
X97184793Y-117762664D01*
X97098547Y-117647455D01*
X97098544Y-117647452D01*
X96983335Y-117561206D01*
X96983328Y-117561202D01*
X96848482Y-117510908D01*
X96848483Y-117510908D01*
X96788883Y-117504501D01*
X96788881Y-117504500D01*
X96788873Y-117504500D01*
X96788864Y-117504500D01*
X95743129Y-117504500D01*
X95743123Y-117504501D01*
X95683516Y-117510908D01*
X95548671Y-117561202D01*
X95548664Y-117561206D01*
X95433455Y-117647452D01*
X95433452Y-117647455D01*
X95347206Y-117762664D01*
X95347202Y-117762671D01*
X95301225Y-117885945D01*
X95296909Y-117897517D01*
X95290500Y-117957127D01*
X95290500Y-117957134D01*
X95290500Y-117957135D01*
X95290500Y-118727870D01*
X89313552Y-118727870D01*
X89188677Y-118602995D01*
X89155192Y-118541672D01*
X89160176Y-118471980D01*
X89202048Y-118416047D01*
X89233026Y-118399132D01*
X89247326Y-118393798D01*
X89247326Y-118393797D01*
X89247331Y-118393796D01*
X89362546Y-118307546D01*
X89448796Y-118192331D01*
X89499091Y-118057483D01*
X89505500Y-117997873D01*
X89505500Y-117949500D01*
X89525185Y-117882461D01*
X89577989Y-117836706D01*
X89629500Y-117825500D01*
X89683908Y-117825500D01*
X89750947Y-117845185D01*
X89770412Y-117863086D01*
X89771628Y-117861871D01*
X89777372Y-117867615D01*
X89777377Y-117867619D01*
X89777379Y-117867621D01*
X89892375Y-117955861D01*
X89892376Y-117955861D01*
X89892377Y-117955862D01*
X89932099Y-117972315D01*
X90026291Y-118011330D01*
X90150358Y-118027664D01*
X90169999Y-118030250D01*
X90170000Y-118030250D01*
X90170001Y-118030250D01*
X90189642Y-118027664D01*
X90313709Y-118011330D01*
X90447625Y-117955861D01*
X90562621Y-117867621D01*
X90650861Y-117752625D01*
X90706330Y-117618709D01*
X90725250Y-117475000D01*
X90706330Y-117331291D01*
X90663582Y-117228086D01*
X90650862Y-117197377D01*
X90650861Y-117197376D01*
X90650861Y-117197375D01*
X90562621Y-117082379D01*
X90447625Y-116994139D01*
X90447624Y-116994138D01*
X90447622Y-116994137D01*
X90313712Y-116938671D01*
X90313710Y-116938670D01*
X90313709Y-116938670D01*
X90241854Y-116929210D01*
X90170001Y-116919750D01*
X90169999Y-116919750D01*
X90026291Y-116938670D01*
X90026287Y-116938671D01*
X89892377Y-116994137D01*
X89777372Y-117082384D01*
X89771628Y-117088129D01*
X89769111Y-117085612D01*
X89725817Y-117117203D01*
X89683908Y-117124500D01*
X89629499Y-117124500D01*
X89562460Y-117104815D01*
X89516705Y-117052011D01*
X89505499Y-117000500D01*
X89505499Y-116952129D01*
X89505498Y-116952123D01*
X89499091Y-116892516D01*
X89448797Y-116757671D01*
X89448793Y-116757664D01*
X89362547Y-116642455D01*
X89362544Y-116642452D01*
X89247335Y-116556206D01*
X89247328Y-116556202D01*
X89112482Y-116505908D01*
X89112483Y-116505908D01*
X89052883Y-116499501D01*
X89052881Y-116499500D01*
X89052873Y-116499500D01*
X89052865Y-116499500D01*
X88400294Y-116499500D01*
X88333255Y-116479815D01*
X88312613Y-116463181D01*
X87773963Y-115924531D01*
X87773958Y-115924527D01*
X87694041Y-115878387D01*
X87694037Y-115878385D01*
X87688676Y-115876949D01*
X87688676Y-115876948D01*
X87620226Y-115858608D01*
X87604894Y-115854500D01*
X87604893Y-115854500D01*
X83036092Y-115854500D01*
X82969053Y-115834815D01*
X82949587Y-115816913D01*
X82948372Y-115818129D01*
X82942627Y-115812384D01*
X82942621Y-115812379D01*
X82827625Y-115724139D01*
X82827624Y-115724138D01*
X82827622Y-115724137D01*
X82693712Y-115668671D01*
X82693710Y-115668670D01*
X82693709Y-115668670D01*
X82594313Y-115655584D01*
X82550001Y-115649750D01*
X82549999Y-115649750D01*
X82406291Y-115668670D01*
X82406287Y-115668671D01*
X82272377Y-115724137D01*
X82157379Y-115812379D01*
X82069137Y-115927377D01*
X82013671Y-116061287D01*
X82013670Y-116061291D01*
X81994750Y-116205000D01*
X82005249Y-116284750D01*
X82013670Y-116348708D01*
X82013671Y-116348712D01*
X82069137Y-116482622D01*
X82069138Y-116482624D01*
X82069139Y-116482625D01*
X82157379Y-116597621D01*
X82272375Y-116685861D01*
X82272376Y-116685861D01*
X82272377Y-116685862D01*
X82317013Y-116704350D01*
X82406291Y-116741330D01*
X82530358Y-116757664D01*
X82549999Y-116760250D01*
X82550000Y-116760250D01*
X82550001Y-116760250D01*
X82569642Y-116757664D01*
X82693709Y-116741330D01*
X82827625Y-116685861D01*
X82942621Y-116597621D01*
X82942623Y-116597617D01*
X82942627Y-116597615D01*
X82948372Y-116591871D01*
X82950888Y-116594387D01*
X82994183Y-116562797D01*
X83036092Y-116555500D01*
X87362206Y-116555500D01*
X87429245Y-116575185D01*
X87449887Y-116591819D01*
X87793181Y-116935112D01*
X87826666Y-116996435D01*
X87829500Y-117022793D01*
X87829500Y-117997870D01*
X87829501Y-117997876D01*
X87835908Y-118057483D01*
X87886202Y-118192328D01*
X87886206Y-118192335D01*
X87972452Y-118307544D01*
X87972455Y-118307547D01*
X88087664Y-118393793D01*
X88087671Y-118393797D01*
X88229785Y-118446802D01*
X88229242Y-118448255D01*
X88282228Y-118478424D01*
X88314616Y-118540334D01*
X88317000Y-118564531D01*
X88317000Y-118623644D01*
X88329184Y-118669115D01*
X88329184Y-118669116D01*
X88340884Y-118712785D01*
X88340885Y-118712786D01*
X88387027Y-118792708D01*
X88387031Y-118792713D01*
X88998781Y-119404463D01*
X89032266Y-119465786D01*
X89027282Y-119535478D01*
X88998782Y-119579824D01*
X88951954Y-119626652D01*
X88951951Y-119626657D01*
X88951950Y-119626658D01*
X88942699Y-119644815D01*
X88894352Y-119739698D01*
X88879500Y-119833475D01*
X88879500Y-119833480D01*
X88879500Y-119833481D01*
X88879500Y-120014999D01*
X88879501Y-120175500D01*
X88859817Y-120242539D01*
X88807013Y-120288294D01*
X88755501Y-120299500D01*
X87583856Y-120299500D01*
X87500073Y-120321948D01*
X87500074Y-120321949D01*
X87494712Y-120323385D01*
X87494708Y-120323387D01*
X87414791Y-120369527D01*
X87414786Y-120369531D01*
X86714529Y-121069788D01*
X86700856Y-121093471D01*
X86695077Y-121103482D01*
X86681731Y-121126597D01*
X86668386Y-121149711D01*
X86644500Y-121238856D01*
X86644500Y-122993456D01*
X86624815Y-123060495D01*
X86608181Y-123081137D01*
X86364208Y-123325109D01*
X86302885Y-123358594D01*
X86233193Y-123353610D01*
X86220232Y-123347913D01*
X86127148Y-123300484D01*
X86076352Y-123252509D01*
X86059557Y-123184688D01*
X86082095Y-123118553D01*
X86127145Y-123079517D01*
X86218342Y-123033050D01*
X86308050Y-122943342D01*
X86365646Y-122830304D01*
X86365646Y-122830302D01*
X86365647Y-122830301D01*
X86380499Y-122736524D01*
X86380500Y-122736519D01*
X86380499Y-122373482D01*
X86365646Y-122279696D01*
X86308050Y-122166658D01*
X86308046Y-122166654D01*
X86308045Y-122166652D01*
X86218347Y-122076954D01*
X86218343Y-122076951D01*
X86218342Y-122076950D01*
X86192361Y-122063712D01*
X86127147Y-122030483D01*
X86076352Y-121982509D01*
X86059557Y-121914687D01*
X86082095Y-121848553D01*
X86127145Y-121809517D01*
X86218342Y-121763050D01*
X86308050Y-121673342D01*
X86365646Y-121560304D01*
X86365646Y-121560302D01*
X86365647Y-121560301D01*
X86380499Y-121466524D01*
X86380500Y-121466519D01*
X86380499Y-121103482D01*
X86380393Y-121102815D01*
X86374684Y-121066766D01*
X86365646Y-121009696D01*
X86308050Y-120896658D01*
X86308046Y-120896654D01*
X86308045Y-120896652D01*
X86218347Y-120806954D01*
X86218343Y-120806951D01*
X86218342Y-120806950D01*
X86212821Y-120804137D01*
X86127147Y-120760483D01*
X86076352Y-120712509D01*
X86059557Y-120644687D01*
X86082095Y-120578553D01*
X86127145Y-120539517D01*
X86218342Y-120493050D01*
X86308050Y-120403342D01*
X86365646Y-120290304D01*
X86365646Y-120290302D01*
X86365647Y-120290301D01*
X86379753Y-120201233D01*
X86380500Y-120196519D01*
X86380499Y-119833482D01*
X86365646Y-119739696D01*
X86308050Y-119626658D01*
X86308046Y-119626654D01*
X86308045Y-119626652D01*
X86218347Y-119536954D01*
X86218344Y-119536952D01*
X86218342Y-119536950D01*
X86137599Y-119495809D01*
X86105301Y-119479352D01*
X86011524Y-119464500D01*
X84298482Y-119464500D01*
X84217519Y-119477323D01*
X84204696Y-119479354D01*
X84091658Y-119536950D01*
X84091657Y-119536951D01*
X84091652Y-119536954D01*
X84000426Y-119628181D01*
X83939103Y-119661666D01*
X83912745Y-119664500D01*
X83671092Y-119664500D01*
X83604053Y-119644815D01*
X83584587Y-119626913D01*
X83583372Y-119628129D01*
X83577627Y-119622384D01*
X83577621Y-119622379D01*
X83462625Y-119534139D01*
X83462624Y-119534138D01*
X83462622Y-119534137D01*
X83328712Y-119478671D01*
X83328710Y-119478670D01*
X83328709Y-119478670D01*
X83221087Y-119464501D01*
X83185001Y-119459750D01*
X83184999Y-119459750D01*
X83041291Y-119478670D01*
X83041287Y-119478671D01*
X82907377Y-119534137D01*
X82792379Y-119622379D01*
X82704137Y-119737377D01*
X82648671Y-119871287D01*
X82648670Y-119871291D01*
X82629750Y-120015000D01*
X82640249Y-120094750D01*
X82648670Y-120158708D01*
X82648671Y-120158712D01*
X82704137Y-120292622D01*
X82704138Y-120292623D01*
X82704139Y-120292625D01*
X82792379Y-120407621D01*
X82907375Y-120495861D01*
X82907376Y-120495861D01*
X82907377Y-120495862D01*
X82948424Y-120512864D01*
X83041291Y-120551330D01*
X83168280Y-120568048D01*
X83184999Y-120570250D01*
X83185000Y-120570250D01*
X83185001Y-120570250D01*
X83199977Y-120568278D01*
X83328709Y-120551330D01*
X83462625Y-120495861D01*
X83577621Y-120407621D01*
X83577623Y-120407617D01*
X83577627Y-120407615D01*
X83583372Y-120401871D01*
X83585888Y-120404387D01*
X83629183Y-120372797D01*
X83671092Y-120365500D01*
X83912745Y-120365500D01*
X83979784Y-120385185D01*
X84000426Y-120401819D01*
X84091652Y-120493045D01*
X84091654Y-120493046D01*
X84091658Y-120493050D01*
X84182851Y-120539515D01*
X84233647Y-120587490D01*
X84250442Y-120655311D01*
X84227904Y-120721446D01*
X84182852Y-120760484D01*
X84091658Y-120806950D01*
X84091657Y-120806951D01*
X84091652Y-120806954D01*
X84001954Y-120896652D01*
X84001951Y-120896657D01*
X84001950Y-120896658D01*
X83982751Y-120934337D01*
X83944352Y-121009698D01*
X83929500Y-121103475D01*
X83929500Y-121466517D01*
X83939140Y-121527379D01*
X83944354Y-121560304D01*
X84001950Y-121673342D01*
X84001952Y-121673344D01*
X84001954Y-121673347D01*
X84091652Y-121763045D01*
X84091654Y-121763046D01*
X84091658Y-121763050D01*
X84182851Y-121809515D01*
X84233647Y-121857490D01*
X84250442Y-121925311D01*
X84227904Y-121991446D01*
X84182852Y-122030484D01*
X84091658Y-122076950D01*
X84091657Y-122076951D01*
X84091652Y-122076954D01*
X84000426Y-122168181D01*
X83939103Y-122201666D01*
X83912745Y-122204500D01*
X83866144Y-122204500D01*
X83773856Y-122204500D01*
X83684712Y-122228386D01*
X83684711Y-122228386D01*
X83684709Y-122228387D01*
X83684706Y-122228388D01*
X83604794Y-122274526D01*
X83604785Y-122274533D01*
X83539533Y-122339785D01*
X83539526Y-122339794D01*
X83493388Y-122419706D01*
X83493387Y-122419709D01*
X83469500Y-122508856D01*
X83469500Y-124435810D01*
X83449815Y-124502849D01*
X83397011Y-124548604D01*
X83329315Y-124558749D01*
X83185002Y-124539750D01*
X83184999Y-124539750D01*
X83041291Y-124558670D01*
X83041287Y-124558671D01*
X82907377Y-124614137D01*
X82792372Y-124702384D01*
X82786628Y-124708129D01*
X82784111Y-124705612D01*
X82740817Y-124737203D01*
X82698908Y-124744500D01*
X80496092Y-124744500D01*
X80429053Y-124724815D01*
X80409587Y-124706913D01*
X80408372Y-124708129D01*
X80402627Y-124702384D01*
X80402621Y-124702379D01*
X80287625Y-124614139D01*
X80287624Y-124614138D01*
X80287622Y-124614137D01*
X80153712Y-124558671D01*
X80153710Y-124558670D01*
X80153709Y-124558670D01*
X80062638Y-124546680D01*
X80010001Y-124539750D01*
X80009999Y-124539750D01*
X79866291Y-124558670D01*
X79866287Y-124558671D01*
X79732377Y-124614137D01*
X79617372Y-124702384D01*
X79611628Y-124708129D01*
X79609111Y-124705612D01*
X79565817Y-124737203D01*
X79523908Y-124744500D01*
X79282255Y-124744500D01*
X79215216Y-124724815D01*
X79194574Y-124708181D01*
X79103347Y-124616954D01*
X79103344Y-124616952D01*
X79103342Y-124616950D01*
X79010372Y-124569579D01*
X78990301Y-124559352D01*
X78896524Y-124544500D01*
X77483482Y-124544500D01*
X77402519Y-124557323D01*
X77389696Y-124559354D01*
X77276658Y-124616950D01*
X77276657Y-124616950D01*
X77276653Y-124616953D01*
X77269190Y-124622375D01*
X77203383Y-124645852D01*
X77135330Y-124630024D01*
X77120826Y-124620432D01*
X77112625Y-124614139D01*
X77112624Y-124614138D01*
X77112622Y-124614137D01*
X76978712Y-124558671D01*
X76978710Y-124558670D01*
X76978709Y-124558670D01*
X76887638Y-124546680D01*
X76835001Y-124539750D01*
X76826873Y-124539750D01*
X76826873Y-124536243D01*
X76773613Y-124527772D01*
X76739122Y-124503440D01*
X75549217Y-123313535D01*
X75515732Y-123252212D01*
X75520716Y-123182520D01*
X75562588Y-123126587D01*
X75620711Y-123102915D01*
X75708709Y-123091330D01*
X75842625Y-123035861D01*
X75957621Y-122947621D01*
X76045861Y-122832625D01*
X76101330Y-122698709D01*
X76120250Y-122555000D01*
X76101330Y-122411291D01*
X76046823Y-122279697D01*
X76045862Y-122277377D01*
X76045861Y-122277376D01*
X76045861Y-122277375D01*
X75957621Y-122162379D01*
X75842625Y-122074139D01*
X75842624Y-122074138D01*
X75842622Y-122074137D01*
X75747074Y-122034561D01*
X75692670Y-121990721D01*
X75670605Y-121924427D01*
X75687884Y-121856727D01*
X75739021Y-121809116D01*
X75747074Y-121805439D01*
X75817454Y-121776287D01*
X75842625Y-121765861D01*
X75957621Y-121677621D01*
X76045861Y-121562625D01*
X76101330Y-121428709D01*
X76120250Y-121285000D01*
X76101330Y-121141291D01*
X76046823Y-121009697D01*
X76045862Y-121007377D01*
X76045861Y-121007376D01*
X76045861Y-121007375D01*
X75957621Y-120892379D01*
X75842625Y-120804139D01*
X75842624Y-120804138D01*
X75842622Y-120804137D01*
X75708712Y-120748671D01*
X75708710Y-120748670D01*
X75708709Y-120748670D01*
X75601087Y-120734501D01*
X75565001Y-120729750D01*
X75564999Y-120729750D01*
X75421291Y-120748670D01*
X75421287Y-120748671D01*
X75287377Y-120804137D01*
X75172372Y-120892384D01*
X75166628Y-120898129D01*
X75164111Y-120895612D01*
X75120817Y-120927203D01*
X75078908Y-120934500D01*
X74032255Y-120934500D01*
X73965216Y-120914815D01*
X73944574Y-120898181D01*
X73853347Y-120806954D01*
X73853344Y-120806952D01*
X73853342Y-120806950D01*
X73762146Y-120760483D01*
X73740301Y-120749352D01*
X73646524Y-120734500D01*
X73646519Y-120734500D01*
X73499500Y-120734500D01*
X73432461Y-120714815D01*
X73386706Y-120662011D01*
X73375500Y-120610500D01*
X73375500Y-120501092D01*
X73395185Y-120434053D01*
X73413114Y-120414609D01*
X73411874Y-120413369D01*
X73417619Y-120407623D01*
X73417621Y-120407621D01*
X73505861Y-120292625D01*
X73561330Y-120158709D01*
X73580250Y-120015000D01*
X73561330Y-119871291D01*
X73505861Y-119737375D01*
X73505860Y-119737374D01*
X73505860Y-119737373D01*
X73423026Y-119629423D01*
X73397831Y-119564254D01*
X73411869Y-119495809D01*
X73422135Y-119479624D01*
X73453796Y-119437331D01*
X73504091Y-119302483D01*
X73510500Y-119242873D01*
X73510500Y-119242870D01*
X73809500Y-119242870D01*
X73809501Y-119242876D01*
X73815908Y-119302483D01*
X73866202Y-119437328D01*
X73866206Y-119437335D01*
X73952452Y-119552544D01*
X73952455Y-119552547D01*
X74067664Y-119638793D01*
X74067671Y-119638797D01*
X74202517Y-119689091D01*
X74202516Y-119689091D01*
X74209444Y-119689835D01*
X74262127Y-119695500D01*
X75057872Y-119695499D01*
X75117483Y-119689091D01*
X75252331Y-119638796D01*
X75367546Y-119552546D01*
X75444422Y-119449852D01*
X75500353Y-119407984D01*
X75570044Y-119403000D01*
X75631367Y-119436485D01*
X75645575Y-119455464D01*
X75645888Y-119455231D01*
X75737452Y-119577544D01*
X75737455Y-119577547D01*
X75852664Y-119663793D01*
X75852671Y-119663797D01*
X75987516Y-119714091D01*
X76013419Y-119716875D01*
X76047127Y-119720500D01*
X76078452Y-119720499D01*
X76145490Y-119740182D01*
X76166135Y-119756818D01*
X77163422Y-120754103D01*
X77196907Y-120815426D01*
X77191923Y-120885117D01*
X77186226Y-120898078D01*
X77186174Y-120898181D01*
X77129352Y-121009698D01*
X77114500Y-121103475D01*
X77114500Y-121466517D01*
X77124140Y-121527379D01*
X77129354Y-121560304D01*
X77186950Y-121673342D01*
X77186952Y-121673344D01*
X77186954Y-121673347D01*
X77276652Y-121763045D01*
X77276654Y-121763046D01*
X77276658Y-121763050D01*
X77367851Y-121809515D01*
X77418647Y-121857490D01*
X77435442Y-121925311D01*
X77412904Y-121991446D01*
X77367852Y-122030484D01*
X77276658Y-122076950D01*
X77276657Y-122076951D01*
X77276652Y-122076954D01*
X77186954Y-122166652D01*
X77186951Y-122166657D01*
X77186950Y-122166658D01*
X77169112Y-122201666D01*
X77129352Y-122279698D01*
X77114500Y-122373475D01*
X77114500Y-122736517D01*
X77121578Y-122781204D01*
X77129354Y-122830304D01*
X77186950Y-122943342D01*
X77186952Y-122943344D01*
X77186954Y-122943347D01*
X77276652Y-123033045D01*
X77276654Y-123033046D01*
X77276658Y-123033050D01*
X77371034Y-123081137D01*
X77389698Y-123090647D01*
X77483475Y-123105499D01*
X77483481Y-123105500D01*
X78896518Y-123105499D01*
X78990304Y-123090646D01*
X79103342Y-123033050D01*
X79142936Y-122993456D01*
X79194574Y-122941819D01*
X79255897Y-122908334D01*
X79282255Y-122905500D01*
X81326142Y-122905500D01*
X81326144Y-122905500D01*
X81415288Y-122881614D01*
X81434538Y-122870500D01*
X81495212Y-122835470D01*
X82195470Y-122135212D01*
X82241614Y-122055288D01*
X82255222Y-122004501D01*
X82265500Y-121966144D01*
X82265500Y-121136092D01*
X82285185Y-121069053D01*
X82303114Y-121049609D01*
X82301874Y-121048369D01*
X82307619Y-121042623D01*
X82307621Y-121042621D01*
X82395861Y-120927625D01*
X82451330Y-120793709D01*
X82470250Y-120650000D01*
X82451330Y-120506291D01*
X82408688Y-120403342D01*
X82395862Y-120372377D01*
X82395861Y-120372376D01*
X82395861Y-120372375D01*
X82307621Y-120257379D01*
X82192625Y-120169139D01*
X82192624Y-120169138D01*
X82192622Y-120169137D01*
X82058712Y-120113671D01*
X82058710Y-120113670D01*
X82058709Y-120113670D01*
X81986854Y-120104210D01*
X81915001Y-120094750D01*
X81914999Y-120094750D01*
X81771291Y-120113670D01*
X81771287Y-120113671D01*
X81637377Y-120169137D01*
X81522379Y-120257379D01*
X81434137Y-120372377D01*
X81378671Y-120506287D01*
X81378670Y-120506291D01*
X81372741Y-120551329D01*
X81359750Y-120650000D01*
X81372830Y-120749354D01*
X81378670Y-120793708D01*
X81378671Y-120793712D01*
X81434138Y-120927623D01*
X81434139Y-120927625D01*
X81522380Y-121042623D01*
X81528126Y-121048369D01*
X81525574Y-121050920D01*
X81557091Y-121093873D01*
X81564500Y-121136092D01*
X81564500Y-121723456D01*
X81544815Y-121790495D01*
X81528181Y-121811137D01*
X81171137Y-122168181D01*
X81109814Y-122201666D01*
X81083456Y-122204500D01*
X79282255Y-122204500D01*
X79215216Y-122184815D01*
X79194574Y-122168181D01*
X79103347Y-122076954D01*
X79103343Y-122076951D01*
X79103342Y-122076950D01*
X79077361Y-122063712D01*
X79012147Y-122030483D01*
X78961352Y-121982509D01*
X78944557Y-121914687D01*
X78967095Y-121848553D01*
X79012145Y-121809517D01*
X79103342Y-121763050D01*
X79193050Y-121673342D01*
X79250646Y-121560304D01*
X79250646Y-121560302D01*
X79250647Y-121560301D01*
X79265499Y-121466524D01*
X79265500Y-121466519D01*
X79265499Y-121103482D01*
X79265393Y-121102815D01*
X79259684Y-121066766D01*
X79250646Y-121009696D01*
X79193050Y-120896658D01*
X79193046Y-120896654D01*
X79193045Y-120896652D01*
X79103347Y-120806954D01*
X79103344Y-120806952D01*
X79103342Y-120806950D01*
X79012146Y-120760483D01*
X78990301Y-120749352D01*
X78896524Y-120734500D01*
X78896519Y-120734500D01*
X78186543Y-120734500D01*
X78119504Y-120714815D01*
X78098862Y-120698181D01*
X77139597Y-119738915D01*
X77106112Y-119677592D01*
X77111096Y-119607900D01*
X77128008Y-119576927D01*
X77213796Y-119462331D01*
X77264091Y-119327483D01*
X77270500Y-119267873D01*
X77270499Y-118222128D01*
X77264091Y-118162517D01*
X77236863Y-118089516D01*
X77213797Y-118027671D01*
X77213793Y-118027664D01*
X77127547Y-117912455D01*
X77127544Y-117912452D01*
X77012335Y-117826206D01*
X77012328Y-117826202D01*
X76877486Y-117775910D01*
X76877485Y-117775909D01*
X76877483Y-117775909D01*
X76817873Y-117769500D01*
X76817863Y-117769500D01*
X76047129Y-117769500D01*
X76047123Y-117769501D01*
X75987516Y-117775908D01*
X75852671Y-117826202D01*
X75852664Y-117826206D01*
X75737455Y-117912452D01*
X75737452Y-117912455D01*
X75645888Y-118034769D01*
X75644244Y-118033538D01*
X75603097Y-118074674D01*
X75534822Y-118089516D01*
X75469361Y-118065089D01*
X75444422Y-118040147D01*
X75367546Y-117937454D01*
X75318914Y-117901048D01*
X75252335Y-117851206D01*
X75252328Y-117851202D01*
X75117482Y-117800908D01*
X75117483Y-117800908D01*
X75057883Y-117794501D01*
X75057881Y-117794500D01*
X75057873Y-117794500D01*
X75057864Y-117794500D01*
X74262129Y-117794500D01*
X74262123Y-117794501D01*
X74202516Y-117800908D01*
X74067671Y-117851202D01*
X74067664Y-117851206D01*
X73952455Y-117937452D01*
X73952452Y-117937455D01*
X73866206Y-118052664D01*
X73866202Y-118052671D01*
X73815908Y-118187517D01*
X73809501Y-118247116D01*
X73809501Y-118247123D01*
X73809500Y-118247135D01*
X73809500Y-119242870D01*
X73510500Y-119242870D01*
X73510499Y-118247128D01*
X73504609Y-118192335D01*
X73504091Y-118187516D01*
X73453797Y-118052671D01*
X73453793Y-118052664D01*
X73367547Y-117937455D01*
X73367544Y-117937452D01*
X73252335Y-117851206D01*
X73252328Y-117851202D01*
X73117482Y-117800908D01*
X73117483Y-117800908D01*
X73057883Y-117794501D01*
X73057881Y-117794500D01*
X73057873Y-117794500D01*
X73057865Y-117794500D01*
X73039094Y-117794500D01*
X72972055Y-117774815D01*
X72926300Y-117722011D01*
X72916356Y-117652853D01*
X72924532Y-117623049D01*
X72926330Y-117618709D01*
X72945250Y-117475000D01*
X72926330Y-117331291D01*
X72926329Y-117331289D01*
X72926250Y-117330686D01*
X72937015Y-117261651D01*
X72983395Y-117209395D01*
X73049189Y-117190500D01*
X75078908Y-117190500D01*
X75145947Y-117210185D01*
X75165412Y-117228086D01*
X75166628Y-117226871D01*
X75172372Y-117232615D01*
X75172377Y-117232619D01*
X75172379Y-117232621D01*
X75287375Y-117320861D01*
X75287376Y-117320861D01*
X75287377Y-117320862D01*
X75332013Y-117339350D01*
X75421291Y-117376330D01*
X75548280Y-117393048D01*
X75564999Y-117395250D01*
X75565000Y-117395250D01*
X75565001Y-117395250D01*
X75579977Y-117393278D01*
X75708709Y-117376330D01*
X75842625Y-117320861D01*
X75957621Y-117232621D01*
X76045861Y-117117625D01*
X76101330Y-116983709D01*
X76120250Y-116840000D01*
X76101330Y-116696291D01*
X76059121Y-116594387D01*
X76045862Y-116562377D01*
X76045861Y-116562376D01*
X76045861Y-116562375D01*
X75957621Y-116447379D01*
X75842625Y-116359139D01*
X75842624Y-116359138D01*
X75842622Y-116359137D01*
X75708712Y-116303671D01*
X75708710Y-116303670D01*
X75708709Y-116303670D01*
X75636854Y-116294210D01*
X75565001Y-116284750D01*
X75564999Y-116284750D01*
X75421291Y-116303670D01*
X75421287Y-116303671D01*
X75287377Y-116359137D01*
X75172372Y-116447384D01*
X75166628Y-116453129D01*
X75164111Y-116450612D01*
X75120817Y-116482203D01*
X75078908Y-116489500D01*
X71779189Y-116489500D01*
X71712150Y-116469815D01*
X71666395Y-116417011D01*
X71656250Y-116349314D01*
X71662260Y-116303670D01*
X71675250Y-116205000D01*
X71656330Y-116061291D01*
X71600861Y-115927375D01*
X71596123Y-115921200D01*
X71570930Y-115856031D01*
X71570500Y-115845715D01*
X71570500Y-115289499D01*
X71590185Y-115222460D01*
X71642989Y-115176705D01*
X71694500Y-115165499D01*
X71766123Y-115165499D01*
X71766123Y-115165498D01*
X71808889Y-115162600D01*
X71993693Y-115116641D01*
X72164296Y-115032030D01*
X72312722Y-114912722D01*
X72432030Y-114764296D01*
X72516641Y-114593693D01*
X72562600Y-114408889D01*
X72565500Y-114366123D01*
X72565499Y-112963878D01*
X72562600Y-112921111D01*
X72516641Y-112736307D01*
X72509353Y-112721612D01*
X72432032Y-112565707D01*
X72432030Y-112565704D01*
X72312722Y-112417278D01*
X72312721Y-112417277D01*
X72164295Y-112297969D01*
X72164292Y-112297967D01*
X71993697Y-112213360D01*
X71808892Y-112167400D01*
X71776180Y-112165182D01*
X71766123Y-112164500D01*
X71766121Y-112164500D01*
X71694500Y-112164500D01*
X71627461Y-112144815D01*
X71581706Y-112092011D01*
X71570500Y-112040500D01*
X71570500Y-111484284D01*
X71590185Y-111417245D01*
X71596116Y-111408808D01*
X71600861Y-111402625D01*
X71656330Y-111268709D01*
X71675250Y-111125000D01*
X71656330Y-110981291D01*
X71609149Y-110867385D01*
X71600862Y-110847377D01*
X71600861Y-110847376D01*
X71600861Y-110847375D01*
X71512621Y-110732379D01*
X71397625Y-110644139D01*
X71397624Y-110644138D01*
X71397622Y-110644137D01*
X71263712Y-110588671D01*
X71263710Y-110588670D01*
X71263709Y-110588670D01*
X71191854Y-110579210D01*
X71120001Y-110569750D01*
X71119999Y-110569750D01*
X70976291Y-110588670D01*
X70976287Y-110588671D01*
X70849952Y-110641000D01*
X70780482Y-110648469D01*
X70755048Y-110641000D01*
X70628712Y-110588671D01*
X70628710Y-110588670D01*
X70628709Y-110588670D01*
X70556854Y-110579210D01*
X70485001Y-110569750D01*
X70484999Y-110569750D01*
X70341291Y-110588670D01*
X70341287Y-110588671D01*
X70214952Y-110641000D01*
X70145482Y-110648469D01*
X70120048Y-110641000D01*
X69993712Y-110588671D01*
X69993710Y-110588670D01*
X69993709Y-110588670D01*
X69921854Y-110579210D01*
X69850001Y-110569750D01*
X69849999Y-110569750D01*
X69706291Y-110588670D01*
X69706287Y-110588671D01*
X69572377Y-110644137D01*
X69457379Y-110732379D01*
X69369137Y-110847377D01*
X69313671Y-110981287D01*
X69313670Y-110981291D01*
X69294750Y-111124999D01*
X69294750Y-111125000D01*
X69313670Y-111268708D01*
X69313671Y-111268712D01*
X69369137Y-111402622D01*
X69369138Y-111402624D01*
X69369139Y-111402625D01*
X69457379Y-111517621D01*
X69572375Y-111605861D01*
X69572376Y-111605861D01*
X69572377Y-111605862D01*
X69579951Y-111608999D01*
X69706291Y-111661330D01*
X69833280Y-111678048D01*
X69849999Y-111680250D01*
X69850000Y-111680250D01*
X69850001Y-111680250D01*
X69864977Y-111678278D01*
X69993709Y-111661330D01*
X70120049Y-111608998D01*
X70189517Y-111601530D01*
X70214945Y-111608996D01*
X70341291Y-111661330D01*
X70485000Y-111680250D01*
X70529315Y-111674415D01*
X70598348Y-111685180D01*
X70650604Y-111731558D01*
X70669500Y-111797354D01*
X70669500Y-112040500D01*
X70649815Y-112107539D01*
X70597011Y-112153294D01*
X70545501Y-112164500D01*
X70363878Y-112164500D01*
X70363874Y-112164501D01*
X70321113Y-112167399D01*
X70321112Y-112167399D01*
X70136303Y-112213360D01*
X69965707Y-112297967D01*
X69965706Y-112297968D01*
X69947845Y-112312325D01*
X69883260Y-112338982D01*
X69814516Y-112326490D01*
X69763439Y-112278816D01*
X69754938Y-112258592D01*
X69754440Y-112258799D01*
X69695862Y-112117377D01*
X69695861Y-112117376D01*
X69695861Y-112117375D01*
X69607621Y-112002379D01*
X69492625Y-111914139D01*
X69492624Y-111914138D01*
X69492622Y-111914137D01*
X69358712Y-111858671D01*
X69358710Y-111858670D01*
X69358709Y-111858670D01*
X69251087Y-111844501D01*
X69215001Y-111839750D01*
X69206873Y-111839750D01*
X69206873Y-111836243D01*
X69153613Y-111827772D01*
X69119122Y-111803440D01*
X68160213Y-110844531D01*
X68160208Y-110844527D01*
X68080291Y-110798387D01*
X68080287Y-110798385D01*
X68074926Y-110796949D01*
X68074926Y-110796948D01*
X68003956Y-110777933D01*
X67991144Y-110774500D01*
X67991143Y-110774500D01*
X65703695Y-110774500D01*
X65636656Y-110754815D01*
X65590901Y-110702011D01*
X65580957Y-110632853D01*
X65604741Y-110575773D01*
X65605702Y-110574501D01*
X65709673Y-110436821D01*
X65800582Y-110254250D01*
X65856397Y-110058083D01*
X65875215Y-109855000D01*
X65862508Y-109717872D01*
X65856397Y-109651917D01*
X65845216Y-109612620D01*
X65800582Y-109455750D01*
X65796493Y-109447539D01*
X65725269Y-109304500D01*
X65709673Y-109273179D01*
X65669514Y-109220000D01*
X73739750Y-109220000D01*
X73752830Y-109319354D01*
X73758670Y-109363708D01*
X73758671Y-109363712D01*
X73814137Y-109497622D01*
X73814138Y-109497624D01*
X73814139Y-109497625D01*
X73902379Y-109612621D01*
X74017375Y-109700861D01*
X74151291Y-109756330D01*
X74278280Y-109773048D01*
X74294999Y-109775250D01*
X74295000Y-109775250D01*
X74295001Y-109775250D01*
X74309977Y-109773278D01*
X74438709Y-109756330D01*
X74565049Y-109703998D01*
X74634517Y-109696530D01*
X74659945Y-109703996D01*
X74786291Y-109756330D01*
X74913280Y-109773048D01*
X74929999Y-109775250D01*
X74930000Y-109775250D01*
X74930001Y-109775250D01*
X74944977Y-109773278D01*
X75073709Y-109756330D01*
X75200049Y-109703998D01*
X75269517Y-109696530D01*
X75294945Y-109703996D01*
X75421291Y-109756330D01*
X75548280Y-109773048D01*
X75564999Y-109775250D01*
X75565000Y-109775250D01*
X75565001Y-109775250D01*
X75579977Y-109773278D01*
X75708709Y-109756330D01*
X75842625Y-109700861D01*
X75957621Y-109612621D01*
X76045861Y-109497625D01*
X76101330Y-109363709D01*
X76120250Y-109220000D01*
X76101330Y-109076291D01*
X76045861Y-108942375D01*
X75957621Y-108827379D01*
X75842625Y-108739139D01*
X75842624Y-108739138D01*
X75842622Y-108739137D01*
X75708712Y-108683671D01*
X75708710Y-108683670D01*
X75708709Y-108683670D01*
X75636854Y-108674210D01*
X75565001Y-108664750D01*
X75564999Y-108664750D01*
X75421291Y-108683670D01*
X75421287Y-108683671D01*
X75294952Y-108736000D01*
X75225482Y-108743469D01*
X75200048Y-108736000D01*
X75073712Y-108683671D01*
X75073710Y-108683670D01*
X75073709Y-108683670D01*
X75001854Y-108674210D01*
X74930001Y-108664750D01*
X74929999Y-108664750D01*
X74786291Y-108683670D01*
X74786287Y-108683671D01*
X74659952Y-108736000D01*
X74590482Y-108743469D01*
X74565048Y-108736000D01*
X74438712Y-108683671D01*
X74438710Y-108683670D01*
X74438709Y-108683670D01*
X74366854Y-108674210D01*
X74295001Y-108664750D01*
X74294999Y-108664750D01*
X74151291Y-108683670D01*
X74151287Y-108683671D01*
X74017377Y-108739137D01*
X73902379Y-108827379D01*
X73814137Y-108942377D01*
X73758671Y-109076287D01*
X73758670Y-109076291D01*
X73739750Y-109220000D01*
X65669514Y-109220000D01*
X65586764Y-109110421D01*
X65586762Y-109110418D01*
X65436041Y-108973019D01*
X65436039Y-108973017D01*
X65262642Y-108865655D01*
X65262635Y-108865651D01*
X65163842Y-108827379D01*
X65072456Y-108791976D01*
X64871976Y-108754500D01*
X64668024Y-108754500D01*
X64467544Y-108791976D01*
X64467541Y-108791976D01*
X64467541Y-108791977D01*
X64277364Y-108865651D01*
X64277357Y-108865655D01*
X64103960Y-108973017D01*
X64103958Y-108973019D01*
X63953237Y-109110418D01*
X63830327Y-109273178D01*
X63739422Y-109455739D01*
X63739417Y-109455752D01*
X63683602Y-109651917D01*
X63664785Y-109854999D01*
X63664785Y-109855000D01*
X63683602Y-110058082D01*
X63739417Y-110254247D01*
X63739422Y-110254260D01*
X63814731Y-110405500D01*
X63830327Y-110436821D01*
X63934297Y-110574500D01*
X63935259Y-110575773D01*
X63959951Y-110641134D01*
X63945386Y-110709469D01*
X63896189Y-110759082D01*
X63836305Y-110774500D01*
X63696544Y-110774500D01*
X63629505Y-110754815D01*
X63608863Y-110738181D01*
X63278576Y-110407894D01*
X63245091Y-110346571D01*
X63250075Y-110276879D01*
X63255251Y-110264954D01*
X63260582Y-110254250D01*
X63316397Y-110058083D01*
X63335215Y-109855000D01*
X63322508Y-109717872D01*
X63316397Y-109651917D01*
X63305216Y-109612620D01*
X63260582Y-109455750D01*
X63256493Y-109447539D01*
X63185269Y-109304500D01*
X63169673Y-109273179D01*
X63046764Y-109110421D01*
X63046762Y-109110418D01*
X62896041Y-108973019D01*
X62896039Y-108973017D01*
X62722642Y-108865655D01*
X62722635Y-108865651D01*
X62623842Y-108827379D01*
X62532456Y-108791976D01*
X62331976Y-108754500D01*
X62128024Y-108754500D01*
X61927544Y-108791976D01*
X61927541Y-108791976D01*
X61927541Y-108791977D01*
X61737364Y-108865651D01*
X61737357Y-108865655D01*
X61563960Y-108973017D01*
X61563958Y-108973019D01*
X61413237Y-109110418D01*
X61290327Y-109273178D01*
X61199422Y-109455739D01*
X61199417Y-109455752D01*
X61143602Y-109651917D01*
X61124785Y-109854999D01*
X61124785Y-109855000D01*
X61143602Y-110058082D01*
X61199417Y-110254247D01*
X61199422Y-110254260D01*
X61290327Y-110436821D01*
X61413237Y-110599581D01*
X61563958Y-110736980D01*
X61563960Y-110736982D01*
X61592762Y-110754815D01*
X61737363Y-110844348D01*
X61927544Y-110918024D01*
X62128024Y-110955500D01*
X62128026Y-110955500D01*
X62331974Y-110955500D01*
X62331976Y-110955500D01*
X62532456Y-110918024D01*
X62648037Y-110873247D01*
X62717658Y-110867385D01*
X62779399Y-110900094D01*
X62780511Y-110901193D01*
X63284788Y-111405470D01*
X63284789Y-111405471D01*
X63284791Y-111405472D01*
X63305183Y-111417245D01*
X63364712Y-111451614D01*
X63453856Y-111475500D01*
X63836305Y-111475500D01*
X63903344Y-111495185D01*
X63949099Y-111547989D01*
X63959043Y-111617147D01*
X63935259Y-111674225D01*
X63924440Y-111688553D01*
X63830327Y-111813178D01*
X63739422Y-111995739D01*
X63739417Y-111995752D01*
X63683602Y-112191917D01*
X63664785Y-112394999D01*
X63664785Y-112395000D01*
X63683602Y-112598082D01*
X63739417Y-112794247D01*
X63739422Y-112794260D01*
X63814731Y-112945500D01*
X63830327Y-112976821D01*
X63934297Y-113114500D01*
X63935259Y-113115773D01*
X63959951Y-113181134D01*
X63945386Y-113249469D01*
X63896189Y-113299082D01*
X63836305Y-113314500D01*
X63696544Y-113314500D01*
X63629505Y-113294815D01*
X63608863Y-113278181D01*
X63278576Y-112947894D01*
X63245091Y-112886571D01*
X63250075Y-112816879D01*
X63255251Y-112804954D01*
X63260582Y-112794250D01*
X63316397Y-112598083D01*
X63335215Y-112395000D01*
X63330337Y-112342362D01*
X63316397Y-112191917D01*
X63300545Y-112136204D01*
X63260582Y-111995750D01*
X63257628Y-111989818D01*
X63192325Y-111858671D01*
X63169673Y-111813179D01*
X63065702Y-111675499D01*
X63046762Y-111650418D01*
X62896041Y-111513019D01*
X62896039Y-111513017D01*
X62722642Y-111405655D01*
X62722635Y-111405651D01*
X62627546Y-111368814D01*
X62532456Y-111331976D01*
X62331976Y-111294500D01*
X62128024Y-111294500D01*
X61927544Y-111331976D01*
X61927541Y-111331976D01*
X61927541Y-111331977D01*
X61737364Y-111405651D01*
X61737357Y-111405655D01*
X61563960Y-111513017D01*
X61563958Y-111513019D01*
X61413237Y-111650418D01*
X61290327Y-111813178D01*
X61199422Y-111995739D01*
X61199417Y-111995752D01*
X61143602Y-112191917D01*
X61124785Y-112394999D01*
X61124785Y-112395000D01*
X61143602Y-112598082D01*
X61199417Y-112794247D01*
X61199422Y-112794260D01*
X61290327Y-112976821D01*
X61413237Y-113139581D01*
X61563958Y-113276980D01*
X61563960Y-113276982D01*
X61592762Y-113294815D01*
X61737363Y-113384348D01*
X61927544Y-113458024D01*
X62128024Y-113495500D01*
X62128026Y-113495500D01*
X62331974Y-113495500D01*
X62331976Y-113495500D01*
X62532456Y-113458024D01*
X62648037Y-113413247D01*
X62717658Y-113407385D01*
X62779399Y-113440094D01*
X62780511Y-113441193D01*
X63284788Y-113945470D01*
X63345462Y-113980500D01*
X63364712Y-113991614D01*
X63453856Y-114015500D01*
X68093908Y-114015500D01*
X68160947Y-114035185D01*
X68180412Y-114053086D01*
X68181628Y-114051871D01*
X68187372Y-114057615D01*
X68187377Y-114057619D01*
X68187379Y-114057621D01*
X68302375Y-114145861D01*
X68302376Y-114145861D01*
X68302377Y-114145862D01*
X68347013Y-114164350D01*
X68436291Y-114201330D01*
X68563280Y-114218048D01*
X68579999Y-114220250D01*
X68580000Y-114220250D01*
X68580001Y-114220250D01*
X68594977Y-114218278D01*
X68723709Y-114201330D01*
X68857625Y-114145861D01*
X68972621Y-114057621D01*
X69060861Y-113942625D01*
X69116330Y-113808709D01*
X69135250Y-113665000D01*
X69116330Y-113521291D01*
X69061823Y-113389698D01*
X69060862Y-113387377D01*
X69060861Y-113387376D01*
X69060861Y-113387375D01*
X68972621Y-113272379D01*
X68857625Y-113184139D01*
X68857624Y-113184138D01*
X68857622Y-113184137D01*
X68723712Y-113128671D01*
X68723710Y-113128670D01*
X68723709Y-113128670D01*
X68651854Y-113119210D01*
X68580001Y-113109750D01*
X68579999Y-113109750D01*
X68436291Y-113128670D01*
X68436287Y-113128671D01*
X68302377Y-113184137D01*
X68187372Y-113272384D01*
X68181628Y-113278129D01*
X68179111Y-113275612D01*
X68135817Y-113307203D01*
X68093908Y-113314500D01*
X65703695Y-113314500D01*
X65636656Y-113294815D01*
X65590901Y-113242011D01*
X65580957Y-113172853D01*
X65604741Y-113115773D01*
X65605702Y-113114501D01*
X65709673Y-112976821D01*
X65800582Y-112794250D01*
X65856397Y-112598083D01*
X65875215Y-112395000D01*
X65870337Y-112342362D01*
X65856397Y-112191917D01*
X65840545Y-112136204D01*
X65800582Y-111995750D01*
X65797628Y-111989818D01*
X65732325Y-111858671D01*
X65709673Y-111813179D01*
X65604740Y-111674225D01*
X65580049Y-111608866D01*
X65594614Y-111540531D01*
X65643811Y-111490918D01*
X65703695Y-111475500D01*
X67748456Y-111475500D01*
X67815495Y-111495185D01*
X67836137Y-111511819D01*
X68623440Y-112299122D01*
X68656925Y-112360445D01*
X68658067Y-112386873D01*
X68659750Y-112386873D01*
X68659750Y-112394999D01*
X68659750Y-112395000D01*
X68677803Y-112532127D01*
X68678670Y-112538708D01*
X68678671Y-112538712D01*
X68734137Y-112672622D01*
X68734138Y-112672624D01*
X68734139Y-112672625D01*
X68822379Y-112787621D01*
X68937375Y-112875861D01*
X68937376Y-112875861D01*
X68937377Y-112875862D01*
X68982013Y-112894350D01*
X69071291Y-112931330D01*
X69197105Y-112947894D01*
X69214999Y-112950250D01*
X69215000Y-112950250D01*
X69215001Y-112950250D01*
X69251087Y-112945499D01*
X69358709Y-112931330D01*
X69393050Y-112917105D01*
X69462516Y-112909637D01*
X69524995Y-112940911D01*
X69560648Y-113001000D01*
X69564500Y-113031667D01*
X69564500Y-114366122D01*
X69564501Y-114366125D01*
X69567399Y-114408886D01*
X69567399Y-114408887D01*
X69613360Y-114593696D01*
X69697967Y-114764292D01*
X69697969Y-114764295D01*
X69817277Y-114912721D01*
X69817278Y-114912722D01*
X69965704Y-115032030D01*
X69965707Y-115032032D01*
X70136302Y-115116639D01*
X70136303Y-115116639D01*
X70136307Y-115116641D01*
X70321111Y-115162600D01*
X70363877Y-115165500D01*
X70545500Y-115165499D01*
X70612539Y-115185183D01*
X70658294Y-115237987D01*
X70669500Y-115289499D01*
X70669500Y-115532645D01*
X70649815Y-115599684D01*
X70597011Y-115645439D01*
X70529315Y-115655584D01*
X70485002Y-115649750D01*
X70484999Y-115649750D01*
X70341291Y-115668670D01*
X70341287Y-115668671D01*
X70214952Y-115721000D01*
X70145482Y-115728469D01*
X70120048Y-115721000D01*
X69993712Y-115668671D01*
X69993710Y-115668670D01*
X69993709Y-115668670D01*
X69894313Y-115655584D01*
X69850001Y-115649750D01*
X69849999Y-115649750D01*
X69706291Y-115668670D01*
X69706287Y-115668671D01*
X69572377Y-115724137D01*
X69457379Y-115812379D01*
X69369137Y-115927377D01*
X69313671Y-116061287D01*
X69313670Y-116061291D01*
X69294750Y-116205000D01*
X69307740Y-116303670D01*
X69313750Y-116349314D01*
X69302985Y-116418349D01*
X69256605Y-116470605D01*
X69190811Y-116489500D01*
X60811092Y-116489500D01*
X60744053Y-116469815D01*
X60724587Y-116451913D01*
X60723372Y-116453129D01*
X60717627Y-116447384D01*
X60717621Y-116447379D01*
X60602625Y-116359139D01*
X60602624Y-116359138D01*
X60602622Y-116359137D01*
X60468712Y-116303671D01*
X60468710Y-116303670D01*
X60468709Y-116303670D01*
X60396854Y-116294210D01*
X60325001Y-116284750D01*
X60324999Y-116284750D01*
X60181291Y-116303670D01*
X60181287Y-116303671D01*
X60047377Y-116359137D01*
X59932379Y-116447379D01*
X59844137Y-116562377D01*
X59788671Y-116696287D01*
X59788670Y-116696291D01*
X59782741Y-116741329D01*
X59769750Y-116840000D01*
X59780249Y-116919750D01*
X59788670Y-116983708D01*
X59788671Y-116983712D01*
X59844137Y-117117622D01*
X59844138Y-117117624D01*
X59844139Y-117117625D01*
X59932379Y-117232621D01*
X60047375Y-117320861D01*
X60047376Y-117320861D01*
X60047377Y-117320862D01*
X60092013Y-117339350D01*
X60181291Y-117376330D01*
X60308280Y-117393048D01*
X60324999Y-117395250D01*
X60325000Y-117395250D01*
X60325001Y-117395250D01*
X60339977Y-117393278D01*
X60468709Y-117376330D01*
X60602625Y-117320861D01*
X60717621Y-117232621D01*
X60717623Y-117232617D01*
X60717627Y-117232615D01*
X60723372Y-117226871D01*
X60725888Y-117229387D01*
X60769183Y-117197797D01*
X60811092Y-117190500D01*
X71730811Y-117190500D01*
X71797850Y-117210185D01*
X71843605Y-117262989D01*
X71853750Y-117330686D01*
X71853670Y-117331289D01*
X71853670Y-117331291D01*
X71834750Y-117475000D01*
X71846099Y-117561206D01*
X71853670Y-117618708D01*
X71853671Y-117618712D01*
X71909138Y-117752623D01*
X71909139Y-117752625D01*
X71943887Y-117797910D01*
X71969081Y-117863079D01*
X71955042Y-117931524D01*
X71944778Y-117947707D01*
X71866204Y-118052668D01*
X71866202Y-118052671D01*
X71815908Y-118187517D01*
X71809501Y-118247116D01*
X71809501Y-118247123D01*
X71809500Y-118247135D01*
X71809500Y-118913455D01*
X71789815Y-118980494D01*
X71773181Y-119001136D01*
X71474531Y-119299786D01*
X71474527Y-119299791D01*
X71428387Y-119379709D01*
X71428386Y-119379712D01*
X71404500Y-119468856D01*
X71404500Y-121966144D01*
X71406240Y-121972637D01*
X71418758Y-122019354D01*
X71418758Y-122019355D01*
X71422964Y-122035053D01*
X71421300Y-122104903D01*
X71382137Y-122162765D01*
X71317908Y-122190268D01*
X71249006Y-122178681D01*
X71215508Y-122154826D01*
X71076560Y-122015878D01*
X71043075Y-121954555D01*
X71041983Y-121928129D01*
X71040250Y-121928129D01*
X71040250Y-121920000D01*
X71039667Y-121915574D01*
X71021330Y-121776291D01*
X70978582Y-121673086D01*
X70965862Y-121642377D01*
X70965861Y-121642376D01*
X70965861Y-121642375D01*
X70877621Y-121527379D01*
X70762625Y-121439139D01*
X70762624Y-121439138D01*
X70762622Y-121439137D01*
X70628712Y-121383671D01*
X70628710Y-121383670D01*
X70628709Y-121383670D01*
X70556854Y-121374210D01*
X70485001Y-121364750D01*
X70484999Y-121364750D01*
X70341291Y-121383670D01*
X70341287Y-121383671D01*
X70207377Y-121439137D01*
X70092379Y-121527379D01*
X70004137Y-121642377D01*
X69948671Y-121776287D01*
X69948670Y-121776291D01*
X69944833Y-121805439D01*
X69929750Y-121920000D01*
X69944348Y-122030884D01*
X69948670Y-122063708D01*
X69948671Y-122063712D01*
X70004137Y-122197622D01*
X70004138Y-122197624D01*
X70004139Y-122197625D01*
X70092379Y-122312621D01*
X70207375Y-122400861D01*
X70207376Y-122400861D01*
X70207377Y-122400862D01*
X70248424Y-122417864D01*
X70341291Y-122456330D01*
X70485000Y-122475250D01*
X70493129Y-122475250D01*
X70493129Y-122478828D01*
X70545970Y-122487031D01*
X70580878Y-122511560D01*
X71539788Y-123470470D01*
X71619712Y-123516614D01*
X71708856Y-123540500D01*
X71740500Y-123540500D01*
X71807539Y-123560185D01*
X71853294Y-123612989D01*
X71864500Y-123664500D01*
X71864500Y-124006517D01*
X71867916Y-124028082D01*
X71879354Y-124100304D01*
X71936950Y-124213342D01*
X71936952Y-124213344D01*
X71936954Y-124213347D01*
X72026652Y-124303045D01*
X72026654Y-124303046D01*
X72026658Y-124303050D01*
X72117851Y-124349515D01*
X72168647Y-124397490D01*
X72185442Y-124465311D01*
X72162904Y-124531446D01*
X72117852Y-124570484D01*
X72026658Y-124616950D01*
X72026657Y-124616951D01*
X72026652Y-124616954D01*
X71935426Y-124708181D01*
X71874103Y-124741666D01*
X71847745Y-124744500D01*
X65703695Y-124744500D01*
X65636656Y-124724815D01*
X65590901Y-124672011D01*
X65580957Y-124602853D01*
X65604741Y-124545773D01*
X65605702Y-124544501D01*
X65709673Y-124406821D01*
X65800582Y-124224250D01*
X65856397Y-124028083D01*
X65875215Y-123825000D01*
X65868467Y-123752181D01*
X65856397Y-123621917D01*
X65840269Y-123565233D01*
X65800582Y-123425750D01*
X65792223Y-123408963D01*
X65725269Y-123274500D01*
X65709673Y-123243179D01*
X65595002Y-123091330D01*
X65586762Y-123080418D01*
X65436041Y-122943019D01*
X65436039Y-122943017D01*
X65262642Y-122835655D01*
X65262635Y-122835651D01*
X65131418Y-122784818D01*
X65072456Y-122761976D01*
X64871976Y-122724500D01*
X64668024Y-122724500D01*
X64467544Y-122761976D01*
X64467541Y-122761976D01*
X64467541Y-122761977D01*
X64277364Y-122835651D01*
X64277357Y-122835655D01*
X64103960Y-122943017D01*
X64103958Y-122943019D01*
X63953237Y-123080418D01*
X63830327Y-123243178D01*
X63739422Y-123425739D01*
X63739417Y-123425752D01*
X63683602Y-123621917D01*
X63664785Y-123824999D01*
X63664785Y-123825000D01*
X63683602Y-124028082D01*
X63739417Y-124224247D01*
X63739422Y-124224260D01*
X63814731Y-124375500D01*
X63830327Y-124406821D01*
X63934297Y-124544500D01*
X63935259Y-124545773D01*
X63959951Y-124611134D01*
X63945386Y-124679469D01*
X63896189Y-124729082D01*
X63836305Y-124744500D01*
X63423607Y-124744500D01*
X63356568Y-124724815D01*
X63310813Y-124672011D01*
X63300869Y-124602853D01*
X63307425Y-124577167D01*
X63314069Y-124559354D01*
X63324091Y-124532483D01*
X63330500Y-124472873D01*
X63330499Y-123177128D01*
X63324091Y-123117517D01*
X63314068Y-123090645D01*
X63273797Y-122982671D01*
X63273793Y-122982664D01*
X63187547Y-122867455D01*
X63187544Y-122867452D01*
X63072335Y-122781206D01*
X63072328Y-122781202D01*
X62937482Y-122730908D01*
X62937483Y-122730908D01*
X62877883Y-122724501D01*
X62877881Y-122724500D01*
X62877873Y-122724500D01*
X62877864Y-122724500D01*
X61582129Y-122724500D01*
X61582123Y-122724501D01*
X61522516Y-122730908D01*
X61387671Y-122781202D01*
X61387664Y-122781206D01*
X61272455Y-122867452D01*
X61272452Y-122867455D01*
X61186206Y-122982664D01*
X61186202Y-122982671D01*
X61135908Y-123117517D01*
X61129501Y-123177116D01*
X61129501Y-123177123D01*
X61129500Y-123177135D01*
X61129500Y-124472870D01*
X61129501Y-124472876D01*
X61135908Y-124532483D01*
X61152575Y-124577167D01*
X61157559Y-124646858D01*
X61124074Y-124708181D01*
X61062751Y-124741666D01*
X61036393Y-124744500D01*
X58906092Y-124744500D01*
X58839053Y-124724815D01*
X58819587Y-124706913D01*
X58818372Y-124708129D01*
X58812627Y-124702384D01*
X58812621Y-124702379D01*
X58697625Y-124614139D01*
X58697624Y-124614138D01*
X58697622Y-124614137D01*
X58563712Y-124558671D01*
X58563710Y-124558670D01*
X58563709Y-124558670D01*
X58472638Y-124546680D01*
X58420001Y-124539750D01*
X58419999Y-124539750D01*
X58276291Y-124558670D01*
X58276287Y-124558671D01*
X58142377Y-124614137D01*
X58027379Y-124702379D01*
X57939137Y-124817377D01*
X57883671Y-124951287D01*
X57883670Y-124951291D01*
X57872299Y-125037664D01*
X57864750Y-125095000D01*
X57015500Y-125095000D01*
X57015500Y-103505000D01*
X57864750Y-103505000D01*
X57883670Y-103648708D01*
X57883671Y-103648712D01*
X57939137Y-103782622D01*
X57939138Y-103782624D01*
X57939139Y-103782625D01*
X58027379Y-103897621D01*
X58142375Y-103985861D01*
X58142376Y-103985861D01*
X58142377Y-103985862D01*
X58169622Y-103997147D01*
X58276291Y-104041330D01*
X58400358Y-104057664D01*
X58419999Y-104060250D01*
X58420000Y-104060250D01*
X58420001Y-104060250D01*
X58439642Y-104057664D01*
X58563709Y-104041330D01*
X58697625Y-103985861D01*
X58812621Y-103897621D01*
X58812623Y-103897617D01*
X58812627Y-103897615D01*
X58818372Y-103891871D01*
X58820888Y-103894387D01*
X58864183Y-103862797D01*
X58906092Y-103855500D01*
X61296305Y-103855500D01*
X61363344Y-103875185D01*
X61409099Y-103927989D01*
X61419043Y-103997147D01*
X61395259Y-104054225D01*
X61356807Y-104105144D01*
X61290327Y-104193178D01*
X61199422Y-104375739D01*
X61199417Y-104375752D01*
X61143602Y-104571917D01*
X61124785Y-104774999D01*
X61124785Y-104775000D01*
X61143602Y-104978082D01*
X61199417Y-105174247D01*
X61199422Y-105174260D01*
X61269944Y-105315886D01*
X61290327Y-105356821D01*
X61392662Y-105492335D01*
X61395259Y-105495773D01*
X61419951Y-105561134D01*
X61405386Y-105629469D01*
X61356189Y-105679082D01*
X61296305Y-105694500D01*
X60176092Y-105694500D01*
X60109053Y-105674815D01*
X60089587Y-105656913D01*
X60088372Y-105658129D01*
X60082627Y-105652384D01*
X60082621Y-105652379D01*
X59967625Y-105564139D01*
X59967624Y-105564138D01*
X59967622Y-105564137D01*
X59833712Y-105508671D01*
X59833710Y-105508670D01*
X59833709Y-105508670D01*
X59746451Y-105497182D01*
X59690001Y-105489750D01*
X59689999Y-105489750D01*
X59546291Y-105508670D01*
X59546287Y-105508671D01*
X59412377Y-105564137D01*
X59297379Y-105652379D01*
X59209137Y-105767377D01*
X59153671Y-105901287D01*
X59153670Y-105901291D01*
X59144741Y-105969116D01*
X59134750Y-106045000D01*
X59146552Y-106134647D01*
X59153670Y-106188708D01*
X59153671Y-106188712D01*
X59209137Y-106322622D01*
X59209138Y-106322624D01*
X59209139Y-106322625D01*
X59297379Y-106437621D01*
X59412375Y-106525861D01*
X59412376Y-106525861D01*
X59412377Y-106525862D01*
X59439622Y-106537147D01*
X59546291Y-106581330D01*
X59673280Y-106598048D01*
X59689999Y-106600250D01*
X59690000Y-106600250D01*
X59690001Y-106600250D01*
X59704977Y-106598278D01*
X59833709Y-106581330D01*
X59967625Y-106525861D01*
X60082621Y-106437621D01*
X60082623Y-106437617D01*
X60082627Y-106437615D01*
X60088372Y-106431871D01*
X60090888Y-106434387D01*
X60134183Y-106402797D01*
X60176092Y-106395500D01*
X61296305Y-106395500D01*
X61363344Y-106415185D01*
X61409099Y-106467989D01*
X61419043Y-106537147D01*
X61395259Y-106594225D01*
X61373784Y-106622664D01*
X61290327Y-106733178D01*
X61209365Y-106895772D01*
X61161862Y-106947009D01*
X61098365Y-106964500D01*
X59541092Y-106964500D01*
X59474053Y-106944815D01*
X59454587Y-106926913D01*
X59453372Y-106928129D01*
X59447627Y-106922384D01*
X59447621Y-106922379D01*
X59332625Y-106834139D01*
X59332624Y-106834138D01*
X59332622Y-106834137D01*
X59198712Y-106778671D01*
X59198710Y-106778670D01*
X59198709Y-106778670D01*
X59091087Y-106764501D01*
X59055001Y-106759750D01*
X59054999Y-106759750D01*
X58911291Y-106778670D01*
X58911287Y-106778671D01*
X58777377Y-106834137D01*
X58662379Y-106922379D01*
X58574137Y-107037377D01*
X58518671Y-107171287D01*
X58518670Y-107171291D01*
X58499750Y-107314999D01*
X58499750Y-107315000D01*
X58518670Y-107458708D01*
X58518671Y-107458712D01*
X58574137Y-107592622D01*
X58574138Y-107592624D01*
X58574139Y-107592625D01*
X58662379Y-107707621D01*
X58777375Y-107795861D01*
X58911291Y-107851330D01*
X59038280Y-107868048D01*
X59054999Y-107870250D01*
X59055000Y-107870250D01*
X59055001Y-107870250D01*
X59069977Y-107868278D01*
X59198709Y-107851330D01*
X59332625Y-107795861D01*
X59447621Y-107707621D01*
X59447623Y-107707617D01*
X59447627Y-107707615D01*
X59453372Y-107701871D01*
X59455888Y-107704387D01*
X59499183Y-107672797D01*
X59541092Y-107665500D01*
X61098365Y-107665500D01*
X61165404Y-107685185D01*
X61209365Y-107734228D01*
X61290327Y-107896821D01*
X61413237Y-108059581D01*
X61563958Y-108196980D01*
X61563960Y-108196982D01*
X61635280Y-108241141D01*
X61737363Y-108304348D01*
X61927544Y-108378024D01*
X62128024Y-108415500D01*
X62128026Y-108415500D01*
X62331974Y-108415500D01*
X62331976Y-108415500D01*
X62532456Y-108378024D01*
X62722637Y-108304348D01*
X62896041Y-108196981D01*
X63045770Y-108060485D01*
X63046762Y-108059581D01*
X63046764Y-108059579D01*
X63169673Y-107896821D01*
X63260582Y-107714250D01*
X63316397Y-107518083D01*
X63335215Y-107315000D01*
X63331278Y-107272517D01*
X63316397Y-107111917D01*
X63300328Y-107055441D01*
X63260582Y-106915750D01*
X63250634Y-106895772D01*
X63192325Y-106778671D01*
X63169673Y-106733179D01*
X63064740Y-106594225D01*
X63040049Y-106528866D01*
X63054614Y-106460531D01*
X63103811Y-106410918D01*
X63163695Y-106395500D01*
X63303456Y-106395500D01*
X63370495Y-106415185D01*
X63391137Y-106431819D01*
X63721422Y-106762104D01*
X63754907Y-106823427D01*
X63749923Y-106893119D01*
X63744745Y-106905049D01*
X63739419Y-106915745D01*
X63739419Y-106915746D01*
X63683602Y-107111917D01*
X63664785Y-107314999D01*
X63664785Y-107315000D01*
X63683602Y-107518082D01*
X63739417Y-107714247D01*
X63739422Y-107714260D01*
X63830327Y-107896821D01*
X63953237Y-108059581D01*
X64103958Y-108196980D01*
X64103960Y-108196982D01*
X64175280Y-108241141D01*
X64277363Y-108304348D01*
X64467544Y-108378024D01*
X64668024Y-108415500D01*
X64668026Y-108415500D01*
X64871974Y-108415500D01*
X64871976Y-108415500D01*
X65072456Y-108378024D01*
X65262637Y-108304348D01*
X65436041Y-108196981D01*
X65585770Y-108060485D01*
X65586762Y-108059581D01*
X65586764Y-108059579D01*
X65709673Y-107896821D01*
X65800582Y-107714250D01*
X65856397Y-107518083D01*
X65875215Y-107315000D01*
X65871278Y-107272517D01*
X65856397Y-107111917D01*
X65840328Y-107055441D01*
X65800582Y-106915750D01*
X65790634Y-106895772D01*
X65732325Y-106778671D01*
X65709673Y-106733179D01*
X65609290Y-106600250D01*
X65586762Y-106570418D01*
X65436041Y-106433019D01*
X65436039Y-106433017D01*
X65262642Y-106325655D01*
X65262635Y-106325651D01*
X65118734Y-106269904D01*
X65072456Y-106251976D01*
X64871976Y-106214500D01*
X64668024Y-106214500D01*
X64467544Y-106251976D01*
X64467541Y-106251976D01*
X64467541Y-106251977D01*
X64351963Y-106296752D01*
X64282339Y-106302614D01*
X64220599Y-106269904D01*
X64219488Y-106268806D01*
X63715213Y-105764531D01*
X63715208Y-105764527D01*
X63635291Y-105718387D01*
X63635287Y-105718385D01*
X63629926Y-105716949D01*
X63629926Y-105716948D01*
X63561476Y-105698608D01*
X63546144Y-105694500D01*
X63546143Y-105694500D01*
X63163695Y-105694500D01*
X63096656Y-105674815D01*
X63050901Y-105622011D01*
X63040957Y-105552853D01*
X63064741Y-105495773D01*
X63169673Y-105356821D01*
X63260582Y-105174250D01*
X63316397Y-104978083D01*
X63335215Y-104775000D01*
X63316397Y-104571917D01*
X63260582Y-104375750D01*
X63249313Y-104353119D01*
X63184076Y-104222104D01*
X63169673Y-104193179D01*
X63064740Y-104054225D01*
X63040049Y-103988866D01*
X63054614Y-103920531D01*
X63103811Y-103870918D01*
X63163695Y-103855500D01*
X63303456Y-103855500D01*
X63370495Y-103875185D01*
X63391137Y-103891819D01*
X63721422Y-104222104D01*
X63754907Y-104283427D01*
X63749923Y-104353119D01*
X63744745Y-104365049D01*
X63739419Y-104375745D01*
X63739419Y-104375746D01*
X63683602Y-104571917D01*
X63664785Y-104774999D01*
X63664785Y-104775000D01*
X63683602Y-104978082D01*
X63739417Y-105174247D01*
X63739422Y-105174260D01*
X63830327Y-105356821D01*
X63953237Y-105519581D01*
X64073780Y-105629469D01*
X64103884Y-105656913D01*
X64103958Y-105656980D01*
X64103960Y-105656982D01*
X64164554Y-105694500D01*
X64277363Y-105764348D01*
X64467544Y-105838024D01*
X64668024Y-105875500D01*
X64668026Y-105875500D01*
X64871974Y-105875500D01*
X64871976Y-105875500D01*
X65072456Y-105838024D01*
X65262637Y-105764348D01*
X65436041Y-105656981D01*
X65586764Y-105519579D01*
X65709673Y-105356821D01*
X65800582Y-105174250D01*
X65856397Y-104978083D01*
X65875215Y-104775000D01*
X65856397Y-104571917D01*
X65800582Y-104375750D01*
X65789313Y-104353119D01*
X65724076Y-104222104D01*
X65709673Y-104193179D01*
X65607337Y-104057664D01*
X65586762Y-104030418D01*
X65436041Y-103893019D01*
X65436039Y-103893017D01*
X65262642Y-103785655D01*
X65262635Y-103785651D01*
X65118734Y-103729904D01*
X65072456Y-103711976D01*
X64871976Y-103674500D01*
X64668024Y-103674500D01*
X64467544Y-103711976D01*
X64467541Y-103711976D01*
X64467541Y-103711977D01*
X64351963Y-103756752D01*
X64282339Y-103762614D01*
X64220599Y-103729904D01*
X64219488Y-103728806D01*
X63995682Y-103505000D01*
X80089750Y-103505000D01*
X80108670Y-103648708D01*
X80108671Y-103648712D01*
X80164137Y-103782622D01*
X80164138Y-103782624D01*
X80164139Y-103782625D01*
X80252379Y-103897621D01*
X80367375Y-103985861D01*
X80367376Y-103985861D01*
X80367377Y-103985862D01*
X80394622Y-103997147D01*
X80501291Y-104041330D01*
X80625358Y-104057664D01*
X80644999Y-104060250D01*
X80645000Y-104060250D01*
X80645001Y-104060250D01*
X80664642Y-104057664D01*
X80788709Y-104041330D01*
X80922625Y-103985861D01*
X81037621Y-103897621D01*
X81037623Y-103897617D01*
X81037627Y-103897615D01*
X81043372Y-103891871D01*
X81045888Y-103894387D01*
X81089183Y-103862797D01*
X81131092Y-103855500D01*
X82063908Y-103855500D01*
X82130947Y-103875185D01*
X82150412Y-103893086D01*
X82151628Y-103891871D01*
X82157372Y-103897615D01*
X82157377Y-103897619D01*
X82157379Y-103897621D01*
X82272375Y-103985861D01*
X82272376Y-103985861D01*
X82272377Y-103985862D01*
X82299622Y-103997147D01*
X82406291Y-104041330D01*
X82530358Y-104057664D01*
X82549999Y-104060250D01*
X82550000Y-104060250D01*
X82550001Y-104060250D01*
X82569642Y-104057664D01*
X82693709Y-104041330D01*
X82827625Y-103985861D01*
X82942621Y-103897621D01*
X82942623Y-103897617D01*
X82942627Y-103897615D01*
X82948372Y-103891871D01*
X82950888Y-103894387D01*
X82994183Y-103862797D01*
X83036092Y-103855500D01*
X87789825Y-103855500D01*
X87856864Y-103875185D01*
X87902619Y-103927989D01*
X87912563Y-103997147D01*
X87889092Y-104053810D01*
X87886206Y-104057664D01*
X87886202Y-104057671D01*
X87835908Y-104192517D01*
X87829501Y-104252116D01*
X87829501Y-104252123D01*
X87829500Y-104252135D01*
X87829500Y-105297870D01*
X87829501Y-105297876D01*
X87835908Y-105357483D01*
X87886202Y-105492328D01*
X87886206Y-105492335D01*
X87972452Y-105607544D01*
X87972455Y-105607547D01*
X88087664Y-105693793D01*
X88087671Y-105693797D01*
X88229785Y-105746802D01*
X88229242Y-105748255D01*
X88282228Y-105778424D01*
X88314616Y-105840334D01*
X88317000Y-105864531D01*
X88317000Y-105923644D01*
X88329184Y-105969115D01*
X88329184Y-105969116D01*
X88340884Y-106012785D01*
X88340885Y-106012786D01*
X88387027Y-106092708D01*
X88387031Y-106092713D01*
X88998781Y-106704463D01*
X89032266Y-106765786D01*
X89027282Y-106835478D01*
X88998782Y-106879824D01*
X88951954Y-106926652D01*
X88951951Y-106926657D01*
X88951950Y-106926658D01*
X88942699Y-106944815D01*
X88894352Y-107039698D01*
X88879500Y-107133475D01*
X88879500Y-107133480D01*
X88879500Y-107133481D01*
X88879500Y-107314999D01*
X88879501Y-107475500D01*
X88859817Y-107542539D01*
X88807013Y-107588294D01*
X88755501Y-107599500D01*
X87583856Y-107599500D01*
X87494712Y-107623386D01*
X87494709Y-107623387D01*
X87414791Y-107669527D01*
X87414786Y-107669531D01*
X86714531Y-108369786D01*
X86714527Y-108369791D01*
X86668387Y-108449709D01*
X86668386Y-108449712D01*
X86644500Y-108538856D01*
X86644500Y-110293456D01*
X86624815Y-110360495D01*
X86608181Y-110381137D01*
X86364208Y-110625109D01*
X86302885Y-110658594D01*
X86233193Y-110653610D01*
X86220232Y-110647913D01*
X86127148Y-110600484D01*
X86076352Y-110552509D01*
X86059557Y-110484688D01*
X86082095Y-110418553D01*
X86127145Y-110379517D01*
X86218342Y-110333050D01*
X86308050Y-110243342D01*
X86365646Y-110130304D01*
X86365646Y-110130302D01*
X86365647Y-110130301D01*
X86380499Y-110036524D01*
X86380500Y-110036519D01*
X86380499Y-109673482D01*
X86365646Y-109579696D01*
X86308050Y-109466658D01*
X86308046Y-109466654D01*
X86308045Y-109466652D01*
X86218347Y-109376954D01*
X86218343Y-109376951D01*
X86218342Y-109376950D01*
X86192361Y-109363712D01*
X86127147Y-109330483D01*
X86076352Y-109282509D01*
X86059557Y-109214687D01*
X86082095Y-109148553D01*
X86127145Y-109109517D01*
X86218342Y-109063050D01*
X86308050Y-108973342D01*
X86365646Y-108860304D01*
X86365646Y-108860302D01*
X86365647Y-108860301D01*
X86380499Y-108766524D01*
X86380500Y-108766519D01*
X86380499Y-108403482D01*
X86365646Y-108309696D01*
X86308050Y-108196658D01*
X86308046Y-108196654D01*
X86308045Y-108196652D01*
X86218347Y-108106954D01*
X86218343Y-108106951D01*
X86218342Y-108106950D01*
X86215599Y-108105552D01*
X86127147Y-108060483D01*
X86076352Y-108012509D01*
X86059557Y-107944687D01*
X86082095Y-107878553D01*
X86127145Y-107839517D01*
X86218342Y-107793050D01*
X86308050Y-107703342D01*
X86365646Y-107590304D01*
X86365646Y-107590302D01*
X86365647Y-107590301D01*
X86380499Y-107496524D01*
X86380500Y-107496519D01*
X86380499Y-107133482D01*
X86365646Y-107039696D01*
X86308050Y-106926658D01*
X86308046Y-106926654D01*
X86308045Y-106926652D01*
X86218347Y-106836954D01*
X86218344Y-106836952D01*
X86218342Y-106836950D01*
X86141517Y-106797805D01*
X86105301Y-106779352D01*
X86011524Y-106764500D01*
X84298482Y-106764500D01*
X84217519Y-106777323D01*
X84204696Y-106779354D01*
X84091658Y-106836950D01*
X84091657Y-106836951D01*
X84091652Y-106836954D01*
X84000426Y-106928181D01*
X83939103Y-106961666D01*
X83912745Y-106964500D01*
X83671092Y-106964500D01*
X83604053Y-106944815D01*
X83584587Y-106926913D01*
X83583372Y-106928129D01*
X83577627Y-106922384D01*
X83577621Y-106922379D01*
X83462625Y-106834139D01*
X83462624Y-106834138D01*
X83462622Y-106834137D01*
X83328712Y-106778671D01*
X83328710Y-106778670D01*
X83328709Y-106778670D01*
X83221087Y-106764501D01*
X83185001Y-106759750D01*
X83184999Y-106759750D01*
X83041291Y-106778670D01*
X83041287Y-106778671D01*
X82907377Y-106834137D01*
X82792379Y-106922379D01*
X82704137Y-107037377D01*
X82648671Y-107171287D01*
X82648670Y-107171291D01*
X82629750Y-107314999D01*
X82629750Y-107315000D01*
X82648670Y-107458708D01*
X82648671Y-107458712D01*
X82704137Y-107592622D01*
X82704138Y-107592624D01*
X82704139Y-107592625D01*
X82792379Y-107707621D01*
X82907375Y-107795861D01*
X83041291Y-107851330D01*
X83168280Y-107868048D01*
X83184999Y-107870250D01*
X83185000Y-107870250D01*
X83185001Y-107870250D01*
X83199977Y-107868278D01*
X83328709Y-107851330D01*
X83462625Y-107795861D01*
X83577621Y-107707621D01*
X83577623Y-107707617D01*
X83577627Y-107707615D01*
X83583372Y-107701871D01*
X83585888Y-107704387D01*
X83629183Y-107672797D01*
X83671092Y-107665500D01*
X83912745Y-107665500D01*
X83979784Y-107685185D01*
X84000426Y-107701819D01*
X84091652Y-107793045D01*
X84091654Y-107793046D01*
X84091658Y-107793050D01*
X84182851Y-107839515D01*
X84233647Y-107887490D01*
X84250442Y-107955311D01*
X84227904Y-108021446D01*
X84182852Y-108060484D01*
X84091658Y-108106950D01*
X84091657Y-108106951D01*
X84091652Y-108106954D01*
X84001954Y-108196652D01*
X84001951Y-108196657D01*
X84001950Y-108196658D01*
X83987933Y-108224168D01*
X83944352Y-108309698D01*
X83929500Y-108403475D01*
X83929500Y-108766517D01*
X83939140Y-108827379D01*
X83944354Y-108860304D01*
X84001950Y-108973342D01*
X84001952Y-108973344D01*
X84001954Y-108973347D01*
X84091652Y-109063045D01*
X84091654Y-109063046D01*
X84091658Y-109063050D01*
X84182851Y-109109515D01*
X84233647Y-109157490D01*
X84250442Y-109225311D01*
X84227904Y-109291446D01*
X84182852Y-109330484D01*
X84091658Y-109376950D01*
X84091657Y-109376951D01*
X84091652Y-109376954D01*
X84000426Y-109468181D01*
X83939103Y-109501666D01*
X83912745Y-109504500D01*
X83866144Y-109504500D01*
X83773856Y-109504500D01*
X83684712Y-109528386D01*
X83684711Y-109528386D01*
X83684709Y-109528387D01*
X83684706Y-109528388D01*
X83604794Y-109574526D01*
X83604785Y-109574533D01*
X83539533Y-109639785D01*
X83539526Y-109639794D01*
X83493388Y-109719706D01*
X83493387Y-109719709D01*
X83493386Y-109719711D01*
X83493386Y-109719712D01*
X83469500Y-109808856D01*
X83469500Y-112348856D01*
X83469500Y-112441144D01*
X83483021Y-112491606D01*
X83493387Y-112530290D01*
X83493388Y-112530293D01*
X83539526Y-112610205D01*
X83539529Y-112610209D01*
X83539531Y-112610212D01*
X83604788Y-112675469D01*
X83604791Y-112675470D01*
X83604794Y-112675473D01*
X83684706Y-112721611D01*
X83684707Y-112721611D01*
X83684712Y-112721614D01*
X83773856Y-112745500D01*
X83912745Y-112745500D01*
X83979784Y-112765185D01*
X84000426Y-112781819D01*
X84091652Y-112873045D01*
X84091654Y-112873046D01*
X84091658Y-112873050D01*
X84182851Y-112919515D01*
X84233647Y-112967490D01*
X84250442Y-113035311D01*
X84227904Y-113101446D01*
X84182852Y-113140484D01*
X84091658Y-113186950D01*
X84091657Y-113186951D01*
X84091652Y-113186954D01*
X84001954Y-113276652D01*
X84001951Y-113276657D01*
X84001950Y-113276658D01*
X83982751Y-113314337D01*
X83944352Y-113389698D01*
X83929500Y-113483475D01*
X83929500Y-113846517D01*
X83937150Y-113894818D01*
X83944354Y-113940304D01*
X84001950Y-114053342D01*
X84001952Y-114053344D01*
X84001954Y-114053347D01*
X84091652Y-114143045D01*
X84091654Y-114143046D01*
X84091658Y-114143050D01*
X84204694Y-114200645D01*
X84204698Y-114200647D01*
X84298475Y-114215499D01*
X84298481Y-114215500D01*
X86011518Y-114215499D01*
X86105304Y-114200646D01*
X86218342Y-114143050D01*
X86243577Y-114117815D01*
X86309574Y-114051819D01*
X86370897Y-114018334D01*
X86397255Y-114015500D01*
X86798456Y-114015500D01*
X86865495Y-114035185D01*
X86886137Y-114051819D01*
X88684788Y-115850470D01*
X88764712Y-115896614D01*
X88853856Y-115920500D01*
X88853858Y-115920500D01*
X91756142Y-115920500D01*
X91756144Y-115920500D01*
X91845288Y-115896614D01*
X91845296Y-115896609D01*
X91852798Y-115893503D01*
X91853638Y-115895533D01*
X91910356Y-115881768D01*
X91917700Y-115882336D01*
X91947127Y-115885500D01*
X92742872Y-115885499D01*
X92802483Y-115879091D01*
X92937331Y-115828796D01*
X93052546Y-115742546D01*
X93138796Y-115627331D01*
X93189091Y-115492483D01*
X93195500Y-115432873D01*
X93195500Y-115432870D01*
X93494500Y-115432870D01*
X93494501Y-115432876D01*
X93500908Y-115492483D01*
X93551202Y-115627328D01*
X93551206Y-115627335D01*
X93637452Y-115742544D01*
X93637455Y-115742547D01*
X93752664Y-115828793D01*
X93752671Y-115828797D01*
X93887517Y-115879091D01*
X93887516Y-115879091D01*
X93894444Y-115879835D01*
X93947127Y-115885500D01*
X94742872Y-115885499D01*
X94802483Y-115879091D01*
X94937331Y-115828796D01*
X95052546Y-115742546D01*
X95138796Y-115627331D01*
X95189091Y-115492483D01*
X95195500Y-115432873D01*
X95195499Y-114437128D01*
X95189091Y-114377517D01*
X95184841Y-114366123D01*
X95138797Y-114242671D01*
X95138793Y-114242664D01*
X95064221Y-114143050D01*
X95052546Y-114127454D01*
X94991513Y-114081765D01*
X94949644Y-114025833D01*
X94944660Y-113956141D01*
X94978145Y-113894818D01*
X94991507Y-113883239D01*
X95052546Y-113837546D01*
X95138796Y-113722331D01*
X95189091Y-113587483D01*
X95195500Y-113527873D01*
X95195500Y-113383771D01*
X98442500Y-113383771D01*
X98475182Y-113548074D01*
X98475184Y-113548082D01*
X98539295Y-113702860D01*
X98632373Y-113842162D01*
X98750837Y-113960626D01*
X98823025Y-114008860D01*
X98890137Y-114053703D01*
X98890138Y-114053703D01*
X98890139Y-114053704D01*
X98925201Y-114068227D01*
X99044918Y-114117816D01*
X99171754Y-114143045D01*
X99209228Y-114150499D01*
X99209232Y-114150500D01*
X99209233Y-114150500D01*
X99926768Y-114150500D01*
X99926769Y-114150499D01*
X100091082Y-114117816D01*
X100245863Y-114053703D01*
X100385162Y-113960626D01*
X100503626Y-113842162D01*
X100596703Y-113702863D01*
X100660816Y-113548082D01*
X100693500Y-113383767D01*
X100693500Y-113216233D01*
X100660816Y-113051918D01*
X100606634Y-112921112D01*
X100596704Y-112897139D01*
X100588471Y-112884818D01*
X100527956Y-112794250D01*
X100503626Y-112757837D01*
X100385162Y-112639373D01*
X100245860Y-112546295D01*
X100091082Y-112482184D01*
X100091074Y-112482182D01*
X99926771Y-112449500D01*
X99926767Y-112449500D01*
X99209233Y-112449500D01*
X99209228Y-112449500D01*
X99044925Y-112482182D01*
X99044917Y-112482184D01*
X98890139Y-112546295D01*
X98750837Y-112639373D01*
X98632373Y-112757837D01*
X98539295Y-112897139D01*
X98475184Y-113051917D01*
X98475182Y-113051925D01*
X98442500Y-113216228D01*
X98442500Y-113383771D01*
X95195500Y-113383771D01*
X95195499Y-112532128D01*
X95189091Y-112472517D01*
X95184484Y-112460166D01*
X95138797Y-112337671D01*
X95138793Y-112337664D01*
X95052547Y-112222456D01*
X95052548Y-112222456D01*
X95052546Y-112222454D01*
X94991513Y-112176765D01*
X94949644Y-112120833D01*
X94944660Y-112051141D01*
X94978145Y-111989818D01*
X94991507Y-111978239D01*
X95052546Y-111932546D01*
X95138796Y-111817331D01*
X95189091Y-111682483D01*
X95195500Y-111622873D01*
X95195499Y-110627128D01*
X95190299Y-110578757D01*
X95189091Y-110567516D01*
X95138797Y-110432671D01*
X95138793Y-110432664D01*
X95087123Y-110363643D01*
X95052546Y-110317454D01*
X94991513Y-110271765D01*
X94949644Y-110215833D01*
X94944660Y-110146141D01*
X94978145Y-110084818D01*
X94991507Y-110073239D01*
X95052546Y-110027546D01*
X95138796Y-109912331D01*
X95189091Y-109777483D01*
X95195500Y-109717873D01*
X95195499Y-108722128D01*
X95189091Y-108662517D01*
X95149176Y-108555500D01*
X95138797Y-108527671D01*
X95138793Y-108527664D01*
X95054826Y-108415500D01*
X95052546Y-108412454D01*
X94991513Y-108366765D01*
X94949644Y-108310833D01*
X94944660Y-108241141D01*
X94978145Y-108179818D01*
X94991507Y-108168239D01*
X95052546Y-108122546D01*
X95056182Y-108117687D01*
X95112114Y-108075819D01*
X95155448Y-108068000D01*
X95176469Y-108068000D01*
X95243508Y-108087685D01*
X95289263Y-108140489D01*
X95295591Y-108158951D01*
X95347202Y-108297328D01*
X95347206Y-108297335D01*
X95433452Y-108412544D01*
X95433455Y-108412547D01*
X95548664Y-108498793D01*
X95548671Y-108498797D01*
X95683517Y-108549091D01*
X95683516Y-108549091D01*
X95690444Y-108549835D01*
X95743127Y-108555500D01*
X96788872Y-108555499D01*
X96848483Y-108549091D01*
X96983331Y-108498796D01*
X97098546Y-108412546D01*
X97184796Y-108297331D01*
X97235091Y-108162483D01*
X97241500Y-108102873D01*
X97241499Y-107332128D01*
X97235091Y-107272517D01*
X97195176Y-107165500D01*
X97184797Y-107137671D01*
X97184793Y-107137664D01*
X97098547Y-107022455D01*
X97098544Y-107022452D01*
X96983335Y-106936206D01*
X96983328Y-106936202D01*
X96848482Y-106885908D01*
X96848483Y-106885908D01*
X96788883Y-106879501D01*
X96788881Y-106879500D01*
X96788873Y-106879500D01*
X96788864Y-106879500D01*
X95743129Y-106879500D01*
X95743123Y-106879501D01*
X95683516Y-106885908D01*
X95548671Y-106936202D01*
X95548664Y-106936206D01*
X95433456Y-107022452D01*
X95433455Y-107022453D01*
X95433454Y-107022454D01*
X95423143Y-107036227D01*
X95418764Y-107042077D01*
X95362829Y-107083946D01*
X95293137Y-107088928D01*
X95231815Y-107055441D01*
X95198332Y-106994117D01*
X95195499Y-106967763D01*
X95195499Y-106817129D01*
X95195498Y-106817123D01*
X95195497Y-106817116D01*
X95189091Y-106757517D01*
X95184353Y-106744815D01*
X95138797Y-106622671D01*
X95138793Y-106622664D01*
X95052547Y-106507455D01*
X95052544Y-106507452D01*
X94937335Y-106421206D01*
X94937328Y-106421202D01*
X94802482Y-106370908D01*
X94802483Y-106370908D01*
X94742883Y-106364501D01*
X94742881Y-106364500D01*
X94742873Y-106364500D01*
X94742864Y-106364500D01*
X93947129Y-106364500D01*
X93947123Y-106364501D01*
X93887516Y-106370908D01*
X93752671Y-106421202D01*
X93752664Y-106421206D01*
X93637455Y-106507452D01*
X93637452Y-106507455D01*
X93551206Y-106622664D01*
X93551202Y-106622671D01*
X93500908Y-106757517D01*
X93495621Y-106806702D01*
X93494501Y-106817123D01*
X93494500Y-106817135D01*
X93494500Y-107812870D01*
X93494501Y-107812876D01*
X93500908Y-107872483D01*
X93551202Y-108007328D01*
X93551206Y-108007335D01*
X93637452Y-108122544D01*
X93637453Y-108122544D01*
X93637454Y-108122546D01*
X93661423Y-108140489D01*
X93698485Y-108168234D01*
X93740355Y-108224168D01*
X93745339Y-108293860D01*
X93711853Y-108355182D01*
X93698485Y-108366766D01*
X93637452Y-108412455D01*
X93551206Y-108527664D01*
X93551202Y-108527671D01*
X93500908Y-108662517D01*
X93495319Y-108714505D01*
X93494501Y-108722123D01*
X93494500Y-108722135D01*
X93494500Y-109717870D01*
X93494501Y-109717876D01*
X93500908Y-109777483D01*
X93551202Y-109912328D01*
X93551206Y-109912335D01*
X93637452Y-110027544D01*
X93637453Y-110027544D01*
X93637454Y-110027546D01*
X93678245Y-110058082D01*
X93698485Y-110073234D01*
X93740355Y-110129168D01*
X93745339Y-110198860D01*
X93711853Y-110260182D01*
X93698485Y-110271766D01*
X93637452Y-110317455D01*
X93551206Y-110432664D01*
X93551202Y-110432671D01*
X93500908Y-110567517D01*
X93494717Y-110625109D01*
X93494501Y-110627123D01*
X93494500Y-110627135D01*
X93494500Y-111622870D01*
X93494501Y-111622876D01*
X93500908Y-111682483D01*
X93551202Y-111817328D01*
X93551206Y-111817335D01*
X93637452Y-111932544D01*
X93637453Y-111932544D01*
X93637454Y-111932546D01*
X93669511Y-111956544D01*
X93698485Y-111978234D01*
X93740355Y-112034168D01*
X93745339Y-112103860D01*
X93711853Y-112165182D01*
X93698485Y-112176766D01*
X93637452Y-112222455D01*
X93551206Y-112337664D01*
X93551202Y-112337671D01*
X93500908Y-112472517D01*
X93494697Y-112530293D01*
X93494501Y-112532123D01*
X93494500Y-112532135D01*
X93494500Y-113527870D01*
X93494501Y-113527876D01*
X93500908Y-113587483D01*
X93551202Y-113722328D01*
X93551206Y-113722335D01*
X93637452Y-113837544D01*
X93637453Y-113837544D01*
X93637454Y-113837546D01*
X93683309Y-113871873D01*
X93698485Y-113883234D01*
X93740355Y-113939168D01*
X93745339Y-114008860D01*
X93711853Y-114070182D01*
X93698485Y-114081766D01*
X93637452Y-114127455D01*
X93551206Y-114242664D01*
X93551202Y-114242671D01*
X93500908Y-114377517D01*
X93497364Y-114410485D01*
X93494501Y-114437123D01*
X93494500Y-114437135D01*
X93494500Y-115432870D01*
X93195500Y-115432870D01*
X93195499Y-114437128D01*
X93189091Y-114377517D01*
X93184841Y-114366123D01*
X93138797Y-114242671D01*
X93138793Y-114242664D01*
X93064221Y-114143050D01*
X93052546Y-114127454D01*
X92991513Y-114081765D01*
X92949644Y-114025833D01*
X92944660Y-113956141D01*
X92978145Y-113894818D01*
X92991507Y-113883239D01*
X93052546Y-113837546D01*
X93138796Y-113722331D01*
X93189091Y-113587483D01*
X93195500Y-113527873D01*
X93195499Y-112532128D01*
X93189091Y-112472517D01*
X93184484Y-112460166D01*
X93138797Y-112337671D01*
X93138793Y-112337664D01*
X93052547Y-112222456D01*
X93052548Y-112222456D01*
X93052546Y-112222454D01*
X92991513Y-112176765D01*
X92949644Y-112120833D01*
X92944660Y-112051141D01*
X92978145Y-111989818D01*
X92991507Y-111978239D01*
X93052546Y-111932546D01*
X93138796Y-111817331D01*
X93189091Y-111682483D01*
X93195500Y-111622873D01*
X93195499Y-110627128D01*
X93190299Y-110578757D01*
X93189091Y-110567516D01*
X93138797Y-110432671D01*
X93138793Y-110432664D01*
X93087123Y-110363643D01*
X93052546Y-110317454D01*
X92991513Y-110271765D01*
X92949644Y-110215833D01*
X92944660Y-110146141D01*
X92978145Y-110084818D01*
X92991507Y-110073239D01*
X93052546Y-110027546D01*
X93138796Y-109912331D01*
X93189091Y-109777483D01*
X93195500Y-109717873D01*
X93195499Y-108722128D01*
X93189091Y-108662517D01*
X93149176Y-108555500D01*
X93138797Y-108527671D01*
X93138793Y-108527664D01*
X93054826Y-108415500D01*
X93052546Y-108412454D01*
X92991513Y-108366765D01*
X92949644Y-108310833D01*
X92944660Y-108241141D01*
X92978145Y-108179818D01*
X92991507Y-108168239D01*
X93052546Y-108122546D01*
X93138796Y-108007331D01*
X93189091Y-107872483D01*
X93195500Y-107812873D01*
X93195499Y-106817128D01*
X93189091Y-106757517D01*
X93184353Y-106744815D01*
X93138797Y-106622671D01*
X93138793Y-106622664D01*
X93052547Y-106507455D01*
X93052544Y-106507452D01*
X92937335Y-106421206D01*
X92937328Y-106421202D01*
X92802482Y-106370908D01*
X92802483Y-106370908D01*
X92742883Y-106364501D01*
X92742881Y-106364500D01*
X92742873Y-106364500D01*
X92742864Y-106364500D01*
X91947129Y-106364500D01*
X91947123Y-106364501D01*
X91887516Y-106370908D01*
X91752671Y-106421202D01*
X91752664Y-106421206D01*
X91637455Y-106507452D01*
X91637452Y-106507455D01*
X91551206Y-106622664D01*
X91551202Y-106622671D01*
X91500908Y-106757517D01*
X91495621Y-106806702D01*
X91494501Y-106817123D01*
X91494500Y-106817135D01*
X91494500Y-106874220D01*
X91474815Y-106941259D01*
X91422011Y-106987014D01*
X91352853Y-106996958D01*
X91289297Y-106967933D01*
X91260017Y-106930518D01*
X91258051Y-106926660D01*
X91258050Y-106926658D01*
X91258048Y-106926656D01*
X91258045Y-106926652D01*
X91168347Y-106836954D01*
X91168344Y-106836952D01*
X91168342Y-106836950D01*
X91091517Y-106797805D01*
X91055301Y-106779352D01*
X90961524Y-106764500D01*
X90961519Y-106764500D01*
X90101544Y-106764500D01*
X90034505Y-106744815D01*
X90013863Y-106728181D01*
X89313552Y-106027870D01*
X95290500Y-106027870D01*
X95290501Y-106027876D01*
X95296908Y-106087483D01*
X95347202Y-106222328D01*
X95347206Y-106222335D01*
X95433452Y-106337544D01*
X95433455Y-106337547D01*
X95548664Y-106423793D01*
X95548671Y-106423797D01*
X95683517Y-106474091D01*
X95683516Y-106474091D01*
X95690444Y-106474835D01*
X95743127Y-106480500D01*
X96788872Y-106480499D01*
X96848483Y-106474091D01*
X96983331Y-106423796D01*
X97098546Y-106337546D01*
X97184796Y-106222331D01*
X97217500Y-106134647D01*
X97237802Y-106080215D01*
X97239255Y-106080757D01*
X97269424Y-106027772D01*
X97331334Y-105995384D01*
X97355531Y-105993000D01*
X98338793Y-105993000D01*
X98405832Y-106012685D01*
X98451587Y-106065489D01*
X98461531Y-106134647D01*
X98460410Y-106141191D01*
X98442500Y-106231229D01*
X98442500Y-106398771D01*
X98475182Y-106563074D01*
X98475184Y-106563082D01*
X98539295Y-106717860D01*
X98632373Y-106857162D01*
X98750837Y-106975626D01*
X98782763Y-106996958D01*
X98890137Y-107068703D01*
X99044918Y-107132816D01*
X99209228Y-107165499D01*
X99209232Y-107165500D01*
X99209233Y-107165500D01*
X99926768Y-107165500D01*
X99926769Y-107165499D01*
X100091082Y-107132816D01*
X100245863Y-107068703D01*
X100385162Y-106975626D01*
X100503626Y-106857162D01*
X100596703Y-106717863D01*
X100660816Y-106563082D01*
X100693500Y-106398767D01*
X100693500Y-106231233D01*
X100660816Y-106066918D01*
X100611227Y-105947201D01*
X100596704Y-105912139D01*
X100503626Y-105772837D01*
X100385162Y-105654373D01*
X100245860Y-105561295D01*
X100091082Y-105497184D01*
X100091074Y-105497182D01*
X99926771Y-105464500D01*
X99926767Y-105464500D01*
X99264544Y-105464500D01*
X99197505Y-105444815D01*
X99176863Y-105428181D01*
X99110713Y-105362031D01*
X99110708Y-105362027D01*
X99030790Y-105315887D01*
X99030789Y-105315886D01*
X99030788Y-105315886D01*
X98941644Y-105292000D01*
X98941643Y-105292000D01*
X97355531Y-105292000D01*
X97288492Y-105272315D01*
X97242737Y-105219511D01*
X97236408Y-105201048D01*
X97184797Y-105062671D01*
X97184793Y-105062664D01*
X97098547Y-104947455D01*
X97098544Y-104947452D01*
X96983335Y-104861206D01*
X96983328Y-104861202D01*
X96848482Y-104810908D01*
X96848483Y-104810908D01*
X96788883Y-104804501D01*
X96788881Y-104804500D01*
X96788873Y-104804500D01*
X96788864Y-104804500D01*
X95743129Y-104804500D01*
X95743123Y-104804501D01*
X95683516Y-104810908D01*
X95548671Y-104861202D01*
X95548664Y-104861206D01*
X95433455Y-104947452D01*
X95433452Y-104947455D01*
X95347206Y-105062664D01*
X95347202Y-105062671D01*
X95305583Y-105174260D01*
X95296909Y-105197517D01*
X95290500Y-105257127D01*
X95290500Y-105257134D01*
X95290500Y-105257135D01*
X95290500Y-106027870D01*
X89313552Y-106027870D01*
X89188677Y-105902995D01*
X89155192Y-105841672D01*
X89160176Y-105771980D01*
X89202048Y-105716047D01*
X89233026Y-105699132D01*
X89247326Y-105693798D01*
X89247326Y-105693797D01*
X89247331Y-105693796D01*
X89362546Y-105607546D01*
X89448796Y-105492331D01*
X89499091Y-105357483D01*
X89505500Y-105297873D01*
X89505499Y-104252128D01*
X89499091Y-104192517D01*
X89448796Y-104057669D01*
X89448795Y-104057668D01*
X89448793Y-104057664D01*
X89362547Y-103942455D01*
X89362544Y-103942452D01*
X89247335Y-103856206D01*
X89247328Y-103856202D01*
X89112482Y-103805908D01*
X89112483Y-103805908D01*
X89052883Y-103799501D01*
X89052881Y-103799500D01*
X89052873Y-103799500D01*
X89052865Y-103799500D01*
X88964043Y-103799500D01*
X88897004Y-103779815D01*
X88876362Y-103763181D01*
X88337713Y-103224531D01*
X88337708Y-103224527D01*
X88257791Y-103178387D01*
X88257787Y-103178385D01*
X88252426Y-103176949D01*
X88252426Y-103176948D01*
X88183976Y-103158608D01*
X88168644Y-103154500D01*
X88168643Y-103154500D01*
X83036092Y-103154500D01*
X82969053Y-103134815D01*
X82949587Y-103116913D01*
X82948372Y-103118129D01*
X82942627Y-103112384D01*
X82942621Y-103112379D01*
X82827625Y-103024139D01*
X82827624Y-103024138D01*
X82827622Y-103024137D01*
X82693712Y-102968671D01*
X82693710Y-102968670D01*
X82693709Y-102968670D01*
X82621854Y-102959210D01*
X82550001Y-102949750D01*
X82549999Y-102949750D01*
X82406291Y-102968670D01*
X82406287Y-102968671D01*
X82272377Y-103024137D01*
X82157372Y-103112384D01*
X82151628Y-103118129D01*
X82149111Y-103115612D01*
X82105817Y-103147203D01*
X82063908Y-103154500D01*
X81131092Y-103154500D01*
X81064053Y-103134815D01*
X81044587Y-103116913D01*
X81043372Y-103118129D01*
X81037627Y-103112384D01*
X81037621Y-103112379D01*
X80922625Y-103024139D01*
X80922624Y-103024138D01*
X80922622Y-103024137D01*
X80788712Y-102968671D01*
X80788710Y-102968670D01*
X80788709Y-102968670D01*
X80716854Y-102959210D01*
X80645001Y-102949750D01*
X80644999Y-102949750D01*
X80501291Y-102968670D01*
X80501287Y-102968671D01*
X80367377Y-103024137D01*
X80252379Y-103112379D01*
X80164137Y-103227377D01*
X80108671Y-103361287D01*
X80108670Y-103361291D01*
X80089750Y-103504999D01*
X80089750Y-103505000D01*
X63995682Y-103505000D01*
X63715213Y-103224531D01*
X63715208Y-103224527D01*
X63635291Y-103178387D01*
X63635287Y-103178385D01*
X63629926Y-103176949D01*
X63629926Y-103176948D01*
X63561476Y-103158608D01*
X63546144Y-103154500D01*
X63546143Y-103154500D01*
X58906092Y-103154500D01*
X58839053Y-103134815D01*
X58819587Y-103116913D01*
X58818372Y-103118129D01*
X58812627Y-103112384D01*
X58812621Y-103112379D01*
X58697625Y-103024139D01*
X58697624Y-103024138D01*
X58697622Y-103024137D01*
X58563712Y-102968671D01*
X58563710Y-102968670D01*
X58563709Y-102968670D01*
X58491854Y-102959210D01*
X58420001Y-102949750D01*
X58419999Y-102949750D01*
X58276291Y-102968670D01*
X58276287Y-102968671D01*
X58142377Y-103024137D01*
X58027379Y-103112379D01*
X57939137Y-103227377D01*
X57883671Y-103361287D01*
X57883670Y-103361291D01*
X57864750Y-103504999D01*
X57864750Y-103505000D01*
X57015500Y-103505000D01*
X57015500Y-102235000D01*
X63664785Y-102235000D01*
X63683602Y-102438082D01*
X63739417Y-102634247D01*
X63739422Y-102634260D01*
X63830327Y-102816821D01*
X63953237Y-102979581D01*
X64092638Y-103106660D01*
X64103884Y-103116913D01*
X64103958Y-103116980D01*
X64103960Y-103116982D01*
X64158049Y-103150472D01*
X64277363Y-103224348D01*
X64467544Y-103298024D01*
X64668024Y-103335500D01*
X64668026Y-103335500D01*
X64871974Y-103335500D01*
X64871976Y-103335500D01*
X65072456Y-103298024D01*
X65262637Y-103224348D01*
X65436041Y-103116981D01*
X65586764Y-102979579D01*
X65709673Y-102816821D01*
X65759945Y-102715861D01*
X65790635Y-102654228D01*
X65838138Y-102602991D01*
X65901635Y-102585500D01*
X67458908Y-102585500D01*
X67525947Y-102605185D01*
X67545412Y-102623086D01*
X67546628Y-102621871D01*
X67552372Y-102627615D01*
X67552377Y-102627619D01*
X67552379Y-102627621D01*
X67667375Y-102715861D01*
X67801291Y-102771330D01*
X67928280Y-102788048D01*
X67944999Y-102790250D01*
X67945000Y-102790250D01*
X67945001Y-102790250D01*
X67959977Y-102788278D01*
X68088709Y-102771330D01*
X68222625Y-102715861D01*
X68337621Y-102627621D01*
X68425861Y-102512625D01*
X68481330Y-102378709D01*
X68500250Y-102235000D01*
X68481330Y-102091291D01*
X68426823Y-101959698D01*
X68425862Y-101957377D01*
X68425861Y-101957376D01*
X68425861Y-101957375D01*
X68337621Y-101842379D01*
X68222625Y-101754139D01*
X68222624Y-101754138D01*
X68222622Y-101754137D01*
X68088712Y-101698671D01*
X68088710Y-101698670D01*
X68088709Y-101698670D01*
X67981087Y-101684501D01*
X67945001Y-101679750D01*
X67944999Y-101679750D01*
X67801291Y-101698670D01*
X67801287Y-101698671D01*
X67667377Y-101754137D01*
X67552372Y-101842384D01*
X67546628Y-101848129D01*
X67544111Y-101845612D01*
X67500817Y-101877203D01*
X67458908Y-101884500D01*
X65901635Y-101884500D01*
X65834596Y-101864815D01*
X65790635Y-101815772D01*
X65723358Y-101680663D01*
X65709673Y-101653179D01*
X65605702Y-101515499D01*
X65586762Y-101490418D01*
X65436041Y-101353019D01*
X65436039Y-101353017D01*
X65262642Y-101245655D01*
X65262635Y-101245651D01*
X65101516Y-101183234D01*
X65072456Y-101171976D01*
X64871976Y-101134500D01*
X64668024Y-101134500D01*
X64467544Y-101171976D01*
X64467541Y-101171976D01*
X64467541Y-101171977D01*
X64277364Y-101245651D01*
X64277357Y-101245655D01*
X64103960Y-101353017D01*
X64103958Y-101353019D01*
X63953237Y-101490418D01*
X63830327Y-101653178D01*
X63739422Y-101835739D01*
X63739417Y-101835752D01*
X63683602Y-102031917D01*
X63664785Y-102234999D01*
X63664785Y-102235000D01*
X57015500Y-102235000D01*
X57015500Y-99126122D01*
X69564500Y-99126122D01*
X69564501Y-99126125D01*
X69567399Y-99168886D01*
X69567399Y-99168887D01*
X69579353Y-99216954D01*
X69612724Y-99351141D01*
X69613360Y-99353696D01*
X69697967Y-99524292D01*
X69697969Y-99524295D01*
X69817277Y-99672721D01*
X69817278Y-99672722D01*
X69965704Y-99792030D01*
X69965707Y-99792032D01*
X70136302Y-99876639D01*
X70136303Y-99876639D01*
X70136307Y-99876641D01*
X70321111Y-99922600D01*
X70363877Y-99925500D01*
X71766122Y-99925499D01*
X71808889Y-99922600D01*
X71993693Y-99876641D01*
X72164296Y-99792030D01*
X72312722Y-99672722D01*
X72432030Y-99524296D01*
X72516641Y-99353693D01*
X72562600Y-99168889D01*
X72565500Y-99126123D01*
X72565500Y-98999500D01*
X72585185Y-98932461D01*
X72637989Y-98886706D01*
X72689500Y-98875500D01*
X74539308Y-98875500D01*
X74539309Y-98875500D01*
X74629673Y-98851286D01*
X74653887Y-98844799D01*
X74756614Y-98785489D01*
X77657101Y-95885000D01*
X81359750Y-95885000D01*
X81377803Y-96022127D01*
X81378670Y-96028708D01*
X81378671Y-96028712D01*
X81434137Y-96162622D01*
X81434138Y-96162624D01*
X81434139Y-96162625D01*
X81522379Y-96277621D01*
X81637375Y-96365861D01*
X81771291Y-96421330D01*
X81898280Y-96438048D01*
X81914999Y-96440250D01*
X81915000Y-96440250D01*
X81915001Y-96440250D01*
X81929977Y-96438278D01*
X82058709Y-96421330D01*
X82192625Y-96365861D01*
X82307621Y-96277621D01*
X82395861Y-96162625D01*
X82451330Y-96028709D01*
X82470250Y-95885000D01*
X82470250Y-95884999D01*
X82470250Y-95876871D01*
X82474049Y-95876871D01*
X82481388Y-95825418D01*
X82506556Y-95789124D01*
X83293863Y-95001819D01*
X83355186Y-94968334D01*
X83381544Y-94965500D01*
X83912745Y-94965500D01*
X83979784Y-94985185D01*
X84000426Y-95001819D01*
X84091652Y-95093045D01*
X84091654Y-95093046D01*
X84091658Y-95093050D01*
X84182851Y-95139515D01*
X84233647Y-95187490D01*
X84250442Y-95255311D01*
X84227904Y-95321446D01*
X84182852Y-95360484D01*
X84091658Y-95406950D01*
X84091657Y-95406951D01*
X84091652Y-95406954D01*
X84001954Y-95496652D01*
X84001951Y-95496657D01*
X84001950Y-95496658D01*
X83987933Y-95524168D01*
X83944352Y-95609698D01*
X83929500Y-95703475D01*
X83929500Y-96066517D01*
X83940292Y-96134657D01*
X83944354Y-96160304D01*
X84001950Y-96273342D01*
X84001952Y-96273344D01*
X84001954Y-96273347D01*
X84091652Y-96363045D01*
X84091654Y-96363046D01*
X84091658Y-96363050D01*
X84182851Y-96409515D01*
X84233647Y-96457490D01*
X84250442Y-96525311D01*
X84227904Y-96591446D01*
X84182852Y-96630484D01*
X84091658Y-96676950D01*
X84091657Y-96676951D01*
X84091652Y-96676954D01*
X84000426Y-96768181D01*
X83939103Y-96801666D01*
X83912745Y-96804500D01*
X83866144Y-96804500D01*
X83773856Y-96804500D01*
X83684712Y-96828386D01*
X83684711Y-96828386D01*
X83684709Y-96828387D01*
X83684706Y-96828388D01*
X83604794Y-96874526D01*
X83604785Y-96874533D01*
X83539533Y-96939785D01*
X83539526Y-96939794D01*
X83493388Y-97019706D01*
X83493387Y-97019709D01*
X83493386Y-97019711D01*
X83493386Y-97019712D01*
X83469500Y-97108856D01*
X83469500Y-99648856D01*
X83469500Y-99741144D01*
X83483135Y-99792032D01*
X83493387Y-99830290D01*
X83493388Y-99830293D01*
X83539526Y-99910205D01*
X83539529Y-99910209D01*
X83539531Y-99910212D01*
X83604788Y-99975469D01*
X83604791Y-99975470D01*
X83604794Y-99975473D01*
X83684706Y-100021611D01*
X83684707Y-100021611D01*
X83684712Y-100021614D01*
X83773856Y-100045500D01*
X83912745Y-100045500D01*
X83979784Y-100065185D01*
X84000426Y-100081819D01*
X84091652Y-100173045D01*
X84091654Y-100173046D01*
X84091658Y-100173050D01*
X84182851Y-100219515D01*
X84233647Y-100267490D01*
X84250442Y-100335311D01*
X84227904Y-100401446D01*
X84182852Y-100440484D01*
X84091658Y-100486950D01*
X84091657Y-100486951D01*
X84091652Y-100486954D01*
X84001954Y-100576652D01*
X84001951Y-100576657D01*
X84001950Y-100576658D01*
X83992699Y-100594815D01*
X83944352Y-100689698D01*
X83929500Y-100783475D01*
X83929500Y-101146517D01*
X83937150Y-101194818D01*
X83944354Y-101240304D01*
X84001950Y-101353342D01*
X84001952Y-101353344D01*
X84001954Y-101353347D01*
X84091652Y-101443045D01*
X84091654Y-101443046D01*
X84091658Y-101443050D01*
X84204694Y-101500645D01*
X84204698Y-101500647D01*
X84298475Y-101515499D01*
X84298481Y-101515500D01*
X86011518Y-101515499D01*
X86105304Y-101500646D01*
X86218342Y-101443050D01*
X86233938Y-101427454D01*
X86309574Y-101351819D01*
X86370897Y-101318334D01*
X86397255Y-101315500D01*
X86798456Y-101315500D01*
X86865495Y-101335185D01*
X86886137Y-101351819D01*
X88684788Y-103150470D01*
X88764712Y-103196614D01*
X88853856Y-103220500D01*
X88853858Y-103220500D01*
X91756142Y-103220500D01*
X91756144Y-103220500D01*
X91845288Y-103196614D01*
X91845296Y-103196609D01*
X91852798Y-103193503D01*
X91853638Y-103195533D01*
X91910356Y-103181768D01*
X91917700Y-103182336D01*
X91947127Y-103185500D01*
X92742872Y-103185499D01*
X92802483Y-103179091D01*
X92937331Y-103128796D01*
X93052546Y-103042546D01*
X93138796Y-102927331D01*
X93189091Y-102792483D01*
X93195500Y-102732873D01*
X93195500Y-102732870D01*
X93494500Y-102732870D01*
X93494501Y-102732876D01*
X93500908Y-102792483D01*
X93551202Y-102927328D01*
X93551206Y-102927335D01*
X93637452Y-103042544D01*
X93637455Y-103042547D01*
X93752664Y-103128793D01*
X93752671Y-103128797D01*
X93887517Y-103179091D01*
X93887516Y-103179091D01*
X93894444Y-103179835D01*
X93947127Y-103185500D01*
X94742872Y-103185499D01*
X94802483Y-103179091D01*
X94937331Y-103128796D01*
X95052546Y-103042546D01*
X95138796Y-102927331D01*
X95189091Y-102792483D01*
X95195500Y-102732873D01*
X95195499Y-101737128D01*
X95189091Y-101677517D01*
X95180013Y-101653178D01*
X95138797Y-101542671D01*
X95138793Y-101542664D01*
X95064221Y-101443050D01*
X95052546Y-101427454D01*
X94991513Y-101381765D01*
X94949644Y-101325833D01*
X94944660Y-101256141D01*
X94978145Y-101194818D01*
X94991507Y-101183239D01*
X95052546Y-101137546D01*
X95138796Y-101022331D01*
X95189091Y-100887483D01*
X95195500Y-100827873D01*
X95195499Y-99832128D01*
X95189091Y-99772517D01*
X95184484Y-99760166D01*
X95138797Y-99637671D01*
X95138793Y-99637664D01*
X95087123Y-99568643D01*
X95052546Y-99522454D01*
X94991513Y-99476765D01*
X94949644Y-99420833D01*
X94944660Y-99351141D01*
X94978145Y-99289818D01*
X94991507Y-99278239D01*
X95052546Y-99232546D01*
X95138796Y-99117331D01*
X95189091Y-98982483D01*
X95195500Y-98922873D01*
X95195499Y-97927128D01*
X95189091Y-97867517D01*
X95183493Y-97852509D01*
X95138797Y-97732671D01*
X95138793Y-97732664D01*
X95087123Y-97663643D01*
X95052546Y-97617454D01*
X94991513Y-97571765D01*
X94949644Y-97515833D01*
X94944660Y-97446141D01*
X94978145Y-97384818D01*
X94991507Y-97373239D01*
X95052546Y-97327546D01*
X95073600Y-97299420D01*
X95129533Y-97257551D01*
X95199225Y-97252567D01*
X95260548Y-97286052D01*
X95294032Y-97347376D01*
X95296156Y-97360479D01*
X95296909Y-97367483D01*
X95347202Y-97502328D01*
X95347206Y-97502335D01*
X95433452Y-97617544D01*
X95433455Y-97617547D01*
X95548664Y-97703793D01*
X95548671Y-97703797D01*
X95683517Y-97754091D01*
X95683516Y-97754091D01*
X95690444Y-97754835D01*
X95743127Y-97760500D01*
X96788872Y-97760499D01*
X96848483Y-97754091D01*
X96983331Y-97703796D01*
X97098546Y-97617546D01*
X97184796Y-97502331D01*
X97203726Y-97451574D01*
X97237802Y-97360215D01*
X97239255Y-97360757D01*
X97269424Y-97307772D01*
X97331334Y-97275384D01*
X97355531Y-97273000D01*
X97810956Y-97273000D01*
X97877995Y-97292685D01*
X97898637Y-97309319D01*
X98953705Y-98364387D01*
X98987190Y-98425710D01*
X98982206Y-98495402D01*
X98940334Y-98551335D01*
X98913477Y-98566629D01*
X98890139Y-98576295D01*
X98750837Y-98669373D01*
X98632373Y-98787837D01*
X98539295Y-98927139D01*
X98475184Y-99081917D01*
X98475182Y-99081925D01*
X98442500Y-99246228D01*
X98442500Y-99413771D01*
X98475182Y-99578074D01*
X98475184Y-99578082D01*
X98539295Y-99732860D01*
X98632373Y-99872162D01*
X98750837Y-99990626D01*
X98816395Y-100034430D01*
X98890137Y-100083703D01*
X99044918Y-100147816D01*
X99153932Y-100169500D01*
X99209228Y-100180499D01*
X99209232Y-100180500D01*
X99209233Y-100180500D01*
X99926768Y-100180500D01*
X99926769Y-100180499D01*
X100091082Y-100147816D01*
X100245863Y-100083703D01*
X100385162Y-99990626D01*
X100503626Y-99872162D01*
X100596703Y-99732863D01*
X100660816Y-99578082D01*
X100693500Y-99413767D01*
X100693500Y-99246233D01*
X100660816Y-99081918D01*
X100596703Y-98927137D01*
X100546020Y-98851285D01*
X100503626Y-98787837D01*
X100385162Y-98669373D01*
X100245860Y-98576295D01*
X100091082Y-98512184D01*
X100091074Y-98512182D01*
X100005730Y-98495206D01*
X99943819Y-98462821D01*
X99910147Y-98405683D01*
X99894614Y-98347712D01*
X99894611Y-98347706D01*
X99848473Y-98267794D01*
X99848470Y-98267791D01*
X99848469Y-98267788D01*
X99783212Y-98202531D01*
X98222712Y-96642030D01*
X98222711Y-96642029D01*
X98222708Y-96642027D01*
X98142790Y-96595887D01*
X98142789Y-96595886D01*
X98142788Y-96595886D01*
X98053644Y-96572000D01*
X98053643Y-96572000D01*
X97355531Y-96572000D01*
X97288492Y-96552315D01*
X97242737Y-96499511D01*
X97236408Y-96481048D01*
X97184797Y-96342671D01*
X97184793Y-96342664D01*
X97098547Y-96227455D01*
X97098544Y-96227452D01*
X96983335Y-96141206D01*
X96983328Y-96141202D01*
X96848482Y-96090908D01*
X96848483Y-96090908D01*
X96788883Y-96084501D01*
X96788881Y-96084500D01*
X96788873Y-96084500D01*
X96788864Y-96084500D01*
X95743129Y-96084500D01*
X95743123Y-96084501D01*
X95683516Y-96090908D01*
X95548671Y-96141202D01*
X95548664Y-96141206D01*
X95433455Y-96227452D01*
X95418765Y-96247076D01*
X95362831Y-96288946D01*
X95293139Y-96293930D01*
X95231816Y-96260444D01*
X95198332Y-96199120D01*
X95195499Y-96172764D01*
X95195499Y-96022129D01*
X95195498Y-96022123D01*
X95195497Y-96022116D01*
X95189091Y-95962517D01*
X95142968Y-95838856D01*
X95138797Y-95827671D01*
X95138793Y-95827664D01*
X95052547Y-95712456D01*
X95052548Y-95712456D01*
X95052546Y-95712454D01*
X94991513Y-95666765D01*
X94949644Y-95610833D01*
X94944660Y-95541141D01*
X94978145Y-95479818D01*
X94991507Y-95468239D01*
X95052546Y-95422546D01*
X95111935Y-95343211D01*
X95167867Y-95301341D01*
X95237559Y-95296357D01*
X95298882Y-95329842D01*
X95327383Y-95374190D01*
X95347202Y-95427328D01*
X95347206Y-95427335D01*
X95433452Y-95542544D01*
X95433455Y-95542547D01*
X95548664Y-95628793D01*
X95548671Y-95628797D01*
X95683517Y-95679091D01*
X95683516Y-95679091D01*
X95690444Y-95679835D01*
X95743127Y-95685500D01*
X96788872Y-95685499D01*
X96848483Y-95679091D01*
X96983331Y-95628796D01*
X97098546Y-95542546D01*
X97184796Y-95427331D01*
X97235091Y-95292483D01*
X97241500Y-95232873D01*
X97241499Y-94462128D01*
X97235091Y-94402517D01*
X97211660Y-94339696D01*
X97184797Y-94267671D01*
X97184793Y-94267664D01*
X97098547Y-94152455D01*
X97098544Y-94152452D01*
X96983335Y-94066206D01*
X96983328Y-94066202D01*
X96848482Y-94015908D01*
X96848483Y-94015908D01*
X96788883Y-94009501D01*
X96788881Y-94009500D01*
X96788873Y-94009500D01*
X96788864Y-94009500D01*
X95743129Y-94009500D01*
X95743123Y-94009501D01*
X95683516Y-94015908D01*
X95548671Y-94066202D01*
X95548664Y-94066206D01*
X95433455Y-94152452D01*
X95417567Y-94173675D01*
X95361632Y-94215544D01*
X95291940Y-94220525D01*
X95230618Y-94187037D01*
X95197136Y-94125713D01*
X95195014Y-94112621D01*
X95189091Y-94057517D01*
X95188911Y-94057035D01*
X95138797Y-93922671D01*
X95138793Y-93922664D01*
X95052547Y-93807455D01*
X95052544Y-93807452D01*
X94937335Y-93721206D01*
X94937328Y-93721202D01*
X94802482Y-93670908D01*
X94802483Y-93670908D01*
X94742883Y-93664501D01*
X94742881Y-93664500D01*
X94742873Y-93664500D01*
X94742864Y-93664500D01*
X93947129Y-93664500D01*
X93947123Y-93664501D01*
X93887516Y-93670908D01*
X93752671Y-93721202D01*
X93752664Y-93721206D01*
X93637455Y-93807452D01*
X93637452Y-93807455D01*
X93551206Y-93922664D01*
X93551202Y-93922671D01*
X93500908Y-94057517D01*
X93494985Y-94112612D01*
X93494501Y-94117123D01*
X93494500Y-94117135D01*
X93494500Y-95112870D01*
X93494501Y-95112876D01*
X93500908Y-95172483D01*
X93551202Y-95307328D01*
X93551206Y-95307335D01*
X93637452Y-95422544D01*
X93637453Y-95422544D01*
X93637454Y-95422546D01*
X93683309Y-95456873D01*
X93698485Y-95468234D01*
X93740355Y-95524168D01*
X93745339Y-95593860D01*
X93711853Y-95655182D01*
X93698485Y-95666766D01*
X93637452Y-95712455D01*
X93551206Y-95827664D01*
X93551202Y-95827671D01*
X93500908Y-95962517D01*
X93495319Y-96014505D01*
X93494501Y-96022123D01*
X93494500Y-96022135D01*
X93494500Y-97017870D01*
X93494501Y-97017876D01*
X93500908Y-97077483D01*
X93551202Y-97212328D01*
X93551206Y-97212335D01*
X93637452Y-97327544D01*
X93637453Y-97327544D01*
X93637454Y-97327546D01*
X93681094Y-97360215D01*
X93698485Y-97373234D01*
X93740355Y-97429168D01*
X93745339Y-97498860D01*
X93711853Y-97560182D01*
X93698485Y-97571766D01*
X93637452Y-97617455D01*
X93551206Y-97732664D01*
X93551202Y-97732671D01*
X93500908Y-97867517D01*
X93494717Y-97925109D01*
X93494501Y-97927123D01*
X93494500Y-97927135D01*
X93494500Y-98922870D01*
X93494501Y-98922876D01*
X93500908Y-98982483D01*
X93551202Y-99117328D01*
X93551206Y-99117335D01*
X93637452Y-99232544D01*
X93637453Y-99232544D01*
X93637454Y-99232546D01*
X93669511Y-99256544D01*
X93698485Y-99278234D01*
X93740355Y-99334168D01*
X93745339Y-99403860D01*
X93711853Y-99465182D01*
X93698485Y-99476766D01*
X93637452Y-99522455D01*
X93551206Y-99637664D01*
X93551202Y-99637671D01*
X93500908Y-99772517D01*
X93494697Y-99830293D01*
X93494501Y-99832123D01*
X93494500Y-99832135D01*
X93494500Y-100827870D01*
X93494501Y-100827876D01*
X93500908Y-100887483D01*
X93551202Y-101022328D01*
X93551206Y-101022335D01*
X93637452Y-101137544D01*
X93637453Y-101137544D01*
X93637454Y-101137546D01*
X93683309Y-101171873D01*
X93698485Y-101183234D01*
X93740355Y-101239168D01*
X93745339Y-101308860D01*
X93711853Y-101370182D01*
X93698485Y-101381766D01*
X93637452Y-101427455D01*
X93551206Y-101542664D01*
X93551202Y-101542671D01*
X93500908Y-101677517D01*
X93497364Y-101710485D01*
X93494501Y-101737123D01*
X93494500Y-101737135D01*
X93494500Y-102732870D01*
X93195500Y-102732870D01*
X93195499Y-101737128D01*
X93189091Y-101677517D01*
X93180013Y-101653178D01*
X93138797Y-101542671D01*
X93138793Y-101542664D01*
X93064221Y-101443050D01*
X93052546Y-101427454D01*
X92991513Y-101381765D01*
X92949644Y-101325833D01*
X92944660Y-101256141D01*
X92978145Y-101194818D01*
X92991507Y-101183239D01*
X93052546Y-101137546D01*
X93138796Y-101022331D01*
X93189091Y-100887483D01*
X93195500Y-100827873D01*
X93195499Y-99832128D01*
X93189091Y-99772517D01*
X93184484Y-99760166D01*
X93138797Y-99637671D01*
X93138793Y-99637664D01*
X93087123Y-99568643D01*
X93052546Y-99522454D01*
X92991513Y-99476765D01*
X92949644Y-99420833D01*
X92944660Y-99351141D01*
X92978145Y-99289818D01*
X92991507Y-99278239D01*
X93052546Y-99232546D01*
X93138796Y-99117331D01*
X93189091Y-98982483D01*
X93195500Y-98922873D01*
X93195499Y-97927128D01*
X93189091Y-97867517D01*
X93183493Y-97852509D01*
X93138797Y-97732671D01*
X93138793Y-97732664D01*
X93087123Y-97663643D01*
X93052546Y-97617454D01*
X92991513Y-97571765D01*
X92949644Y-97515833D01*
X92944660Y-97446141D01*
X92978145Y-97384818D01*
X92991507Y-97373239D01*
X93052546Y-97327546D01*
X93138796Y-97212331D01*
X93189091Y-97077483D01*
X93195500Y-97017873D01*
X93195499Y-96022128D01*
X93189091Y-95962517D01*
X93142968Y-95838856D01*
X93138797Y-95827671D01*
X93138793Y-95827664D01*
X93052547Y-95712456D01*
X93052548Y-95712456D01*
X93052546Y-95712454D01*
X92991513Y-95666765D01*
X92949644Y-95610833D01*
X92944660Y-95541141D01*
X92978145Y-95479818D01*
X92991507Y-95468239D01*
X93052546Y-95422546D01*
X93138796Y-95307331D01*
X93189091Y-95172483D01*
X93195500Y-95112873D01*
X93195499Y-94117128D01*
X93189091Y-94057517D01*
X93188911Y-94057035D01*
X93138797Y-93922671D01*
X93138793Y-93922664D01*
X93052547Y-93807455D01*
X93052544Y-93807452D01*
X92937335Y-93721206D01*
X92937328Y-93721202D01*
X92802482Y-93670908D01*
X92802483Y-93670908D01*
X92742883Y-93664501D01*
X92742881Y-93664500D01*
X92742873Y-93664500D01*
X92742864Y-93664500D01*
X91947129Y-93664500D01*
X91947123Y-93664501D01*
X91887516Y-93670908D01*
X91752671Y-93721202D01*
X91752664Y-93721206D01*
X91637455Y-93807452D01*
X91637452Y-93807455D01*
X91551206Y-93922664D01*
X91551202Y-93922671D01*
X91500908Y-94057517D01*
X91494985Y-94112612D01*
X91494501Y-94117123D01*
X91494500Y-94117135D01*
X91494500Y-94174220D01*
X91474815Y-94241259D01*
X91422011Y-94287014D01*
X91352853Y-94296958D01*
X91289297Y-94267933D01*
X91260017Y-94230518D01*
X91258051Y-94226660D01*
X91258050Y-94226658D01*
X91258048Y-94226656D01*
X91258045Y-94226652D01*
X91168347Y-94136954D01*
X91168344Y-94136952D01*
X91168342Y-94136950D01*
X91091517Y-94097805D01*
X91055301Y-94079352D01*
X90961524Y-94064500D01*
X90961519Y-94064500D01*
X90101544Y-94064500D01*
X90034505Y-94044815D01*
X90013863Y-94028181D01*
X89188677Y-93202995D01*
X89155192Y-93141672D01*
X89160176Y-93071980D01*
X89202048Y-93016047D01*
X89233026Y-92999132D01*
X89247326Y-92993798D01*
X89247326Y-92993797D01*
X89247331Y-92993796D01*
X89362546Y-92907546D01*
X89448796Y-92792331D01*
X89499091Y-92657483D01*
X89505500Y-92597873D01*
X89505499Y-91552128D01*
X89499091Y-91492517D01*
X89448796Y-91357669D01*
X89448795Y-91357668D01*
X89448793Y-91357664D01*
X89362547Y-91242455D01*
X89362544Y-91242452D01*
X89247335Y-91156206D01*
X89247328Y-91156202D01*
X89112482Y-91105908D01*
X89112483Y-91105908D01*
X89052883Y-91099501D01*
X89052881Y-91099500D01*
X89052873Y-91099500D01*
X89052865Y-91099500D01*
X88400294Y-91099500D01*
X88333255Y-91079815D01*
X88312613Y-91063181D01*
X87773977Y-90524545D01*
X87773972Y-90524541D01*
X87694055Y-90478401D01*
X87694051Y-90478399D01*
X87688690Y-90476963D01*
X87688690Y-90476962D01*
X87620240Y-90458622D01*
X87604908Y-90454514D01*
X87604907Y-90454514D01*
X83036092Y-90454514D01*
X82969053Y-90434829D01*
X82949587Y-90416927D01*
X82948372Y-90418143D01*
X82942627Y-90412398D01*
X82942621Y-90412393D01*
X82827625Y-90324153D01*
X82827624Y-90324152D01*
X82827622Y-90324151D01*
X82693712Y-90268685D01*
X82693710Y-90268684D01*
X82693709Y-90268684D01*
X82621854Y-90259224D01*
X82550001Y-90249764D01*
X82549999Y-90249764D01*
X82406291Y-90268684D01*
X82406287Y-90268685D01*
X82272377Y-90324151D01*
X82157379Y-90412393D01*
X82069137Y-90527391D01*
X82013671Y-90661301D01*
X82013670Y-90661305D01*
X81994750Y-90805013D01*
X81994750Y-90805014D01*
X82013670Y-90948722D01*
X82013671Y-90948726D01*
X82069137Y-91082636D01*
X82069138Y-91082638D01*
X82069139Y-91082639D01*
X82157379Y-91197635D01*
X82272375Y-91285875D01*
X82406291Y-91341344D01*
X82530305Y-91357671D01*
X82549999Y-91360264D01*
X82550000Y-91360264D01*
X82550001Y-91360264D01*
X82569695Y-91357671D01*
X82693709Y-91341344D01*
X82827625Y-91285875D01*
X82942621Y-91197635D01*
X82942623Y-91197631D01*
X82942627Y-91197629D01*
X82948372Y-91191885D01*
X82950888Y-91194401D01*
X82994183Y-91162811D01*
X83036092Y-91155514D01*
X87362220Y-91155514D01*
X87429259Y-91175199D01*
X87449901Y-91191833D01*
X87793181Y-91535113D01*
X87826666Y-91596436D01*
X87829500Y-91622794D01*
X87829500Y-92597870D01*
X87829501Y-92597876D01*
X87835908Y-92657483D01*
X87886202Y-92792328D01*
X87886206Y-92792335D01*
X87972452Y-92907544D01*
X87972455Y-92907547D01*
X88087664Y-92993793D01*
X88087671Y-92993797D01*
X88229785Y-93046802D01*
X88229242Y-93048255D01*
X88282228Y-93078424D01*
X88314616Y-93140334D01*
X88317000Y-93164531D01*
X88317000Y-93223643D01*
X88335713Y-93293482D01*
X88335729Y-93293539D01*
X88340886Y-93312789D01*
X88387027Y-93392708D01*
X88387031Y-93392713D01*
X88998781Y-94004463D01*
X89032266Y-94065786D01*
X89027282Y-94135478D01*
X88998782Y-94179824D01*
X88951954Y-94226652D01*
X88951951Y-94226657D01*
X88951950Y-94226658D01*
X88938137Y-94253767D01*
X88894352Y-94339698D01*
X88879500Y-94433475D01*
X88879501Y-94775500D01*
X88859817Y-94842539D01*
X88807013Y-94888294D01*
X88755501Y-94899500D01*
X87583856Y-94899500D01*
X87494712Y-94923386D01*
X87494709Y-94923387D01*
X87414791Y-94969527D01*
X87414786Y-94969531D01*
X86714529Y-95669788D01*
X86700856Y-95693471D01*
X86695077Y-95703482D01*
X86689896Y-95712456D01*
X86668386Y-95749711D01*
X86644500Y-95838856D01*
X86644500Y-97593456D01*
X86624815Y-97660495D01*
X86608181Y-97681137D01*
X86364208Y-97925109D01*
X86302885Y-97958594D01*
X86233193Y-97953610D01*
X86220232Y-97947913D01*
X86127148Y-97900484D01*
X86076352Y-97852509D01*
X86059557Y-97784688D01*
X86082095Y-97718553D01*
X86127145Y-97679517D01*
X86218342Y-97633050D01*
X86308050Y-97543342D01*
X86365646Y-97430304D01*
X86365646Y-97430302D01*
X86365647Y-97430301D01*
X86380499Y-97336524D01*
X86380500Y-97336519D01*
X86380499Y-96973482D01*
X86365646Y-96879696D01*
X86308050Y-96766658D01*
X86308046Y-96766654D01*
X86308045Y-96766652D01*
X86218347Y-96676954D01*
X86218343Y-96676951D01*
X86218342Y-96676950D01*
X86195246Y-96665182D01*
X86127147Y-96630483D01*
X86076352Y-96582509D01*
X86059557Y-96514687D01*
X86082095Y-96448553D01*
X86127145Y-96409517D01*
X86218342Y-96363050D01*
X86308050Y-96273342D01*
X86365646Y-96160304D01*
X86365646Y-96160302D01*
X86365647Y-96160301D01*
X86380499Y-96066524D01*
X86380500Y-96066519D01*
X86380499Y-95703482D01*
X86365646Y-95609696D01*
X86308050Y-95496658D01*
X86308046Y-95496654D01*
X86308045Y-95496652D01*
X86218347Y-95406954D01*
X86218343Y-95406951D01*
X86218342Y-95406950D01*
X86212821Y-95404137D01*
X86127147Y-95360483D01*
X86076352Y-95312509D01*
X86059557Y-95244687D01*
X86082095Y-95178553D01*
X86127145Y-95139517D01*
X86218342Y-95093050D01*
X86308050Y-95003342D01*
X86365646Y-94890304D01*
X86365646Y-94890302D01*
X86365647Y-94890301D01*
X86380499Y-94796524D01*
X86380500Y-94796519D01*
X86380499Y-94433482D01*
X86365646Y-94339696D01*
X86308050Y-94226658D01*
X86308046Y-94226654D01*
X86308045Y-94226652D01*
X86218347Y-94136954D01*
X86218344Y-94136952D01*
X86218342Y-94136950D01*
X86141517Y-94097805D01*
X86105301Y-94079352D01*
X86011524Y-94064500D01*
X84298482Y-94064500D01*
X84217519Y-94077323D01*
X84204696Y-94079354D01*
X84091658Y-94136950D01*
X84091657Y-94136951D01*
X84091652Y-94136954D01*
X84000426Y-94228181D01*
X83939103Y-94261666D01*
X83912745Y-94264500D01*
X83138856Y-94264500D01*
X83049712Y-94288386D01*
X83049709Y-94288387D01*
X82969791Y-94334527D01*
X82969786Y-94334531D01*
X82010877Y-95293439D01*
X81949554Y-95326924D01*
X81923128Y-95328208D01*
X81923128Y-95329750D01*
X81915000Y-95329750D01*
X81771291Y-95348670D01*
X81771287Y-95348671D01*
X81637377Y-95404137D01*
X81522379Y-95492379D01*
X81434137Y-95607377D01*
X81378671Y-95741287D01*
X81378670Y-95741291D01*
X81367299Y-95827664D01*
X81359750Y-95885000D01*
X77657101Y-95885000D01*
X78556515Y-94985586D01*
X78617836Y-94952103D01*
X78687528Y-94957087D01*
X78691622Y-94958697D01*
X78761918Y-94987816D01*
X78926228Y-95020499D01*
X78926232Y-95020500D01*
X78926233Y-95020500D01*
X79093768Y-95020500D01*
X79093769Y-95020499D01*
X79258082Y-94987816D01*
X79412863Y-94923703D01*
X79552162Y-94830626D01*
X79670626Y-94712162D01*
X79763703Y-94572863D01*
X79827816Y-94418082D01*
X79860500Y-94253767D01*
X79860500Y-93536233D01*
X79827816Y-93371918D01*
X79763703Y-93217137D01*
X79671018Y-93078424D01*
X79670626Y-93077837D01*
X79552162Y-92959373D01*
X79412860Y-92866295D01*
X79258082Y-92802184D01*
X79258074Y-92802182D01*
X79093771Y-92769500D01*
X79093767Y-92769500D01*
X78926233Y-92769500D01*
X78926228Y-92769500D01*
X78761925Y-92802182D01*
X78761917Y-92802184D01*
X78607139Y-92866295D01*
X78467837Y-92959373D01*
X78349373Y-93077837D01*
X78256295Y-93217139D01*
X78192184Y-93371917D01*
X78192182Y-93371925D01*
X78159500Y-93536228D01*
X78159500Y-94057035D01*
X78139815Y-94124074D01*
X78123181Y-94144716D01*
X74329716Y-97938181D01*
X74268393Y-97971666D01*
X74242035Y-97974500D01*
X72689499Y-97974500D01*
X72622460Y-97954815D01*
X72576705Y-97902011D01*
X72565499Y-97850500D01*
X72565499Y-97723877D01*
X72565498Y-97723876D01*
X72562600Y-97681111D01*
X72516641Y-97496307D01*
X72503842Y-97470500D01*
X72432032Y-97325707D01*
X72432030Y-97325704D01*
X72312722Y-97177278D01*
X72312721Y-97177277D01*
X72164295Y-97057969D01*
X72164292Y-97057967D01*
X71993697Y-96973360D01*
X71808892Y-96927400D01*
X71787506Y-96925950D01*
X71766123Y-96924500D01*
X71766120Y-96924500D01*
X70363877Y-96924500D01*
X70363874Y-96924501D01*
X70321113Y-96927399D01*
X70321112Y-96927399D01*
X70136303Y-96973360D01*
X69965707Y-97057967D01*
X69965704Y-97057969D01*
X69817278Y-97177277D01*
X69817277Y-97177278D01*
X69697969Y-97325704D01*
X69697967Y-97325707D01*
X69613360Y-97496302D01*
X69567400Y-97681107D01*
X69564500Y-97723879D01*
X69564500Y-99126122D01*
X57015500Y-99126122D01*
X57015500Y-94253771D01*
X64999500Y-94253771D01*
X65032182Y-94418074D01*
X65032184Y-94418082D01*
X65096295Y-94572860D01*
X65189373Y-94712162D01*
X65307837Y-94830626D01*
X65394144Y-94888294D01*
X65447137Y-94923703D01*
X65601918Y-94987816D01*
X65766228Y-95020499D01*
X65766232Y-95020500D01*
X65766233Y-95020500D01*
X65933768Y-95020500D01*
X65933769Y-95020499D01*
X66098082Y-94987816D01*
X66252863Y-94923703D01*
X66392162Y-94830626D01*
X66510626Y-94712162D01*
X66603703Y-94572863D01*
X66667816Y-94418082D01*
X66700499Y-94253771D01*
X66999500Y-94253771D01*
X67032182Y-94418074D01*
X67032184Y-94418082D01*
X67096295Y-94572860D01*
X67189373Y-94712162D01*
X67307837Y-94830626D01*
X67394144Y-94888294D01*
X67447137Y-94923703D01*
X67601918Y-94987816D01*
X67766228Y-95020499D01*
X67766232Y-95020500D01*
X67766233Y-95020500D01*
X67933768Y-95020500D01*
X67933769Y-95020499D01*
X68098082Y-94987816D01*
X68252863Y-94923703D01*
X68392162Y-94830626D01*
X68510626Y-94712162D01*
X68603703Y-94572863D01*
X68667816Y-94418082D01*
X68700499Y-94253771D01*
X68999500Y-94253771D01*
X69032182Y-94418074D01*
X69032184Y-94418082D01*
X69096295Y-94572860D01*
X69189373Y-94712162D01*
X69307837Y-94830626D01*
X69394144Y-94888294D01*
X69447137Y-94923703D01*
X69601918Y-94987816D01*
X69766228Y-95020499D01*
X69766232Y-95020500D01*
X69766233Y-95020500D01*
X69933768Y-95020500D01*
X69933769Y-95020499D01*
X70098082Y-94987816D01*
X70252863Y-94923703D01*
X70392162Y-94830626D01*
X70510626Y-94712162D01*
X70603703Y-94572863D01*
X70667816Y-94418082D01*
X70700499Y-94253771D01*
X70999500Y-94253771D01*
X71032182Y-94418074D01*
X71032184Y-94418082D01*
X71096295Y-94572860D01*
X71189373Y-94712162D01*
X71307837Y-94830626D01*
X71394144Y-94888294D01*
X71447137Y-94923703D01*
X71601918Y-94987816D01*
X71766228Y-95020499D01*
X71766232Y-95020500D01*
X71766233Y-95020500D01*
X71933768Y-95020500D01*
X71933769Y-95020499D01*
X72098082Y-94987816D01*
X72252863Y-94923703D01*
X72392162Y-94830626D01*
X72510626Y-94712162D01*
X72603703Y-94572863D01*
X72667816Y-94418082D01*
X72700500Y-94253767D01*
X72700500Y-93536233D01*
X72667816Y-93371918D01*
X72603703Y-93217137D01*
X72511018Y-93078424D01*
X72510626Y-93077837D01*
X72392162Y-92959373D01*
X72252860Y-92866295D01*
X72098082Y-92802184D01*
X72098074Y-92802182D01*
X71933771Y-92769500D01*
X71933767Y-92769500D01*
X71766233Y-92769500D01*
X71766228Y-92769500D01*
X71601925Y-92802182D01*
X71601917Y-92802184D01*
X71447139Y-92866295D01*
X71307837Y-92959373D01*
X71189373Y-93077837D01*
X71096295Y-93217139D01*
X71032184Y-93371917D01*
X71032182Y-93371925D01*
X70999500Y-93536228D01*
X70999500Y-94253771D01*
X70700499Y-94253771D01*
X70700500Y-94253767D01*
X70700500Y-93536233D01*
X70667816Y-93371918D01*
X70603703Y-93217137D01*
X70511018Y-93078424D01*
X70510626Y-93077837D01*
X70392162Y-92959373D01*
X70252860Y-92866295D01*
X70098082Y-92802184D01*
X70098074Y-92802182D01*
X69933771Y-92769500D01*
X69933767Y-92769500D01*
X69766233Y-92769500D01*
X69766228Y-92769500D01*
X69601925Y-92802182D01*
X69601917Y-92802184D01*
X69447139Y-92866295D01*
X69307837Y-92959373D01*
X69189373Y-93077837D01*
X69096295Y-93217139D01*
X69032184Y-93371917D01*
X69032182Y-93371925D01*
X68999500Y-93536228D01*
X68999500Y-94253771D01*
X68700499Y-94253771D01*
X68700500Y-94253767D01*
X68700500Y-93536233D01*
X68667816Y-93371918D01*
X68603703Y-93217137D01*
X68511018Y-93078424D01*
X68510626Y-93077837D01*
X68392162Y-92959373D01*
X68252860Y-92866295D01*
X68098082Y-92802184D01*
X68098074Y-92802182D01*
X67933771Y-92769500D01*
X67933767Y-92769500D01*
X67766233Y-92769500D01*
X67766228Y-92769500D01*
X67601925Y-92802182D01*
X67601917Y-92802184D01*
X67447139Y-92866295D01*
X67307837Y-92959373D01*
X67189373Y-93077837D01*
X67096295Y-93217139D01*
X67032184Y-93371917D01*
X67032182Y-93371925D01*
X66999500Y-93536228D01*
X66999500Y-94253771D01*
X66700499Y-94253771D01*
X66700500Y-94253767D01*
X66700500Y-93536233D01*
X66667816Y-93371918D01*
X66603703Y-93217137D01*
X66511018Y-93078424D01*
X66510626Y-93077837D01*
X66392162Y-92959373D01*
X66252860Y-92866295D01*
X66098082Y-92802184D01*
X66098074Y-92802182D01*
X65933771Y-92769500D01*
X65933767Y-92769500D01*
X65766233Y-92769500D01*
X65766228Y-92769500D01*
X65601925Y-92802182D01*
X65601917Y-92802184D01*
X65447139Y-92866295D01*
X65307837Y-92959373D01*
X65189373Y-93077837D01*
X65096295Y-93217139D01*
X65032184Y-93371917D01*
X65032182Y-93371925D01*
X64999500Y-93536228D01*
X64999500Y-94253771D01*
X57015500Y-94253771D01*
X57015500Y-89524500D01*
X57035185Y-89457461D01*
X57087989Y-89411706D01*
X57139500Y-89400500D01*
X104150500Y-89400500D01*
X104217539Y-89420185D01*
G37*
%TD.AperFunction*%
%TD*%
%TA.AperFunction,Conductor*%
%TO.N,+5V_OCXO*%
G36*
X104083039Y-131464685D02*
G01*
X104128794Y-131517489D01*
X104140000Y-131569000D01*
X104140000Y-141481000D01*
X104120315Y-141548039D01*
X104067511Y-141593794D01*
X104016000Y-141605000D01*
X100330000Y-141605000D01*
X97886652Y-143437511D01*
X97823067Y-143485200D01*
X97757625Y-143509676D01*
X97748667Y-143510000D01*
X96550599Y-143510000D01*
X96483560Y-143490315D01*
X96437805Y-143437511D01*
X96434418Y-143429336D01*
X96434240Y-143428860D01*
X96433796Y-143427669D01*
X96347546Y-143312454D01*
X96347544Y-143312452D01*
X96232334Y-143226205D01*
X96232332Y-143226204D01*
X96183665Y-143208052D01*
X96127732Y-143166180D01*
X96103316Y-143100716D01*
X96103000Y-143091871D01*
X96103000Y-142023128D01*
X96122685Y-141956089D01*
X96175489Y-141910334D01*
X96183653Y-141906951D01*
X96232331Y-141888796D01*
X96347546Y-141802546D01*
X96433796Y-141687331D01*
X96484091Y-141552483D01*
X96490500Y-141492873D01*
X96490499Y-140447128D01*
X96484091Y-140387517D01*
X96433796Y-140252669D01*
X96433795Y-140252668D01*
X96433793Y-140252664D01*
X96347547Y-140137455D01*
X96347544Y-140137452D01*
X96232334Y-140051205D01*
X96232332Y-140051204D01*
X96183665Y-140033052D01*
X96127732Y-139991180D01*
X96103316Y-139925716D01*
X96103000Y-139916871D01*
X96103000Y-139483128D01*
X96122685Y-139416089D01*
X96175489Y-139370334D01*
X96183653Y-139366951D01*
X96232331Y-139348796D01*
X96347546Y-139262546D01*
X96433796Y-139147331D01*
X96484091Y-139012483D01*
X96490500Y-138952873D01*
X96490499Y-137907128D01*
X96484091Y-137847517D01*
X96433796Y-137712669D01*
X96433795Y-137712668D01*
X96433793Y-137712664D01*
X96347547Y-137597455D01*
X96347544Y-137597452D01*
X96232335Y-137511206D01*
X96232328Y-137511202D01*
X96097486Y-137460910D01*
X96097485Y-137460909D01*
X96097483Y-137460909D01*
X96037873Y-137454500D01*
X96037863Y-137454500D01*
X95267129Y-137454500D01*
X95267123Y-137454501D01*
X95207516Y-137460908D01*
X95072671Y-137511202D01*
X95072664Y-137511206D01*
X94957455Y-137597452D01*
X94957452Y-137597455D01*
X94871206Y-137712664D01*
X94871202Y-137712671D01*
X94820908Y-137847517D01*
X94814501Y-137907116D01*
X94814501Y-137907123D01*
X94814500Y-137907135D01*
X94814500Y-138952870D01*
X94814501Y-138952876D01*
X94820908Y-139012483D01*
X94871202Y-139147328D01*
X94871206Y-139147335D01*
X94957452Y-139262544D01*
X94957455Y-139262547D01*
X95072664Y-139348793D01*
X95072669Y-139348796D01*
X95121332Y-139366946D01*
X95177266Y-139408816D01*
X95201684Y-139474280D01*
X95202000Y-139483128D01*
X95202000Y-139916871D01*
X95182315Y-139983910D01*
X95129511Y-140029665D01*
X95121335Y-140033052D01*
X95072667Y-140051204D01*
X95072665Y-140051205D01*
X94957455Y-140137452D01*
X94957452Y-140137455D01*
X94871206Y-140252664D01*
X94871202Y-140252671D01*
X94820908Y-140387517D01*
X94814501Y-140447116D01*
X94814501Y-140447123D01*
X94814500Y-140447135D01*
X94814500Y-141492870D01*
X94814501Y-141492876D01*
X94820908Y-141552483D01*
X94871202Y-141687328D01*
X94871206Y-141687335D01*
X94957452Y-141802544D01*
X94957455Y-141802547D01*
X95072664Y-141888793D01*
X95072669Y-141888796D01*
X95121332Y-141906946D01*
X95177266Y-141948816D01*
X95201684Y-142014280D01*
X95202000Y-142023128D01*
X95202000Y-143091871D01*
X95182315Y-143158910D01*
X95129511Y-143204665D01*
X95121335Y-143208052D01*
X95072667Y-143226204D01*
X95072665Y-143226205D01*
X94957455Y-143312452D01*
X94957452Y-143312455D01*
X94871205Y-143427666D01*
X94871204Y-143427668D01*
X94870582Y-143429336D01*
X94869515Y-143430760D01*
X94866954Y-143435452D01*
X94866279Y-143435083D01*
X94828709Y-143485269D01*
X94763244Y-143509684D01*
X94754401Y-143510000D01*
X94475599Y-143510000D01*
X94408560Y-143490315D01*
X94362805Y-143437511D01*
X94359418Y-143429336D01*
X94359240Y-143428860D01*
X94358796Y-143427669D01*
X94272546Y-143312454D01*
X94272544Y-143312452D01*
X94157335Y-143226206D01*
X94157328Y-143226202D01*
X94022486Y-143175910D01*
X94022485Y-143175909D01*
X94022483Y-143175909D01*
X93962873Y-143169500D01*
X93962863Y-143169500D01*
X93192129Y-143169500D01*
X93192123Y-143169501D01*
X93132516Y-143175908D01*
X92997671Y-143226202D01*
X92997664Y-143226206D01*
X92882455Y-143312452D01*
X92882452Y-143312455D01*
X92796205Y-143427666D01*
X92796204Y-143427668D01*
X92795582Y-143429336D01*
X92794515Y-143430760D01*
X92791954Y-143435452D01*
X92791279Y-143435083D01*
X92753709Y-143485269D01*
X92688244Y-143509684D01*
X92679401Y-143510000D01*
X88389000Y-143510000D01*
X88321961Y-143490315D01*
X88276206Y-143437511D01*
X88265000Y-143386000D01*
X88265000Y-139738387D01*
X86297790Y-139726494D01*
X86230871Y-139706404D01*
X86210859Y-139690177D01*
X85940213Y-139419531D01*
X85940208Y-139419527D01*
X85860290Y-139373387D01*
X85860289Y-139373386D01*
X85860288Y-139373386D01*
X85771144Y-139349500D01*
X82039000Y-139349500D01*
X81971961Y-139329815D01*
X81926206Y-139277011D01*
X81915000Y-139225500D01*
X81915000Y-131569000D01*
X81934685Y-131501961D01*
X81987489Y-131456206D01*
X82039000Y-131445000D01*
X104016000Y-131445000D01*
X104083039Y-131464685D01*
G37*
%TD.AperFunction*%
%TD*%
M02*
