%TF.GenerationSoftware,KiCad,Pcbnew,8.0.1-8.0.1-1~ubuntu22.04.1*%
%TF.CreationDate,2024-04-07T13:28:59+03:00*%
%TF.ProjectId,lcd_board,6c63645f-626f-4617-9264-2e6b69636164,rev?*%
%TF.SameCoordinates,Original*%
%TF.FileFunction,Copper,L2,Bot*%
%TF.FilePolarity,Positive*%
%FSLAX46Y46*%
G04 Gerber Fmt 4.6, Leading zero omitted, Abs format (unit mm)*
G04 Created by KiCad (PCBNEW 8.0.1-8.0.1-1~ubuntu22.04.1) date 2024-04-07 13:28:59*
%MOMM*%
%LPD*%
G01*
G04 APERTURE LIST*
G04 Aperture macros list*
%AMRoundRect*
0 Rectangle with rounded corners*
0 $1 Rounding radius*
0 $2 $3 $4 $5 $6 $7 $8 $9 X,Y pos of 4 corners*
0 Add a 4 corners polygon primitive as box body*
4,1,4,$2,$3,$4,$5,$6,$7,$8,$9,$2,$3,0*
0 Add four circle primitives for the rounded corners*
1,1,$1+$1,$2,$3*
1,1,$1+$1,$4,$5*
1,1,$1+$1,$6,$7*
1,1,$1+$1,$8,$9*
0 Add four rect primitives between the rounded corners*
20,1,$1+$1,$2,$3,$4,$5,0*
20,1,$1+$1,$4,$5,$6,$7,0*
20,1,$1+$1,$6,$7,$8,$9,0*
20,1,$1+$1,$8,$9,$2,$3,0*%
G04 Aperture macros list end*
%TA.AperFunction,ComponentPad*%
%ADD10R,1.700000X1.700000*%
%TD*%
%TA.AperFunction,ComponentPad*%
%ADD11O,1.700000X1.700000*%
%TD*%
%TA.AperFunction,SMDPad,CuDef*%
%ADD12RoundRect,0.250000X0.475000X-0.337500X0.475000X0.337500X-0.475000X0.337500X-0.475000X-0.337500X0*%
%TD*%
%TA.AperFunction,SMDPad,CuDef*%
%ADD13RoundRect,0.250000X-0.475000X0.337500X-0.475000X-0.337500X0.475000X-0.337500X0.475000X0.337500X0*%
%TD*%
%TA.AperFunction,SMDPad,CuDef*%
%ADD14RoundRect,0.250000X-0.450000X0.350000X-0.450000X-0.350000X0.450000X-0.350000X0.450000X0.350000X0*%
%TD*%
%TA.AperFunction,ComponentPad*%
%ADD15RoundRect,0.250000X-0.350000X-0.625000X0.350000X-0.625000X0.350000X0.625000X-0.350000X0.625000X0*%
%TD*%
%TA.AperFunction,ComponentPad*%
%ADD16O,1.200000X1.750000*%
%TD*%
%TA.AperFunction,SMDPad,CuDef*%
%ADD17RoundRect,0.250000X0.450000X-0.350000X0.450000X0.350000X-0.450000X0.350000X-0.450000X-0.350000X0*%
%TD*%
%TA.AperFunction,SMDPad,CuDef*%
%ADD18RoundRect,0.150000X-0.150000X0.825000X-0.150000X-0.825000X0.150000X-0.825000X0.150000X0.825000X0*%
%TD*%
%TA.AperFunction,ViaPad*%
%ADD19C,0.600000*%
%TD*%
%TA.AperFunction,Conductor*%
%ADD20C,0.200000*%
%TD*%
G04 APERTURE END LIST*
D10*
%TO.P,J2,1,Pin_1*%
%TO.N,GND*%
X132675000Y-100905000D03*
D11*
%TO.P,J2,2,Pin_2*%
%TO.N,+3.3V*%
X135215000Y-100905000D03*
%TO.P,J2,3,Pin_3*%
%TO.N,/CONTRAST*%
X137755000Y-100905000D03*
%TO.P,J2,4,Pin_4*%
%TO.N,/RS*%
X140295000Y-100905000D03*
%TO.P,J2,5,Pin_5*%
%TO.N,GND*%
X142835000Y-100905000D03*
%TO.P,J2,6,Pin_6*%
%TO.N,/E*%
X145375000Y-100905000D03*
%TO.P,J2,7,Pin_7*%
%TO.N,GND*%
X147915000Y-100905000D03*
%TO.P,J2,8,Pin_8*%
X150455000Y-100905000D03*
%TO.P,J2,9,Pin_9*%
X152995000Y-100905000D03*
%TO.P,J2,10,Pin_10*%
X155535000Y-100905000D03*
%TO.P,J2,11,Pin_11*%
%TO.N,/D4*%
X158075000Y-100905000D03*
%TO.P,J2,12,Pin_12*%
%TO.N,/D5*%
X160615000Y-100905000D03*
%TO.P,J2,13,Pin_13*%
%TO.N,/D6*%
X163155000Y-100905000D03*
%TO.P,J2,14,Pin_14*%
%TO.N,/D7*%
X165695000Y-100905000D03*
%TO.P,J2,15,Pin_15*%
%TO.N,Net-(J2-Pin_15)*%
X168235000Y-100905000D03*
%TO.P,J2,16,Pin_16*%
%TO.N,GND*%
X170775000Y-100905000D03*
%TD*%
D12*
%TO.P,C6,1*%
%TO.N,+3.3V*%
X139660000Y-105117500D03*
%TO.P,C6,2*%
%TO.N,GND*%
X139660000Y-103042500D03*
%TD*%
%TO.P,C5,1*%
%TO.N,/CONTRAST*%
X134580000Y-105117500D03*
%TO.P,C5,2*%
%TO.N,GND*%
X134580000Y-103042500D03*
%TD*%
D13*
%TO.P,C4,1*%
%TO.N,GND*%
X154860000Y-106217500D03*
%TO.P,C4,2*%
%TO.N,+3.3V*%
X154860000Y-108292500D03*
%TD*%
D14*
%TO.P,R1,1*%
%TO.N,+3.3V*%
X137120000Y-103080000D03*
%TO.P,R1,2*%
%TO.N,/CONTRAST*%
X137120000Y-105080000D03*
%TD*%
D15*
%TO.P,J1,1,Pin_1*%
%TO.N,GND*%
X133183000Y-110811000D03*
D16*
%TO.P,J1,2,Pin_2*%
%TO.N,/6.5V*%
X135183000Y-110811000D03*
%TO.P,J1,3,Pin_3*%
%TO.N,/SCL*%
X137183000Y-110811000D03*
%TO.P,J1,4,Pin_4*%
%TO.N,/SDA*%
X139183000Y-110811000D03*
%TO.P,J1,5,Pin_5*%
%TO.N,/SWIO*%
X141183000Y-110811000D03*
%TD*%
D17*
%TO.P,R2,1*%
%TO.N,/CONTRAST*%
X132040000Y-105080000D03*
%TO.P,R2,2*%
%TO.N,GND*%
X132040000Y-103080000D03*
%TD*%
D18*
%TO.P,U1,1,QB*%
%TO.N,/RS*%
X156805000Y-104780000D03*
%TO.P,U1,2,QC*%
%TO.N,/E*%
X158075000Y-104780000D03*
%TO.P,U1,3,QD*%
%TO.N,unconnected-(U1-QD-Pad3)*%
X159345000Y-104780000D03*
%TO.P,U1,4,QE*%
%TO.N,/D4*%
X160615000Y-104780000D03*
%TO.P,U1,5,QF*%
%TO.N,/D5*%
X161885000Y-104780000D03*
%TO.P,U1,6,QG*%
%TO.N,/D6*%
X163155000Y-104780000D03*
%TO.P,U1,7,QH*%
%TO.N,/D7*%
X164425000Y-104780000D03*
%TO.P,U1,8,GND*%
%TO.N,GND*%
X165695000Y-104780000D03*
%TO.P,U1,9,QH'*%
%TO.N,unconnected-(U1-QH'-Pad9)*%
X165695000Y-109730000D03*
%TO.P,U1,10,~{SRCLR}*%
%TO.N,+3.3V*%
X164425000Y-109730000D03*
%TO.P,U1,11,SRCLK*%
%TO.N,/SRCLK*%
X163155000Y-109730000D03*
%TO.P,U1,12,RCLK*%
%TO.N,/RCLK*%
X161885000Y-109730000D03*
%TO.P,U1,13,~{OE}*%
%TO.N,GND*%
X160615000Y-109730000D03*
%TO.P,U1,14,SER*%
%TO.N,/SDIN*%
X159345000Y-109730000D03*
%TO.P,U1,15,QA*%
%TO.N,unconnected-(U1-QA-Pad15)*%
X158075000Y-109730000D03*
%TO.P,U1,16,VCC*%
%TO.N,+3.3V*%
X156805000Y-109730000D03*
%TD*%
D19*
%TO.N,GND*%
X145375000Y-106366000D03*
X139025000Y-102175000D03*
X142835000Y-111700000D03*
X165695000Y-107255000D03*
X159345000Y-107255000D03*
%TO.N,+3.3V*%
X163155000Y-111700000D03*
X140295000Y-106620000D03*
%TO.N,/SDIN*%
X159345000Y-108398000D03*
%TO.N,/RCLK*%
X159979854Y-106041579D03*
%TO.N,/SRCLK*%
X162520000Y-107890000D03*
%TD*%
D20*
%TO.N,GND*%
X132040000Y-103080000D02*
X132040000Y-101540000D01*
X132040000Y-101540000D02*
X132675000Y-100905000D01*
X132040000Y-103080000D02*
X134542500Y-103080000D01*
X134542500Y-103080000D02*
X134580000Y-103042500D01*
%TO.N,+3.3V*%
X156805000Y-109730000D02*
X156805000Y-111065000D01*
X163790000Y-111700000D02*
X164425000Y-111065000D01*
X140295000Y-105752500D02*
X140295000Y-106620000D01*
X141967500Y-108292500D02*
X140295000Y-106620000D01*
X154860000Y-108292500D02*
X155367500Y-108292500D01*
X154860000Y-108292500D02*
X141967500Y-108292500D01*
X157440000Y-111700000D02*
X163155000Y-111700000D01*
X156805000Y-111065000D02*
X157440000Y-111700000D01*
X163155000Y-111700000D02*
X163790000Y-111700000D01*
X139660000Y-105117500D02*
X140295000Y-105752500D01*
X155367500Y-108292500D02*
X156805000Y-109730000D01*
X135215000Y-100905000D02*
X137120000Y-102810000D01*
X164425000Y-111065000D02*
X164425000Y-109730000D01*
X137120000Y-102810000D02*
X137120000Y-103080000D01*
%TO.N,/CONTRAST*%
X138390000Y-103810000D02*
X138390000Y-101540000D01*
X138390000Y-101540000D02*
X137755000Y-100905000D01*
X132040000Y-105080000D02*
X134542500Y-105080000D01*
X134580000Y-105117500D02*
X134982500Y-105117500D01*
X137120000Y-105080000D02*
X138390000Y-103810000D01*
X135020000Y-105080000D02*
X137120000Y-105080000D01*
X134982500Y-105117500D02*
X135020000Y-105080000D01*
X134542500Y-105080000D02*
X134580000Y-105117500D01*
%TO.N,/E*%
X156444999Y-102175000D02*
X146645000Y-102175000D01*
X146645000Y-102175000D02*
X145375000Y-100905000D01*
X158075000Y-104780000D02*
X158075000Y-103805001D01*
X158075000Y-103805001D02*
X156444999Y-102175000D01*
%TO.N,/D4*%
X160615000Y-103445000D02*
X158075000Y-100905000D01*
X160615000Y-104780000D02*
X160615000Y-103445000D01*
%TO.N,/D6*%
X163155000Y-104780000D02*
X163155000Y-100905000D01*
%TO.N,/D7*%
X164425000Y-102175000D02*
X165695000Y-100905000D01*
X164425000Y-104780000D02*
X164425000Y-102175000D01*
%TO.N,/RS*%
X144170000Y-104780000D02*
X140295000Y-100905000D01*
X156805000Y-104780000D02*
X144170000Y-104780000D01*
%TO.N,/D5*%
X161885000Y-102175000D02*
X160615000Y-100905000D01*
X161885000Y-104780000D02*
X161885000Y-102175000D01*
%TO.N,/SDIN*%
X159345000Y-109730000D02*
X159345000Y-108398000D01*
%TO.N,/RCLK*%
X159979854Y-106041579D02*
X161885000Y-107946725D01*
X161885000Y-107946725D02*
X161885000Y-109730000D01*
%TO.N,/SRCLK*%
X163155000Y-108525000D02*
X163155000Y-109730000D01*
X162520000Y-107890000D02*
X163155000Y-108525000D01*
%TD*%
%TA.AperFunction,Conductor*%
%TO.N,GND*%
G36*
X172162539Y-99520185D02*
G01*
X172208294Y-99572989D01*
X172219500Y-99624500D01*
X172219500Y-112405500D01*
X172199815Y-112472539D01*
X172147011Y-112518294D01*
X172095500Y-112529500D01*
X131394500Y-112529500D01*
X131327461Y-112509815D01*
X131281706Y-112457011D01*
X131270500Y-112405500D01*
X131270500Y-111169769D01*
X134332500Y-111169769D01*
X134365182Y-111334074D01*
X134365184Y-111334082D01*
X134429295Y-111488860D01*
X134522373Y-111628162D01*
X134640837Y-111746626D01*
X134733494Y-111808537D01*
X134780137Y-111839703D01*
X134934918Y-111903816D01*
X135099228Y-111936499D01*
X135099232Y-111936500D01*
X135099233Y-111936500D01*
X135266768Y-111936500D01*
X135266769Y-111936499D01*
X135431082Y-111903816D01*
X135585863Y-111839703D01*
X135725162Y-111746626D01*
X135843626Y-111628162D01*
X135936703Y-111488863D01*
X136000816Y-111334082D01*
X136030337Y-111185668D01*
X136033500Y-111169769D01*
X136332500Y-111169769D01*
X136365182Y-111334074D01*
X136365184Y-111334082D01*
X136429295Y-111488860D01*
X136522373Y-111628162D01*
X136640837Y-111746626D01*
X136733494Y-111808537D01*
X136780137Y-111839703D01*
X136934918Y-111903816D01*
X137099228Y-111936499D01*
X137099232Y-111936500D01*
X137099233Y-111936500D01*
X137266768Y-111936500D01*
X137266769Y-111936499D01*
X137431082Y-111903816D01*
X137585863Y-111839703D01*
X137725162Y-111746626D01*
X137843626Y-111628162D01*
X137936703Y-111488863D01*
X138000816Y-111334082D01*
X138030337Y-111185668D01*
X138033500Y-111169769D01*
X138332500Y-111169769D01*
X138365182Y-111334074D01*
X138365184Y-111334082D01*
X138429295Y-111488860D01*
X138522373Y-111628162D01*
X138640837Y-111746626D01*
X138733494Y-111808537D01*
X138780137Y-111839703D01*
X138934918Y-111903816D01*
X139099228Y-111936499D01*
X139099232Y-111936500D01*
X139099233Y-111936500D01*
X139266768Y-111936500D01*
X139266769Y-111936499D01*
X139431082Y-111903816D01*
X139585863Y-111839703D01*
X139725162Y-111746626D01*
X139843626Y-111628162D01*
X139936703Y-111488863D01*
X140000816Y-111334082D01*
X140030337Y-111185668D01*
X140033500Y-111169769D01*
X140332500Y-111169769D01*
X140365182Y-111334074D01*
X140365184Y-111334082D01*
X140429295Y-111488860D01*
X140522373Y-111628162D01*
X140640837Y-111746626D01*
X140733494Y-111808537D01*
X140780137Y-111839703D01*
X140934918Y-111903816D01*
X141099228Y-111936499D01*
X141099232Y-111936500D01*
X141099233Y-111936500D01*
X141266768Y-111936500D01*
X141266769Y-111936499D01*
X141431082Y-111903816D01*
X141585863Y-111839703D01*
X141725162Y-111746626D01*
X141843626Y-111628162D01*
X141936703Y-111488863D01*
X142000816Y-111334082D01*
X142030337Y-111185668D01*
X142033500Y-111169769D01*
X142033500Y-110452232D01*
X142033499Y-110452228D01*
X142000817Y-110287925D01*
X142000816Y-110287918D01*
X141936703Y-110133137D01*
X141905537Y-110086494D01*
X141843626Y-109993837D01*
X141725162Y-109875373D01*
X141585860Y-109782295D01*
X141431082Y-109718184D01*
X141431074Y-109718182D01*
X141266771Y-109685500D01*
X141266767Y-109685500D01*
X141099233Y-109685500D01*
X141099228Y-109685500D01*
X140934925Y-109718182D01*
X140934917Y-109718184D01*
X140780139Y-109782295D01*
X140640837Y-109875373D01*
X140522373Y-109993837D01*
X140429295Y-110133139D01*
X140365184Y-110287917D01*
X140365182Y-110287925D01*
X140332500Y-110452228D01*
X140332500Y-111169769D01*
X140033500Y-111169769D01*
X140033500Y-110452232D01*
X140033499Y-110452228D01*
X140000817Y-110287925D01*
X140000816Y-110287918D01*
X139936703Y-110133137D01*
X139905537Y-110086494D01*
X139843626Y-109993837D01*
X139725162Y-109875373D01*
X139585860Y-109782295D01*
X139431082Y-109718184D01*
X139431074Y-109718182D01*
X139266771Y-109685500D01*
X139266767Y-109685500D01*
X139099233Y-109685500D01*
X139099228Y-109685500D01*
X138934925Y-109718182D01*
X138934917Y-109718184D01*
X138780139Y-109782295D01*
X138640837Y-109875373D01*
X138522373Y-109993837D01*
X138429295Y-110133139D01*
X138365184Y-110287917D01*
X138365182Y-110287925D01*
X138332500Y-110452228D01*
X138332500Y-111169769D01*
X138033500Y-111169769D01*
X138033500Y-110452232D01*
X138033499Y-110452228D01*
X138000817Y-110287925D01*
X138000816Y-110287918D01*
X137936703Y-110133137D01*
X137905537Y-110086494D01*
X137843626Y-109993837D01*
X137725162Y-109875373D01*
X137585860Y-109782295D01*
X137431082Y-109718184D01*
X137431074Y-109718182D01*
X137266771Y-109685500D01*
X137266767Y-109685500D01*
X137099233Y-109685500D01*
X137099228Y-109685500D01*
X136934925Y-109718182D01*
X136934917Y-109718184D01*
X136780139Y-109782295D01*
X136640837Y-109875373D01*
X136522373Y-109993837D01*
X136429295Y-110133139D01*
X136365184Y-110287917D01*
X136365182Y-110287925D01*
X136332500Y-110452228D01*
X136332500Y-111169769D01*
X136033500Y-111169769D01*
X136033500Y-110452232D01*
X136033499Y-110452228D01*
X136000817Y-110287925D01*
X136000816Y-110287918D01*
X135936703Y-110133137D01*
X135905537Y-110086494D01*
X135843626Y-109993837D01*
X135725162Y-109875373D01*
X135585860Y-109782295D01*
X135431082Y-109718184D01*
X135431074Y-109718182D01*
X135266771Y-109685500D01*
X135266767Y-109685500D01*
X135099233Y-109685500D01*
X135099228Y-109685500D01*
X134934925Y-109718182D01*
X134934917Y-109718184D01*
X134780139Y-109782295D01*
X134640837Y-109875373D01*
X134522373Y-109993837D01*
X134429295Y-110133139D01*
X134365184Y-110287917D01*
X134365182Y-110287925D01*
X134332500Y-110452228D01*
X134332500Y-111169769D01*
X131270500Y-111169769D01*
X131270500Y-106023607D01*
X131290185Y-105956568D01*
X131342989Y-105910813D01*
X131412147Y-105900869D01*
X131437833Y-105907425D01*
X131482517Y-105924091D01*
X131482516Y-105924091D01*
X131489444Y-105924835D01*
X131542127Y-105930500D01*
X132537872Y-105930499D01*
X132597483Y-105924091D01*
X132732331Y-105873796D01*
X132847546Y-105787546D01*
X132933796Y-105672331D01*
X132984091Y-105537483D01*
X132984091Y-105537481D01*
X132985874Y-105529938D01*
X132988146Y-105530474D01*
X133010429Y-105476688D01*
X133067823Y-105436843D01*
X133106976Y-105430500D01*
X133485336Y-105430500D01*
X133552375Y-105450185D01*
X133598130Y-105502989D01*
X133608626Y-105541246D01*
X133610909Y-105562483D01*
X133661202Y-105697328D01*
X133661206Y-105697335D01*
X133747452Y-105812544D01*
X133747455Y-105812547D01*
X133862664Y-105898793D01*
X133862671Y-105898797D01*
X133997517Y-105949091D01*
X133997516Y-105949091D01*
X134004444Y-105949835D01*
X134057127Y-105955500D01*
X135102872Y-105955499D01*
X135162483Y-105949091D01*
X135297331Y-105898796D01*
X135412546Y-105812546D01*
X135498796Y-105697331D01*
X135549091Y-105562483D01*
X135551375Y-105541243D01*
X135578114Y-105476692D01*
X135635507Y-105436845D01*
X135674664Y-105430500D01*
X136053023Y-105430500D01*
X136120062Y-105450185D01*
X136165817Y-105502989D01*
X136173266Y-105530134D01*
X136174124Y-105529932D01*
X136175907Y-105537479D01*
X136226202Y-105672328D01*
X136226206Y-105672335D01*
X136312452Y-105787544D01*
X136312455Y-105787547D01*
X136427664Y-105873793D01*
X136427671Y-105873797D01*
X136562517Y-105924091D01*
X136562516Y-105924091D01*
X136569444Y-105924835D01*
X136622127Y-105930500D01*
X137617872Y-105930499D01*
X137677483Y-105924091D01*
X137812331Y-105873796D01*
X137927546Y-105787546D01*
X138013796Y-105672331D01*
X138064091Y-105537483D01*
X138067812Y-105502870D01*
X138684500Y-105502870D01*
X138684501Y-105502876D01*
X138690908Y-105562483D01*
X138741202Y-105697328D01*
X138741206Y-105697335D01*
X138827452Y-105812544D01*
X138827455Y-105812547D01*
X138942664Y-105898793D01*
X138942671Y-105898797D01*
X139077517Y-105949091D01*
X139077516Y-105949091D01*
X139084444Y-105949835D01*
X139137127Y-105955500D01*
X139820500Y-105955499D01*
X139887539Y-105975183D01*
X139933294Y-106027987D01*
X139944500Y-106079499D01*
X139944500Y-106133908D01*
X139924815Y-106200947D01*
X139906913Y-106220412D01*
X139908129Y-106221628D01*
X139902384Y-106227372D01*
X139814137Y-106342377D01*
X139758671Y-106476287D01*
X139758670Y-106476291D01*
X139739750Y-106619999D01*
X139739750Y-106620000D01*
X139758670Y-106763708D01*
X139758671Y-106763712D01*
X139814137Y-106897622D01*
X139814138Y-106897624D01*
X139814139Y-106897625D01*
X139902379Y-107012621D01*
X140017375Y-107100861D01*
X140151291Y-107156330D01*
X140295000Y-107175250D01*
X140303129Y-107175250D01*
X140303129Y-107178828D01*
X140355970Y-107187031D01*
X140390878Y-107211560D01*
X141752288Y-108572970D01*
X141752289Y-108572971D01*
X141752291Y-108572972D01*
X141792250Y-108596042D01*
X141832212Y-108619114D01*
X141921356Y-108643000D01*
X153770469Y-108643000D01*
X153837508Y-108662685D01*
X153883263Y-108715489D01*
X153889591Y-108733951D01*
X153941202Y-108872328D01*
X153941206Y-108872335D01*
X154027452Y-108987544D01*
X154027455Y-108987547D01*
X154142664Y-109073793D01*
X154142671Y-109073797D01*
X154277517Y-109124091D01*
X154277516Y-109124091D01*
X154284444Y-109124835D01*
X154337127Y-109130500D01*
X155382872Y-109130499D01*
X155442483Y-109124091D01*
X155557863Y-109081056D01*
X155627553Y-109076073D01*
X155688876Y-109109558D01*
X156218181Y-109638863D01*
X156251666Y-109700186D01*
X156254500Y-109726544D01*
X156254500Y-110586517D01*
X156262109Y-110634557D01*
X156269354Y-110680304D01*
X156326950Y-110793342D01*
X156416658Y-110883050D01*
X156416660Y-110883051D01*
X156418181Y-110884572D01*
X156451666Y-110945895D01*
X156454500Y-110972254D01*
X156454500Y-111111145D01*
X156470207Y-111169766D01*
X156478384Y-111200283D01*
X156478387Y-111200290D01*
X156524527Y-111280208D01*
X156524529Y-111280211D01*
X156524530Y-111280212D01*
X157224788Y-111980470D01*
X157304712Y-112026614D01*
X157393856Y-112050500D01*
X157393857Y-112050500D01*
X157486144Y-112050500D01*
X162668908Y-112050500D01*
X162735947Y-112070185D01*
X162755412Y-112088086D01*
X162756628Y-112086871D01*
X162762372Y-112092615D01*
X162762377Y-112092619D01*
X162762379Y-112092621D01*
X162877375Y-112180861D01*
X163011291Y-112236330D01*
X163138280Y-112253048D01*
X163154999Y-112255250D01*
X163155000Y-112255250D01*
X163155001Y-112255250D01*
X163169977Y-112253278D01*
X163298709Y-112236330D01*
X163432625Y-112180861D01*
X163547621Y-112092621D01*
X163547623Y-112092617D01*
X163547627Y-112092615D01*
X163553372Y-112086871D01*
X163555888Y-112089387D01*
X163599183Y-112057797D01*
X163641092Y-112050500D01*
X163836142Y-112050500D01*
X163836144Y-112050500D01*
X163925288Y-112026614D01*
X164005212Y-111980470D01*
X164705470Y-111280212D01*
X164751614Y-111200288D01*
X164775500Y-111111143D01*
X164775500Y-111018856D01*
X164775500Y-110972254D01*
X164795185Y-110905215D01*
X164811819Y-110884572D01*
X164813339Y-110883051D01*
X164813342Y-110883050D01*
X164903050Y-110793342D01*
X164949516Y-110702145D01*
X164997490Y-110651352D01*
X165065311Y-110634557D01*
X165131445Y-110657094D01*
X165170482Y-110702145D01*
X165216950Y-110793342D01*
X165216951Y-110793343D01*
X165216954Y-110793347D01*
X165306652Y-110883045D01*
X165306654Y-110883046D01*
X165306658Y-110883050D01*
X165419694Y-110940645D01*
X165419698Y-110940647D01*
X165513475Y-110955499D01*
X165513481Y-110955500D01*
X165876518Y-110955499D01*
X165970304Y-110940646D01*
X166083342Y-110883050D01*
X166173050Y-110793342D01*
X166230646Y-110680304D01*
X166230646Y-110680302D01*
X166230647Y-110680301D01*
X166245499Y-110586524D01*
X166245500Y-110586519D01*
X166245499Y-108873482D01*
X166230646Y-108779696D01*
X166173050Y-108666658D01*
X166173046Y-108666654D01*
X166173045Y-108666652D01*
X166083347Y-108576954D01*
X166083344Y-108576952D01*
X166083342Y-108576950D01*
X166006517Y-108537805D01*
X165970301Y-108519352D01*
X165876524Y-108504500D01*
X165513482Y-108504500D01*
X165432519Y-108517323D01*
X165419696Y-108519354D01*
X165306658Y-108576950D01*
X165306657Y-108576951D01*
X165306652Y-108576954D01*
X165216954Y-108666652D01*
X165216949Y-108666659D01*
X165170483Y-108757852D01*
X165122508Y-108808648D01*
X165054687Y-108825442D01*
X164988552Y-108802904D01*
X164949516Y-108757852D01*
X164903050Y-108666658D01*
X164903047Y-108666655D01*
X164903045Y-108666652D01*
X164813347Y-108576954D01*
X164813344Y-108576952D01*
X164813342Y-108576950D01*
X164736517Y-108537805D01*
X164700301Y-108519352D01*
X164606524Y-108504500D01*
X164243482Y-108504500D01*
X164162519Y-108517323D01*
X164149696Y-108519354D01*
X164036658Y-108576950D01*
X164036657Y-108576951D01*
X164036652Y-108576954D01*
X163946954Y-108666652D01*
X163946949Y-108666659D01*
X163900483Y-108757852D01*
X163852508Y-108808648D01*
X163784687Y-108825442D01*
X163718552Y-108802904D01*
X163679516Y-108757852D01*
X163633050Y-108666658D01*
X163633047Y-108666655D01*
X163633045Y-108666652D01*
X163541819Y-108575426D01*
X163508334Y-108514103D01*
X163505500Y-108487745D01*
X163505500Y-108478858D01*
X163505500Y-108478856D01*
X163481614Y-108389712D01*
X163478163Y-108383735D01*
X163470730Y-108370860D01*
X163470728Y-108370858D01*
X163467684Y-108365585D01*
X163435470Y-108309788D01*
X163111560Y-107985878D01*
X163078075Y-107924555D01*
X163076983Y-107898129D01*
X163075250Y-107898129D01*
X163075250Y-107890000D01*
X163069657Y-107847517D01*
X163056330Y-107746291D01*
X163000861Y-107612375D01*
X162912621Y-107497379D01*
X162797625Y-107409139D01*
X162797624Y-107409138D01*
X162797622Y-107409137D01*
X162663712Y-107353671D01*
X162663710Y-107353670D01*
X162663709Y-107353670D01*
X162591854Y-107344210D01*
X162520001Y-107334750D01*
X162519999Y-107334750D01*
X162376291Y-107353670D01*
X162376287Y-107353671D01*
X162242377Y-107409137D01*
X162127372Y-107497384D01*
X162121628Y-107503129D01*
X162120415Y-107501916D01*
X162071900Y-107537336D01*
X162002153Y-107541485D01*
X161942280Y-107508324D01*
X160651136Y-106217180D01*
X160617651Y-106155857D01*
X160622635Y-106086165D01*
X160664507Y-106030232D01*
X160729971Y-106005815D01*
X160738817Y-106005499D01*
X160796517Y-106005499D01*
X160796518Y-106005499D01*
X160890304Y-105990646D01*
X161003342Y-105933050D01*
X161093050Y-105843342D01*
X161139516Y-105752145D01*
X161187490Y-105701352D01*
X161255311Y-105684557D01*
X161321445Y-105707094D01*
X161360482Y-105752145D01*
X161406950Y-105843342D01*
X161406951Y-105843343D01*
X161406954Y-105843347D01*
X161496652Y-105933045D01*
X161496654Y-105933046D01*
X161496658Y-105933050D01*
X161609694Y-105990645D01*
X161609698Y-105990647D01*
X161703475Y-106005499D01*
X161703481Y-106005500D01*
X162066518Y-106005499D01*
X162160304Y-105990646D01*
X162273342Y-105933050D01*
X162363050Y-105843342D01*
X162409516Y-105752145D01*
X162457490Y-105701352D01*
X162525311Y-105684557D01*
X162591445Y-105707094D01*
X162630482Y-105752145D01*
X162676950Y-105843342D01*
X162676951Y-105843343D01*
X162676954Y-105843347D01*
X162766652Y-105933045D01*
X162766654Y-105933046D01*
X162766658Y-105933050D01*
X162879694Y-105990645D01*
X162879698Y-105990647D01*
X162973475Y-106005499D01*
X162973481Y-106005500D01*
X163336518Y-106005499D01*
X163430304Y-105990646D01*
X163543342Y-105933050D01*
X163633050Y-105843342D01*
X163679516Y-105752145D01*
X163727490Y-105701352D01*
X163795311Y-105684557D01*
X163861445Y-105707094D01*
X163900482Y-105752145D01*
X163946950Y-105843342D01*
X163946951Y-105843343D01*
X163946954Y-105843347D01*
X164036652Y-105933045D01*
X164036654Y-105933046D01*
X164036658Y-105933050D01*
X164149694Y-105990645D01*
X164149698Y-105990647D01*
X164243475Y-106005499D01*
X164243481Y-106005500D01*
X164606518Y-106005499D01*
X164700304Y-105990646D01*
X164813342Y-105933050D01*
X164903050Y-105843342D01*
X164960646Y-105730304D01*
X164960646Y-105730302D01*
X164960647Y-105730301D01*
X164975499Y-105636524D01*
X164975500Y-105636519D01*
X164975499Y-103923482D01*
X164960646Y-103829696D01*
X164903050Y-103716658D01*
X164903046Y-103716654D01*
X164903045Y-103716652D01*
X164811819Y-103625426D01*
X164778334Y-103564103D01*
X164775500Y-103537745D01*
X164775500Y-102371543D01*
X164795185Y-102304504D01*
X164811815Y-102283866D01*
X165144489Y-101951191D01*
X165205810Y-101917708D01*
X165275501Y-101922692D01*
X165276962Y-101923248D01*
X165371279Y-101959786D01*
X165392544Y-101968024D01*
X165593024Y-102005500D01*
X165593026Y-102005500D01*
X165796974Y-102005500D01*
X165796976Y-102005500D01*
X165997456Y-101968024D01*
X166187637Y-101894348D01*
X166361041Y-101786981D01*
X166511764Y-101649579D01*
X166634673Y-101486821D01*
X166725582Y-101304250D01*
X166781397Y-101108083D01*
X166800215Y-100905000D01*
X167129785Y-100905000D01*
X167148602Y-101108082D01*
X167204417Y-101304247D01*
X167204422Y-101304260D01*
X167295327Y-101486821D01*
X167418237Y-101649581D01*
X167568958Y-101786980D01*
X167568960Y-101786982D01*
X167597762Y-101804815D01*
X167742363Y-101894348D01*
X167932544Y-101968024D01*
X168133024Y-102005500D01*
X168133026Y-102005500D01*
X168336974Y-102005500D01*
X168336976Y-102005500D01*
X168537456Y-101968024D01*
X168727637Y-101894348D01*
X168901041Y-101786981D01*
X169051764Y-101649579D01*
X169174673Y-101486821D01*
X169265582Y-101304250D01*
X169321397Y-101108083D01*
X169340215Y-100905000D01*
X169321397Y-100701917D01*
X169265582Y-100505750D01*
X169174673Y-100323179D01*
X169051764Y-100160421D01*
X169051762Y-100160418D01*
X168901041Y-100023019D01*
X168901039Y-100023017D01*
X168727642Y-99915655D01*
X168727635Y-99915651D01*
X168632546Y-99878814D01*
X168537456Y-99841976D01*
X168336976Y-99804500D01*
X168133024Y-99804500D01*
X167932544Y-99841976D01*
X167932541Y-99841976D01*
X167932541Y-99841977D01*
X167742364Y-99915651D01*
X167742357Y-99915655D01*
X167568960Y-100023017D01*
X167568958Y-100023019D01*
X167418237Y-100160418D01*
X167295327Y-100323178D01*
X167204422Y-100505739D01*
X167204417Y-100505752D01*
X167148602Y-100701917D01*
X167129785Y-100904999D01*
X167129785Y-100905000D01*
X166800215Y-100905000D01*
X166781397Y-100701917D01*
X166725582Y-100505750D01*
X166634673Y-100323179D01*
X166511764Y-100160421D01*
X166511762Y-100160418D01*
X166361041Y-100023019D01*
X166361039Y-100023017D01*
X166187642Y-99915655D01*
X166187635Y-99915651D01*
X166092546Y-99878814D01*
X165997456Y-99841976D01*
X165796976Y-99804500D01*
X165593024Y-99804500D01*
X165392544Y-99841976D01*
X165392541Y-99841976D01*
X165392541Y-99841977D01*
X165202364Y-99915651D01*
X165202357Y-99915655D01*
X165028960Y-100023017D01*
X165028958Y-100023019D01*
X164878237Y-100160418D01*
X164755327Y-100323178D01*
X164664422Y-100505739D01*
X164664417Y-100505752D01*
X164608602Y-100701917D01*
X164589785Y-100904999D01*
X164589785Y-100905000D01*
X164608602Y-101108082D01*
X164664418Y-101304253D01*
X164669741Y-101314941D01*
X164682002Y-101383726D01*
X164655129Y-101448221D01*
X164646422Y-101457894D01*
X164144531Y-101959786D01*
X164144527Y-101959791D01*
X164098387Y-102039709D01*
X164098386Y-102039712D01*
X164074500Y-102128856D01*
X164074500Y-103537745D01*
X164054815Y-103604784D01*
X164038181Y-103625426D01*
X163946954Y-103716652D01*
X163946949Y-103716659D01*
X163900483Y-103807852D01*
X163852508Y-103858648D01*
X163784687Y-103875442D01*
X163718552Y-103852904D01*
X163679516Y-103807852D01*
X163633050Y-103716658D01*
X163633047Y-103716655D01*
X163633045Y-103716652D01*
X163541819Y-103625426D01*
X163508334Y-103564103D01*
X163505500Y-103537745D01*
X163505500Y-102034353D01*
X163525185Y-101967314D01*
X163577989Y-101921559D01*
X163584699Y-101918729D01*
X163647637Y-101894348D01*
X163821041Y-101786981D01*
X163971764Y-101649579D01*
X164094673Y-101486821D01*
X164185582Y-101304250D01*
X164241397Y-101108083D01*
X164260215Y-100905000D01*
X164241397Y-100701917D01*
X164185582Y-100505750D01*
X164094673Y-100323179D01*
X163971764Y-100160421D01*
X163971762Y-100160418D01*
X163821041Y-100023019D01*
X163821039Y-100023017D01*
X163647642Y-99915655D01*
X163647635Y-99915651D01*
X163552546Y-99878814D01*
X163457456Y-99841976D01*
X163256976Y-99804500D01*
X163053024Y-99804500D01*
X162852544Y-99841976D01*
X162852541Y-99841976D01*
X162852541Y-99841977D01*
X162662364Y-99915651D01*
X162662357Y-99915655D01*
X162488960Y-100023017D01*
X162488958Y-100023019D01*
X162338237Y-100160418D01*
X162215327Y-100323178D01*
X162124422Y-100505739D01*
X162124417Y-100505752D01*
X162068602Y-100701917D01*
X162049785Y-100904999D01*
X162049785Y-100905000D01*
X162068602Y-101108082D01*
X162124417Y-101304247D01*
X162124422Y-101304260D01*
X162215327Y-101486821D01*
X162338237Y-101649581D01*
X162488958Y-101786980D01*
X162488960Y-101786982D01*
X162517762Y-101804815D01*
X162662363Y-101894348D01*
X162662368Y-101894349D01*
X162662370Y-101894351D01*
X162662835Y-101894531D01*
X162725292Y-101918726D01*
X162780694Y-101961298D01*
X162804286Y-102027064D01*
X162804500Y-102034353D01*
X162804500Y-103537745D01*
X162784815Y-103604784D01*
X162768181Y-103625426D01*
X162676954Y-103716652D01*
X162676949Y-103716659D01*
X162630483Y-103807852D01*
X162582508Y-103858648D01*
X162514687Y-103875442D01*
X162448552Y-103852904D01*
X162409516Y-103807852D01*
X162363050Y-103716658D01*
X162363047Y-103716655D01*
X162363045Y-103716652D01*
X162271819Y-103625426D01*
X162238334Y-103564103D01*
X162235500Y-103537745D01*
X162235500Y-102128858D01*
X162235500Y-102128856D01*
X162211614Y-102039712D01*
X162170224Y-101968022D01*
X162165472Y-101959791D01*
X162165468Y-101959786D01*
X161663576Y-101457894D01*
X161630091Y-101396571D01*
X161635075Y-101326879D01*
X161640258Y-101314941D01*
X161645582Y-101304250D01*
X161701397Y-101108083D01*
X161720215Y-100905000D01*
X161701397Y-100701917D01*
X161645582Y-100505750D01*
X161554673Y-100323179D01*
X161431764Y-100160421D01*
X161431762Y-100160418D01*
X161281041Y-100023019D01*
X161281039Y-100023017D01*
X161107642Y-99915655D01*
X161107635Y-99915651D01*
X161012546Y-99878814D01*
X160917456Y-99841976D01*
X160716976Y-99804500D01*
X160513024Y-99804500D01*
X160312544Y-99841976D01*
X160312541Y-99841976D01*
X160312541Y-99841977D01*
X160122364Y-99915651D01*
X160122357Y-99915655D01*
X159948960Y-100023017D01*
X159948958Y-100023019D01*
X159798237Y-100160418D01*
X159675327Y-100323178D01*
X159584422Y-100505739D01*
X159584417Y-100505752D01*
X159528602Y-100701917D01*
X159509785Y-100904999D01*
X159509785Y-100905000D01*
X159528602Y-101108082D01*
X159584417Y-101304247D01*
X159584422Y-101304260D01*
X159675327Y-101486821D01*
X159798237Y-101649581D01*
X159948958Y-101786980D01*
X159948960Y-101786982D01*
X159977762Y-101804815D01*
X160122363Y-101894348D01*
X160312544Y-101968024D01*
X160513024Y-102005500D01*
X160513026Y-102005500D01*
X160716974Y-102005500D01*
X160716976Y-102005500D01*
X160917456Y-101968024D01*
X161033037Y-101923247D01*
X161102658Y-101917385D01*
X161164399Y-101950094D01*
X161165511Y-101951193D01*
X161498181Y-102283863D01*
X161531666Y-102345186D01*
X161534500Y-102371544D01*
X161534500Y-103537745D01*
X161514815Y-103604784D01*
X161498181Y-103625426D01*
X161406954Y-103716652D01*
X161406949Y-103716659D01*
X161360483Y-103807852D01*
X161312508Y-103858648D01*
X161244687Y-103875442D01*
X161178552Y-103852904D01*
X161139516Y-103807852D01*
X161093050Y-103716658D01*
X161093047Y-103716655D01*
X161093045Y-103716652D01*
X161001819Y-103625426D01*
X160968334Y-103564103D01*
X160965500Y-103537745D01*
X160965500Y-103398858D01*
X160965500Y-103398856D01*
X160941614Y-103309712D01*
X160933242Y-103295212D01*
X160895469Y-103229787D01*
X159123576Y-101457894D01*
X159090091Y-101396571D01*
X159095075Y-101326879D01*
X159100258Y-101314941D01*
X159105582Y-101304250D01*
X159161397Y-101108083D01*
X159180215Y-100905000D01*
X159161397Y-100701917D01*
X159105582Y-100505750D01*
X159014673Y-100323179D01*
X158891764Y-100160421D01*
X158891762Y-100160418D01*
X158741041Y-100023019D01*
X158741039Y-100023017D01*
X158567642Y-99915655D01*
X158567635Y-99915651D01*
X158472546Y-99878814D01*
X158377456Y-99841976D01*
X158176976Y-99804500D01*
X157973024Y-99804500D01*
X157772544Y-99841976D01*
X157772541Y-99841976D01*
X157772541Y-99841977D01*
X157582364Y-99915651D01*
X157582357Y-99915655D01*
X157408960Y-100023017D01*
X157408958Y-100023019D01*
X157258237Y-100160418D01*
X157135327Y-100323178D01*
X157044422Y-100505739D01*
X157044417Y-100505752D01*
X156988602Y-100701917D01*
X156969785Y-100904999D01*
X156969785Y-100905000D01*
X156988602Y-101108082D01*
X157044417Y-101304247D01*
X157044422Y-101304260D01*
X157135327Y-101486821D01*
X157258237Y-101649581D01*
X157408958Y-101786980D01*
X157408960Y-101786982D01*
X157437762Y-101804815D01*
X157582363Y-101894348D01*
X157772544Y-101968024D01*
X157973024Y-102005500D01*
X157973026Y-102005500D01*
X158176974Y-102005500D01*
X158176976Y-102005500D01*
X158377456Y-101968024D01*
X158493037Y-101923247D01*
X158562658Y-101917385D01*
X158624399Y-101950094D01*
X158625511Y-101951193D01*
X160176281Y-103501963D01*
X160209766Y-103563286D01*
X160204782Y-103632978D01*
X160176282Y-103677324D01*
X160136954Y-103716652D01*
X160136949Y-103716659D01*
X160090483Y-103807852D01*
X160042508Y-103858648D01*
X159974687Y-103875442D01*
X159908552Y-103852904D01*
X159869516Y-103807852D01*
X159823050Y-103716658D01*
X159823047Y-103716655D01*
X159823045Y-103716652D01*
X159733347Y-103626954D01*
X159733344Y-103626952D01*
X159733342Y-103626950D01*
X159656517Y-103587805D01*
X159620301Y-103569352D01*
X159526524Y-103554500D01*
X159163482Y-103554500D01*
X159087843Y-103566480D01*
X159069696Y-103569354D01*
X158956658Y-103626950D01*
X158956657Y-103626951D01*
X158956652Y-103626954D01*
X158866954Y-103716652D01*
X158866949Y-103716659D01*
X158820483Y-103807852D01*
X158772508Y-103858648D01*
X158704687Y-103875442D01*
X158638552Y-103852904D01*
X158599516Y-103807852D01*
X158553050Y-103716658D01*
X158553047Y-103716655D01*
X158553045Y-103716652D01*
X158463347Y-103626954D01*
X158463344Y-103626952D01*
X158463342Y-103626950D01*
X158350304Y-103569354D01*
X158350302Y-103569353D01*
X158341609Y-103564924D01*
X158342593Y-103562991D01*
X158306635Y-103540954D01*
X156660212Y-101894531D01*
X156660207Y-101894527D01*
X156580289Y-101848387D01*
X156580288Y-101848386D01*
X156580287Y-101848386D01*
X156491143Y-101824500D01*
X156491142Y-101824500D01*
X146841544Y-101824500D01*
X146774505Y-101804815D01*
X146753863Y-101788181D01*
X146423576Y-101457894D01*
X146390091Y-101396571D01*
X146395075Y-101326879D01*
X146400258Y-101314941D01*
X146405582Y-101304250D01*
X146461397Y-101108083D01*
X146480215Y-100905000D01*
X146461397Y-100701917D01*
X146405582Y-100505750D01*
X146314673Y-100323179D01*
X146191764Y-100160421D01*
X146191762Y-100160418D01*
X146041041Y-100023019D01*
X146041039Y-100023017D01*
X145867642Y-99915655D01*
X145867635Y-99915651D01*
X145772546Y-99878814D01*
X145677456Y-99841976D01*
X145476976Y-99804500D01*
X145273024Y-99804500D01*
X145072544Y-99841976D01*
X145072541Y-99841976D01*
X145072541Y-99841977D01*
X144882364Y-99915651D01*
X144882357Y-99915655D01*
X144708960Y-100023017D01*
X144708958Y-100023019D01*
X144558237Y-100160418D01*
X144435327Y-100323178D01*
X144344422Y-100505739D01*
X144344417Y-100505752D01*
X144288602Y-100701917D01*
X144269785Y-100904999D01*
X144269785Y-100905000D01*
X144288602Y-101108082D01*
X144344417Y-101304247D01*
X144344422Y-101304260D01*
X144435327Y-101486821D01*
X144558237Y-101649581D01*
X144708958Y-101786980D01*
X144708960Y-101786982D01*
X144737762Y-101804815D01*
X144882363Y-101894348D01*
X145072544Y-101968024D01*
X145273024Y-102005500D01*
X145273026Y-102005500D01*
X145476974Y-102005500D01*
X145476976Y-102005500D01*
X145677456Y-101968024D01*
X145793037Y-101923247D01*
X145862658Y-101917385D01*
X145924399Y-101950094D01*
X145925511Y-101951193D01*
X146429788Y-102455470D01*
X146509712Y-102501614D01*
X146598856Y-102525500D01*
X156248455Y-102525500D01*
X156315494Y-102545185D01*
X156336136Y-102561819D01*
X157123379Y-103349062D01*
X157156864Y-103410385D01*
X157151880Y-103480077D01*
X157110008Y-103536010D01*
X157044544Y-103560427D01*
X157016300Y-103559216D01*
X156986524Y-103554500D01*
X156623482Y-103554500D01*
X156547843Y-103566480D01*
X156529696Y-103569354D01*
X156416658Y-103626950D01*
X156416657Y-103626951D01*
X156416652Y-103626954D01*
X156326954Y-103716652D01*
X156326951Y-103716657D01*
X156326950Y-103716658D01*
X156307751Y-103754337D01*
X156269352Y-103829698D01*
X156254500Y-103923475D01*
X156254500Y-104305500D01*
X156234815Y-104372539D01*
X156182011Y-104418294D01*
X156130500Y-104429500D01*
X144366544Y-104429500D01*
X144299505Y-104409815D01*
X144278863Y-104393181D01*
X141343576Y-101457894D01*
X141310091Y-101396571D01*
X141315075Y-101326879D01*
X141320258Y-101314941D01*
X141325582Y-101304250D01*
X141381397Y-101108083D01*
X141400215Y-100905000D01*
X141381397Y-100701917D01*
X141325582Y-100505750D01*
X141234673Y-100323179D01*
X141111764Y-100160421D01*
X141111762Y-100160418D01*
X140961041Y-100023019D01*
X140961039Y-100023017D01*
X140787642Y-99915655D01*
X140787635Y-99915651D01*
X140692546Y-99878814D01*
X140597456Y-99841976D01*
X140396976Y-99804500D01*
X140193024Y-99804500D01*
X139992544Y-99841976D01*
X139992541Y-99841976D01*
X139992541Y-99841977D01*
X139802364Y-99915651D01*
X139802357Y-99915655D01*
X139628960Y-100023017D01*
X139628958Y-100023019D01*
X139478237Y-100160418D01*
X139355327Y-100323178D01*
X139264422Y-100505739D01*
X139264417Y-100505752D01*
X139208602Y-100701917D01*
X139189785Y-100904999D01*
X139189785Y-100905000D01*
X139208602Y-101108082D01*
X139264417Y-101304247D01*
X139264422Y-101304260D01*
X139355327Y-101486821D01*
X139478237Y-101649581D01*
X139628958Y-101786980D01*
X139628960Y-101786982D01*
X139657762Y-101804815D01*
X139802363Y-101894348D01*
X139992544Y-101968024D01*
X140193024Y-102005500D01*
X140193026Y-102005500D01*
X140396974Y-102005500D01*
X140396976Y-102005500D01*
X140597456Y-101968024D01*
X140713037Y-101923247D01*
X140782658Y-101917385D01*
X140844399Y-101950094D01*
X140845511Y-101951193D01*
X143954788Y-105060470D01*
X144034712Y-105106614D01*
X144123856Y-105130500D01*
X144123857Y-105130500D01*
X144216144Y-105130500D01*
X156130501Y-105130500D01*
X156197540Y-105150185D01*
X156243295Y-105202989D01*
X156254501Y-105254500D01*
X156254501Y-105636518D01*
X156269354Y-105730304D01*
X156326950Y-105843342D01*
X156326952Y-105843344D01*
X156326954Y-105843347D01*
X156416652Y-105933045D01*
X156416654Y-105933046D01*
X156416658Y-105933050D01*
X156529694Y-105990645D01*
X156529698Y-105990647D01*
X156623475Y-106005499D01*
X156623481Y-106005500D01*
X156986518Y-106005499D01*
X157080304Y-105990646D01*
X157193342Y-105933050D01*
X157283050Y-105843342D01*
X157329516Y-105752145D01*
X157377490Y-105701352D01*
X157445311Y-105684557D01*
X157511445Y-105707094D01*
X157550482Y-105752145D01*
X157596950Y-105843342D01*
X157596951Y-105843343D01*
X157596954Y-105843347D01*
X157686652Y-105933045D01*
X157686654Y-105933046D01*
X157686658Y-105933050D01*
X157799694Y-105990645D01*
X157799698Y-105990647D01*
X157893475Y-106005499D01*
X157893481Y-106005500D01*
X158256518Y-106005499D01*
X158350304Y-105990646D01*
X158463342Y-105933050D01*
X158553050Y-105843342D01*
X158599516Y-105752145D01*
X158647490Y-105701352D01*
X158715311Y-105684557D01*
X158781445Y-105707094D01*
X158820482Y-105752145D01*
X158866950Y-105843342D01*
X158866951Y-105843343D01*
X158866954Y-105843347D01*
X158956652Y-105933045D01*
X158956654Y-105933046D01*
X158956658Y-105933050D01*
X159069694Y-105990645D01*
X159069698Y-105990647D01*
X159163475Y-106005499D01*
X159163481Y-106005500D01*
X159311109Y-106005499D01*
X159378148Y-106025183D01*
X159423903Y-106077987D01*
X159434048Y-106113313D01*
X159443524Y-106185286D01*
X159443525Y-106185291D01*
X159498991Y-106319201D01*
X159498992Y-106319203D01*
X159498993Y-106319204D01*
X159587233Y-106434200D01*
X159702229Y-106522440D01*
X159836145Y-106577909D01*
X159979854Y-106596829D01*
X159987983Y-106596829D01*
X159987983Y-106600663D01*
X160039200Y-106607860D01*
X160075732Y-106633138D01*
X161498181Y-108055587D01*
X161531666Y-108116910D01*
X161534500Y-108143268D01*
X161534500Y-108487745D01*
X161514815Y-108554784D01*
X161498181Y-108575426D01*
X161406954Y-108666652D01*
X161406951Y-108666657D01*
X161406950Y-108666658D01*
X161394865Y-108690377D01*
X161349352Y-108779698D01*
X161334500Y-108873475D01*
X161334500Y-110586517D01*
X161342109Y-110634557D01*
X161349354Y-110680304D01*
X161406950Y-110793342D01*
X161406952Y-110793344D01*
X161406954Y-110793347D01*
X161496652Y-110883045D01*
X161496654Y-110883046D01*
X161496658Y-110883050D01*
X161609694Y-110940645D01*
X161609698Y-110940647D01*
X161703475Y-110955499D01*
X161703481Y-110955500D01*
X162066518Y-110955499D01*
X162160304Y-110940646D01*
X162273342Y-110883050D01*
X162363050Y-110793342D01*
X162409516Y-110702145D01*
X162457490Y-110651352D01*
X162525311Y-110634557D01*
X162591445Y-110657094D01*
X162630482Y-110702145D01*
X162676950Y-110793342D01*
X162676951Y-110793343D01*
X162676954Y-110793347D01*
X162766652Y-110883045D01*
X162766654Y-110883046D01*
X162766658Y-110883050D01*
X162879694Y-110940645D01*
X162879698Y-110940647D01*
X162930127Y-110948634D01*
X162993261Y-110978563D01*
X163030193Y-111037874D01*
X163029195Y-111107737D01*
X162990586Y-111165970D01*
X162958181Y-111185668D01*
X162877378Y-111219137D01*
X162762372Y-111307384D01*
X162756628Y-111313129D01*
X162754111Y-111310612D01*
X162710817Y-111342203D01*
X162668908Y-111349500D01*
X157636544Y-111349500D01*
X157569505Y-111329815D01*
X157548863Y-111313181D01*
X157243718Y-111008036D01*
X157210233Y-110946713D01*
X157215217Y-110877021D01*
X157243719Y-110832673D01*
X157283046Y-110793346D01*
X157283050Y-110793342D01*
X157329516Y-110702145D01*
X157377490Y-110651352D01*
X157445311Y-110634557D01*
X157511445Y-110657094D01*
X157550482Y-110702145D01*
X157596950Y-110793342D01*
X157596951Y-110793343D01*
X157596954Y-110793347D01*
X157686652Y-110883045D01*
X157686654Y-110883046D01*
X157686658Y-110883050D01*
X157799694Y-110940645D01*
X157799698Y-110940647D01*
X157893475Y-110955499D01*
X157893481Y-110955500D01*
X158256518Y-110955499D01*
X158350304Y-110940646D01*
X158463342Y-110883050D01*
X158553050Y-110793342D01*
X158599516Y-110702145D01*
X158647490Y-110651352D01*
X158715311Y-110634557D01*
X158781445Y-110657094D01*
X158820482Y-110702145D01*
X158866950Y-110793342D01*
X158866951Y-110793343D01*
X158866954Y-110793347D01*
X158956652Y-110883045D01*
X158956654Y-110883046D01*
X158956658Y-110883050D01*
X159069694Y-110940645D01*
X159069698Y-110940647D01*
X159163475Y-110955499D01*
X159163481Y-110955500D01*
X159526518Y-110955499D01*
X159620304Y-110940646D01*
X159733342Y-110883050D01*
X159823050Y-110793342D01*
X159880646Y-110680304D01*
X159880646Y-110680302D01*
X159880647Y-110680301D01*
X159895499Y-110586524D01*
X159895500Y-110586519D01*
X159895499Y-108873482D01*
X159880646Y-108779696D01*
X159852599Y-108724651D01*
X159839704Y-108655986D01*
X159848521Y-108620915D01*
X159881330Y-108541709D01*
X159900250Y-108398000D01*
X159899158Y-108389709D01*
X159895982Y-108365585D01*
X159881330Y-108254291D01*
X159844350Y-108165013D01*
X159825862Y-108120377D01*
X159825861Y-108120376D01*
X159825861Y-108120375D01*
X159737621Y-108005379D01*
X159622625Y-107917139D01*
X159622624Y-107917138D01*
X159622622Y-107917137D01*
X159488712Y-107861671D01*
X159488710Y-107861670D01*
X159488709Y-107861670D01*
X159416854Y-107852210D01*
X159345001Y-107842750D01*
X159344999Y-107842750D01*
X159201291Y-107861670D01*
X159201287Y-107861671D01*
X159067377Y-107917137D01*
X158952379Y-108005379D01*
X158864137Y-108120377D01*
X158808671Y-108254287D01*
X158808670Y-108254291D01*
X158789750Y-108397999D01*
X158789750Y-108398000D01*
X158808669Y-108541706D01*
X158808669Y-108541708D01*
X158808670Y-108541709D01*
X158834738Y-108604645D01*
X158841475Y-108620908D01*
X158848943Y-108690377D01*
X158837398Y-108724653D01*
X158820484Y-108757849D01*
X158772510Y-108808646D01*
X158704689Y-108825441D01*
X158638554Y-108802904D01*
X158599516Y-108757852D01*
X158553050Y-108666658D01*
X158553046Y-108666654D01*
X158553045Y-108666652D01*
X158463347Y-108576954D01*
X158463344Y-108576952D01*
X158463342Y-108576950D01*
X158386517Y-108537805D01*
X158350301Y-108519352D01*
X158256524Y-108504500D01*
X157893482Y-108504500D01*
X157812519Y-108517323D01*
X157799696Y-108519354D01*
X157686658Y-108576950D01*
X157686657Y-108576951D01*
X157686652Y-108576954D01*
X157596954Y-108666652D01*
X157596949Y-108666659D01*
X157550483Y-108757852D01*
X157502508Y-108808648D01*
X157434687Y-108825442D01*
X157368552Y-108802904D01*
X157329516Y-108757852D01*
X157283050Y-108666658D01*
X157283047Y-108666655D01*
X157283045Y-108666652D01*
X157193347Y-108576954D01*
X157193344Y-108576952D01*
X157193342Y-108576950D01*
X157116517Y-108537805D01*
X157080301Y-108519352D01*
X156986524Y-108504500D01*
X156623482Y-108504500D01*
X156542519Y-108517323D01*
X156529696Y-108519354D01*
X156416658Y-108576950D01*
X156416657Y-108576951D01*
X156416652Y-108576954D01*
X156369824Y-108623782D01*
X156308501Y-108657266D01*
X156238809Y-108652281D01*
X156194463Y-108623781D01*
X155871818Y-108301136D01*
X155838333Y-108239813D01*
X155835499Y-108213455D01*
X155835499Y-107907129D01*
X155835498Y-107907123D01*
X155834531Y-107898129D01*
X155829091Y-107847517D01*
X155778796Y-107712669D01*
X155778795Y-107712668D01*
X155778793Y-107712664D01*
X155692547Y-107597455D01*
X155692544Y-107597452D01*
X155577335Y-107511206D01*
X155577328Y-107511202D01*
X155442482Y-107460908D01*
X155442483Y-107460908D01*
X155382883Y-107454501D01*
X155382881Y-107454500D01*
X155382873Y-107454500D01*
X155382864Y-107454500D01*
X154337129Y-107454500D01*
X154337123Y-107454501D01*
X154277516Y-107460908D01*
X154142671Y-107511202D01*
X154142664Y-107511206D01*
X154027455Y-107597452D01*
X154027452Y-107597455D01*
X153941206Y-107712664D01*
X153941202Y-107712671D01*
X153888198Y-107854785D01*
X153886744Y-107854242D01*
X153856576Y-107907228D01*
X153794666Y-107939616D01*
X153770469Y-107942000D01*
X142164044Y-107942000D01*
X142097005Y-107922315D01*
X142076363Y-107905681D01*
X140886560Y-106715878D01*
X140853075Y-106654555D01*
X140851983Y-106628129D01*
X140850250Y-106628129D01*
X140850250Y-106620000D01*
X140846287Y-106589898D01*
X140831330Y-106476291D01*
X140775861Y-106342375D01*
X140687621Y-106227379D01*
X140687619Y-106227377D01*
X140687615Y-106227372D01*
X140681871Y-106221628D01*
X140684387Y-106219111D01*
X140652797Y-106175817D01*
X140645500Y-106133908D01*
X140645500Y-105706358D01*
X140645500Y-105706356D01*
X140626464Y-105635312D01*
X140628014Y-105570198D01*
X140627307Y-105570031D01*
X140628098Y-105566683D01*
X140628127Y-105565467D01*
X140628941Y-105563112D01*
X140629088Y-105562490D01*
X140629091Y-105562483D01*
X140635500Y-105502873D01*
X140635499Y-104732128D01*
X140629091Y-104672517D01*
X140620257Y-104648833D01*
X140578797Y-104537671D01*
X140578793Y-104537664D01*
X140492547Y-104422455D01*
X140492544Y-104422452D01*
X140377335Y-104336206D01*
X140377328Y-104336202D01*
X140242482Y-104285908D01*
X140242483Y-104285908D01*
X140182883Y-104279501D01*
X140182881Y-104279500D01*
X140182873Y-104279500D01*
X140182864Y-104279500D01*
X139137129Y-104279500D01*
X139137123Y-104279501D01*
X139077516Y-104285908D01*
X138942671Y-104336202D01*
X138942664Y-104336206D01*
X138827455Y-104422452D01*
X138827452Y-104422455D01*
X138741206Y-104537664D01*
X138741202Y-104537671D01*
X138696692Y-104657011D01*
X138690909Y-104672517D01*
X138684500Y-104732127D01*
X138684500Y-104732134D01*
X138684500Y-104732135D01*
X138684500Y-105502870D01*
X138067812Y-105502870D01*
X138070500Y-105477873D01*
X138070499Y-104682128D01*
X138070499Y-104682127D01*
X138070499Y-104678807D01*
X138071620Y-104678807D01*
X138086634Y-104615292D01*
X138106703Y-104588978D01*
X138359479Y-104336202D01*
X138670470Y-104025212D01*
X138716614Y-103945288D01*
X138720577Y-103930500D01*
X138720578Y-103930498D01*
X138735771Y-103873793D01*
X138740500Y-103856144D01*
X138740500Y-101493856D01*
X138735391Y-101474789D01*
X138737052Y-101404941D01*
X138744157Y-101387440D01*
X138785582Y-101304250D01*
X138841397Y-101108083D01*
X138860215Y-100905000D01*
X138841397Y-100701917D01*
X138785582Y-100505750D01*
X138694673Y-100323179D01*
X138571764Y-100160421D01*
X138571762Y-100160418D01*
X138421041Y-100023019D01*
X138421039Y-100023017D01*
X138247642Y-99915655D01*
X138247635Y-99915651D01*
X138152546Y-99878814D01*
X138057456Y-99841976D01*
X137856976Y-99804500D01*
X137653024Y-99804500D01*
X137452544Y-99841976D01*
X137452541Y-99841976D01*
X137452541Y-99841977D01*
X137262364Y-99915651D01*
X137262357Y-99915655D01*
X137088960Y-100023017D01*
X137088958Y-100023019D01*
X136938237Y-100160418D01*
X136815327Y-100323178D01*
X136724422Y-100505739D01*
X136724417Y-100505752D01*
X136668602Y-100701917D01*
X136649785Y-100904999D01*
X136649785Y-100905000D01*
X136668602Y-101108082D01*
X136724417Y-101304247D01*
X136724422Y-101304260D01*
X136815327Y-101486821D01*
X136938237Y-101649581D01*
X137088958Y-101786980D01*
X137088960Y-101786982D01*
X137117762Y-101804815D01*
X137262363Y-101894348D01*
X137452544Y-101968024D01*
X137535931Y-101983611D01*
X137598211Y-102015279D01*
X137633484Y-102075592D01*
X137630550Y-102145400D01*
X137590341Y-102202540D01*
X137525623Y-102228871D01*
X137513145Y-102229500D01*
X137086544Y-102229500D01*
X137019505Y-102209815D01*
X136998863Y-102193181D01*
X136263576Y-101457894D01*
X136230091Y-101396571D01*
X136235075Y-101326879D01*
X136240258Y-101314941D01*
X136245582Y-101304250D01*
X136301397Y-101108083D01*
X136320215Y-100905000D01*
X136301397Y-100701917D01*
X136245582Y-100505750D01*
X136154673Y-100323179D01*
X136031764Y-100160421D01*
X136031762Y-100160418D01*
X135881041Y-100023019D01*
X135881039Y-100023017D01*
X135707642Y-99915655D01*
X135707635Y-99915651D01*
X135612546Y-99878814D01*
X135517456Y-99841976D01*
X135316976Y-99804500D01*
X135113024Y-99804500D01*
X134912544Y-99841976D01*
X134912541Y-99841976D01*
X134912541Y-99841977D01*
X134722364Y-99915651D01*
X134722357Y-99915655D01*
X134548960Y-100023017D01*
X134548958Y-100023019D01*
X134398237Y-100160418D01*
X134275327Y-100323178D01*
X134184422Y-100505739D01*
X134184417Y-100505752D01*
X134128602Y-100701917D01*
X134109785Y-100904999D01*
X134109785Y-100905000D01*
X134128602Y-101108082D01*
X134184417Y-101304247D01*
X134184422Y-101304260D01*
X134275327Y-101486821D01*
X134398237Y-101649581D01*
X134548958Y-101786980D01*
X134548960Y-101786982D01*
X134577762Y-101804815D01*
X134722363Y-101894348D01*
X134912544Y-101968024D01*
X135113024Y-102005500D01*
X135113026Y-102005500D01*
X135316974Y-102005500D01*
X135316976Y-102005500D01*
X135517456Y-101968024D01*
X135633037Y-101923247D01*
X135702658Y-101917385D01*
X135764399Y-101950094D01*
X135765511Y-101951193D01*
X136190441Y-102376123D01*
X136223926Y-102437446D01*
X136218942Y-102507136D01*
X136175909Y-102622514D01*
X136175908Y-102622516D01*
X136169501Y-102682116D01*
X136169500Y-102682135D01*
X136169500Y-103477870D01*
X136169501Y-103477876D01*
X136175908Y-103537483D01*
X136226202Y-103672328D01*
X136226206Y-103672335D01*
X136312452Y-103787544D01*
X136312455Y-103787547D01*
X136427664Y-103873793D01*
X136427671Y-103873797D01*
X136562517Y-103924091D01*
X136562516Y-103924091D01*
X136569444Y-103924835D01*
X136622127Y-103930500D01*
X137474455Y-103930499D01*
X137541494Y-103950183D01*
X137587249Y-104002987D01*
X137597193Y-104072146D01*
X137568168Y-104135702D01*
X137562136Y-104142180D01*
X137511135Y-104193181D01*
X137449812Y-104226666D01*
X137423454Y-104229500D01*
X136622129Y-104229500D01*
X136622123Y-104229501D01*
X136562516Y-104235908D01*
X136427671Y-104286202D01*
X136427664Y-104286206D01*
X136312455Y-104372452D01*
X136312452Y-104372455D01*
X136226206Y-104487664D01*
X136226202Y-104487671D01*
X136175908Y-104622517D01*
X136174126Y-104630062D01*
X136171853Y-104629525D01*
X136149571Y-104683312D01*
X136092177Y-104723157D01*
X136053024Y-104729500D01*
X135656440Y-104729500D01*
X135589401Y-104709815D01*
X135543646Y-104657011D01*
X135540258Y-104648833D01*
X135498797Y-104537671D01*
X135498793Y-104537664D01*
X135412547Y-104422455D01*
X135412544Y-104422452D01*
X135297335Y-104336206D01*
X135297328Y-104336202D01*
X135162482Y-104285908D01*
X135162483Y-104285908D01*
X135102883Y-104279501D01*
X135102881Y-104279500D01*
X135102873Y-104279500D01*
X135102864Y-104279500D01*
X134057129Y-104279500D01*
X134057123Y-104279501D01*
X133997516Y-104285908D01*
X133862671Y-104336202D01*
X133862664Y-104336206D01*
X133747455Y-104422452D01*
X133747452Y-104422455D01*
X133661206Y-104537664D01*
X133661202Y-104537671D01*
X133619742Y-104648833D01*
X133577871Y-104704767D01*
X133512407Y-104729184D01*
X133503560Y-104729500D01*
X133106977Y-104729500D01*
X133039938Y-104709815D01*
X132994183Y-104657011D01*
X132986733Y-104629865D01*
X132985876Y-104630068D01*
X132984092Y-104622520D01*
X132933797Y-104487671D01*
X132933793Y-104487664D01*
X132847547Y-104372455D01*
X132847544Y-104372452D01*
X132732335Y-104286206D01*
X132732328Y-104286202D01*
X132597482Y-104235908D01*
X132597483Y-104235908D01*
X132537883Y-104229501D01*
X132537881Y-104229500D01*
X132537873Y-104229500D01*
X132537864Y-104229500D01*
X131542129Y-104229500D01*
X131542123Y-104229501D01*
X131482517Y-104235908D01*
X131437831Y-104252575D01*
X131368140Y-104257558D01*
X131306817Y-104224072D01*
X131273333Y-104162748D01*
X131270500Y-104136392D01*
X131270500Y-99624500D01*
X131290185Y-99557461D01*
X131342989Y-99511706D01*
X131394500Y-99500500D01*
X172095500Y-99500500D01*
X172162539Y-99520185D01*
G37*
%TD.AperFunction*%
%TD*%
M02*
