%TF.GenerationSoftware,KiCad,Pcbnew,8.0.1-8.0.1-1~ubuntu22.04.1*%
%TF.CreationDate,2024-04-07T13:29:00+03:00*%
%TF.ProjectId,lcd_board,6c63645f-626f-4617-9264-2e6b69636164,rev?*%
%TF.SameCoordinates,Original*%
%TF.FileFunction,Soldermask,Bot*%
%TF.FilePolarity,Negative*%
%FSLAX46Y46*%
G04 Gerber Fmt 4.6, Leading zero omitted, Abs format (unit mm)*
G04 Created by KiCad (PCBNEW 8.0.1-8.0.1-1~ubuntu22.04.1) date 2024-04-07 13:29:00*
%MOMM*%
%LPD*%
G01*
G04 APERTURE LIST*
G04 Aperture macros list*
%AMRoundRect*
0 Rectangle with rounded corners*
0 $1 Rounding radius*
0 $2 $3 $4 $5 $6 $7 $8 $9 X,Y pos of 4 corners*
0 Add a 4 corners polygon primitive as box body*
4,1,4,$2,$3,$4,$5,$6,$7,$8,$9,$2,$3,0*
0 Add four circle primitives for the rounded corners*
1,1,$1+$1,$2,$3*
1,1,$1+$1,$4,$5*
1,1,$1+$1,$6,$7*
1,1,$1+$1,$8,$9*
0 Add four rect primitives between the rounded corners*
20,1,$1+$1,$2,$3,$4,$5,0*
20,1,$1+$1,$4,$5,$6,$7,0*
20,1,$1+$1,$6,$7,$8,$9,0*
20,1,$1+$1,$8,$9,$2,$3,0*%
G04 Aperture macros list end*
%ADD10R,1.700000X1.700000*%
%ADD11O,1.700000X1.700000*%
%ADD12RoundRect,0.250000X0.475000X-0.337500X0.475000X0.337500X-0.475000X0.337500X-0.475000X-0.337500X0*%
%ADD13RoundRect,0.250000X-0.475000X0.337500X-0.475000X-0.337500X0.475000X-0.337500X0.475000X0.337500X0*%
%ADD14RoundRect,0.250000X-0.450000X0.350000X-0.450000X-0.350000X0.450000X-0.350000X0.450000X0.350000X0*%
%ADD15RoundRect,0.250000X-0.350000X-0.625000X0.350000X-0.625000X0.350000X0.625000X-0.350000X0.625000X0*%
%ADD16O,1.200000X1.750000*%
%ADD17RoundRect,0.250000X0.450000X-0.350000X0.450000X0.350000X-0.450000X0.350000X-0.450000X-0.350000X0*%
%ADD18RoundRect,0.150000X-0.150000X0.825000X-0.150000X-0.825000X0.150000X-0.825000X0.150000X0.825000X0*%
G04 APERTURE END LIST*
D10*
%TO.C,J2*%
X132675000Y-100905000D03*
D11*
X135215000Y-100905000D03*
X137755000Y-100905000D03*
X140295000Y-100905000D03*
X142835000Y-100905000D03*
X145375000Y-100905000D03*
X147915000Y-100905000D03*
X150455000Y-100905000D03*
X152995000Y-100905000D03*
X155535000Y-100905000D03*
X158075000Y-100905000D03*
X160615000Y-100905000D03*
X163155000Y-100905000D03*
X165695000Y-100905000D03*
X168235000Y-100905000D03*
X170775000Y-100905000D03*
%TD*%
D12*
%TO.C,C6*%
X139660000Y-105117500D03*
X139660000Y-103042500D03*
%TD*%
%TO.C,C5*%
X134580000Y-105117500D03*
X134580000Y-103042500D03*
%TD*%
D13*
%TO.C,C4*%
X154860000Y-106217500D03*
X154860000Y-108292500D03*
%TD*%
D14*
%TO.C,R1*%
X137120000Y-103080000D03*
X137120000Y-105080000D03*
%TD*%
D15*
%TO.C,J1*%
X133183000Y-110811000D03*
D16*
X135183000Y-110811000D03*
X137183000Y-110811000D03*
X139183000Y-110811000D03*
X141183000Y-110811000D03*
%TD*%
D17*
%TO.C,R2*%
X132040000Y-105080000D03*
X132040000Y-103080000D03*
%TD*%
D18*
%TO.C,U1*%
X156805000Y-104780000D03*
X158075000Y-104780000D03*
X159345000Y-104780000D03*
X160615000Y-104780000D03*
X161885000Y-104780000D03*
X163155000Y-104780000D03*
X164425000Y-104780000D03*
X165695000Y-104780000D03*
X165695000Y-109730000D03*
X164425000Y-109730000D03*
X163155000Y-109730000D03*
X161885000Y-109730000D03*
X160615000Y-109730000D03*
X159345000Y-109730000D03*
X158075000Y-109730000D03*
X156805000Y-109730000D03*
%TD*%
M02*
