%TF.GenerationSoftware,KiCad,Pcbnew,8.0.1-8.0.1-1~ubuntu22.04.1*%
%TF.CreationDate,2024-04-07T13:29:00+03:00*%
%TF.ProjectId,lcd_board,6c63645f-626f-4617-9264-2e6b69636164,rev?*%
%TF.SameCoordinates,Original*%
%TF.FileFunction,Legend,Top*%
%TF.FilePolarity,Positive*%
%FSLAX46Y46*%
G04 Gerber Fmt 4.6, Leading zero omitted, Abs format (unit mm)*
G04 Created by KiCad (PCBNEW 8.0.1-8.0.1-1~ubuntu22.04.1) date 2024-04-07 13:29:00*
%MOMM*%
%LPD*%
G01*
G04 APERTURE LIST*
%ADD10C,0.150000*%
%ADD11C,0.120000*%
G04 APERTURE END LIST*
D10*
X146632493Y-103584819D02*
X146632493Y-104299104D01*
X146632493Y-104299104D02*
X146584874Y-104441961D01*
X146584874Y-104441961D02*
X146489636Y-104537200D01*
X146489636Y-104537200D02*
X146346779Y-104584819D01*
X146346779Y-104584819D02*
X146251541Y-104584819D01*
X147584874Y-104584819D02*
X147108684Y-104584819D01*
X147108684Y-104584819D02*
X147108684Y-103584819D01*
X148489636Y-104489580D02*
X148442017Y-104537200D01*
X148442017Y-104537200D02*
X148299160Y-104584819D01*
X148299160Y-104584819D02*
X148203922Y-104584819D01*
X148203922Y-104584819D02*
X148061065Y-104537200D01*
X148061065Y-104537200D02*
X147965827Y-104441961D01*
X147965827Y-104441961D02*
X147918208Y-104346723D01*
X147918208Y-104346723D02*
X147870589Y-104156247D01*
X147870589Y-104156247D02*
X147870589Y-104013390D01*
X147870589Y-104013390D02*
X147918208Y-103822914D01*
X147918208Y-103822914D02*
X147965827Y-103727676D01*
X147965827Y-103727676D02*
X148061065Y-103632438D01*
X148061065Y-103632438D02*
X148203922Y-103584819D01*
X148203922Y-103584819D02*
X148299160Y-103584819D01*
X148299160Y-103584819D02*
X148442017Y-103632438D01*
X148442017Y-103632438D02*
X148489636Y-103680057D01*
X149203922Y-103584819D02*
X149203922Y-104299104D01*
X149203922Y-104299104D02*
X149156303Y-104441961D01*
X149156303Y-104441961D02*
X149061065Y-104537200D01*
X149061065Y-104537200D02*
X148918208Y-104584819D01*
X148918208Y-104584819D02*
X148822970Y-104584819D01*
X150156303Y-104584819D02*
X149680113Y-104584819D01*
X149680113Y-104584819D02*
X149680113Y-103584819D01*
X151061065Y-104489580D02*
X151013446Y-104537200D01*
X151013446Y-104537200D02*
X150870589Y-104584819D01*
X150870589Y-104584819D02*
X150775351Y-104584819D01*
X150775351Y-104584819D02*
X150632494Y-104537200D01*
X150632494Y-104537200D02*
X150537256Y-104441961D01*
X150537256Y-104441961D02*
X150489637Y-104346723D01*
X150489637Y-104346723D02*
X150442018Y-104156247D01*
X150442018Y-104156247D02*
X150442018Y-104013390D01*
X150442018Y-104013390D02*
X150489637Y-103822914D01*
X150489637Y-103822914D02*
X150537256Y-103727676D01*
X150537256Y-103727676D02*
X150632494Y-103632438D01*
X150632494Y-103632438D02*
X150775351Y-103584819D01*
X150775351Y-103584819D02*
X150870589Y-103584819D01*
X150870589Y-103584819D02*
X151013446Y-103632438D01*
X151013446Y-103632438D02*
X151061065Y-103680057D01*
X151775351Y-103584819D02*
X151775351Y-104299104D01*
X151775351Y-104299104D02*
X151727732Y-104441961D01*
X151727732Y-104441961D02*
X151632494Y-104537200D01*
X151632494Y-104537200D02*
X151489637Y-104584819D01*
X151489637Y-104584819D02*
X151394399Y-104584819D01*
X152727732Y-104584819D02*
X152251542Y-104584819D01*
X152251542Y-104584819D02*
X152251542Y-103584819D01*
X153632494Y-104489580D02*
X153584875Y-104537200D01*
X153584875Y-104537200D02*
X153442018Y-104584819D01*
X153442018Y-104584819D02*
X153346780Y-104584819D01*
X153346780Y-104584819D02*
X153203923Y-104537200D01*
X153203923Y-104537200D02*
X153108685Y-104441961D01*
X153108685Y-104441961D02*
X153061066Y-104346723D01*
X153061066Y-104346723D02*
X153013447Y-104156247D01*
X153013447Y-104156247D02*
X153013447Y-104013390D01*
X153013447Y-104013390D02*
X153061066Y-103822914D01*
X153061066Y-103822914D02*
X153108685Y-103727676D01*
X153108685Y-103727676D02*
X153203923Y-103632438D01*
X153203923Y-103632438D02*
X153346780Y-103584819D01*
X153346780Y-103584819D02*
X153442018Y-103584819D01*
X153442018Y-103584819D02*
X153584875Y-103632438D01*
X153584875Y-103632438D02*
X153632494Y-103680057D01*
X154346780Y-103584819D02*
X154346780Y-104299104D01*
X154346780Y-104299104D02*
X154299161Y-104441961D01*
X154299161Y-104441961D02*
X154203923Y-104537200D01*
X154203923Y-104537200D02*
X154061066Y-104584819D01*
X154061066Y-104584819D02*
X153965828Y-104584819D01*
X155299161Y-104584819D02*
X154822971Y-104584819D01*
X154822971Y-104584819D02*
X154822971Y-103584819D01*
X156203923Y-104489580D02*
X156156304Y-104537200D01*
X156156304Y-104537200D02*
X156013447Y-104584819D01*
X156013447Y-104584819D02*
X155918209Y-104584819D01*
X155918209Y-104584819D02*
X155775352Y-104537200D01*
X155775352Y-104537200D02*
X155680114Y-104441961D01*
X155680114Y-104441961D02*
X155632495Y-104346723D01*
X155632495Y-104346723D02*
X155584876Y-104156247D01*
X155584876Y-104156247D02*
X155584876Y-104013390D01*
X155584876Y-104013390D02*
X155632495Y-103822914D01*
X155632495Y-103822914D02*
X155680114Y-103727676D01*
X155680114Y-103727676D02*
X155775352Y-103632438D01*
X155775352Y-103632438D02*
X155918209Y-103584819D01*
X155918209Y-103584819D02*
X156013447Y-103584819D01*
X156013447Y-103584819D02*
X156156304Y-103632438D01*
X156156304Y-103632438D02*
X156203923Y-103680057D01*
D11*
%TO.C,U2*%
X158690000Y-107255000D02*
X158690000Y-105305000D01*
X158690000Y-107255000D02*
X158690000Y-109205000D01*
X163810000Y-107255000D02*
X163810000Y-105305000D01*
X163810000Y-107255000D02*
X163810000Y-109205000D01*
X158785000Y-109955000D02*
X158455000Y-110195000D01*
X158455000Y-109715000D01*
X158785000Y-109955000D01*
G36*
X158785000Y-109955000D02*
G01*
X158455000Y-110195000D01*
X158455000Y-109715000D01*
X158785000Y-109955000D01*
G37*
%TO.C,C7*%
X134206252Y-103345000D02*
X133683748Y-103345000D01*
X134206252Y-104815000D02*
X133683748Y-104815000D01*
%TO.C,U3*%
X138445000Y-102956000D02*
X142205000Y-102956000D01*
X138445000Y-109776000D02*
X142205000Y-109776000D01*
X142205000Y-102956000D02*
X142205000Y-104216000D01*
X142205000Y-109776000D02*
X142205000Y-108516000D01*
X137165000Y-103056000D02*
X136925000Y-102726000D01*
X137405000Y-102726000D01*
X137165000Y-103056000D01*
G36*
X137165000Y-103056000D02*
G01*
X136925000Y-102726000D01*
X137405000Y-102726000D01*
X137165000Y-103056000D01*
G37*
%TO.C,J2*%
X131345000Y-102235000D02*
X131345000Y-100905000D01*
X132675000Y-102235000D02*
X131345000Y-102235000D01*
X133945000Y-99575000D02*
X172105000Y-99575000D01*
X133945000Y-102235000D02*
X133945000Y-99575000D01*
X133945000Y-102235000D02*
X172105000Y-102235000D01*
X172105000Y-102235000D02*
X172105000Y-99575000D01*
%TO.C,C2*%
X134206252Y-108171000D02*
X133683748Y-108171000D01*
X134206252Y-109641000D02*
X133683748Y-109641000D01*
%TO.C,C1*%
X134206252Y-106139000D02*
X133683748Y-106139000D01*
X134206252Y-107609000D02*
X133683748Y-107609000D01*
%TO.C,R3*%
X167500000Y-104942064D02*
X167500000Y-104487936D01*
X168970000Y-104942064D02*
X168970000Y-104487936D01*
%TO.C,C3*%
X167500000Y-109533748D02*
X167500000Y-110056252D01*
X168970000Y-109533748D02*
X168970000Y-110056252D01*
%TD*%
M02*
