M48
; DRILL file {KiCad 8.0.1-8.0.1-1~ubuntu22.04.1} date 2024-04-07T13:29:09+0300
; FORMAT={-:-/ absolute / inch / decimal}
; #@! TF.CreationDate,2024-04-07T13:29:09+03:00
; #@! TF.GenerationSoftware,Kicad,Pcbnew,8.0.1-8.0.1-1~ubuntu22.04.1
; #@! TF.FileFunction,Plated,1,2,PTH
FMAT,2
INCH
; #@! TA.AperFunction,Plated,PTH,ViaDrill
T1C0.0118
; #@! TA.AperFunction,Plated,PTH,ComponentDrill
T2C0.0295
; #@! TA.AperFunction,Plated,PTH,ComponentDrill
T3C0.0394
%
G90
G05
T1
X5.4734Y-4.0226
X5.5234Y-4.1976
X5.6234Y-4.3976
X5.7234Y-4.1876
X6.2734Y-4.2226
X6.2734Y-4.2676
X6.2984Y-4.1749
X6.3984Y-4.2476
X6.4234Y-4.3976
X6.5234Y-4.2226
T2
X5.2434Y-4.3626
X5.3222Y-4.3626
X5.4009Y-4.3626
X5.4796Y-4.3626
X5.5584Y-4.3626
T3
X5.2234Y-3.9726
X5.3234Y-3.9726
X5.4234Y-3.9726
X5.5234Y-3.9726
X5.6234Y-3.9726
X5.7234Y-3.9726
X5.8234Y-3.9726
X5.9234Y-3.9726
X6.0234Y-3.9726
X6.1234Y-3.9726
X6.2234Y-3.9726
X6.3234Y-3.9726
X6.4234Y-3.9726
X6.5234Y-3.9726
X6.6234Y-3.9726
X6.7234Y-3.9726
M30
