%TF.GenerationSoftware,KiCad,Pcbnew,8.0.1-8.0.1-1~ubuntu22.04.1*%
%TF.CreationDate,2024-04-07T12:22:57+03:00*%
%TF.ProjectId,layout_1,6c61796f-7574-45f3-912e-6b696361645f,rev?*%
%TF.SameCoordinates,Original*%
%TF.FileFunction,Copper,L1,Top*%
%TF.FilePolarity,Positive*%
%FSLAX46Y46*%
G04 Gerber Fmt 4.6, Leading zero omitted, Abs format (unit mm)*
G04 Created by KiCad (PCBNEW 8.0.1-8.0.1-1~ubuntu22.04.1) date 2024-04-07 12:22:57*
%MOMM*%
%LPD*%
G01*
G04 APERTURE LIST*
G04 Aperture macros list*
%AMRoundRect*
0 Rectangle with rounded corners*
0 $1 Rounding radius*
0 $2 $3 $4 $5 $6 $7 $8 $9 X,Y pos of 4 corners*
0 Add a 4 corners polygon primitive as box body*
4,1,4,$2,$3,$4,$5,$6,$7,$8,$9,$2,$3,0*
0 Add four circle primitives for the rounded corners*
1,1,$1+$1,$2,$3*
1,1,$1+$1,$4,$5*
1,1,$1+$1,$6,$7*
1,1,$1+$1,$8,$9*
0 Add four rect primitives between the rounded corners*
20,1,$1+$1,$2,$3,$4,$5,0*
20,1,$1+$1,$4,$5,$6,$7,0*
20,1,$1+$1,$6,$7,$8,$9,0*
20,1,$1+$1,$8,$9,$2,$3,0*%
G04 Aperture macros list end*
%TA.AperFunction,ComponentPad*%
%ADD10RoundRect,0.250000X0.600000X0.600000X-0.600000X0.600000X-0.600000X-0.600000X0.600000X-0.600000X0*%
%TD*%
%TA.AperFunction,ComponentPad*%
%ADD11C,1.700000*%
%TD*%
%TA.AperFunction,ComponentPad*%
%ADD12RoundRect,0.250000X-0.625000X0.350000X-0.625000X-0.350000X0.625000X-0.350000X0.625000X0.350000X0*%
%TD*%
%TA.AperFunction,ComponentPad*%
%ADD13O,1.750000X1.200000*%
%TD*%
%TA.AperFunction,ComponentPad*%
%ADD14C,4.700000*%
%TD*%
%TA.AperFunction,ComponentPad*%
%ADD15R,1.000000X1.000000*%
%TD*%
%TA.AperFunction,ComponentPad*%
%ADD16O,1.000000X1.000000*%
%TD*%
%TA.AperFunction,ViaPad*%
%ADD17C,0.600000*%
%TD*%
%TA.AperFunction,Conductor*%
%ADD18C,0.200000*%
%TD*%
G04 APERTURE END LIST*
D10*
%TO.P,J2,1,Pin_1*%
%TO.N,/TX+*%
X164925000Y-80150000D03*
D11*
%TO.P,J2,2,Pin_2*%
%TO.N,/TX-*%
X162385000Y-80150000D03*
%TO.P,J2,3,Pin_3*%
%TO.N,/RX+*%
X164925000Y-77610000D03*
%TO.P,J2,4,Pin_4*%
%TO.N,GND*%
X162385000Y-77610000D03*
%TO.P,J2,5,Pin_5*%
%TO.N,+5V*%
X164925000Y-75070000D03*
%TO.P,J2,6,Pin_6*%
%TO.N,/RX-*%
X162385000Y-75070000D03*
%TO.P,J2,7,Pin_7*%
%TO.N,/PPS+*%
X164925000Y-72530000D03*
%TO.P,J2,8,Pin_8*%
%TO.N,/PPS-*%
X162385000Y-72530000D03*
%TD*%
D12*
%TO.P,J3,1,Pin_1*%
%TO.N,+3.3V*%
X131778000Y-64498000D03*
D13*
%TO.P,J3,2,Pin_2*%
%TO.N,GND*%
X131778000Y-66498000D03*
%TO.P,J3,3,Pin_3*%
%TO.N,/RX*%
X131778000Y-68498000D03*
%TO.P,J3,4,Pin_4*%
%TO.N,/TX*%
X131778000Y-70498000D03*
%TO.P,J3,5,Pin_5*%
%TO.N,unconnected-(J3-Pin_5-Pad5)*%
X131778000Y-72498000D03*
%TO.P,J3,6,Pin_6*%
%TO.N,/PPS*%
X131778000Y-74498000D03*
%TD*%
D14*
%TO.P,H1,1,1*%
%TO.N,GND*%
X167000000Y-88500000D03*
%TD*%
D15*
%TO.P,J1,1,Pin_1*%
%TO.N,+3.3V*%
X130000000Y-86500000D03*
D16*
%TO.P,J1,2,Pin_2*%
%TO.N,/TX*%
X130000000Y-85230000D03*
%TO.P,J1,3,Pin_3*%
%TO.N,/RX*%
X130000000Y-83960000D03*
%TO.P,J1,4,Pin_4*%
%TO.N,GND*%
X130000000Y-82690000D03*
%TO.P,J1,5,Pin_5*%
%TO.N,unconnected-(J1-Pin_5-Pad5)*%
X130000000Y-81420000D03*
%TO.P,J1,6,Pin_6*%
%TO.N,+3.3V*%
X130000000Y-80150000D03*
%TO.P,J1,7,Pin_7*%
%TO.N,/PPS*%
X130000000Y-78880000D03*
%TO.P,J1,8,Pin_8*%
%TO.N,unconnected-(J1-Pin_8-Pad8)*%
X130000000Y-77610000D03*
%TD*%
D14*
%TO.P,H2,1,1*%
%TO.N,GND*%
X167000000Y-63500000D03*
%TD*%
D17*
%TO.N,GND*%
X150955000Y-65545000D03*
%TO.N,+5V*%
X140795000Y-78880000D03*
%TO.N,GND*%
X161115000Y-78880000D03*
X163655000Y-78880000D03*
X150320000Y-73800000D03*
X145240000Y-78880000D03*
X136350000Y-78880000D03*
X131905000Y-82055000D03*
X140795000Y-64275000D03*
%TD*%
D18*
%TO.N,+5V*%
X164925000Y-75070000D02*
X163655000Y-76340000D01*
X163655000Y-76340000D02*
X143335000Y-76340000D01*
X143335000Y-76340000D02*
X140795000Y-78880000D01*
%TO.N,+3.3V*%
X131905000Y-86500000D02*
X130000000Y-86500000D01*
X131905000Y-80150000D02*
X132540000Y-80785000D01*
X130000000Y-80150000D02*
X131905000Y-80150000D01*
X132540000Y-80785000D02*
X132540000Y-85865000D01*
X132540000Y-85865000D02*
X131905000Y-86500000D01*
%TO.N,/RX*%
X133175000Y-70879000D02*
X133175000Y-69355000D01*
X128730000Y-72530000D02*
X129766315Y-71493685D01*
X132560315Y-71493685D02*
X133175000Y-70879000D01*
X128730000Y-83325000D02*
X128730000Y-72530000D01*
X129365000Y-83960000D02*
X128730000Y-83325000D01*
X129766315Y-71493685D02*
X132560315Y-71493685D01*
X132318000Y-68498000D02*
X131778000Y-68498000D01*
X130000000Y-83960000D02*
X129365000Y-83960000D01*
X133175000Y-69355000D02*
X132318000Y-68498000D01*
%TO.N,/TX*%
X128100000Y-83965000D02*
X128100000Y-71892500D01*
X129365000Y-85230000D02*
X128100000Y-83965000D01*
X128100000Y-71892500D02*
X129367500Y-70625000D01*
X130000000Y-85230000D02*
X129365000Y-85230000D01*
X131651000Y-70625000D02*
X131778000Y-70498000D01*
X129367500Y-70625000D02*
X131651000Y-70625000D01*
%TD*%
%TA.AperFunction,Conductor*%
%TO.N,GND*%
G36*
X169442539Y-61020185D02*
G01*
X169488294Y-61072989D01*
X169499500Y-61124500D01*
X169499500Y-90875500D01*
X169479815Y-90942539D01*
X169427011Y-90988294D01*
X169375500Y-90999500D01*
X128124500Y-90999500D01*
X128057461Y-90979815D01*
X128011706Y-90927011D01*
X128000500Y-90875500D01*
X128000500Y-84660544D01*
X128020185Y-84593505D01*
X128072989Y-84547750D01*
X128142147Y-84537806D01*
X128205703Y-84566831D01*
X128212181Y-84572863D01*
X129149788Y-85510470D01*
X129229712Y-85556614D01*
X129289909Y-85572743D01*
X129349569Y-85609108D01*
X129362805Y-85626540D01*
X129371168Y-85639848D01*
X129390172Y-85707084D01*
X129369808Y-85773920D01*
X129335071Y-85808926D01*
X129319401Y-85819396D01*
X129264033Y-85902260D01*
X129264032Y-85902264D01*
X129249500Y-85975321D01*
X129249500Y-87024678D01*
X129264032Y-87097735D01*
X129264033Y-87097739D01*
X129264034Y-87097740D01*
X129319399Y-87180601D01*
X129402260Y-87235966D01*
X129402264Y-87235967D01*
X129475321Y-87250499D01*
X129475324Y-87250500D01*
X129475326Y-87250500D01*
X130524676Y-87250500D01*
X130524677Y-87250499D01*
X130597740Y-87235966D01*
X130680601Y-87180601D01*
X130735966Y-87097740D01*
X130750500Y-87024674D01*
X130750500Y-86974500D01*
X130770185Y-86907461D01*
X130822989Y-86861706D01*
X130874500Y-86850500D01*
X131951142Y-86850500D01*
X131951144Y-86850500D01*
X132040288Y-86826614D01*
X132120212Y-86780470D01*
X132820470Y-86080212D01*
X132866614Y-86000288D01*
X132866616Y-86000282D01*
X132870645Y-85985248D01*
X132880572Y-85948196D01*
X132890500Y-85911144D01*
X132890500Y-80738856D01*
X132866614Y-80649712D01*
X132854319Y-80628416D01*
X132820470Y-80569788D01*
X132400682Y-80150000D01*
X161279785Y-80150000D01*
X161298602Y-80353082D01*
X161354417Y-80549247D01*
X161354422Y-80549260D01*
X161445327Y-80731821D01*
X161568237Y-80894581D01*
X161718958Y-81031980D01*
X161718960Y-81031982D01*
X161816381Y-81092302D01*
X161892363Y-81139348D01*
X162082544Y-81213024D01*
X162283024Y-81250500D01*
X162283026Y-81250500D01*
X162486974Y-81250500D01*
X162486976Y-81250500D01*
X162687456Y-81213024D01*
X162877637Y-81139348D01*
X163051041Y-81031981D01*
X163201764Y-80894579D01*
X163274795Y-80797870D01*
X163824500Y-80797870D01*
X163824501Y-80797876D01*
X163830908Y-80857483D01*
X163881202Y-80992328D01*
X163881206Y-80992335D01*
X163967452Y-81107544D01*
X163967455Y-81107547D01*
X164082664Y-81193793D01*
X164082671Y-81193797D01*
X164217517Y-81244091D01*
X164217516Y-81244091D01*
X164224444Y-81244835D01*
X164277127Y-81250500D01*
X165572872Y-81250499D01*
X165632483Y-81244091D01*
X165767331Y-81193796D01*
X165882546Y-81107546D01*
X165968796Y-80992331D01*
X166019091Y-80857483D01*
X166025500Y-80797873D01*
X166025499Y-79502128D01*
X166019091Y-79442517D01*
X165988635Y-79360861D01*
X165968797Y-79307671D01*
X165968793Y-79307664D01*
X165882547Y-79192455D01*
X165882544Y-79192452D01*
X165767335Y-79106206D01*
X165767328Y-79106202D01*
X165632482Y-79055908D01*
X165632483Y-79055908D01*
X165572883Y-79049501D01*
X165572881Y-79049500D01*
X165572873Y-79049500D01*
X165572864Y-79049500D01*
X164277129Y-79049500D01*
X164277123Y-79049501D01*
X164217516Y-79055908D01*
X164082671Y-79106202D01*
X164082664Y-79106206D01*
X163967455Y-79192452D01*
X163967452Y-79192455D01*
X163881206Y-79307664D01*
X163881202Y-79307671D01*
X163830908Y-79442517D01*
X163824501Y-79502116D01*
X163824501Y-79502123D01*
X163824500Y-79502135D01*
X163824500Y-80797870D01*
X163274795Y-80797870D01*
X163324673Y-80731821D01*
X163415582Y-80549250D01*
X163471397Y-80353083D01*
X163490215Y-80150000D01*
X163471397Y-79946917D01*
X163415582Y-79750750D01*
X163410962Y-79741472D01*
X163341853Y-79602681D01*
X163324673Y-79568179D01*
X163210002Y-79416330D01*
X163201762Y-79405418D01*
X163051041Y-79268019D01*
X163051039Y-79268017D01*
X162877642Y-79160655D01*
X162877635Y-79160651D01*
X162782546Y-79123814D01*
X162687456Y-79086976D01*
X162486976Y-79049500D01*
X162283024Y-79049500D01*
X162082544Y-79086976D01*
X162082541Y-79086976D01*
X162082541Y-79086977D01*
X161892364Y-79160651D01*
X161892357Y-79160655D01*
X161718960Y-79268017D01*
X161718958Y-79268019D01*
X161568237Y-79405418D01*
X161445327Y-79568178D01*
X161354422Y-79750739D01*
X161354417Y-79750752D01*
X161298602Y-79946917D01*
X161279785Y-80149999D01*
X161279785Y-80150000D01*
X132400682Y-80150000D01*
X132120212Y-79869530D01*
X132120211Y-79869529D01*
X132120208Y-79869527D01*
X132040286Y-79823385D01*
X132040288Y-79823385D01*
X132036273Y-79822310D01*
X131993708Y-79810905D01*
X131951144Y-79799500D01*
X131951143Y-79799500D01*
X130734655Y-79799500D01*
X130667616Y-79779815D01*
X130629662Y-79741473D01*
X130590477Y-79679110D01*
X130514048Y-79602681D01*
X130480563Y-79541358D01*
X130485547Y-79471666D01*
X130514048Y-79427319D01*
X130535949Y-79405418D01*
X130590477Y-79350890D01*
X130590481Y-79350884D01*
X130680452Y-79207697D01*
X130680454Y-79207694D01*
X130680454Y-79207692D01*
X130680456Y-79207690D01*
X130736313Y-79048059D01*
X130736313Y-79048058D01*
X130736314Y-79048056D01*
X130755249Y-78880002D01*
X130755249Y-78880000D01*
X140239750Y-78880000D01*
X140258670Y-79023708D01*
X140258671Y-79023712D01*
X140314137Y-79157622D01*
X140314138Y-79157624D01*
X140314139Y-79157625D01*
X140402379Y-79272621D01*
X140517375Y-79360861D01*
X140651291Y-79416330D01*
X140778280Y-79433048D01*
X140794999Y-79435250D01*
X140795000Y-79435250D01*
X140795001Y-79435250D01*
X140809977Y-79433278D01*
X140938709Y-79416330D01*
X141072625Y-79360861D01*
X141187621Y-79272621D01*
X141275861Y-79157625D01*
X141331330Y-79023709D01*
X141350250Y-78880000D01*
X141350250Y-78879997D01*
X141350250Y-78871871D01*
X141354049Y-78871871D01*
X141361388Y-78820418D01*
X141386556Y-78784124D01*
X142560681Y-77610000D01*
X163819785Y-77610000D01*
X163838602Y-77813082D01*
X163894417Y-78009247D01*
X163894422Y-78009260D01*
X163985327Y-78191821D01*
X164108237Y-78354581D01*
X164258958Y-78491980D01*
X164258960Y-78491982D01*
X164356381Y-78552302D01*
X164432363Y-78599348D01*
X164622544Y-78673024D01*
X164823024Y-78710500D01*
X164823026Y-78710500D01*
X165026974Y-78710500D01*
X165026976Y-78710500D01*
X165227456Y-78673024D01*
X165417637Y-78599348D01*
X165591041Y-78491981D01*
X165741764Y-78354579D01*
X165864673Y-78191821D01*
X165955582Y-78009250D01*
X166011397Y-77813083D01*
X166030215Y-77610000D01*
X166011397Y-77406917D01*
X165955582Y-77210750D01*
X165864673Y-77028179D01*
X165741764Y-76865421D01*
X165741762Y-76865418D01*
X165591041Y-76728019D01*
X165591039Y-76728017D01*
X165417642Y-76620655D01*
X165417635Y-76620651D01*
X165322546Y-76583814D01*
X165227456Y-76546976D01*
X165026976Y-76509500D01*
X164823024Y-76509500D01*
X164622544Y-76546976D01*
X164622541Y-76546976D01*
X164622541Y-76546977D01*
X164432364Y-76620651D01*
X164432357Y-76620655D01*
X164258960Y-76728017D01*
X164258958Y-76728019D01*
X164108237Y-76865418D01*
X163985327Y-77028178D01*
X163894422Y-77210739D01*
X163894417Y-77210752D01*
X163838602Y-77406917D01*
X163819785Y-77609999D01*
X163819785Y-77610000D01*
X142560681Y-77610000D01*
X143443863Y-76726819D01*
X143505186Y-76693334D01*
X143531544Y-76690500D01*
X163701142Y-76690500D01*
X163701144Y-76690500D01*
X163790288Y-76666614D01*
X163870212Y-76620470D01*
X164374489Y-76116191D01*
X164435810Y-76082708D01*
X164505501Y-76087692D01*
X164506962Y-76088248D01*
X164622536Y-76133021D01*
X164622544Y-76133024D01*
X164823024Y-76170500D01*
X164823026Y-76170500D01*
X165026974Y-76170500D01*
X165026976Y-76170500D01*
X165227456Y-76133024D01*
X165417637Y-76059348D01*
X165591041Y-75951981D01*
X165741764Y-75814579D01*
X165864673Y-75651821D01*
X165955582Y-75469250D01*
X166011397Y-75273083D01*
X166030215Y-75070000D01*
X166014542Y-74900863D01*
X166011397Y-74866917D01*
X165977016Y-74746082D01*
X165955582Y-74670750D01*
X165864673Y-74488179D01*
X165741764Y-74325421D01*
X165741762Y-74325418D01*
X165591041Y-74188019D01*
X165591039Y-74188017D01*
X165417642Y-74080655D01*
X165417635Y-74080651D01*
X165322546Y-74043814D01*
X165227456Y-74006976D01*
X165026976Y-73969500D01*
X164823024Y-73969500D01*
X164622544Y-74006976D01*
X164622541Y-74006976D01*
X164622541Y-74006977D01*
X164432364Y-74080651D01*
X164432357Y-74080655D01*
X164258960Y-74188017D01*
X164258958Y-74188019D01*
X164108237Y-74325418D01*
X163985327Y-74488178D01*
X163894422Y-74670739D01*
X163894417Y-74670752D01*
X163838602Y-74866917D01*
X163819785Y-75069999D01*
X163819785Y-75070000D01*
X163838602Y-75273082D01*
X163894418Y-75469253D01*
X163899741Y-75479941D01*
X163912002Y-75548726D01*
X163885129Y-75613221D01*
X163876423Y-75622894D01*
X163546135Y-75953182D01*
X163484814Y-75986666D01*
X163458456Y-75989500D01*
X163318695Y-75989500D01*
X163251656Y-75969815D01*
X163205901Y-75917011D01*
X163195957Y-75847853D01*
X163219741Y-75790773D01*
X163324673Y-75651821D01*
X163415582Y-75469250D01*
X163471397Y-75273083D01*
X163490215Y-75070000D01*
X163474542Y-74900863D01*
X163471397Y-74866917D01*
X163437016Y-74746082D01*
X163415582Y-74670750D01*
X163324673Y-74488179D01*
X163201764Y-74325421D01*
X163201762Y-74325418D01*
X163051041Y-74188019D01*
X163051039Y-74188017D01*
X162877642Y-74080655D01*
X162877635Y-74080651D01*
X162782546Y-74043814D01*
X162687456Y-74006976D01*
X162486976Y-73969500D01*
X162283024Y-73969500D01*
X162082544Y-74006976D01*
X162082541Y-74006976D01*
X162082541Y-74006977D01*
X161892364Y-74080651D01*
X161892357Y-74080655D01*
X161718960Y-74188017D01*
X161718958Y-74188019D01*
X161568237Y-74325418D01*
X161445327Y-74488178D01*
X161354422Y-74670739D01*
X161354417Y-74670752D01*
X161298602Y-74866917D01*
X161279785Y-75069999D01*
X161279785Y-75070000D01*
X161298602Y-75273082D01*
X161354417Y-75469247D01*
X161354422Y-75469260D01*
X161445327Y-75651821D01*
X161550259Y-75790773D01*
X161574951Y-75856134D01*
X161560386Y-75924469D01*
X161511189Y-75974082D01*
X161451305Y-75989500D01*
X143288856Y-75989500D01*
X143199711Y-76013386D01*
X143119787Y-76059531D01*
X143119784Y-76059533D01*
X140890877Y-78288439D01*
X140829554Y-78321924D01*
X140803128Y-78323208D01*
X140803128Y-78324750D01*
X140795000Y-78324750D01*
X140651291Y-78343670D01*
X140651287Y-78343671D01*
X140517377Y-78399137D01*
X140402379Y-78487379D01*
X140314137Y-78602377D01*
X140258671Y-78736287D01*
X140258670Y-78736291D01*
X140239750Y-78879999D01*
X140239750Y-78880000D01*
X130755249Y-78880000D01*
X130755249Y-78879997D01*
X130736314Y-78711943D01*
X130696914Y-78599344D01*
X130680456Y-78552310D01*
X130680455Y-78552309D01*
X130680454Y-78552305D01*
X130680452Y-78552302D01*
X130590481Y-78409115D01*
X130590476Y-78409109D01*
X130514048Y-78332681D01*
X130480563Y-78271358D01*
X130485547Y-78201666D01*
X130514048Y-78157319D01*
X130590477Y-78080890D01*
X130590481Y-78080884D01*
X130680452Y-77937697D01*
X130680454Y-77937694D01*
X130680454Y-77937692D01*
X130680456Y-77937690D01*
X130736313Y-77778059D01*
X130736313Y-77778058D01*
X130736314Y-77778056D01*
X130755249Y-77610002D01*
X130755249Y-77609997D01*
X130736314Y-77441943D01*
X130698325Y-77333378D01*
X130680456Y-77282310D01*
X130680455Y-77282309D01*
X130680454Y-77282305D01*
X130680452Y-77282302D01*
X130590481Y-77139115D01*
X130590476Y-77139109D01*
X130470890Y-77019523D01*
X130470884Y-77019518D01*
X130327697Y-76929547D01*
X130327694Y-76929545D01*
X130168056Y-76873685D01*
X130000003Y-76854751D01*
X129999997Y-76854751D01*
X129831943Y-76873685D01*
X129672305Y-76929545D01*
X129672302Y-76929547D01*
X129529115Y-77019518D01*
X129529109Y-77019523D01*
X129409523Y-77139109D01*
X129409518Y-77139115D01*
X129319547Y-77282302D01*
X129316523Y-77288583D01*
X129313865Y-77287303D01*
X129280818Y-77333378D01*
X129215864Y-77359124D01*
X129147303Y-77345666D01*
X129096901Y-77297278D01*
X129080500Y-77235646D01*
X129080500Y-74581771D01*
X130652500Y-74581771D01*
X130685182Y-74746074D01*
X130685184Y-74746082D01*
X130749295Y-74900860D01*
X130842373Y-75040162D01*
X130960837Y-75158626D01*
X131053494Y-75220537D01*
X131100137Y-75251703D01*
X131254918Y-75315816D01*
X131419228Y-75348499D01*
X131419232Y-75348500D01*
X131419233Y-75348500D01*
X132136768Y-75348500D01*
X132136769Y-75348499D01*
X132301082Y-75315816D01*
X132455863Y-75251703D01*
X132595162Y-75158626D01*
X132713626Y-75040162D01*
X132806703Y-74900863D01*
X132870816Y-74746082D01*
X132903500Y-74581767D01*
X132903500Y-74414233D01*
X132870816Y-74249918D01*
X132806703Y-74095137D01*
X132747796Y-74006977D01*
X132713626Y-73955837D01*
X132595162Y-73837373D01*
X132455860Y-73744295D01*
X132301082Y-73680184D01*
X132301074Y-73680182D01*
X132136771Y-73647500D01*
X132136767Y-73647500D01*
X131419233Y-73647500D01*
X131419228Y-73647500D01*
X131254925Y-73680182D01*
X131254917Y-73680184D01*
X131100139Y-73744295D01*
X130960837Y-73837373D01*
X130842373Y-73955837D01*
X130749295Y-74095139D01*
X130685184Y-74249917D01*
X130685182Y-74249925D01*
X130652500Y-74414228D01*
X130652500Y-74581771D01*
X129080500Y-74581771D01*
X129080500Y-72726544D01*
X129100185Y-72659505D01*
X129116819Y-72638863D01*
X129875178Y-71880504D01*
X129936501Y-71847019D01*
X129962859Y-71844185D01*
X130684990Y-71844185D01*
X130752029Y-71863870D01*
X130797784Y-71916674D01*
X130807728Y-71985832D01*
X130788093Y-72037075D01*
X130749295Y-72095140D01*
X130685184Y-72249917D01*
X130685182Y-72249925D01*
X130652500Y-72414228D01*
X130652500Y-72581771D01*
X130685182Y-72746074D01*
X130685184Y-72746082D01*
X130749295Y-72900860D01*
X130842373Y-73040162D01*
X130960837Y-73158626D01*
X131053494Y-73220537D01*
X131100137Y-73251703D01*
X131254918Y-73315816D01*
X131419228Y-73348499D01*
X131419232Y-73348500D01*
X131419233Y-73348500D01*
X132136768Y-73348500D01*
X132136769Y-73348499D01*
X132301082Y-73315816D01*
X132455863Y-73251703D01*
X132595162Y-73158626D01*
X132713626Y-73040162D01*
X132806703Y-72900863D01*
X132870816Y-72746082D01*
X132903500Y-72581767D01*
X132903500Y-72530000D01*
X161279785Y-72530000D01*
X161298602Y-72733082D01*
X161354417Y-72929247D01*
X161354422Y-72929260D01*
X161445327Y-73111821D01*
X161568237Y-73274581D01*
X161718958Y-73411980D01*
X161718960Y-73411982D01*
X161818141Y-73473392D01*
X161892363Y-73519348D01*
X162082544Y-73593024D01*
X162283024Y-73630500D01*
X162283026Y-73630500D01*
X162486974Y-73630500D01*
X162486976Y-73630500D01*
X162687456Y-73593024D01*
X162877637Y-73519348D01*
X163051041Y-73411981D01*
X163201764Y-73274579D01*
X163324673Y-73111821D01*
X163415582Y-72929250D01*
X163471397Y-72733083D01*
X163490215Y-72530000D01*
X163819785Y-72530000D01*
X163838602Y-72733082D01*
X163894417Y-72929247D01*
X163894422Y-72929260D01*
X163985327Y-73111821D01*
X164108237Y-73274581D01*
X164258958Y-73411980D01*
X164258960Y-73411982D01*
X164358141Y-73473392D01*
X164432363Y-73519348D01*
X164622544Y-73593024D01*
X164823024Y-73630500D01*
X164823026Y-73630500D01*
X165026974Y-73630500D01*
X165026976Y-73630500D01*
X165227456Y-73593024D01*
X165417637Y-73519348D01*
X165591041Y-73411981D01*
X165741764Y-73274579D01*
X165864673Y-73111821D01*
X165955582Y-72929250D01*
X166011397Y-72733083D01*
X166030215Y-72530000D01*
X166011397Y-72326917D01*
X165955582Y-72130750D01*
X165937850Y-72095140D01*
X165870859Y-71960603D01*
X165864673Y-71948179D01*
X165788281Y-71847019D01*
X165741762Y-71785418D01*
X165591041Y-71648019D01*
X165591039Y-71648017D01*
X165417642Y-71540655D01*
X165417635Y-71540651D01*
X165303197Y-71496318D01*
X165227456Y-71466976D01*
X165026976Y-71429500D01*
X164823024Y-71429500D01*
X164622544Y-71466976D01*
X164622541Y-71466976D01*
X164622541Y-71466977D01*
X164432364Y-71540651D01*
X164432357Y-71540655D01*
X164258960Y-71648017D01*
X164258958Y-71648019D01*
X164108237Y-71785418D01*
X163985327Y-71948178D01*
X163894422Y-72130739D01*
X163894417Y-72130752D01*
X163838602Y-72326917D01*
X163819785Y-72529999D01*
X163819785Y-72530000D01*
X163490215Y-72530000D01*
X163471397Y-72326917D01*
X163415582Y-72130750D01*
X163397850Y-72095140D01*
X163330859Y-71960603D01*
X163324673Y-71948179D01*
X163248281Y-71847019D01*
X163201762Y-71785418D01*
X163051041Y-71648019D01*
X163051039Y-71648017D01*
X162877642Y-71540655D01*
X162877635Y-71540651D01*
X162763197Y-71496318D01*
X162687456Y-71466976D01*
X162486976Y-71429500D01*
X162283024Y-71429500D01*
X162082544Y-71466976D01*
X162082541Y-71466976D01*
X162082541Y-71466977D01*
X161892364Y-71540651D01*
X161892357Y-71540655D01*
X161718960Y-71648017D01*
X161718958Y-71648019D01*
X161568237Y-71785418D01*
X161445327Y-71948178D01*
X161354422Y-72130739D01*
X161354417Y-72130752D01*
X161298602Y-72326917D01*
X161279785Y-72529999D01*
X161279785Y-72530000D01*
X132903500Y-72530000D01*
X132903500Y-72414233D01*
X132870816Y-72249918D01*
X132806703Y-72095137D01*
X132716810Y-71960603D01*
X132695932Y-71893925D01*
X132714417Y-71826545D01*
X132757912Y-71784324D01*
X132775527Y-71774155D01*
X133455470Y-71094212D01*
X133501614Y-71014288D01*
X133525500Y-70925144D01*
X133525500Y-69308856D01*
X133501614Y-69219712D01*
X133455470Y-69139788D01*
X132939819Y-68624137D01*
X132906334Y-68562814D01*
X132903500Y-68536456D01*
X132903500Y-68414232D01*
X132903499Y-68414228D01*
X132870817Y-68249925D01*
X132870816Y-68249918D01*
X132806703Y-68095137D01*
X132775537Y-68048494D01*
X132713626Y-67955837D01*
X132595162Y-67837373D01*
X132455860Y-67744295D01*
X132301082Y-67680184D01*
X132301074Y-67680182D01*
X132136771Y-67647500D01*
X132136767Y-67647500D01*
X131419233Y-67647500D01*
X131419228Y-67647500D01*
X131254925Y-67680182D01*
X131254917Y-67680184D01*
X131100139Y-67744295D01*
X130960837Y-67837373D01*
X130842373Y-67955837D01*
X130749295Y-68095139D01*
X130685184Y-68249917D01*
X130685182Y-68249925D01*
X130652500Y-68414228D01*
X130652500Y-68581771D01*
X130685182Y-68746074D01*
X130685184Y-68746082D01*
X130749295Y-68900860D01*
X130842373Y-69040162D01*
X130960837Y-69158626D01*
X131028107Y-69203574D01*
X131100137Y-69251703D01*
X131254918Y-69315816D01*
X131419228Y-69348499D01*
X131419232Y-69348500D01*
X131419233Y-69348500D01*
X132136768Y-69348500D01*
X132136769Y-69348499D01*
X132301082Y-69315816D01*
X132455863Y-69251703D01*
X132455862Y-69251703D01*
X132461491Y-69249372D01*
X132462285Y-69251289D01*
X132521415Y-69238954D01*
X132586668Y-69263928D01*
X132599195Y-69274877D01*
X132788181Y-69463863D01*
X132821666Y-69525186D01*
X132824500Y-69551544D01*
X132824500Y-69767349D01*
X132804815Y-69834388D01*
X132752011Y-69880143D01*
X132682853Y-69890087D01*
X132619297Y-69861062D01*
X132612819Y-69855030D01*
X132595162Y-69837373D01*
X132455860Y-69744295D01*
X132301082Y-69680184D01*
X132301074Y-69680182D01*
X132136771Y-69647500D01*
X132136767Y-69647500D01*
X131419233Y-69647500D01*
X131419228Y-69647500D01*
X131254925Y-69680182D01*
X131254917Y-69680184D01*
X131100139Y-69744295D01*
X130960837Y-69837373D01*
X130842373Y-69955837D01*
X130749295Y-70095139D01*
X130706709Y-70197953D01*
X130662868Y-70252356D01*
X130596574Y-70274421D01*
X130592148Y-70274500D01*
X129321354Y-70274500D01*
X129290424Y-70282787D01*
X129290425Y-70282788D01*
X129232210Y-70298386D01*
X129232209Y-70298387D01*
X129152291Y-70344527D01*
X129152286Y-70344531D01*
X128212181Y-71284637D01*
X128150858Y-71318122D01*
X128081166Y-71313138D01*
X128025233Y-71271266D01*
X128000816Y-71205802D01*
X128000500Y-71196956D01*
X128000500Y-64895870D01*
X130652500Y-64895870D01*
X130652501Y-64895876D01*
X130658908Y-64955483D01*
X130709202Y-65090328D01*
X130709206Y-65090335D01*
X130795452Y-65205544D01*
X130795455Y-65205547D01*
X130910664Y-65291793D01*
X130910671Y-65291797D01*
X131045517Y-65342091D01*
X131045516Y-65342091D01*
X131052444Y-65342835D01*
X131105127Y-65348500D01*
X132450872Y-65348499D01*
X132510483Y-65342091D01*
X132645331Y-65291796D01*
X132760546Y-65205546D01*
X132846796Y-65090331D01*
X132897091Y-64955483D01*
X132903500Y-64895873D01*
X132903499Y-64100128D01*
X132897091Y-64040517D01*
X132846796Y-63905669D01*
X132846795Y-63905668D01*
X132846793Y-63905664D01*
X132760547Y-63790455D01*
X132760544Y-63790452D01*
X132645335Y-63704206D01*
X132645328Y-63704202D01*
X132510482Y-63653908D01*
X132510483Y-63653908D01*
X132450883Y-63647501D01*
X132450881Y-63647500D01*
X132450873Y-63647500D01*
X132450864Y-63647500D01*
X131105129Y-63647500D01*
X131105123Y-63647501D01*
X131045516Y-63653908D01*
X130910671Y-63704202D01*
X130910664Y-63704206D01*
X130795455Y-63790452D01*
X130795452Y-63790455D01*
X130709206Y-63905664D01*
X130709202Y-63905671D01*
X130658908Y-64040517D01*
X130652501Y-64100116D01*
X130652501Y-64100123D01*
X130652500Y-64100135D01*
X130652500Y-64895870D01*
X128000500Y-64895870D01*
X128000500Y-61124500D01*
X128020185Y-61057461D01*
X128072989Y-61011706D01*
X128124500Y-61000500D01*
X169375500Y-61000500D01*
X169442539Y-61020185D01*
G37*
%TD.AperFunction*%
%TA.AperFunction,Conductor*%
G36*
X131775495Y-80520185D02*
G01*
X131796137Y-80536819D01*
X132153181Y-80893863D01*
X132186666Y-80955186D01*
X132189500Y-80981544D01*
X132189500Y-85668456D01*
X132169815Y-85735495D01*
X132153181Y-85756137D01*
X131796137Y-86113181D01*
X131734814Y-86146666D01*
X131708456Y-86149500D01*
X130874500Y-86149500D01*
X130807461Y-86129815D01*
X130761706Y-86077011D01*
X130750500Y-86025500D01*
X130750500Y-85975323D01*
X130750499Y-85975321D01*
X130735967Y-85902264D01*
X130735966Y-85902260D01*
X130680600Y-85819398D01*
X130664931Y-85808929D01*
X130620126Y-85755317D01*
X130611419Y-85685992D01*
X130628829Y-85639855D01*
X130680452Y-85557697D01*
X130680454Y-85557694D01*
X130680454Y-85557692D01*
X130680456Y-85557690D01*
X130736313Y-85398059D01*
X130736313Y-85398058D01*
X130736314Y-85398056D01*
X130755249Y-85230002D01*
X130755249Y-85229997D01*
X130736314Y-85061943D01*
X130680454Y-84902305D01*
X130680452Y-84902302D01*
X130590481Y-84759115D01*
X130590476Y-84759109D01*
X130514048Y-84682681D01*
X130480563Y-84621358D01*
X130485547Y-84551666D01*
X130514048Y-84507319D01*
X130590477Y-84430890D01*
X130634278Y-84361182D01*
X130680452Y-84287697D01*
X130680454Y-84287694D01*
X130680454Y-84287692D01*
X130680456Y-84287690D01*
X130736313Y-84128059D01*
X130736313Y-84128058D01*
X130736314Y-84128056D01*
X130755249Y-83960002D01*
X130755249Y-83959997D01*
X130736314Y-83791943D01*
X130680454Y-83632305D01*
X130680452Y-83632302D01*
X130590481Y-83489115D01*
X130590476Y-83489109D01*
X130470890Y-83369523D01*
X130470884Y-83369518D01*
X130327697Y-83279547D01*
X130327694Y-83279545D01*
X130168056Y-83223685D01*
X130000003Y-83204751D01*
X129999997Y-83204751D01*
X129831943Y-83223685D01*
X129672305Y-83279545D01*
X129672302Y-83279547D01*
X129529115Y-83369518D01*
X129529108Y-83369524D01*
X129487337Y-83411295D01*
X129426014Y-83444779D01*
X129356322Y-83439794D01*
X129311976Y-83411294D01*
X129116819Y-83216137D01*
X129083334Y-83154814D01*
X129080500Y-83128456D01*
X129080500Y-81794353D01*
X129100185Y-81727314D01*
X129152989Y-81681559D01*
X129222147Y-81671615D01*
X129285703Y-81700640D01*
X129314163Y-81742553D01*
X129316523Y-81741417D01*
X129319547Y-81747697D01*
X129409518Y-81890884D01*
X129409523Y-81890890D01*
X129529109Y-82010476D01*
X129529115Y-82010481D01*
X129672302Y-82100452D01*
X129672305Y-82100454D01*
X129672309Y-82100455D01*
X129672310Y-82100456D01*
X129744913Y-82125860D01*
X129831943Y-82156314D01*
X129999997Y-82175249D01*
X130000000Y-82175249D01*
X130000003Y-82175249D01*
X130168056Y-82156314D01*
X130168059Y-82156313D01*
X130327690Y-82100456D01*
X130327692Y-82100454D01*
X130327694Y-82100454D01*
X130327697Y-82100452D01*
X130470884Y-82010481D01*
X130470885Y-82010480D01*
X130470890Y-82010477D01*
X130590477Y-81890890D01*
X130680452Y-81747697D01*
X130680454Y-81747694D01*
X130680454Y-81747692D01*
X130680456Y-81747690D01*
X130736313Y-81588059D01*
X130736313Y-81588058D01*
X130736314Y-81588056D01*
X130755249Y-81420002D01*
X130755249Y-81419997D01*
X130736314Y-81251943D01*
X130696914Y-81139344D01*
X130680456Y-81092310D01*
X130680455Y-81092309D01*
X130680454Y-81092305D01*
X130680452Y-81092302D01*
X130590481Y-80949115D01*
X130590476Y-80949109D01*
X130514048Y-80872681D01*
X130480563Y-80811358D01*
X130485547Y-80741666D01*
X130514048Y-80697319D01*
X130590477Y-80620890D01*
X130629662Y-80558526D01*
X130681995Y-80512237D01*
X130734655Y-80500500D01*
X131708456Y-80500500D01*
X131775495Y-80520185D01*
G37*
%TD.AperFunction*%
%TD*%
M02*
