%TF.GenerationSoftware,KiCad,Pcbnew,8.0.1-8.0.1-1~ubuntu22.04.1*%
%TF.CreationDate,2024-04-07T12:22:58+03:00*%
%TF.ProjectId,layout_1,6c61796f-7574-45f3-912e-6b696361645f,rev?*%
%TF.SameCoordinates,Original*%
%TF.FileFunction,Legend,Bot*%
%TF.FilePolarity,Positive*%
%FSLAX46Y46*%
G04 Gerber Fmt 4.6, Leading zero omitted, Abs format (unit mm)*
G04 Created by KiCad (PCBNEW 8.0.1-8.0.1-1~ubuntu22.04.1) date 2024-04-07 12:22:58*
%MOMM*%
%LPD*%
G01*
G04 APERTURE LIST*
%ADD10C,0.150000*%
%ADD11C,0.120000*%
G04 APERTURE END LIST*
D10*
X162794411Y-87871494D02*
X162889649Y-87823875D01*
X162889649Y-87823875D02*
X163032506Y-87823875D01*
X163032506Y-87823875D02*
X163175363Y-87871494D01*
X163175363Y-87871494D02*
X163270601Y-87966732D01*
X163270601Y-87966732D02*
X163318220Y-88061970D01*
X163318220Y-88061970D02*
X163365839Y-88252446D01*
X163365839Y-88252446D02*
X163365839Y-88395303D01*
X163365839Y-88395303D02*
X163318220Y-88585779D01*
X163318220Y-88585779D02*
X163270601Y-88681017D01*
X163270601Y-88681017D02*
X163175363Y-88776256D01*
X163175363Y-88776256D02*
X163032506Y-88823875D01*
X163032506Y-88823875D02*
X162937268Y-88823875D01*
X162937268Y-88823875D02*
X162794411Y-88776256D01*
X162794411Y-88776256D02*
X162746792Y-88728636D01*
X162746792Y-88728636D02*
X162746792Y-88395303D01*
X162746792Y-88395303D02*
X162937268Y-88395303D01*
X162318220Y-88823875D02*
X162318220Y-87823875D01*
X162318220Y-87823875D02*
X161746792Y-88823875D01*
X161746792Y-88823875D02*
X161746792Y-87823875D01*
X161318220Y-88776256D02*
X161175363Y-88823875D01*
X161175363Y-88823875D02*
X160937268Y-88823875D01*
X160937268Y-88823875D02*
X160842030Y-88776256D01*
X160842030Y-88776256D02*
X160794411Y-88728636D01*
X160794411Y-88728636D02*
X160746792Y-88633398D01*
X160746792Y-88633398D02*
X160746792Y-88538160D01*
X160746792Y-88538160D02*
X160794411Y-88442922D01*
X160794411Y-88442922D02*
X160842030Y-88395303D01*
X160842030Y-88395303D02*
X160937268Y-88347684D01*
X160937268Y-88347684D02*
X161127744Y-88300065D01*
X161127744Y-88300065D02*
X161222982Y-88252446D01*
X161222982Y-88252446D02*
X161270601Y-88204827D01*
X161270601Y-88204827D02*
X161318220Y-88109589D01*
X161318220Y-88109589D02*
X161318220Y-88014351D01*
X161318220Y-88014351D02*
X161270601Y-87919113D01*
X161270601Y-87919113D02*
X161222982Y-87871494D01*
X161222982Y-87871494D02*
X161127744Y-87823875D01*
X161127744Y-87823875D02*
X160889649Y-87823875D01*
X160889649Y-87823875D02*
X160746792Y-87871494D01*
X160365839Y-88776256D02*
X160222982Y-88823875D01*
X160222982Y-88823875D02*
X159984887Y-88823875D01*
X159984887Y-88823875D02*
X159889649Y-88776256D01*
X159889649Y-88776256D02*
X159842030Y-88728636D01*
X159842030Y-88728636D02*
X159794411Y-88633398D01*
X159794411Y-88633398D02*
X159794411Y-88538160D01*
X159794411Y-88538160D02*
X159842030Y-88442922D01*
X159842030Y-88442922D02*
X159889649Y-88395303D01*
X159889649Y-88395303D02*
X159984887Y-88347684D01*
X159984887Y-88347684D02*
X160175363Y-88300065D01*
X160175363Y-88300065D02*
X160270601Y-88252446D01*
X160270601Y-88252446D02*
X160318220Y-88204827D01*
X160318220Y-88204827D02*
X160365839Y-88109589D01*
X160365839Y-88109589D02*
X160365839Y-88014351D01*
X160365839Y-88014351D02*
X160318220Y-87919113D01*
X160318220Y-87919113D02*
X160270601Y-87871494D01*
X160270601Y-87871494D02*
X160175363Y-87823875D01*
X160175363Y-87823875D02*
X159937268Y-87823875D01*
X159937268Y-87823875D02*
X159794411Y-87871494D01*
X158603934Y-88823875D02*
X158603934Y-87823875D01*
X158603934Y-87823875D02*
X158222982Y-87823875D01*
X158222982Y-87823875D02*
X158127744Y-87871494D01*
X158127744Y-87871494D02*
X158080125Y-87919113D01*
X158080125Y-87919113D02*
X158032506Y-88014351D01*
X158032506Y-88014351D02*
X158032506Y-88157208D01*
X158032506Y-88157208D02*
X158080125Y-88252446D01*
X158080125Y-88252446D02*
X158127744Y-88300065D01*
X158127744Y-88300065D02*
X158222982Y-88347684D01*
X158222982Y-88347684D02*
X158603934Y-88347684D01*
X157603934Y-88823875D02*
X157603934Y-87823875D01*
X157603934Y-87823875D02*
X157222982Y-87823875D01*
X157222982Y-87823875D02*
X157127744Y-87871494D01*
X157127744Y-87871494D02*
X157080125Y-87919113D01*
X157080125Y-87919113D02*
X157032506Y-88014351D01*
X157032506Y-88014351D02*
X157032506Y-88157208D01*
X157032506Y-88157208D02*
X157080125Y-88252446D01*
X157080125Y-88252446D02*
X157127744Y-88300065D01*
X157127744Y-88300065D02*
X157222982Y-88347684D01*
X157222982Y-88347684D02*
X157603934Y-88347684D01*
X156651553Y-88776256D02*
X156508696Y-88823875D01*
X156508696Y-88823875D02*
X156270601Y-88823875D01*
X156270601Y-88823875D02*
X156175363Y-88776256D01*
X156175363Y-88776256D02*
X156127744Y-88728636D01*
X156127744Y-88728636D02*
X156080125Y-88633398D01*
X156080125Y-88633398D02*
X156080125Y-88538160D01*
X156080125Y-88538160D02*
X156127744Y-88442922D01*
X156127744Y-88442922D02*
X156175363Y-88395303D01*
X156175363Y-88395303D02*
X156270601Y-88347684D01*
X156270601Y-88347684D02*
X156461077Y-88300065D01*
X156461077Y-88300065D02*
X156556315Y-88252446D01*
X156556315Y-88252446D02*
X156603934Y-88204827D01*
X156603934Y-88204827D02*
X156651553Y-88109589D01*
X156651553Y-88109589D02*
X156651553Y-88014351D01*
X156651553Y-88014351D02*
X156603934Y-87919113D01*
X156603934Y-87919113D02*
X156556315Y-87871494D01*
X156556315Y-87871494D02*
X156461077Y-87823875D01*
X156461077Y-87823875D02*
X156222982Y-87823875D01*
X156222982Y-87823875D02*
X156080125Y-87871494D01*
X154937267Y-88538160D02*
X154461077Y-88538160D01*
X155032505Y-88823875D02*
X154699172Y-87823875D01*
X154699172Y-87823875D02*
X154365839Y-88823875D01*
X153270600Y-88823875D02*
X153270600Y-88157208D01*
X153270600Y-88347684D02*
X153222981Y-88252446D01*
X153222981Y-88252446D02*
X153175362Y-88204827D01*
X153175362Y-88204827D02*
X153080124Y-88157208D01*
X153080124Y-88157208D02*
X152984886Y-88157208D01*
X152270600Y-88776256D02*
X152365838Y-88823875D01*
X152365838Y-88823875D02*
X152556314Y-88823875D01*
X152556314Y-88823875D02*
X152651552Y-88776256D01*
X152651552Y-88776256D02*
X152699171Y-88681017D01*
X152699171Y-88681017D02*
X152699171Y-88300065D01*
X152699171Y-88300065D02*
X152651552Y-88204827D01*
X152651552Y-88204827D02*
X152556314Y-88157208D01*
X152556314Y-88157208D02*
X152365838Y-88157208D01*
X152365838Y-88157208D02*
X152270600Y-88204827D01*
X152270600Y-88204827D02*
X152222981Y-88300065D01*
X152222981Y-88300065D02*
X152222981Y-88395303D01*
X152222981Y-88395303D02*
X152699171Y-88490541D01*
X151889647Y-88157208D02*
X151651552Y-88823875D01*
X151651552Y-88823875D02*
X151413457Y-88157208D01*
X151080123Y-88538160D02*
X150603933Y-88538160D01*
X151175361Y-88823875D02*
X150842028Y-87823875D01*
X150842028Y-87823875D02*
X150508695Y-88823875D01*
X163365839Y-90148104D02*
X162889649Y-90148104D01*
X163461077Y-90433819D02*
X163127744Y-89433819D01*
X163127744Y-89433819D02*
X162794411Y-90433819D01*
X162461077Y-90433819D02*
X162461077Y-89433819D01*
X162461077Y-89910009D02*
X161889649Y-89910009D01*
X161889649Y-90433819D02*
X161889649Y-89433819D01*
X160222982Y-89767152D02*
X160222982Y-90433819D01*
X160461077Y-89386200D02*
X160699172Y-90100485D01*
X160699172Y-90100485D02*
X160080125Y-90100485D01*
X158984887Y-89386200D02*
X159842029Y-90671914D01*
X158699172Y-89529057D02*
X158651553Y-89481438D01*
X158651553Y-89481438D02*
X158556315Y-89433819D01*
X158556315Y-89433819D02*
X158318220Y-89433819D01*
X158318220Y-89433819D02*
X158222982Y-89481438D01*
X158222982Y-89481438D02*
X158175363Y-89529057D01*
X158175363Y-89529057D02*
X158127744Y-89624295D01*
X158127744Y-89624295D02*
X158127744Y-89719533D01*
X158127744Y-89719533D02*
X158175363Y-89862390D01*
X158175363Y-89862390D02*
X158746791Y-90433819D01*
X158746791Y-90433819D02*
X158127744Y-90433819D01*
X157508696Y-89433819D02*
X157413458Y-89433819D01*
X157413458Y-89433819D02*
X157318220Y-89481438D01*
X157318220Y-89481438D02*
X157270601Y-89529057D01*
X157270601Y-89529057D02*
X157222982Y-89624295D01*
X157222982Y-89624295D02*
X157175363Y-89814771D01*
X157175363Y-89814771D02*
X157175363Y-90052866D01*
X157175363Y-90052866D02*
X157222982Y-90243342D01*
X157222982Y-90243342D02*
X157270601Y-90338580D01*
X157270601Y-90338580D02*
X157318220Y-90386200D01*
X157318220Y-90386200D02*
X157413458Y-90433819D01*
X157413458Y-90433819D02*
X157508696Y-90433819D01*
X157508696Y-90433819D02*
X157603934Y-90386200D01*
X157603934Y-90386200D02*
X157651553Y-90338580D01*
X157651553Y-90338580D02*
X157699172Y-90243342D01*
X157699172Y-90243342D02*
X157746791Y-90052866D01*
X157746791Y-90052866D02*
X157746791Y-89814771D01*
X157746791Y-89814771D02*
X157699172Y-89624295D01*
X157699172Y-89624295D02*
X157651553Y-89529057D01*
X157651553Y-89529057D02*
X157603934Y-89481438D01*
X157603934Y-89481438D02*
X157508696Y-89433819D01*
X156794410Y-89529057D02*
X156746791Y-89481438D01*
X156746791Y-89481438D02*
X156651553Y-89433819D01*
X156651553Y-89433819D02*
X156413458Y-89433819D01*
X156413458Y-89433819D02*
X156318220Y-89481438D01*
X156318220Y-89481438D02*
X156270601Y-89529057D01*
X156270601Y-89529057D02*
X156222982Y-89624295D01*
X156222982Y-89624295D02*
X156222982Y-89719533D01*
X156222982Y-89719533D02*
X156270601Y-89862390D01*
X156270601Y-89862390D02*
X156842029Y-90433819D01*
X156842029Y-90433819D02*
X156222982Y-90433819D01*
X155365839Y-89767152D02*
X155365839Y-90433819D01*
X155603934Y-89386200D02*
X155842029Y-90100485D01*
X155842029Y-90100485D02*
X155222982Y-90100485D01*
X154256904Y-65634819D02*
X154256904Y-66444342D01*
X154256904Y-66444342D02*
X154209285Y-66539580D01*
X154209285Y-66539580D02*
X154161666Y-66587200D01*
X154161666Y-66587200D02*
X154066428Y-66634819D01*
X154066428Y-66634819D02*
X153875952Y-66634819D01*
X153875952Y-66634819D02*
X153780714Y-66587200D01*
X153780714Y-66587200D02*
X153733095Y-66539580D01*
X153733095Y-66539580D02*
X153685476Y-66444342D01*
X153685476Y-66444342D02*
X153685476Y-65634819D01*
X153304523Y-65634819D02*
X152685476Y-65634819D01*
X152685476Y-65634819D02*
X153018809Y-66015771D01*
X153018809Y-66015771D02*
X152875952Y-66015771D01*
X152875952Y-66015771D02*
X152780714Y-66063390D01*
X152780714Y-66063390D02*
X152733095Y-66111009D01*
X152733095Y-66111009D02*
X152685476Y-66206247D01*
X152685476Y-66206247D02*
X152685476Y-66444342D01*
X152685476Y-66444342D02*
X152733095Y-66539580D01*
X152733095Y-66539580D02*
X152780714Y-66587200D01*
X152780714Y-66587200D02*
X152875952Y-66634819D01*
X152875952Y-66634819D02*
X153161666Y-66634819D01*
X153161666Y-66634819D02*
X153256904Y-66587200D01*
X153256904Y-66587200D02*
X153304523Y-66539580D01*
X153661666Y-75839580D02*
X153709285Y-75887200D01*
X153709285Y-75887200D02*
X153852142Y-75934819D01*
X153852142Y-75934819D02*
X153947380Y-75934819D01*
X153947380Y-75934819D02*
X154090237Y-75887200D01*
X154090237Y-75887200D02*
X154185475Y-75791961D01*
X154185475Y-75791961D02*
X154233094Y-75696723D01*
X154233094Y-75696723D02*
X154280713Y-75506247D01*
X154280713Y-75506247D02*
X154280713Y-75363390D01*
X154280713Y-75363390D02*
X154233094Y-75172914D01*
X154233094Y-75172914D02*
X154185475Y-75077676D01*
X154185475Y-75077676D02*
X154090237Y-74982438D01*
X154090237Y-74982438D02*
X153947380Y-74934819D01*
X153947380Y-74934819D02*
X153852142Y-74934819D01*
X153852142Y-74934819D02*
X153709285Y-74982438D01*
X153709285Y-74982438D02*
X153661666Y-75030057D01*
X153328332Y-74934819D02*
X152661666Y-74934819D01*
X152661666Y-74934819D02*
X153090237Y-75934819D01*
X153661666Y-77709057D02*
X153709285Y-77756677D01*
X153709285Y-77756677D02*
X153852142Y-77804296D01*
X153852142Y-77804296D02*
X153947380Y-77804296D01*
X153947380Y-77804296D02*
X154090237Y-77756677D01*
X154090237Y-77756677D02*
X154185475Y-77661438D01*
X154185475Y-77661438D02*
X154233094Y-77566200D01*
X154233094Y-77566200D02*
X154280713Y-77375724D01*
X154280713Y-77375724D02*
X154280713Y-77232867D01*
X154280713Y-77232867D02*
X154233094Y-77042391D01*
X154233094Y-77042391D02*
X154185475Y-76947153D01*
X154185475Y-76947153D02*
X154090237Y-76851915D01*
X154090237Y-76851915D02*
X153947380Y-76804296D01*
X153947380Y-76804296D02*
X153852142Y-76804296D01*
X153852142Y-76804296D02*
X153709285Y-76851915D01*
X153709285Y-76851915D02*
X153661666Y-76899534D01*
X152804523Y-76804296D02*
X152994999Y-76804296D01*
X152994999Y-76804296D02*
X153090237Y-76851915D01*
X153090237Y-76851915D02*
X153137856Y-76899534D01*
X153137856Y-76899534D02*
X153233094Y-77042391D01*
X153233094Y-77042391D02*
X153280713Y-77232867D01*
X153280713Y-77232867D02*
X153280713Y-77613819D01*
X153280713Y-77613819D02*
X153233094Y-77709057D01*
X153233094Y-77709057D02*
X153185475Y-77756677D01*
X153185475Y-77756677D02*
X153090237Y-77804296D01*
X153090237Y-77804296D02*
X152899761Y-77804296D01*
X152899761Y-77804296D02*
X152804523Y-77756677D01*
X152804523Y-77756677D02*
X152756904Y-77709057D01*
X152756904Y-77709057D02*
X152709285Y-77613819D01*
X152709285Y-77613819D02*
X152709285Y-77375724D01*
X152709285Y-77375724D02*
X152756904Y-77280486D01*
X152756904Y-77280486D02*
X152804523Y-77232867D01*
X152804523Y-77232867D02*
X152899761Y-77185248D01*
X152899761Y-77185248D02*
X153090237Y-77185248D01*
X153090237Y-77185248D02*
X153185475Y-77232867D01*
X153185475Y-77232867D02*
X153233094Y-77280486D01*
X153233094Y-77280486D02*
X153280713Y-77375724D01*
X144136666Y-81779580D02*
X144184285Y-81827200D01*
X144184285Y-81827200D02*
X144327142Y-81874819D01*
X144327142Y-81874819D02*
X144422380Y-81874819D01*
X144422380Y-81874819D02*
X144565237Y-81827200D01*
X144565237Y-81827200D02*
X144660475Y-81731961D01*
X144660475Y-81731961D02*
X144708094Y-81636723D01*
X144708094Y-81636723D02*
X144755713Y-81446247D01*
X144755713Y-81446247D02*
X144755713Y-81303390D01*
X144755713Y-81303390D02*
X144708094Y-81112914D01*
X144708094Y-81112914D02*
X144660475Y-81017676D01*
X144660475Y-81017676D02*
X144565237Y-80922438D01*
X144565237Y-80922438D02*
X144422380Y-80874819D01*
X144422380Y-80874819D02*
X144327142Y-80874819D01*
X144327142Y-80874819D02*
X144184285Y-80922438D01*
X144184285Y-80922438D02*
X144136666Y-80970057D01*
X143755713Y-80970057D02*
X143708094Y-80922438D01*
X143708094Y-80922438D02*
X143612856Y-80874819D01*
X143612856Y-80874819D02*
X143374761Y-80874819D01*
X143374761Y-80874819D02*
X143279523Y-80922438D01*
X143279523Y-80922438D02*
X143231904Y-80970057D01*
X143231904Y-80970057D02*
X143184285Y-81065295D01*
X143184285Y-81065295D02*
X143184285Y-81160533D01*
X143184285Y-81160533D02*
X143231904Y-81303390D01*
X143231904Y-81303390D02*
X143803332Y-81874819D01*
X143803332Y-81874819D02*
X143184285Y-81874819D01*
X157759819Y-78078333D02*
X157283628Y-77745000D01*
X157759819Y-77506905D02*
X156759819Y-77506905D01*
X156759819Y-77506905D02*
X156759819Y-77887857D01*
X156759819Y-77887857D02*
X156807438Y-77983095D01*
X156807438Y-77983095D02*
X156855057Y-78030714D01*
X156855057Y-78030714D02*
X156950295Y-78078333D01*
X156950295Y-78078333D02*
X157093152Y-78078333D01*
X157093152Y-78078333D02*
X157188390Y-78030714D01*
X157188390Y-78030714D02*
X157236009Y-77983095D01*
X157236009Y-77983095D02*
X157283628Y-77887857D01*
X157283628Y-77887857D02*
X157283628Y-77506905D01*
X157759819Y-79030714D02*
X157759819Y-78459286D01*
X157759819Y-78745000D02*
X156759819Y-78745000D01*
X156759819Y-78745000D02*
X156902676Y-78649762D01*
X156902676Y-78649762D02*
X156997914Y-78554524D01*
X156997914Y-78554524D02*
X157045533Y-78459286D01*
X144749819Y-73038095D02*
X145559342Y-73038095D01*
X145559342Y-73038095D02*
X145654580Y-73085714D01*
X145654580Y-73085714D02*
X145702200Y-73133333D01*
X145702200Y-73133333D02*
X145749819Y-73228571D01*
X145749819Y-73228571D02*
X145749819Y-73419047D01*
X145749819Y-73419047D02*
X145702200Y-73514285D01*
X145702200Y-73514285D02*
X145654580Y-73561904D01*
X145654580Y-73561904D02*
X145559342Y-73609523D01*
X145559342Y-73609523D02*
X144749819Y-73609523D01*
X145749819Y-74609523D02*
X145749819Y-74038095D01*
X145749819Y-74323809D02*
X144749819Y-74323809D01*
X144749819Y-74323809D02*
X144892676Y-74228571D01*
X144892676Y-74228571D02*
X144987914Y-74133333D01*
X144987914Y-74133333D02*
X145035533Y-74038095D01*
X154256904Y-86179819D02*
X154256904Y-86989342D01*
X154256904Y-86989342D02*
X154209285Y-87084580D01*
X154209285Y-87084580D02*
X154161666Y-87132200D01*
X154161666Y-87132200D02*
X154066428Y-87179819D01*
X154066428Y-87179819D02*
X153875952Y-87179819D01*
X153875952Y-87179819D02*
X153780714Y-87132200D01*
X153780714Y-87132200D02*
X153733095Y-87084580D01*
X153733095Y-87084580D02*
X153685476Y-86989342D01*
X153685476Y-86989342D02*
X153685476Y-86179819D01*
X153256904Y-86275057D02*
X153209285Y-86227438D01*
X153209285Y-86227438D02*
X153114047Y-86179819D01*
X153114047Y-86179819D02*
X152875952Y-86179819D01*
X152875952Y-86179819D02*
X152780714Y-86227438D01*
X152780714Y-86227438D02*
X152733095Y-86275057D01*
X152733095Y-86275057D02*
X152685476Y-86370295D01*
X152685476Y-86370295D02*
X152685476Y-86465533D01*
X152685476Y-86465533D02*
X152733095Y-86608390D01*
X152733095Y-86608390D02*
X153304523Y-87179819D01*
X153304523Y-87179819D02*
X152685476Y-87179819D01*
X144136666Y-84319580D02*
X144184285Y-84367200D01*
X144184285Y-84367200D02*
X144327142Y-84414819D01*
X144327142Y-84414819D02*
X144422380Y-84414819D01*
X144422380Y-84414819D02*
X144565237Y-84367200D01*
X144565237Y-84367200D02*
X144660475Y-84271961D01*
X144660475Y-84271961D02*
X144708094Y-84176723D01*
X144708094Y-84176723D02*
X144755713Y-83986247D01*
X144755713Y-83986247D02*
X144755713Y-83843390D01*
X144755713Y-83843390D02*
X144708094Y-83652914D01*
X144708094Y-83652914D02*
X144660475Y-83557676D01*
X144660475Y-83557676D02*
X144565237Y-83462438D01*
X144565237Y-83462438D02*
X144422380Y-83414819D01*
X144422380Y-83414819D02*
X144327142Y-83414819D01*
X144327142Y-83414819D02*
X144184285Y-83462438D01*
X144184285Y-83462438D02*
X144136666Y-83510057D01*
X143184285Y-84414819D02*
X143755713Y-84414819D01*
X143469999Y-84414819D02*
X143469999Y-83414819D01*
X143469999Y-83414819D02*
X143565237Y-83557676D01*
X143565237Y-83557676D02*
X143660475Y-83652914D01*
X143660475Y-83652914D02*
X143755713Y-83700533D01*
X143059580Y-63473333D02*
X143107200Y-63425714D01*
X143107200Y-63425714D02*
X143154819Y-63282857D01*
X143154819Y-63282857D02*
X143154819Y-63187619D01*
X143154819Y-63187619D02*
X143107200Y-63044762D01*
X143107200Y-63044762D02*
X143011961Y-62949524D01*
X143011961Y-62949524D02*
X142916723Y-62901905D01*
X142916723Y-62901905D02*
X142726247Y-62854286D01*
X142726247Y-62854286D02*
X142583390Y-62854286D01*
X142583390Y-62854286D02*
X142392914Y-62901905D01*
X142392914Y-62901905D02*
X142297676Y-62949524D01*
X142297676Y-62949524D02*
X142202438Y-63044762D01*
X142202438Y-63044762D02*
X142154819Y-63187619D01*
X142154819Y-63187619D02*
X142154819Y-63282857D01*
X142154819Y-63282857D02*
X142202438Y-63425714D01*
X142202438Y-63425714D02*
X142250057Y-63473333D01*
X142488152Y-64330476D02*
X143154819Y-64330476D01*
X142107200Y-64092381D02*
X142821485Y-63854286D01*
X142821485Y-63854286D02*
X142821485Y-64473333D01*
X139884580Y-63473333D02*
X139932200Y-63425714D01*
X139932200Y-63425714D02*
X139979819Y-63282857D01*
X139979819Y-63282857D02*
X139979819Y-63187619D01*
X139979819Y-63187619D02*
X139932200Y-63044762D01*
X139932200Y-63044762D02*
X139836961Y-62949524D01*
X139836961Y-62949524D02*
X139741723Y-62901905D01*
X139741723Y-62901905D02*
X139551247Y-62854286D01*
X139551247Y-62854286D02*
X139408390Y-62854286D01*
X139408390Y-62854286D02*
X139217914Y-62901905D01*
X139217914Y-62901905D02*
X139122676Y-62949524D01*
X139122676Y-62949524D02*
X139027438Y-63044762D01*
X139027438Y-63044762D02*
X138979819Y-63187619D01*
X138979819Y-63187619D02*
X138979819Y-63282857D01*
X138979819Y-63282857D02*
X139027438Y-63425714D01*
X139027438Y-63425714D02*
X139075057Y-63473333D01*
X138979819Y-63806667D02*
X138979819Y-64425714D01*
X138979819Y-64425714D02*
X139360771Y-64092381D01*
X139360771Y-64092381D02*
X139360771Y-64235238D01*
X139360771Y-64235238D02*
X139408390Y-64330476D01*
X139408390Y-64330476D02*
X139456009Y-64378095D01*
X139456009Y-64378095D02*
X139551247Y-64425714D01*
X139551247Y-64425714D02*
X139789342Y-64425714D01*
X139789342Y-64425714D02*
X139884580Y-64378095D01*
X139884580Y-64378095D02*
X139932200Y-64330476D01*
X139932200Y-64330476D02*
X139979819Y-64235238D01*
X139979819Y-64235238D02*
X139979819Y-63949524D01*
X139979819Y-63949524D02*
X139932200Y-63854286D01*
X139932200Y-63854286D02*
X139884580Y-63806667D01*
X134579580Y-84428333D02*
X134627200Y-84380714D01*
X134627200Y-84380714D02*
X134674819Y-84237857D01*
X134674819Y-84237857D02*
X134674819Y-84142619D01*
X134674819Y-84142619D02*
X134627200Y-83999762D01*
X134627200Y-83999762D02*
X134531961Y-83904524D01*
X134531961Y-83904524D02*
X134436723Y-83856905D01*
X134436723Y-83856905D02*
X134246247Y-83809286D01*
X134246247Y-83809286D02*
X134103390Y-83809286D01*
X134103390Y-83809286D02*
X133912914Y-83856905D01*
X133912914Y-83856905D02*
X133817676Y-83904524D01*
X133817676Y-83904524D02*
X133722438Y-83999762D01*
X133722438Y-83999762D02*
X133674819Y-84142619D01*
X133674819Y-84142619D02*
X133674819Y-84237857D01*
X133674819Y-84237857D02*
X133722438Y-84380714D01*
X133722438Y-84380714D02*
X133770057Y-84428333D01*
X133674819Y-85333095D02*
X133674819Y-84856905D01*
X133674819Y-84856905D02*
X134151009Y-84809286D01*
X134151009Y-84809286D02*
X134103390Y-84856905D01*
X134103390Y-84856905D02*
X134055771Y-84952143D01*
X134055771Y-84952143D02*
X134055771Y-85190238D01*
X134055771Y-85190238D02*
X134103390Y-85285476D01*
X134103390Y-85285476D02*
X134151009Y-85333095D01*
X134151009Y-85333095D02*
X134246247Y-85380714D01*
X134246247Y-85380714D02*
X134484342Y-85380714D01*
X134484342Y-85380714D02*
X134579580Y-85333095D01*
X134579580Y-85333095D02*
X134627200Y-85285476D01*
X134627200Y-85285476D02*
X134674819Y-85190238D01*
X134674819Y-85190238D02*
X134674819Y-84952143D01*
X134674819Y-84952143D02*
X134627200Y-84856905D01*
X134627200Y-84856905D02*
X134579580Y-84809286D01*
D11*
%TO.C,U3*%
X151545000Y-66795000D02*
X153495000Y-66795000D01*
X151545000Y-71915000D02*
X153495000Y-71915000D01*
X155445000Y-66795000D02*
X153495000Y-66795000D01*
X155445000Y-71915000D02*
X153495000Y-71915000D01*
X151035000Y-72150000D02*
X150555000Y-72150000D01*
X150795000Y-71820000D01*
X151035000Y-72150000D01*
G36*
X151035000Y-72150000D02*
G01*
X150555000Y-72150000D01*
X150795000Y-71820000D01*
X151035000Y-72150000D01*
G37*
%TO.C,C7*%
X153756252Y-73065000D02*
X153233748Y-73065000D01*
X153756252Y-74535000D02*
X153233748Y-74535000D01*
%TO.C,C6*%
X153756252Y-78145000D02*
X153233748Y-78145000D01*
X153756252Y-79615000D02*
X153233748Y-79615000D01*
%TO.C,C2*%
X141128752Y-80645000D02*
X140606248Y-80645000D01*
X141128752Y-82115000D02*
X140606248Y-82115000D01*
%TO.C,R1*%
X156570000Y-74842936D02*
X156570000Y-75297064D01*
X158040000Y-74842936D02*
X158040000Y-75297064D01*
%TO.C,U1*%
X137345000Y-77110000D02*
X137345000Y-70690000D01*
X137615000Y-77110000D02*
X137345000Y-77110000D01*
X143975000Y-77110000D02*
X144245000Y-77110000D01*
X144245000Y-77110000D02*
X144245000Y-70690000D01*
X144265000Y-78770000D02*
X143935000Y-78530000D01*
X144265000Y-78290000D01*
X144265000Y-78770000D01*
G36*
X144265000Y-78770000D02*
G01*
X143935000Y-78530000D01*
X144265000Y-78290000D01*
X144265000Y-78770000D01*
G37*
%TO.C,U2*%
X151545000Y-80765000D02*
X153495000Y-80765000D01*
X151545000Y-85885000D02*
X153495000Y-85885000D01*
X155445000Y-80765000D02*
X153495000Y-80765000D01*
X155445000Y-85885000D02*
X153495000Y-85885000D01*
X151035000Y-86120000D02*
X150555000Y-86120000D01*
X150795000Y-85790000D01*
X151035000Y-86120000D01*
G36*
X151035000Y-86120000D02*
G01*
X150555000Y-86120000D01*
X150795000Y-85790000D01*
X151035000Y-86120000D01*
G37*
%TO.C,C1*%
X141128752Y-83185000D02*
X140606248Y-83185000D01*
X141128752Y-84655000D02*
X140606248Y-84655000D01*
%TO.C,C4*%
X141805000Y-66513748D02*
X141805000Y-67036252D01*
X143275000Y-66513748D02*
X143275000Y-67036252D01*
%TO.C,C3*%
X138630000Y-66513748D02*
X138630000Y-67036252D01*
X140100000Y-66513748D02*
X140100000Y-67036252D01*
%TO.C,C5*%
X131805000Y-84333748D02*
X131805000Y-84856252D01*
X133275000Y-84333748D02*
X133275000Y-84856252D01*
%TD*%
M02*
