M48
; DRILL file {KiCad 8.0.1-8.0.1-1~ubuntu22.04.1} date 2024-04-07T12:25:42+0300
; FORMAT={-:-/ absolute / inch / decimal}
; #@! TF.CreationDate,2024-04-07T12:25:42+03:00
; #@! TF.GenerationSoftware,Kicad,Pcbnew,8.0.1-8.0.1-1~ubuntu22.04.1
; #@! TF.FileFunction,Plated,1,2,PTH
FMAT,2
INCH
; #@! TA.AperFunction,Plated,PTH,ViaDrill
T1C0.0118
; #@! TA.AperFunction,Plated,PTH,ComponentDrill
T2C0.0256
; #@! TA.AperFunction,Plated,PTH,ComponentDrill
T3C0.0295
; #@! TA.AperFunction,Plated,PTH,ComponentDrill
T4C0.0394
; #@! TA.AperFunction,Plated,PTH,ComponentDrill
T5C0.1063
%
G90
G05
T1
X5.1931Y-3.2305
X5.3681Y-3.1055
X5.5431Y-2.5305
X5.5431Y-3.1055
X5.7181Y-3.1055
X5.9181Y-2.9055
X5.9431Y-2.5805
X6.4431Y-3.0055
X6.4431Y-3.1055
X6.5431Y-3.0055
X6.5431Y-3.1055
T2
X5.1181Y-3.0555
X5.1181Y-3.1055
X5.1181Y-3.1555
X5.1181Y-3.2055
X5.1181Y-3.2555
X5.1181Y-3.3055
X5.1181Y-3.3555
X5.1181Y-3.4055
T3
X5.1881Y-2.5393
X5.1881Y-2.618
X5.1881Y-2.6968
X5.1881Y-2.7755
X5.1881Y-2.8543
X5.1881Y-2.933
T4
X6.3931Y-2.8555
X6.3931Y-2.9555
X6.3931Y-3.0555
X6.3931Y-3.1555
X6.4931Y-2.8555
X6.4931Y-2.9555
X6.4931Y-3.0555
X6.4931Y-3.1555
T5
X6.5748Y-2.5
X6.5748Y-3.4843
M30
