%TF.GenerationSoftware,KiCad,Pcbnew,8.0.1-8.0.1-1~ubuntu22.04.1*%
%TF.CreationDate,2024-04-07T12:25:32+03:00*%
%TF.ProjectId,layout_2,6c61796f-7574-45f3-922e-6b696361645f,rev?*%
%TF.SameCoordinates,Original*%
%TF.FileFunction,Copper,L2,Bot*%
%TF.FilePolarity,Positive*%
%FSLAX46Y46*%
G04 Gerber Fmt 4.6, Leading zero omitted, Abs format (unit mm)*
G04 Created by KiCad (PCBNEW 8.0.1-8.0.1-1~ubuntu22.04.1) date 2024-04-07 12:25:32*
%MOMM*%
%LPD*%
G01*
G04 APERTURE LIST*
G04 Aperture macros list*
%AMRoundRect*
0 Rectangle with rounded corners*
0 $1 Rounding radius*
0 $2 $3 $4 $5 $6 $7 $8 $9 X,Y pos of 4 corners*
0 Add a 4 corners polygon primitive as box body*
4,1,4,$2,$3,$4,$5,$6,$7,$8,$9,$2,$3,0*
0 Add four circle primitives for the rounded corners*
1,1,$1+$1,$2,$3*
1,1,$1+$1,$4,$5*
1,1,$1+$1,$6,$7*
1,1,$1+$1,$8,$9*
0 Add four rect primitives between the rounded corners*
20,1,$1+$1,$2,$3,$4,$5,0*
20,1,$1+$1,$4,$5,$6,$7,0*
20,1,$1+$1,$6,$7,$8,$9,0*
20,1,$1+$1,$8,$9,$2,$3,0*%
G04 Aperture macros list end*
%TA.AperFunction,ComponentPad*%
%ADD10RoundRect,0.250000X-0.625000X0.350000X-0.625000X-0.350000X0.625000X-0.350000X0.625000X0.350000X0*%
%TD*%
%TA.AperFunction,ComponentPad*%
%ADD11O,1.750000X1.200000*%
%TD*%
%TA.AperFunction,ComponentPad*%
%ADD12C,4.700000*%
%TD*%
%TA.AperFunction,ComponentPad*%
%ADD13R,1.000000X1.000000*%
%TD*%
%TA.AperFunction,ComponentPad*%
%ADD14O,1.000000X1.000000*%
%TD*%
%TA.AperFunction,SMDPad,CuDef*%
%ADD15RoundRect,0.150000X-0.825000X-0.150000X0.825000X-0.150000X0.825000X0.150000X-0.825000X0.150000X0*%
%TD*%
%TA.AperFunction,SMDPad,CuDef*%
%ADD16RoundRect,0.250000X-0.337500X-0.475000X0.337500X-0.475000X0.337500X0.475000X-0.337500X0.475000X0*%
%TD*%
%TA.AperFunction,ComponentPad*%
%ADD17RoundRect,0.250000X-0.600000X-0.600000X0.600000X-0.600000X0.600000X0.600000X-0.600000X0.600000X0*%
%TD*%
%TA.AperFunction,ComponentPad*%
%ADD18C,1.700000*%
%TD*%
%TA.AperFunction,SMDPad,CuDef*%
%ADD19RoundRect,0.250000X0.450000X-0.350000X0.450000X0.350000X-0.450000X0.350000X-0.450000X-0.350000X0*%
%TD*%
%TA.AperFunction,SMDPad,CuDef*%
%ADD20RoundRect,0.250000X0.350000X-0.850000X0.350000X0.850000X-0.350000X0.850000X-0.350000X-0.850000X0*%
%TD*%
%TA.AperFunction,SMDPad,CuDef*%
%ADD21RoundRect,0.250000X1.125000X-1.275000X1.125000X1.275000X-1.125000X1.275000X-1.125000X-1.275000X0*%
%TD*%
%TA.AperFunction,SMDPad,CuDef*%
%ADD22RoundRect,0.249997X2.650003X-2.950003X2.650003X2.950003X-2.650003X2.950003X-2.650003X-2.950003X0*%
%TD*%
%TA.AperFunction,SMDPad,CuDef*%
%ADD23RoundRect,0.250000X0.475000X-0.337500X0.475000X0.337500X-0.475000X0.337500X-0.475000X-0.337500X0*%
%TD*%
%TA.AperFunction,ViaPad*%
%ADD24C,0.600000*%
%TD*%
%TA.AperFunction,Conductor*%
%ADD25C,0.200000*%
%TD*%
G04 APERTURE END LIST*
D10*
%TO.P,J3,1,Pin_1*%
%TO.N,+3.3V*%
X131778000Y-64498000D03*
D11*
%TO.P,J3,2,Pin_2*%
%TO.N,GND*%
X131778000Y-66498000D03*
%TO.P,J3,3,Pin_3*%
%TO.N,/RX*%
X131778000Y-68498000D03*
%TO.P,J3,4,Pin_4*%
%TO.N,/TX*%
X131778000Y-70498000D03*
%TO.P,J3,5,Pin_5*%
%TO.N,unconnected-(J3-Pin_5-Pad5)*%
X131778000Y-72498000D03*
%TO.P,J3,6,Pin_6*%
%TO.N,/PPS*%
X131778000Y-74498000D03*
%TD*%
D12*
%TO.P,H1,1,1*%
%TO.N,GND*%
X167000000Y-88500000D03*
%TD*%
D13*
%TO.P,J1,1,Pin_1*%
%TO.N,+3.3V*%
X130000000Y-86500000D03*
D14*
%TO.P,J1,2,Pin_2*%
%TO.N,/TX*%
X130000000Y-85230000D03*
%TO.P,J1,3,Pin_3*%
%TO.N,/RX*%
X130000000Y-83960000D03*
%TO.P,J1,4,Pin_4*%
%TO.N,GND*%
X130000000Y-82690000D03*
%TO.P,J1,5,Pin_5*%
%TO.N,unconnected-(J1-Pin_5-Pad5)*%
X130000000Y-81420000D03*
%TO.P,J1,6,Pin_6*%
%TO.N,+3.3V*%
X130000000Y-80150000D03*
%TO.P,J1,7,Pin_7*%
%TO.N,/PPS*%
X130000000Y-78880000D03*
%TO.P,J1,8,Pin_8*%
%TO.N,unconnected-(J1-Pin_8-Pad8)*%
X130000000Y-77610000D03*
%TD*%
D12*
%TO.P,H2,1,1*%
%TO.N,GND*%
X167000000Y-63500000D03*
%TD*%
D15*
%TO.P,U3,1,VCC*%
%TO.N,+3.3V*%
X151020000Y-71260000D03*
%TO.P,U3,2,RO*%
%TO.N,unconnected-(U3-RO-Pad2)*%
X151020000Y-69990000D03*
%TO.P,U3,3,DI*%
%TO.N,/PPS*%
X151020000Y-68720000D03*
%TO.P,U3,4,GND*%
%TO.N,GND*%
X151020000Y-67450000D03*
%TO.P,U3,5,Y*%
%TO.N,/PPS+*%
X155970000Y-67450000D03*
%TO.P,U3,6,Z*%
%TO.N,/PPS-*%
X155970000Y-68720000D03*
%TO.P,U3,7,B*%
%TO.N,Net-(U3-A)*%
X155970000Y-69990000D03*
%TO.P,U3,8,A*%
X155970000Y-71260000D03*
%TD*%
D16*
%TO.P,C7,1*%
%TO.N,GND*%
X152457500Y-73800000D03*
%TO.P,C7,2*%
%TO.N,+3.3V*%
X154532500Y-73800000D03*
%TD*%
D17*
%TO.P,J2,1,Pin_1*%
%TO.N,/TX+*%
X162385000Y-80150000D03*
D18*
%TO.P,J2,2,Pin_2*%
%TO.N,/TX-*%
X164925000Y-80150000D03*
%TO.P,J2,3,Pin_3*%
%TO.N,/RX+*%
X162385000Y-77610000D03*
%TO.P,J2,4,Pin_4*%
%TO.N,GND*%
X164925000Y-77610000D03*
%TO.P,J2,5,Pin_5*%
%TO.N,+5V*%
X162385000Y-75070000D03*
%TO.P,J2,6,Pin_6*%
%TO.N,/RX-*%
X164925000Y-75070000D03*
%TO.P,J2,7,Pin_7*%
%TO.N,/PPS+*%
X162385000Y-72530000D03*
%TO.P,J2,8,Pin_8*%
%TO.N,/PPS-*%
X164925000Y-72530000D03*
%TD*%
D16*
%TO.P,C6,1*%
%TO.N,GND*%
X152457500Y-78880000D03*
%TO.P,C6,2*%
%TO.N,+3.3V*%
X154532500Y-78880000D03*
%TD*%
%TO.P,C2,1*%
%TO.N,+5V*%
X139830000Y-81380000D03*
%TO.P,C2,2*%
%TO.N,GND*%
X141905000Y-81380000D03*
%TD*%
D19*
%TO.P,R1,1*%
%TO.N,/RX+*%
X157305000Y-76070000D03*
%TO.P,R1,2*%
%TO.N,/RX-*%
X157305000Y-74070000D03*
%TD*%
D20*
%TO.P,U1,1,GND*%
%TO.N,GND*%
X143075000Y-78840000D03*
D21*
%TO.P,U1,2,VO*%
%TO.N,+3.3V*%
X139270000Y-74215000D03*
X142320000Y-74215000D03*
D22*
X140795000Y-72540000D03*
D21*
X139270000Y-70865000D03*
X142320000Y-70865000D03*
D20*
%TO.P,U1,3,VI*%
%TO.N,+5V*%
X138515000Y-78840000D03*
%TD*%
D15*
%TO.P,U2,1,VCC*%
%TO.N,+3.3V*%
X151020000Y-85230000D03*
%TO.P,U2,2,RO*%
%TO.N,/RX*%
X151020000Y-83960000D03*
%TO.P,U2,3,DI*%
%TO.N,/TX*%
X151020000Y-82690000D03*
%TO.P,U2,4,GND*%
%TO.N,GND*%
X151020000Y-81420000D03*
%TO.P,U2,5,Y*%
%TO.N,/TX+*%
X155970000Y-81420000D03*
%TO.P,U2,6,Z*%
%TO.N,/TX-*%
X155970000Y-82690000D03*
%TO.P,U2,7,B*%
%TO.N,/RX-*%
X155970000Y-83960000D03*
%TO.P,U2,8,A*%
%TO.N,/RX+*%
X155970000Y-85230000D03*
%TD*%
D16*
%TO.P,C1,1*%
%TO.N,+5V*%
X139830000Y-83920000D03*
%TO.P,C1,2*%
%TO.N,GND*%
X141905000Y-83920000D03*
%TD*%
D23*
%TO.P,C4,1*%
%TO.N,+3.3V*%
X142540000Y-67812500D03*
%TO.P,C4,2*%
%TO.N,GND*%
X142540000Y-65737500D03*
%TD*%
%TO.P,C3,1*%
%TO.N,+3.3V*%
X139365000Y-67812500D03*
%TO.P,C3,2*%
%TO.N,GND*%
X139365000Y-65737500D03*
%TD*%
%TO.P,C5,1*%
%TO.N,+3.3V*%
X132540000Y-85632500D03*
%TO.P,C5,2*%
%TO.N,GND*%
X132540000Y-83557500D03*
%TD*%
D24*
%TO.N,GND*%
X150955000Y-65545000D03*
%TO.N,+5V*%
X140795000Y-78880000D03*
%TO.N,GND*%
X166195000Y-76340000D03*
X166195000Y-78880000D03*
X163655000Y-76340000D03*
X150320000Y-73800000D03*
X145240000Y-78880000D03*
X136350000Y-78880000D03*
X131905000Y-82055000D03*
X140795000Y-64275000D03*
X163655000Y-78880000D03*
%TD*%
D25*
%TO.N,/PPS*%
X151020000Y-68720000D02*
X152225000Y-68720000D01*
X152225000Y-68720000D02*
X152860000Y-68085000D01*
X152860000Y-68085000D02*
X152860000Y-63005000D01*
X152225000Y-62370000D02*
X130000000Y-62370000D01*
X152860000Y-63005000D02*
X152225000Y-62370000D01*
X130000000Y-62370000D02*
X128730000Y-63640000D01*
X128730000Y-63640000D02*
X128730000Y-74435000D01*
%TO.N,+5V*%
X138890000Y-79215000D02*
X138515000Y-78840000D01*
X139525000Y-83615000D02*
X139525000Y-81685000D01*
X139830000Y-83920000D02*
X139525000Y-83615000D01*
X139830000Y-81380000D02*
X139485000Y-81380000D01*
X138890000Y-80785000D02*
X138890000Y-79215000D01*
X140755000Y-78840000D02*
X138515000Y-78840000D01*
X140795000Y-78880000D02*
X140755000Y-78840000D01*
X139525000Y-81685000D02*
X139830000Y-81380000D01*
X163020000Y-75070000D02*
X162385000Y-75070000D01*
X139485000Y-81380000D02*
X138890000Y-80785000D01*
%TO.N,GND*%
X164925000Y-77610000D02*
X165560000Y-77610000D01*
X164290000Y-77610000D02*
X164925000Y-77610000D01*
%TO.N,+3.3V*%
X131672500Y-86500000D02*
X132540000Y-85632500D01*
X130000000Y-86500000D02*
X131672500Y-86500000D01*
X154532500Y-72932500D02*
X152860000Y-71260000D01*
X154532500Y-78880000D02*
X154532500Y-79313750D01*
X142540000Y-70795000D02*
X140795000Y-72540000D01*
X151994999Y-85230000D02*
X151020000Y-85230000D01*
X154532500Y-73800000D02*
X154532500Y-72932500D01*
X140795000Y-72540000D02*
X144595000Y-76340000D01*
X140785000Y-72540000D02*
X133175000Y-80150000D01*
X154532500Y-73800000D02*
X154532500Y-76340000D01*
X140795000Y-72540000D02*
X139365000Y-71110000D01*
X154532500Y-79313750D02*
X152860000Y-80986250D01*
X139365000Y-71110000D02*
X139365000Y-67812500D01*
X139252500Y-67812500D02*
X135938000Y-64498000D01*
X142540000Y-67812500D02*
X142540000Y-70795000D01*
X139365000Y-67812500D02*
X139252500Y-67812500D01*
X152860000Y-80986250D02*
X152860000Y-84364999D01*
X140795000Y-72540000D02*
X140785000Y-72540000D01*
X152860000Y-84364999D02*
X151994999Y-85230000D01*
X144595000Y-76340000D02*
X154532500Y-76340000D01*
X154532500Y-76340000D02*
X154532500Y-78880000D01*
X133175000Y-80150000D02*
X130000000Y-80150000D01*
X135938000Y-64498000D02*
X131778000Y-64498000D01*
X152860000Y-71260000D02*
X151020000Y-71260000D01*
%TO.N,/RX*%
X144605000Y-88405000D02*
X149050000Y-83960000D01*
X128100000Y-85225000D02*
X128100000Y-87775000D01*
X128730000Y-88405000D02*
X144605000Y-88405000D01*
X149050000Y-83960000D02*
X151020000Y-83960000D01*
X128100000Y-87775000D02*
X128730000Y-88405000D01*
X130000000Y-83960000D02*
X129365000Y-83960000D01*
X129365000Y-83960000D02*
X128100000Y-85225000D01*
%TO.N,/PPS*%
X128730000Y-78245000D02*
X129365000Y-78880000D01*
X131778000Y-74498000D02*
X128793000Y-74498000D01*
X128793000Y-74498000D02*
X128730000Y-74435000D01*
X128730000Y-74435000D02*
X128730000Y-78245000D01*
X129365000Y-78880000D02*
X130000000Y-78880000D01*
%TO.N,/TX*%
X128730000Y-87135000D02*
X129365000Y-87770000D01*
X130000000Y-85230000D02*
X129365000Y-85230000D01*
X149050000Y-82690000D02*
X151020000Y-82690000D01*
X143970000Y-87770000D02*
X149050000Y-82690000D01*
X129365000Y-85230000D02*
X128730000Y-85865000D01*
X128730000Y-85865000D02*
X128730000Y-87135000D01*
X129365000Y-87770000D02*
X143970000Y-87770000D01*
%TO.N,/PPS+*%
X157305000Y-67450000D02*
X162385000Y-72530000D01*
X155970000Y-67450000D02*
X157305000Y-67450000D01*
%TO.N,/RX-*%
X166195000Y-75070000D02*
X164925000Y-75070000D01*
X163655000Y-73800000D02*
X164925000Y-75070000D01*
X157575000Y-73800000D02*
X163655000Y-73800000D01*
X166830000Y-75705000D02*
X166195000Y-75070000D01*
X166830000Y-80150000D02*
X166830000Y-75705000D01*
X163020000Y-83960000D02*
X166830000Y-80150000D01*
X155970000Y-83960000D02*
X163020000Y-83960000D01*
X157305000Y-74070000D02*
X157575000Y-73800000D01*
%TO.N,/TX-*%
X155970000Y-82690000D02*
X162385000Y-82690000D01*
X162385000Y-82690000D02*
X164925000Y-80150000D01*
%TO.N,/TX+*%
X161115000Y-81420000D02*
X155970000Y-81420000D01*
X162385000Y-80150000D02*
X161115000Y-81420000D01*
%TO.N,/RX+*%
X154130000Y-81420000D02*
X154130000Y-84364999D01*
X161115000Y-76340000D02*
X162385000Y-77610000D01*
X157305000Y-78245000D02*
X154130000Y-81420000D01*
X154995001Y-85230000D02*
X155970000Y-85230000D01*
X157575000Y-76340000D02*
X161115000Y-76340000D01*
X157305000Y-76070000D02*
X157305000Y-78245000D01*
X154130000Y-84364999D02*
X154995001Y-85230000D01*
X157305000Y-76070000D02*
X157575000Y-76340000D01*
%TO.N,/PPS-*%
X154130000Y-66815000D02*
X154765000Y-66180000D01*
X154765000Y-66180000D02*
X158575000Y-66180000D01*
X158575000Y-66180000D02*
X164925000Y-72530000D01*
X154130000Y-68085000D02*
X154130000Y-66815000D01*
X155970000Y-68720000D02*
X154765000Y-68720000D01*
X154765000Y-68720000D02*
X154130000Y-68085000D01*
%TO.N,Net-(U3-A)*%
X155970000Y-69990000D02*
X155970000Y-71260000D01*
%TD*%
%TA.AperFunction,Conductor*%
%TO.N,GND*%
G36*
X169442539Y-61020185D02*
G01*
X169488294Y-61072989D01*
X169499500Y-61124500D01*
X169499500Y-90875500D01*
X169479815Y-90942539D01*
X169427011Y-90988294D01*
X169375500Y-90999500D01*
X128124500Y-90999500D01*
X128057461Y-90979815D01*
X128011706Y-90927011D01*
X128000500Y-90875500D01*
X128000500Y-88470544D01*
X128020185Y-88403505D01*
X128072989Y-88357750D01*
X128142147Y-88347806D01*
X128205703Y-88376831D01*
X128212181Y-88382863D01*
X128514788Y-88685470D01*
X128594712Y-88731614D01*
X128683856Y-88755500D01*
X128683857Y-88755500D01*
X128683858Y-88755500D01*
X144651142Y-88755500D01*
X144651144Y-88755500D01*
X144740288Y-88731614D01*
X144820212Y-88685470D01*
X149158862Y-84346818D01*
X149220185Y-84313334D01*
X149246543Y-84310500D01*
X149777745Y-84310500D01*
X149844784Y-84330185D01*
X149865426Y-84346819D01*
X149956652Y-84438045D01*
X149956654Y-84438046D01*
X149956658Y-84438050D01*
X150047851Y-84484515D01*
X150098647Y-84532490D01*
X150115442Y-84600311D01*
X150092904Y-84666446D01*
X150047852Y-84705484D01*
X149956658Y-84751950D01*
X149956657Y-84751951D01*
X149956652Y-84751954D01*
X149866954Y-84841652D01*
X149866951Y-84841657D01*
X149809352Y-84954698D01*
X149794500Y-85048475D01*
X149794500Y-85411517D01*
X149802438Y-85461633D01*
X149809354Y-85505304D01*
X149866950Y-85618342D01*
X149866952Y-85618344D01*
X149866954Y-85618347D01*
X149956652Y-85708045D01*
X149956654Y-85708046D01*
X149956658Y-85708050D01*
X150066532Y-85764034D01*
X150069698Y-85765647D01*
X150163475Y-85780499D01*
X150163481Y-85780500D01*
X151876518Y-85780499D01*
X151970304Y-85765646D01*
X152083342Y-85708050D01*
X152173050Y-85618342D01*
X152211219Y-85543430D01*
X152235078Y-85496607D01*
X152237015Y-85497594D01*
X152259044Y-85461635D01*
X153140470Y-84580211D01*
X153186614Y-84500287D01*
X153186616Y-84500280D01*
X153187686Y-84496288D01*
X153187687Y-84496282D01*
X153191666Y-84481428D01*
X153210500Y-84411143D01*
X153210500Y-81182793D01*
X153230185Y-81115754D01*
X153246814Y-81095117D01*
X154450113Y-79891817D01*
X154511436Y-79858333D01*
X154537794Y-79855499D01*
X154899457Y-79855499D01*
X154966496Y-79875184D01*
X155012251Y-79927988D01*
X155022195Y-79997146D01*
X154993170Y-80060702D01*
X154987138Y-80067180D01*
X153849531Y-81204786D01*
X153849529Y-81204788D01*
X153830153Y-81238348D01*
X153813774Y-81266720D01*
X153813773Y-81266722D01*
X153803386Y-81284710D01*
X153786867Y-81346363D01*
X153779500Y-81373856D01*
X153779500Y-84411143D01*
X153786709Y-84438048D01*
X153802313Y-84496282D01*
X153802314Y-84496288D01*
X153803383Y-84500280D01*
X153803388Y-84500291D01*
X153849525Y-84580204D01*
X153849531Y-84580212D01*
X154730954Y-85461635D01*
X154752991Y-85497593D01*
X154754924Y-85496609D01*
X154759353Y-85505302D01*
X154759354Y-85505304D01*
X154816950Y-85618342D01*
X154816952Y-85618344D01*
X154816954Y-85618347D01*
X154906652Y-85708045D01*
X154906654Y-85708046D01*
X154906658Y-85708050D01*
X155016532Y-85764034D01*
X155019698Y-85765647D01*
X155113475Y-85780499D01*
X155113481Y-85780500D01*
X156826518Y-85780499D01*
X156920304Y-85765646D01*
X157033342Y-85708050D01*
X157123050Y-85618342D01*
X157180646Y-85505304D01*
X157180646Y-85505302D01*
X157180647Y-85505301D01*
X157195499Y-85411524D01*
X157195500Y-85411519D01*
X157195499Y-85048482D01*
X157180646Y-84954696D01*
X157123050Y-84841658D01*
X157123046Y-84841654D01*
X157123045Y-84841652D01*
X157033347Y-84751954D01*
X157033343Y-84751951D01*
X157033342Y-84751950D01*
X157030599Y-84750552D01*
X156942147Y-84705483D01*
X156891352Y-84657509D01*
X156874557Y-84589687D01*
X156897095Y-84523553D01*
X156942145Y-84484517D01*
X157033342Y-84438050D01*
X157060252Y-84411140D01*
X157124574Y-84346819D01*
X157185897Y-84313334D01*
X157212255Y-84310500D01*
X163066142Y-84310500D01*
X163066144Y-84310500D01*
X163155288Y-84286614D01*
X163235212Y-84240470D01*
X167110470Y-80365212D01*
X167156614Y-80285288D01*
X167180500Y-80196143D01*
X167180500Y-80103856D01*
X167180500Y-75658856D01*
X167156614Y-75569712D01*
X167138232Y-75537874D01*
X167138232Y-75537873D01*
X167110472Y-75489791D01*
X167110468Y-75489786D01*
X166410213Y-74789531D01*
X166410208Y-74789527D01*
X166330290Y-74743387D01*
X166330289Y-74743386D01*
X166330288Y-74743386D01*
X166241144Y-74719500D01*
X166241143Y-74719500D01*
X166056635Y-74719500D01*
X165989596Y-74699815D01*
X165945635Y-74650772D01*
X165879076Y-74517104D01*
X165864673Y-74488179D01*
X165784855Y-74382483D01*
X165741762Y-74325418D01*
X165591041Y-74188019D01*
X165591039Y-74188017D01*
X165417642Y-74080655D01*
X165417635Y-74080651D01*
X165273734Y-74024904D01*
X165227456Y-74006976D01*
X165026976Y-73969500D01*
X164823024Y-73969500D01*
X164622544Y-74006976D01*
X164622541Y-74006976D01*
X164622541Y-74006977D01*
X164506963Y-74051752D01*
X164437339Y-74057614D01*
X164375599Y-74024904D01*
X164374488Y-74023806D01*
X163870213Y-73519531D01*
X163870208Y-73519527D01*
X163790290Y-73473387D01*
X163790289Y-73473386D01*
X163790288Y-73473386D01*
X163701144Y-73449500D01*
X163701143Y-73449500D01*
X163318695Y-73449500D01*
X163251656Y-73429815D01*
X163205901Y-73377011D01*
X163195957Y-73307853D01*
X163219741Y-73250773D01*
X163324673Y-73111821D01*
X163415582Y-72929250D01*
X163471397Y-72733083D01*
X163490215Y-72530000D01*
X163471397Y-72326917D01*
X163415582Y-72130750D01*
X163404313Y-72108119D01*
X163339076Y-71977104D01*
X163324673Y-71948179D01*
X163220702Y-71810499D01*
X163201762Y-71785418D01*
X163051041Y-71648019D01*
X163051039Y-71648017D01*
X162877642Y-71540655D01*
X162877635Y-71540651D01*
X162733734Y-71484904D01*
X162687456Y-71466976D01*
X162486976Y-71429500D01*
X162283024Y-71429500D01*
X162082544Y-71466976D01*
X162082541Y-71466976D01*
X162082541Y-71466977D01*
X161966963Y-71511752D01*
X161897339Y-71517614D01*
X161835599Y-71484904D01*
X161834488Y-71483806D01*
X157520213Y-67169531D01*
X157520208Y-67169527D01*
X157440290Y-67123387D01*
X157440289Y-67123386D01*
X157440288Y-67123386D01*
X157351144Y-67099500D01*
X157351143Y-67099500D01*
X157212255Y-67099500D01*
X157145216Y-67079815D01*
X157124574Y-67063181D01*
X157033347Y-66971954D01*
X157033344Y-66971952D01*
X157033342Y-66971950D01*
X156956517Y-66932805D01*
X156920301Y-66914352D01*
X156826524Y-66899500D01*
X155113482Y-66899500D01*
X155032519Y-66912323D01*
X155019696Y-66914354D01*
X154906658Y-66971950D01*
X154906657Y-66971951D01*
X154906652Y-66971954D01*
X154816954Y-67061652D01*
X154816951Y-67061657D01*
X154759352Y-67174698D01*
X154744500Y-67268475D01*
X154744500Y-67631517D01*
X154752208Y-67680182D01*
X154759354Y-67725304D01*
X154816950Y-67838342D01*
X154816952Y-67838344D01*
X154816954Y-67838347D01*
X154906652Y-67928045D01*
X154906654Y-67928046D01*
X154906658Y-67928050D01*
X154997851Y-67974515D01*
X155048647Y-68022490D01*
X155065442Y-68090311D01*
X155042904Y-68156446D01*
X154997850Y-68195485D01*
X154904766Y-68242913D01*
X154836097Y-68255809D01*
X154771357Y-68229532D01*
X154760791Y-68220109D01*
X154516819Y-67976137D01*
X154483334Y-67914814D01*
X154480500Y-67888456D01*
X154480500Y-67011544D01*
X154500185Y-66944505D01*
X154516819Y-66923863D01*
X154873863Y-66566819D01*
X154935186Y-66533334D01*
X154961544Y-66530500D01*
X158378456Y-66530500D01*
X158445495Y-66550185D01*
X158466137Y-66566819D01*
X163876422Y-71977104D01*
X163909907Y-72038427D01*
X163904923Y-72108119D01*
X163899745Y-72120049D01*
X163894419Y-72130745D01*
X163894419Y-72130746D01*
X163838602Y-72326917D01*
X163819785Y-72529999D01*
X163819785Y-72530000D01*
X163838602Y-72733082D01*
X163894417Y-72929247D01*
X163894422Y-72929260D01*
X163985327Y-73111821D01*
X164108237Y-73274581D01*
X164258958Y-73411980D01*
X164258960Y-73411982D01*
X164287762Y-73429815D01*
X164432363Y-73519348D01*
X164622544Y-73593024D01*
X164823024Y-73630500D01*
X164823026Y-73630500D01*
X165026974Y-73630500D01*
X165026976Y-73630500D01*
X165227456Y-73593024D01*
X165417637Y-73519348D01*
X165591041Y-73411981D01*
X165738969Y-73277127D01*
X165741762Y-73274581D01*
X165759741Y-73250773D01*
X165864673Y-73111821D01*
X165955582Y-72929250D01*
X166011397Y-72733083D01*
X166030215Y-72530000D01*
X166011397Y-72326917D01*
X165955582Y-72130750D01*
X165944313Y-72108119D01*
X165879076Y-71977104D01*
X165864673Y-71948179D01*
X165760702Y-71810499D01*
X165741762Y-71785418D01*
X165591041Y-71648019D01*
X165591039Y-71648017D01*
X165417642Y-71540655D01*
X165417635Y-71540651D01*
X165273734Y-71484904D01*
X165227456Y-71466976D01*
X165026976Y-71429500D01*
X164823024Y-71429500D01*
X164622544Y-71466976D01*
X164622541Y-71466976D01*
X164622541Y-71466977D01*
X164506963Y-71511752D01*
X164437339Y-71517614D01*
X164375599Y-71484904D01*
X164374488Y-71483806D01*
X158790213Y-65899531D01*
X158790208Y-65899527D01*
X158710290Y-65853387D01*
X158710289Y-65853386D01*
X158710288Y-65853386D01*
X158621144Y-65829500D01*
X154718856Y-65829500D01*
X154629712Y-65853386D01*
X154629709Y-65853387D01*
X154549791Y-65899527D01*
X154549786Y-65899531D01*
X153849529Y-66599788D01*
X153828772Y-66635743D01*
X153810513Y-66667368D01*
X153803876Y-66678863D01*
X153803385Y-66679714D01*
X153779500Y-66768856D01*
X153779500Y-68131144D01*
X153789777Y-68169500D01*
X153789778Y-68169500D01*
X153789778Y-68169501D01*
X153803386Y-68220288D01*
X153803388Y-68220291D01*
X153849527Y-68300208D01*
X153849529Y-68300211D01*
X153849530Y-68300212D01*
X154549788Y-69000470D01*
X154618537Y-69040162D01*
X154629712Y-69046614D01*
X154718856Y-69070500D01*
X154718857Y-69070500D01*
X154727745Y-69070500D01*
X154794784Y-69090185D01*
X154815426Y-69106819D01*
X154906652Y-69198045D01*
X154906654Y-69198046D01*
X154906658Y-69198050D01*
X154997851Y-69244515D01*
X155048647Y-69292490D01*
X155065442Y-69360311D01*
X155042904Y-69426446D01*
X154997852Y-69465484D01*
X154906658Y-69511950D01*
X154906657Y-69511951D01*
X154906652Y-69511954D01*
X154816954Y-69601652D01*
X154816951Y-69601657D01*
X154759352Y-69714698D01*
X154744500Y-69808475D01*
X154744500Y-70171517D01*
X154755292Y-70239657D01*
X154759354Y-70265304D01*
X154816950Y-70378342D01*
X154816952Y-70378344D01*
X154816954Y-70378347D01*
X154906652Y-70468045D01*
X154906654Y-70468046D01*
X154906658Y-70468050D01*
X154997851Y-70514515D01*
X155048647Y-70562490D01*
X155065442Y-70630311D01*
X155042904Y-70696446D01*
X154997852Y-70735484D01*
X154906658Y-70781950D01*
X154906657Y-70781951D01*
X154906652Y-70781954D01*
X154816954Y-70871652D01*
X154816951Y-70871657D01*
X154759352Y-70984698D01*
X154744500Y-71078475D01*
X154744500Y-71441517D01*
X154751198Y-71483806D01*
X154759354Y-71535304D01*
X154816950Y-71648342D01*
X154816952Y-71648344D01*
X154816954Y-71648347D01*
X154906652Y-71738045D01*
X154906654Y-71738046D01*
X154906658Y-71738050D01*
X155019694Y-71795645D01*
X155019698Y-71795647D01*
X155113475Y-71810499D01*
X155113481Y-71810500D01*
X156826518Y-71810499D01*
X156920304Y-71795646D01*
X157033342Y-71738050D01*
X157123050Y-71648342D01*
X157180646Y-71535304D01*
X157180646Y-71535302D01*
X157180647Y-71535301D01*
X157195499Y-71441524D01*
X157195500Y-71441519D01*
X157195499Y-71078482D01*
X157180646Y-70984696D01*
X157123050Y-70871658D01*
X157123046Y-70871654D01*
X157123045Y-70871652D01*
X157033347Y-70781954D01*
X157033343Y-70781951D01*
X157033342Y-70781950D01*
X157030599Y-70780552D01*
X156942147Y-70735483D01*
X156891352Y-70687509D01*
X156874557Y-70619687D01*
X156897095Y-70553553D01*
X156942145Y-70514517D01*
X157033342Y-70468050D01*
X157123050Y-70378342D01*
X157180646Y-70265304D01*
X157180646Y-70265302D01*
X157180647Y-70265301D01*
X157195499Y-70171524D01*
X157195500Y-70171519D01*
X157195499Y-69808482D01*
X157180646Y-69714696D01*
X157123050Y-69601658D01*
X157123046Y-69601654D01*
X157123045Y-69601652D01*
X157033347Y-69511954D01*
X157033343Y-69511951D01*
X157033342Y-69511950D01*
X157030599Y-69510552D01*
X156942147Y-69465483D01*
X156891352Y-69417509D01*
X156874557Y-69349687D01*
X156897095Y-69283553D01*
X156942145Y-69244517D01*
X157033342Y-69198050D01*
X157123050Y-69108342D01*
X157180646Y-68995304D01*
X157180646Y-68995302D01*
X157180647Y-68995301D01*
X157195499Y-68901524D01*
X157195500Y-68901519D01*
X157195499Y-68538482D01*
X157180646Y-68444696D01*
X157123050Y-68331658D01*
X157123046Y-68331654D01*
X157123045Y-68331652D01*
X157033347Y-68241954D01*
X157033343Y-68241951D01*
X157033342Y-68241950D01*
X157030599Y-68240552D01*
X156942147Y-68195483D01*
X156891352Y-68147509D01*
X156874557Y-68079687D01*
X156897095Y-68013553D01*
X156942145Y-67974517D01*
X157033342Y-67928050D01*
X157072673Y-67888719D01*
X157133996Y-67855233D01*
X157203687Y-67860217D01*
X157248036Y-67888718D01*
X161336422Y-71977104D01*
X161369907Y-72038427D01*
X161364923Y-72108119D01*
X161359745Y-72120049D01*
X161354419Y-72130745D01*
X161354419Y-72130746D01*
X161298602Y-72326917D01*
X161279785Y-72529999D01*
X161279785Y-72530000D01*
X161298602Y-72733082D01*
X161354417Y-72929247D01*
X161354422Y-72929260D01*
X161430811Y-73082669D01*
X161445327Y-73111821D01*
X161531482Y-73225909D01*
X161550259Y-73250773D01*
X161574951Y-73316134D01*
X161560386Y-73384469D01*
X161511189Y-73434082D01*
X161451305Y-73449500D01*
X158239778Y-73449500D01*
X158172739Y-73429815D01*
X158140511Y-73399810D01*
X158112550Y-73362458D01*
X158112547Y-73362455D01*
X158112546Y-73362454D01*
X158050671Y-73316134D01*
X157997335Y-73276206D01*
X157997328Y-73276202D01*
X157862482Y-73225908D01*
X157862483Y-73225908D01*
X157802883Y-73219501D01*
X157802881Y-73219500D01*
X157802873Y-73219500D01*
X157802864Y-73219500D01*
X156807129Y-73219500D01*
X156807123Y-73219501D01*
X156747516Y-73225908D01*
X156612671Y-73276202D01*
X156612664Y-73276206D01*
X156497455Y-73362452D01*
X156497452Y-73362455D01*
X156411206Y-73477664D01*
X156411202Y-73477671D01*
X156360908Y-73612517D01*
X156354501Y-73672116D01*
X156354500Y-73672135D01*
X156354500Y-74467870D01*
X156354501Y-74467876D01*
X156360908Y-74527483D01*
X156411202Y-74662328D01*
X156411206Y-74662335D01*
X156497452Y-74777544D01*
X156497455Y-74777547D01*
X156612664Y-74863793D01*
X156612671Y-74863797D01*
X156747517Y-74914091D01*
X156747516Y-74914091D01*
X156754444Y-74914835D01*
X156807127Y-74920500D01*
X157802872Y-74920499D01*
X157862483Y-74914091D01*
X157997331Y-74863796D01*
X158112546Y-74777546D01*
X158198796Y-74662331D01*
X158249091Y-74527483D01*
X158255500Y-74467873D01*
X158255500Y-74274500D01*
X158275185Y-74207461D01*
X158327989Y-74161706D01*
X158379500Y-74150500D01*
X161451305Y-74150500D01*
X161518344Y-74170185D01*
X161564099Y-74222989D01*
X161574043Y-74292147D01*
X161550259Y-74349227D01*
X161445327Y-74488178D01*
X161354422Y-74670739D01*
X161354417Y-74670752D01*
X161298602Y-74866917D01*
X161279785Y-75069999D01*
X161279785Y-75070000D01*
X161298602Y-75273082D01*
X161354417Y-75469247D01*
X161354422Y-75469260D01*
X161445327Y-75651821D01*
X161568237Y-75814581D01*
X161718958Y-75951980D01*
X161718960Y-75951982D01*
X161747762Y-75969815D01*
X161892363Y-76059348D01*
X162082544Y-76133024D01*
X162283024Y-76170500D01*
X162283026Y-76170500D01*
X162486974Y-76170500D01*
X162486976Y-76170500D01*
X162687456Y-76133024D01*
X162877637Y-76059348D01*
X163051041Y-75951981D01*
X163201764Y-75814579D01*
X163324673Y-75651821D01*
X163415582Y-75469250D01*
X163471397Y-75273083D01*
X163490215Y-75070000D01*
X163481180Y-74972500D01*
X163471397Y-74866917D01*
X163453331Y-74803424D01*
X163415582Y-74670750D01*
X163411388Y-74662328D01*
X163339076Y-74517104D01*
X163324673Y-74488179D01*
X163219740Y-74349225D01*
X163195049Y-74283866D01*
X163209614Y-74215531D01*
X163258811Y-74165918D01*
X163318695Y-74150500D01*
X163458456Y-74150500D01*
X163525495Y-74170185D01*
X163546137Y-74186819D01*
X163876422Y-74517104D01*
X163909907Y-74578427D01*
X163904923Y-74648119D01*
X163899745Y-74660049D01*
X163894419Y-74670745D01*
X163894419Y-74670746D01*
X163838602Y-74866917D01*
X163819785Y-75069999D01*
X163819785Y-75070000D01*
X163838602Y-75273082D01*
X163894417Y-75469247D01*
X163894422Y-75469260D01*
X163985327Y-75651821D01*
X164108237Y-75814581D01*
X164258958Y-75951980D01*
X164258960Y-75951982D01*
X164287762Y-75969815D01*
X164432363Y-76059348D01*
X164622544Y-76133024D01*
X164823024Y-76170500D01*
X164823026Y-76170500D01*
X165026974Y-76170500D01*
X165026976Y-76170500D01*
X165227456Y-76133024D01*
X165417637Y-76059348D01*
X165591041Y-75951981D01*
X165741764Y-75814579D01*
X165864673Y-75651821D01*
X165884244Y-75612517D01*
X165926295Y-75528068D01*
X165973798Y-75476830D01*
X166041461Y-75459409D01*
X166107801Y-75481334D01*
X166124976Y-75495658D01*
X166443181Y-75813863D01*
X166476666Y-75875186D01*
X166479500Y-75901544D01*
X166479500Y-79953455D01*
X166459815Y-80020494D01*
X166443181Y-80041136D01*
X166241896Y-80242421D01*
X166180573Y-80275906D01*
X166110881Y-80270922D01*
X166054948Y-80229050D01*
X166030531Y-80163586D01*
X166030215Y-80154740D01*
X166030215Y-80149999D01*
X166011397Y-79946917D01*
X165985386Y-79855499D01*
X165955582Y-79750750D01*
X165950962Y-79741472D01*
X165877450Y-79593839D01*
X165864673Y-79568179D01*
X165750002Y-79416330D01*
X165741762Y-79405418D01*
X165591041Y-79268019D01*
X165591039Y-79268017D01*
X165417642Y-79160655D01*
X165417635Y-79160651D01*
X165322546Y-79123814D01*
X165227456Y-79086976D01*
X165026976Y-79049500D01*
X164823024Y-79049500D01*
X164622544Y-79086976D01*
X164622541Y-79086976D01*
X164622541Y-79086977D01*
X164432364Y-79160651D01*
X164432357Y-79160655D01*
X164258960Y-79268017D01*
X164258958Y-79268019D01*
X164108237Y-79405418D01*
X163985327Y-79568178D01*
X163894422Y-79750739D01*
X163894417Y-79750752D01*
X163838602Y-79946917D01*
X163819785Y-80149999D01*
X163819785Y-80150000D01*
X163838602Y-80353082D01*
X163894418Y-80549253D01*
X163899741Y-80559941D01*
X163912002Y-80628726D01*
X163885129Y-80693221D01*
X163876422Y-80702894D01*
X163697180Y-80882136D01*
X163635857Y-80915621D01*
X163566165Y-80910637D01*
X163510232Y-80868765D01*
X163485815Y-80803301D01*
X163485499Y-80794482D01*
X163485499Y-79502128D01*
X163479091Y-79442517D01*
X163464304Y-79402872D01*
X163428797Y-79307671D01*
X163428793Y-79307664D01*
X163342547Y-79192455D01*
X163342544Y-79192452D01*
X163227335Y-79106206D01*
X163227328Y-79106202D01*
X163092482Y-79055908D01*
X163092483Y-79055908D01*
X163032883Y-79049501D01*
X163032881Y-79049500D01*
X163032873Y-79049500D01*
X163032864Y-79049500D01*
X161737129Y-79049500D01*
X161737123Y-79049501D01*
X161677516Y-79055908D01*
X161542671Y-79106202D01*
X161542664Y-79106206D01*
X161427455Y-79192452D01*
X161427452Y-79192455D01*
X161341206Y-79307664D01*
X161341202Y-79307671D01*
X161290908Y-79442517D01*
X161284660Y-79500638D01*
X161284501Y-79502123D01*
X161284500Y-79502135D01*
X161284500Y-80703455D01*
X161264815Y-80770494D01*
X161248181Y-80791136D01*
X161006137Y-81033181D01*
X160944814Y-81066666D01*
X160918456Y-81069500D01*
X157212255Y-81069500D01*
X157145216Y-81049815D01*
X157124574Y-81033181D01*
X157033347Y-80941954D01*
X157033344Y-80941952D01*
X157033342Y-80941950D01*
X156951992Y-80900500D01*
X156920301Y-80884352D01*
X156826524Y-80869500D01*
X156826519Y-80869500D01*
X155475543Y-80869500D01*
X155408504Y-80849815D01*
X155362749Y-80797011D01*
X155352805Y-80727853D01*
X155381830Y-80664297D01*
X155387862Y-80657819D01*
X156366572Y-79679109D01*
X157585470Y-78460212D01*
X157631614Y-78380288D01*
X157631615Y-78380285D01*
X157636916Y-78360502D01*
X157636916Y-78360501D01*
X157646495Y-78324750D01*
X157655500Y-78291144D01*
X157655500Y-77044499D01*
X157675185Y-76977460D01*
X157727989Y-76931705D01*
X157779500Y-76920499D01*
X157802871Y-76920499D01*
X157802872Y-76920499D01*
X157862483Y-76914091D01*
X157997331Y-76863796D01*
X158112546Y-76777546D01*
X158123444Y-76762989D01*
X158140511Y-76740190D01*
X158196444Y-76698318D01*
X158239778Y-76690500D01*
X160918456Y-76690500D01*
X160985495Y-76710185D01*
X161006137Y-76726819D01*
X161336422Y-77057104D01*
X161369907Y-77118427D01*
X161364923Y-77188119D01*
X161359745Y-77200049D01*
X161354419Y-77210745D01*
X161354419Y-77210746D01*
X161298602Y-77406917D01*
X161279785Y-77609999D01*
X161279785Y-77610000D01*
X161298602Y-77813082D01*
X161354417Y-78009247D01*
X161354422Y-78009260D01*
X161445327Y-78191821D01*
X161568237Y-78354581D01*
X161684110Y-78460212D01*
X161716237Y-78489500D01*
X161718958Y-78491980D01*
X161718960Y-78491982D01*
X161816381Y-78552302D01*
X161892363Y-78599348D01*
X162082544Y-78673024D01*
X162283024Y-78710500D01*
X162283026Y-78710500D01*
X162486974Y-78710500D01*
X162486976Y-78710500D01*
X162687456Y-78673024D01*
X162877637Y-78599348D01*
X163051041Y-78491981D01*
X163198969Y-78357127D01*
X163201762Y-78354581D01*
X163210002Y-78343670D01*
X163324673Y-78191821D01*
X163415582Y-78009250D01*
X163471397Y-77813083D01*
X163490215Y-77610000D01*
X163471397Y-77406917D01*
X163415582Y-77210750D01*
X163413326Y-77206220D01*
X163365979Y-77111133D01*
X163324673Y-77028179D01*
X163201764Y-76865421D01*
X163201762Y-76865418D01*
X163051041Y-76728019D01*
X163051039Y-76728017D01*
X162877642Y-76620655D01*
X162877635Y-76620651D01*
X162733734Y-76564904D01*
X162687456Y-76546976D01*
X162486976Y-76509500D01*
X162283024Y-76509500D01*
X162082544Y-76546976D01*
X162082541Y-76546976D01*
X162082541Y-76546977D01*
X161966963Y-76591752D01*
X161897339Y-76597614D01*
X161835599Y-76564904D01*
X161834488Y-76563806D01*
X161330213Y-76059531D01*
X161330208Y-76059527D01*
X161250290Y-76013387D01*
X161250289Y-76013386D01*
X161250288Y-76013386D01*
X161161144Y-75989500D01*
X161161143Y-75989500D01*
X158379499Y-75989500D01*
X158312460Y-75969815D01*
X158266705Y-75917011D01*
X158255499Y-75865500D01*
X158255499Y-75672129D01*
X158255498Y-75672123D01*
X158255497Y-75672116D01*
X158249091Y-75612517D01*
X158233125Y-75569711D01*
X158198797Y-75477671D01*
X158198793Y-75477664D01*
X158112547Y-75362455D01*
X158112544Y-75362452D01*
X157997335Y-75276206D01*
X157997328Y-75276202D01*
X157862482Y-75225908D01*
X157862483Y-75225908D01*
X157802883Y-75219501D01*
X157802881Y-75219500D01*
X157802873Y-75219500D01*
X157802864Y-75219500D01*
X156807129Y-75219500D01*
X156807123Y-75219501D01*
X156747516Y-75225908D01*
X156612671Y-75276202D01*
X156612664Y-75276206D01*
X156497455Y-75362452D01*
X156497452Y-75362455D01*
X156411206Y-75477664D01*
X156411202Y-75477671D01*
X156360908Y-75612517D01*
X156354501Y-75672116D01*
X156354501Y-75672123D01*
X156354500Y-75672135D01*
X156354500Y-76467870D01*
X156354501Y-76467876D01*
X156360908Y-76527483D01*
X156411202Y-76662328D01*
X156411206Y-76662335D01*
X156497452Y-76777544D01*
X156497455Y-76777547D01*
X156612664Y-76863793D01*
X156612671Y-76863797D01*
X156639183Y-76873685D01*
X156747517Y-76914091D01*
X156807127Y-76920500D01*
X156830497Y-76920499D01*
X156897536Y-76940181D01*
X156943292Y-76992983D01*
X156954500Y-77044499D01*
X156954500Y-78048456D01*
X156934815Y-78115495D01*
X156918181Y-78136137D01*
X155582180Y-79472137D01*
X155520857Y-79505622D01*
X155451165Y-79500638D01*
X155395232Y-79458766D01*
X155370815Y-79393302D01*
X155370499Y-79384483D01*
X155370499Y-78357128D01*
X155364091Y-78297517D01*
X155361713Y-78291142D01*
X155313797Y-78162671D01*
X155313793Y-78162664D01*
X155227547Y-78047455D01*
X155227544Y-78047452D01*
X155112335Y-77961206D01*
X155112328Y-77961202D01*
X154970215Y-77908198D01*
X154970756Y-77906747D01*
X154917759Y-77876562D01*
X154885380Y-77814647D01*
X154883000Y-77790468D01*
X154883000Y-74889531D01*
X154902685Y-74822492D01*
X154955489Y-74776737D01*
X154973951Y-74770408D01*
X154977481Y-74769091D01*
X154977483Y-74769091D01*
X155112331Y-74718796D01*
X155227546Y-74632546D01*
X155313796Y-74517331D01*
X155364091Y-74382483D01*
X155370500Y-74322873D01*
X155370499Y-73277128D01*
X155364091Y-73217517D01*
X155313796Y-73082669D01*
X155313795Y-73082668D01*
X155313793Y-73082664D01*
X155227547Y-72967455D01*
X155227544Y-72967452D01*
X155112335Y-72881206D01*
X155112328Y-72881202D01*
X154977482Y-72830908D01*
X154977483Y-72830908D01*
X154934656Y-72826304D01*
X154870105Y-72799566D01*
X154840523Y-72765012D01*
X154834863Y-72755208D01*
X154834863Y-72755207D01*
X154812972Y-72717291D01*
X154812968Y-72717286D01*
X153075213Y-70979531D01*
X153075208Y-70979527D01*
X152995290Y-70933387D01*
X152995283Y-70933384D01*
X152983727Y-70930287D01*
X152983727Y-70930288D01*
X152944935Y-70919894D01*
X152906144Y-70909500D01*
X152906143Y-70909500D01*
X152262255Y-70909500D01*
X152195216Y-70889815D01*
X152174574Y-70873181D01*
X152083347Y-70781954D01*
X152083343Y-70781951D01*
X152083342Y-70781950D01*
X152080599Y-70780552D01*
X151992147Y-70735483D01*
X151941352Y-70687509D01*
X151924557Y-70619687D01*
X151947095Y-70553553D01*
X151992145Y-70514517D01*
X152083342Y-70468050D01*
X152173050Y-70378342D01*
X152230646Y-70265304D01*
X152230646Y-70265302D01*
X152230647Y-70265301D01*
X152245499Y-70171524D01*
X152245500Y-70171519D01*
X152245499Y-69808482D01*
X152230646Y-69714696D01*
X152173050Y-69601658D01*
X152173046Y-69601654D01*
X152173045Y-69601652D01*
X152083347Y-69511954D01*
X152083343Y-69511951D01*
X152083342Y-69511950D01*
X152080599Y-69510552D01*
X151992147Y-69465483D01*
X151941352Y-69417509D01*
X151924557Y-69349687D01*
X151947095Y-69283553D01*
X151992145Y-69244517D01*
X152083342Y-69198050D01*
X152122766Y-69158626D01*
X152174574Y-69106819D01*
X152235897Y-69073334D01*
X152262255Y-69070500D01*
X152271142Y-69070500D01*
X152271144Y-69070500D01*
X152360288Y-69046614D01*
X152371463Y-69040162D01*
X152440212Y-69000470D01*
X153140470Y-68300212D01*
X153186614Y-68220288D01*
X153200222Y-68169501D01*
X153210500Y-68131144D01*
X153210500Y-62958856D01*
X153186614Y-62869712D01*
X153140470Y-62789788D01*
X152440212Y-62089530D01*
X152440211Y-62089529D01*
X152440208Y-62089527D01*
X152360290Y-62043387D01*
X152360289Y-62043386D01*
X152360288Y-62043386D01*
X152271144Y-62019500D01*
X129953856Y-62019500D01*
X129864712Y-62043386D01*
X129864709Y-62043387D01*
X129784791Y-62089527D01*
X129784786Y-62089531D01*
X128449531Y-63424786D01*
X128449527Y-63424791D01*
X128403387Y-63504709D01*
X128403386Y-63504712D01*
X128379500Y-63593856D01*
X128379500Y-74388856D01*
X128379500Y-78291144D01*
X128381208Y-78297517D01*
X128398084Y-78360501D01*
X128398084Y-78360502D01*
X128403384Y-78380285D01*
X128403385Y-78380286D01*
X128449527Y-78460208D01*
X128449529Y-78460211D01*
X128449530Y-78460212D01*
X129149788Y-79160470D01*
X129149789Y-79160471D01*
X129149791Y-79160472D01*
X129150103Y-79160652D01*
X129229712Y-79206614D01*
X129289909Y-79222743D01*
X129349569Y-79259108D01*
X129362808Y-79276545D01*
X129409521Y-79350888D01*
X129485952Y-79427319D01*
X129519437Y-79488642D01*
X129514453Y-79558334D01*
X129485952Y-79602681D01*
X129409523Y-79679109D01*
X129409518Y-79679115D01*
X129319547Y-79822302D01*
X129319545Y-79822305D01*
X129263685Y-79981943D01*
X129244751Y-80149997D01*
X129244751Y-80150002D01*
X129263685Y-80318056D01*
X129319545Y-80477694D01*
X129319547Y-80477697D01*
X129409518Y-80620884D01*
X129409523Y-80620890D01*
X129485952Y-80697319D01*
X129519437Y-80758642D01*
X129514453Y-80828334D01*
X129485952Y-80872681D01*
X129409523Y-80949109D01*
X129409518Y-80949115D01*
X129319547Y-81092302D01*
X129319545Y-81092305D01*
X129263685Y-81251943D01*
X129244751Y-81419997D01*
X129244751Y-81420002D01*
X129263685Y-81588056D01*
X129319545Y-81747694D01*
X129319547Y-81747697D01*
X129409518Y-81890884D01*
X129409523Y-81890890D01*
X129529109Y-82010476D01*
X129529115Y-82010481D01*
X129672302Y-82100452D01*
X129672305Y-82100454D01*
X129672309Y-82100455D01*
X129672310Y-82100456D01*
X129721045Y-82117509D01*
X129831943Y-82156314D01*
X129999997Y-82175249D01*
X130000000Y-82175249D01*
X130000003Y-82175249D01*
X130168056Y-82156314D01*
X130168059Y-82156313D01*
X130327690Y-82100456D01*
X130327692Y-82100454D01*
X130327694Y-82100454D01*
X130327697Y-82100452D01*
X130470884Y-82010481D01*
X130470885Y-82010480D01*
X130470890Y-82010477D01*
X130590477Y-81890890D01*
X130590481Y-81890884D01*
X130680452Y-81747697D01*
X130680454Y-81747694D01*
X130680454Y-81747692D01*
X130680456Y-81747690D01*
X130736313Y-81588059D01*
X130736313Y-81588058D01*
X130736314Y-81588056D01*
X130755249Y-81420002D01*
X130755249Y-81419997D01*
X130736314Y-81251943D01*
X130680454Y-81092305D01*
X130680452Y-81092302D01*
X130590481Y-80949115D01*
X130590476Y-80949109D01*
X130514048Y-80872681D01*
X130480563Y-80811358D01*
X130485547Y-80741666D01*
X130514048Y-80697319D01*
X130548703Y-80662664D01*
X130590477Y-80620890D01*
X130629662Y-80558526D01*
X130681995Y-80512237D01*
X130734655Y-80500500D01*
X133221142Y-80500500D01*
X133221144Y-80500500D01*
X133310288Y-80476614D01*
X133390212Y-80430470D01*
X134082812Y-79737870D01*
X137664500Y-79737870D01*
X137664501Y-79737876D01*
X137670908Y-79797483D01*
X137721202Y-79932328D01*
X137721206Y-79932335D01*
X137807452Y-80047544D01*
X137807455Y-80047547D01*
X137922664Y-80133793D01*
X137922671Y-80133797D01*
X137966106Y-80149997D01*
X138057517Y-80184091D01*
X138117127Y-80190500D01*
X138415500Y-80190499D01*
X138482539Y-80210183D01*
X138528294Y-80262987D01*
X138539500Y-80314499D01*
X138539500Y-80831144D01*
X138546463Y-80857129D01*
X138558084Y-80900501D01*
X138558084Y-80900502D01*
X138563384Y-80920285D01*
X138563385Y-80920286D01*
X138609527Y-81000208D01*
X138609531Y-81000213D01*
X138955681Y-81346363D01*
X138989166Y-81407686D01*
X138992000Y-81434044D01*
X138992000Y-81902870D01*
X138992001Y-81902876D01*
X138998408Y-81962483D01*
X139048702Y-82097328D01*
X139048706Y-82097335D01*
X139134952Y-82212544D01*
X139138181Y-82215773D01*
X139171666Y-82277096D01*
X139174500Y-82303454D01*
X139174500Y-82996546D01*
X139154815Y-83063585D01*
X139138181Y-83084227D01*
X139134952Y-83087455D01*
X139048706Y-83202664D01*
X139048702Y-83202671D01*
X138998408Y-83337517D01*
X138993034Y-83387509D01*
X138992001Y-83397123D01*
X138992000Y-83397135D01*
X138992000Y-84442870D01*
X138992001Y-84442876D01*
X138998408Y-84502483D01*
X139048702Y-84637328D01*
X139048706Y-84637335D01*
X139134952Y-84752544D01*
X139134955Y-84752547D01*
X139250164Y-84838793D01*
X139250171Y-84838797D01*
X139283442Y-84851206D01*
X139385017Y-84889091D01*
X139444627Y-84895500D01*
X140215372Y-84895499D01*
X140274983Y-84889091D01*
X140409831Y-84838796D01*
X140525046Y-84752546D01*
X140611296Y-84637331D01*
X140661591Y-84502483D01*
X140668000Y-84442873D01*
X140667999Y-83397128D01*
X140661591Y-83337517D01*
X140658903Y-83330311D01*
X140611297Y-83202671D01*
X140611293Y-83202664D01*
X140525047Y-83087455D01*
X140525044Y-83087452D01*
X140409835Y-83001206D01*
X140409828Y-83001202D01*
X140274982Y-82950908D01*
X140274983Y-82950908D01*
X140215383Y-82944501D01*
X140215381Y-82944500D01*
X140215373Y-82944500D01*
X140215365Y-82944500D01*
X139999500Y-82944500D01*
X139932461Y-82924815D01*
X139886706Y-82872011D01*
X139875500Y-82820500D01*
X139875500Y-82479499D01*
X139895185Y-82412460D01*
X139947989Y-82366705D01*
X139999500Y-82355499D01*
X140215371Y-82355499D01*
X140215372Y-82355499D01*
X140274983Y-82349091D01*
X140409831Y-82298796D01*
X140525046Y-82212546D01*
X140611296Y-82097331D01*
X140661591Y-81962483D01*
X140668000Y-81902873D01*
X140667999Y-80857128D01*
X140661591Y-80797517D01*
X140661402Y-80797011D01*
X140611297Y-80662671D01*
X140611293Y-80662664D01*
X140525047Y-80547455D01*
X140525044Y-80547452D01*
X140409835Y-80461206D01*
X140409828Y-80461202D01*
X140274986Y-80410910D01*
X140274985Y-80410909D01*
X140274983Y-80410909D01*
X140215373Y-80404500D01*
X140215363Y-80404500D01*
X139444629Y-80404500D01*
X139444620Y-80404501D01*
X139377752Y-80411689D01*
X139308993Y-80399282D01*
X139257857Y-80351670D01*
X139240500Y-80288399D01*
X139240500Y-80064833D01*
X139260185Y-79997794D01*
X139265225Y-79990533D01*
X139308796Y-79932331D01*
X139359091Y-79797483D01*
X139365500Y-79737873D01*
X139365500Y-79314500D01*
X139385185Y-79247461D01*
X139437989Y-79201706D01*
X139489500Y-79190500D01*
X140278215Y-79190500D01*
X140345254Y-79210185D01*
X140376589Y-79239011D01*
X140402379Y-79272621D01*
X140517375Y-79360861D01*
X140651291Y-79416330D01*
X140778280Y-79433048D01*
X140794999Y-79435250D01*
X140795000Y-79435250D01*
X140795001Y-79435250D01*
X140809977Y-79433278D01*
X140938709Y-79416330D01*
X141072625Y-79360861D01*
X141187621Y-79272621D01*
X141275861Y-79157625D01*
X141331330Y-79023709D01*
X141350250Y-78880000D01*
X141331330Y-78736291D01*
X141275861Y-78602375D01*
X141187621Y-78487379D01*
X141072625Y-78399139D01*
X141072624Y-78399138D01*
X141072622Y-78399137D01*
X140938712Y-78343671D01*
X140938710Y-78343670D01*
X140938709Y-78343670D01*
X140855241Y-78332681D01*
X140795001Y-78324750D01*
X140794999Y-78324750D01*
X140651291Y-78343670D01*
X140651287Y-78343671D01*
X140517376Y-78399138D01*
X140517374Y-78399139D01*
X140433008Y-78463876D01*
X140367839Y-78489070D01*
X140357522Y-78489500D01*
X139489499Y-78489500D01*
X139422460Y-78469815D01*
X139376705Y-78417011D01*
X139365499Y-78365500D01*
X139365499Y-77942129D01*
X139365498Y-77942123D01*
X139365497Y-77942116D01*
X139359091Y-77882517D01*
X139333193Y-77813082D01*
X139308797Y-77747671D01*
X139308793Y-77747664D01*
X139222547Y-77632455D01*
X139222544Y-77632452D01*
X139107335Y-77546206D01*
X139107328Y-77546202D01*
X138972482Y-77495908D01*
X138972483Y-77495908D01*
X138912883Y-77489501D01*
X138912881Y-77489500D01*
X138912873Y-77489500D01*
X138912864Y-77489500D01*
X138117129Y-77489500D01*
X138117123Y-77489501D01*
X138057516Y-77495908D01*
X137922671Y-77546202D01*
X137922664Y-77546206D01*
X137807455Y-77632452D01*
X137807452Y-77632455D01*
X137721206Y-77747664D01*
X137721202Y-77747671D01*
X137670908Y-77882517D01*
X137664976Y-77937697D01*
X137664501Y-77942123D01*
X137664500Y-77942135D01*
X137664500Y-79737870D01*
X134082812Y-79737870D01*
X136553863Y-77266819D01*
X136615186Y-77233334D01*
X136641544Y-77230500D01*
X148926000Y-77230500D01*
X148980313Y-77224661D01*
X149031824Y-77213455D01*
X149058198Y-77206219D01*
X149089983Y-77188119D01*
X149144818Y-77156894D01*
X149144819Y-77156892D01*
X149144828Y-77156888D01*
X149197632Y-77111133D01*
X149229257Y-77078359D01*
X149275465Y-76990024D01*
X149277470Y-76983198D01*
X149285215Y-76956818D01*
X149295150Y-76922985D01*
X149305500Y-76851000D01*
X149305500Y-76814500D01*
X149325185Y-76747461D01*
X149377989Y-76701706D01*
X149429500Y-76690500D01*
X154058000Y-76690500D01*
X154125039Y-76710185D01*
X154170794Y-76762989D01*
X154182000Y-76814500D01*
X154182000Y-77790468D01*
X154162315Y-77857507D01*
X154109511Y-77903262D01*
X154091032Y-77909597D01*
X153952671Y-77961202D01*
X153952664Y-77961206D01*
X153837455Y-78047452D01*
X153837452Y-78047455D01*
X153751206Y-78162664D01*
X153751202Y-78162671D01*
X153700908Y-78297517D01*
X153694774Y-78354579D01*
X153694501Y-78357123D01*
X153694500Y-78357135D01*
X153694500Y-79402870D01*
X153694501Y-79402876D01*
X153700909Y-79462484D01*
X153723907Y-79524147D01*
X153728891Y-79593839D01*
X153695406Y-79655160D01*
X152579531Y-80771036D01*
X152579527Y-80771041D01*
X152545764Y-80829522D01*
X152545764Y-80829523D01*
X152533386Y-80850960D01*
X152509500Y-80940106D01*
X152509500Y-84168454D01*
X152489815Y-84235493D01*
X152473179Y-84256137D01*
X152450935Y-84278380D01*
X152389611Y-84311864D01*
X152319920Y-84306878D01*
X152263987Y-84265005D01*
X152239572Y-84199540D01*
X152240782Y-84171303D01*
X152245500Y-84141519D01*
X152245499Y-83778482D01*
X152230646Y-83684696D01*
X152173050Y-83571658D01*
X152173046Y-83571654D01*
X152173045Y-83571652D01*
X152083347Y-83481954D01*
X152083343Y-83481951D01*
X152083342Y-83481950D01*
X152080599Y-83480552D01*
X151992147Y-83435483D01*
X151941352Y-83387509D01*
X151924557Y-83319687D01*
X151947095Y-83253553D01*
X151992145Y-83214517D01*
X152083342Y-83168050D01*
X152173050Y-83078342D01*
X152230646Y-82965304D01*
X152230646Y-82965302D01*
X152230647Y-82965301D01*
X152245499Y-82871524D01*
X152245500Y-82871519D01*
X152245499Y-82508482D01*
X152230646Y-82414696D01*
X152173050Y-82301658D01*
X152173046Y-82301654D01*
X152173045Y-82301652D01*
X152083347Y-82211954D01*
X152083344Y-82211952D01*
X152083342Y-82211950D01*
X151992146Y-82165483D01*
X151970301Y-82154352D01*
X151876524Y-82139500D01*
X150163482Y-82139500D01*
X150082519Y-82152323D01*
X150069696Y-82154354D01*
X149956658Y-82211950D01*
X149956657Y-82211951D01*
X149956652Y-82211954D01*
X149865426Y-82303181D01*
X149804103Y-82336666D01*
X149777745Y-82339500D01*
X149003856Y-82339500D01*
X148914712Y-82363386D01*
X148914709Y-82363387D01*
X148834791Y-82409527D01*
X148834786Y-82409531D01*
X143861137Y-87383181D01*
X143799814Y-87416666D01*
X143773456Y-87419500D01*
X130731836Y-87419500D01*
X130664797Y-87399815D01*
X130619042Y-87347011D01*
X130609098Y-87277853D01*
X130638123Y-87214297D01*
X130662945Y-87192398D01*
X130680601Y-87180601D01*
X130735966Y-87097740D01*
X130750500Y-87024674D01*
X130750500Y-86974500D01*
X130770185Y-86907461D01*
X130822989Y-86861706D01*
X130874500Y-86850500D01*
X131718642Y-86850500D01*
X131718644Y-86850500D01*
X131807788Y-86826614D01*
X131887712Y-86780470D01*
X132161362Y-86506817D01*
X132222685Y-86473333D01*
X132249044Y-86470499D01*
X133062871Y-86470499D01*
X133062872Y-86470499D01*
X133122483Y-86464091D01*
X133257331Y-86413796D01*
X133372546Y-86327546D01*
X133458796Y-86212331D01*
X133509091Y-86077483D01*
X133515500Y-86017873D01*
X133515499Y-85247128D01*
X133509091Y-85187517D01*
X133458796Y-85052669D01*
X133458795Y-85052668D01*
X133458793Y-85052664D01*
X133372547Y-84937455D01*
X133372544Y-84937452D01*
X133257335Y-84851206D01*
X133257328Y-84851202D01*
X133122482Y-84800908D01*
X133122483Y-84800908D01*
X133062883Y-84794501D01*
X133062881Y-84794500D01*
X133062873Y-84794500D01*
X133062864Y-84794500D01*
X132017129Y-84794500D01*
X132017123Y-84794501D01*
X131957516Y-84800908D01*
X131822671Y-84851202D01*
X131822664Y-84851206D01*
X131707455Y-84937452D01*
X131707452Y-84937455D01*
X131621206Y-85052664D01*
X131621202Y-85052671D01*
X131570910Y-85187513D01*
X131570909Y-85187517D01*
X131564500Y-85247127D01*
X131564500Y-85247134D01*
X131564500Y-85247135D01*
X131564500Y-86017870D01*
X131564554Y-86018859D01*
X131564500Y-86019083D01*
X131564501Y-86021193D01*
X131564003Y-86021193D01*
X131548488Y-86086856D01*
X131498210Y-86135374D01*
X131440732Y-86149500D01*
X130874500Y-86149500D01*
X130807461Y-86129815D01*
X130761706Y-86077011D01*
X130750500Y-86025500D01*
X130750500Y-85975323D01*
X130750499Y-85975321D01*
X130735967Y-85902264D01*
X130735966Y-85902260D01*
X130680600Y-85819398D01*
X130664931Y-85808929D01*
X130620126Y-85755317D01*
X130611419Y-85685992D01*
X130628829Y-85639855D01*
X130680452Y-85557697D01*
X130680454Y-85557694D01*
X130680454Y-85557692D01*
X130680456Y-85557690D01*
X130736313Y-85398059D01*
X130736313Y-85398058D01*
X130736314Y-85398056D01*
X130755249Y-85230002D01*
X130755249Y-85229997D01*
X130736314Y-85061943D01*
X130698787Y-84954697D01*
X130680456Y-84902310D01*
X130680455Y-84902309D01*
X130680454Y-84902305D01*
X130680452Y-84902302D01*
X130590481Y-84759115D01*
X130590476Y-84759109D01*
X130514048Y-84682681D01*
X130480563Y-84621358D01*
X130485547Y-84551666D01*
X130514048Y-84507319D01*
X130536853Y-84484514D01*
X130590477Y-84430890D01*
X130590481Y-84430884D01*
X130680452Y-84287697D01*
X130680454Y-84287694D01*
X130680454Y-84287692D01*
X130680456Y-84287690D01*
X130736313Y-84128059D01*
X130736313Y-84128058D01*
X130736314Y-84128056D01*
X130755249Y-83960002D01*
X130755249Y-83959997D01*
X130736314Y-83791943D01*
X130698787Y-83684697D01*
X130680456Y-83632310D01*
X130680455Y-83632309D01*
X130680454Y-83632305D01*
X130680452Y-83632302D01*
X130590481Y-83489115D01*
X130590476Y-83489109D01*
X130470890Y-83369523D01*
X130470884Y-83369518D01*
X130327697Y-83279547D01*
X130327694Y-83279545D01*
X130168056Y-83223685D01*
X130000003Y-83204751D01*
X129999997Y-83204751D01*
X129831943Y-83223685D01*
X129672305Y-83279545D01*
X129672302Y-83279547D01*
X129529115Y-83369518D01*
X129529109Y-83369523D01*
X129409523Y-83489109D01*
X129362810Y-83563453D01*
X129310475Y-83609744D01*
X129289910Y-83617256D01*
X129233728Y-83632310D01*
X129229711Y-83633386D01*
X129149791Y-83679527D01*
X129149786Y-83679531D01*
X128212181Y-84617137D01*
X128150858Y-84650622D01*
X128081166Y-84645638D01*
X128025233Y-84603766D01*
X128000816Y-84538302D01*
X128000500Y-84529456D01*
X128000500Y-61124500D01*
X128020185Y-61057461D01*
X128072989Y-61011706D01*
X128124500Y-61000500D01*
X169375500Y-61000500D01*
X169442539Y-61020185D01*
G37*
%TD.AperFunction*%
%TA.AperFunction,Conductor*%
G36*
X152095495Y-62740185D02*
G01*
X152116137Y-62756819D01*
X152473181Y-63113863D01*
X152506666Y-63175186D01*
X152509500Y-63201544D01*
X152509500Y-67888456D01*
X152489815Y-67955495D01*
X152473181Y-67976137D01*
X152229208Y-68220109D01*
X152167885Y-68253594D01*
X152098193Y-68248610D01*
X152085232Y-68242913D01*
X151970301Y-68184352D01*
X151876524Y-68169500D01*
X150163482Y-68169500D01*
X150082519Y-68182323D01*
X150069696Y-68184354D01*
X149956658Y-68241950D01*
X149956657Y-68241951D01*
X149956652Y-68241954D01*
X149866954Y-68331652D01*
X149866951Y-68331657D01*
X149809352Y-68444698D01*
X149794500Y-68538475D01*
X149794500Y-68901517D01*
X149805292Y-68969657D01*
X149809354Y-68995304D01*
X149866950Y-69108342D01*
X149866952Y-69108344D01*
X149866954Y-69108347D01*
X149956652Y-69198045D01*
X149956654Y-69198046D01*
X149956658Y-69198050D01*
X150047851Y-69244515D01*
X150098647Y-69292490D01*
X150115442Y-69360311D01*
X150092904Y-69426446D01*
X150047852Y-69465484D01*
X149956658Y-69511950D01*
X149956657Y-69511951D01*
X149956652Y-69511954D01*
X149866954Y-69601652D01*
X149866951Y-69601657D01*
X149809352Y-69714698D01*
X149794500Y-69808475D01*
X149794500Y-70171517D01*
X149805292Y-70239657D01*
X149809354Y-70265304D01*
X149866950Y-70378342D01*
X149866952Y-70378344D01*
X149866954Y-70378347D01*
X149956652Y-70468045D01*
X149956654Y-70468046D01*
X149956658Y-70468050D01*
X150047851Y-70514515D01*
X150098647Y-70562490D01*
X150115442Y-70630311D01*
X150092904Y-70696446D01*
X150047852Y-70735484D01*
X149956658Y-70781950D01*
X149956657Y-70781951D01*
X149956652Y-70781954D01*
X149866954Y-70871652D01*
X149866951Y-70871657D01*
X149809352Y-70984698D01*
X149794500Y-71078475D01*
X149794500Y-71441517D01*
X149801198Y-71483806D01*
X149809354Y-71535304D01*
X149866950Y-71648342D01*
X149866952Y-71648344D01*
X149866954Y-71648347D01*
X149956652Y-71738045D01*
X149956654Y-71738046D01*
X149956658Y-71738050D01*
X150069694Y-71795645D01*
X150069698Y-71795647D01*
X150163475Y-71810499D01*
X150163481Y-71810500D01*
X151876518Y-71810499D01*
X151970304Y-71795646D01*
X152083342Y-71738050D01*
X152083347Y-71738045D01*
X152174574Y-71646819D01*
X152235897Y-71613334D01*
X152262255Y-71610500D01*
X152663456Y-71610500D01*
X152730495Y-71630185D01*
X152751137Y-71646819D01*
X153870268Y-72765950D01*
X153903753Y-72827273D01*
X153898769Y-72896965D01*
X153856900Y-72952896D01*
X153837454Y-72967453D01*
X153837452Y-72967455D01*
X153751206Y-73082664D01*
X153751202Y-73082671D01*
X153700908Y-73217517D01*
X153697333Y-73250773D01*
X153694501Y-73277123D01*
X153694500Y-73277135D01*
X153694500Y-74322870D01*
X153694501Y-74322876D01*
X153700908Y-74382483D01*
X153751202Y-74517328D01*
X153751206Y-74517335D01*
X153837452Y-74632544D01*
X153837455Y-74632547D01*
X153952664Y-74718793D01*
X153952671Y-74718797D01*
X154094785Y-74771802D01*
X154094242Y-74773255D01*
X154147228Y-74803424D01*
X154179616Y-74865334D01*
X154182000Y-74889531D01*
X154182000Y-75865500D01*
X154162315Y-75932539D01*
X154109511Y-75978294D01*
X154058000Y-75989500D01*
X149429500Y-75989500D01*
X149362461Y-75969815D01*
X149316706Y-75917011D01*
X149305500Y-75865500D01*
X149305500Y-66939000D01*
X149299661Y-66884687D01*
X149288455Y-66833176D01*
X149281219Y-66806802D01*
X149259611Y-66768856D01*
X149231894Y-66720181D01*
X149231890Y-66720176D01*
X149231888Y-66720172D01*
X149196097Y-66678867D01*
X149186136Y-66667371D01*
X149153359Y-66635743D01*
X149065022Y-66589534D01*
X149065022Y-66589533D01*
X148997990Y-66569851D01*
X148997978Y-66569848D01*
X148926001Y-66559500D01*
X148926000Y-66559500D01*
X138546544Y-66559500D01*
X138479505Y-66539815D01*
X138458863Y-66523181D01*
X136153213Y-64217531D01*
X136153208Y-64217527D01*
X136073290Y-64171387D01*
X136073289Y-64171386D01*
X136073288Y-64171386D01*
X135984144Y-64147500D01*
X135984143Y-64147500D01*
X133019977Y-64147500D01*
X132952938Y-64127815D01*
X132907183Y-64075011D01*
X132899733Y-64047865D01*
X132898876Y-64048068D01*
X132897092Y-64040520D01*
X132846797Y-63905671D01*
X132846793Y-63905664D01*
X132760547Y-63790455D01*
X132760544Y-63790452D01*
X132645335Y-63704206D01*
X132645328Y-63704202D01*
X132510482Y-63653908D01*
X132510483Y-63653908D01*
X132450883Y-63647501D01*
X132450881Y-63647500D01*
X132450873Y-63647500D01*
X132450864Y-63647500D01*
X131105129Y-63647500D01*
X131105123Y-63647501D01*
X131045516Y-63653908D01*
X130910671Y-63704202D01*
X130910664Y-63704206D01*
X130795455Y-63790452D01*
X130795452Y-63790455D01*
X130709206Y-63905664D01*
X130709202Y-63905671D01*
X130658908Y-64040517D01*
X130652501Y-64100116D01*
X130652500Y-64100135D01*
X130652500Y-64895870D01*
X130652501Y-64895876D01*
X130658908Y-64955483D01*
X130709202Y-65090328D01*
X130709206Y-65090335D01*
X130795452Y-65205544D01*
X130795455Y-65205547D01*
X130910664Y-65291793D01*
X130910671Y-65291797D01*
X131045517Y-65342091D01*
X131045516Y-65342091D01*
X131052444Y-65342835D01*
X131105127Y-65348500D01*
X132450872Y-65348499D01*
X132510483Y-65342091D01*
X132645331Y-65291796D01*
X132760546Y-65205546D01*
X132846796Y-65090331D01*
X132897091Y-64955483D01*
X132897091Y-64955481D01*
X132898874Y-64947938D01*
X132901146Y-64948474D01*
X132923429Y-64894688D01*
X132980823Y-64854843D01*
X133019976Y-64848500D01*
X135741456Y-64848500D01*
X135808495Y-64868185D01*
X135829137Y-64884819D01*
X137292137Y-66347819D01*
X137325622Y-66409142D01*
X137320638Y-66478834D01*
X137278766Y-66534767D01*
X137213302Y-66559184D01*
X137204456Y-66559500D01*
X134568997Y-66559500D01*
X134514687Y-66565338D01*
X134463181Y-66576543D01*
X134463172Y-66576546D01*
X134436807Y-66583779D01*
X134436796Y-66583783D01*
X134350181Y-66633105D01*
X134350173Y-66633111D01*
X134297371Y-66678863D01*
X134265743Y-66711640D01*
X134219534Y-66799977D01*
X134219533Y-66799977D01*
X134199851Y-66867009D01*
X134199848Y-66867021D01*
X134189500Y-66938998D01*
X134189500Y-76851002D01*
X134195338Y-76905312D01*
X134206543Y-76956818D01*
X134206546Y-76956827D01*
X134213779Y-76983192D01*
X134213783Y-76983203D01*
X134263105Y-77069818D01*
X134263110Y-77069825D01*
X134263112Y-77069828D01*
X134289580Y-77100374D01*
X134308863Y-77122628D01*
X134308866Y-77122631D01*
X134308867Y-77122632D01*
X134341641Y-77154257D01*
X134429976Y-77200465D01*
X134429977Y-77200465D01*
X134429977Y-77200466D01*
X134474218Y-77213456D01*
X134497015Y-77220150D01*
X134497019Y-77220150D01*
X134497021Y-77220151D01*
X134508652Y-77221823D01*
X134569000Y-77230500D01*
X135299456Y-77230500D01*
X135366495Y-77250185D01*
X135412250Y-77302989D01*
X135422194Y-77372147D01*
X135393169Y-77435703D01*
X135387137Y-77442181D01*
X133066137Y-79763181D01*
X133004814Y-79796666D01*
X132978456Y-79799500D01*
X130734655Y-79799500D01*
X130667616Y-79779815D01*
X130629662Y-79741473D01*
X130590477Y-79679110D01*
X130514048Y-79602681D01*
X130480563Y-79541358D01*
X130485547Y-79471666D01*
X130514048Y-79427319D01*
X130548065Y-79393302D01*
X130590477Y-79350890D01*
X130590481Y-79350884D01*
X130680452Y-79207697D01*
X130680454Y-79207694D01*
X130680454Y-79207692D01*
X130680456Y-79207690D01*
X130736313Y-79048059D01*
X130736313Y-79048058D01*
X130736314Y-79048056D01*
X130755249Y-78880002D01*
X130755249Y-78879997D01*
X130736314Y-78711943D01*
X130680454Y-78552305D01*
X130680452Y-78552302D01*
X130590481Y-78409115D01*
X130590476Y-78409109D01*
X130514048Y-78332681D01*
X130480563Y-78271358D01*
X130485547Y-78201666D01*
X130514048Y-78157319D01*
X130535230Y-78136137D01*
X130590477Y-78080890D01*
X130611486Y-78047455D01*
X130680452Y-77937697D01*
X130680454Y-77937694D01*
X130680454Y-77937692D01*
X130680456Y-77937690D01*
X130736313Y-77778059D01*
X130736313Y-77778058D01*
X130736314Y-77778056D01*
X130755249Y-77610002D01*
X130755249Y-77609997D01*
X130736314Y-77441943D01*
X130687692Y-77302989D01*
X130680456Y-77282310D01*
X130680455Y-77282309D01*
X130680454Y-77282305D01*
X130680452Y-77282302D01*
X130590481Y-77139115D01*
X130590476Y-77139109D01*
X130470890Y-77019523D01*
X130470884Y-77019518D01*
X130327697Y-76929547D01*
X130327694Y-76929545D01*
X130168056Y-76873685D01*
X130000003Y-76854751D01*
X129999997Y-76854751D01*
X129831943Y-76873685D01*
X129672305Y-76929545D01*
X129672302Y-76929547D01*
X129529115Y-77019518D01*
X129529109Y-77019523D01*
X129409523Y-77139109D01*
X129409518Y-77139115D01*
X129319547Y-77282302D01*
X129316523Y-77288583D01*
X129313865Y-77287303D01*
X129280818Y-77333378D01*
X129215864Y-77359124D01*
X129147303Y-77345666D01*
X129096901Y-77297278D01*
X129080500Y-77235646D01*
X129080500Y-74972500D01*
X129100185Y-74905461D01*
X129152989Y-74859706D01*
X129204500Y-74848500D01*
X130648030Y-74848500D01*
X130715069Y-74868185D01*
X130751132Y-74903609D01*
X130842373Y-75040162D01*
X130960837Y-75158626D01*
X131053494Y-75220537D01*
X131100137Y-75251703D01*
X131254918Y-75315816D01*
X131419228Y-75348499D01*
X131419232Y-75348500D01*
X131419233Y-75348500D01*
X132136768Y-75348500D01*
X132136769Y-75348499D01*
X132301082Y-75315816D01*
X132455863Y-75251703D01*
X132595162Y-75158626D01*
X132713626Y-75040162D01*
X132806703Y-74900863D01*
X132870816Y-74746082D01*
X132903500Y-74581767D01*
X132903500Y-74414233D01*
X132870816Y-74249918D01*
X132806703Y-74095137D01*
X132759041Y-74023806D01*
X132713626Y-73955837D01*
X132595162Y-73837373D01*
X132455860Y-73744295D01*
X132301082Y-73680184D01*
X132301074Y-73680182D01*
X132136771Y-73647500D01*
X132136767Y-73647500D01*
X131419233Y-73647500D01*
X131419228Y-73647500D01*
X131254925Y-73680182D01*
X131254917Y-73680184D01*
X131100139Y-73744295D01*
X130960837Y-73837373D01*
X130842373Y-73955837D01*
X130751132Y-74092391D01*
X130697520Y-74137196D01*
X130648030Y-74147500D01*
X129204500Y-74147500D01*
X129137461Y-74127815D01*
X129091706Y-74075011D01*
X129080500Y-74023500D01*
X129080500Y-72581771D01*
X130652500Y-72581771D01*
X130685182Y-72746074D01*
X130685184Y-72746082D01*
X130749295Y-72900860D01*
X130842373Y-73040162D01*
X130960837Y-73158626D01*
X131053494Y-73220537D01*
X131100137Y-73251703D01*
X131254918Y-73315816D01*
X131419228Y-73348499D01*
X131419232Y-73348500D01*
X131419233Y-73348500D01*
X132136768Y-73348500D01*
X132136769Y-73348499D01*
X132301082Y-73315816D01*
X132455863Y-73251703D01*
X132595162Y-73158626D01*
X132713626Y-73040162D01*
X132806703Y-72900863D01*
X132870816Y-72746082D01*
X132903500Y-72581767D01*
X132903500Y-72414233D01*
X132870816Y-72249918D01*
X132806703Y-72095137D01*
X132769990Y-72040192D01*
X132713626Y-71955837D01*
X132595162Y-71837373D01*
X132455860Y-71744295D01*
X132301082Y-71680184D01*
X132301074Y-71680182D01*
X132136771Y-71647500D01*
X132136767Y-71647500D01*
X131419233Y-71647500D01*
X131419228Y-71647500D01*
X131254925Y-71680182D01*
X131254917Y-71680184D01*
X131100139Y-71744295D01*
X130960837Y-71837373D01*
X130842373Y-71955837D01*
X130749295Y-72095139D01*
X130685184Y-72249917D01*
X130685182Y-72249925D01*
X130652500Y-72414228D01*
X130652500Y-72581771D01*
X129080500Y-72581771D01*
X129080500Y-70581771D01*
X130652500Y-70581771D01*
X130685182Y-70746074D01*
X130685184Y-70746082D01*
X130749295Y-70900860D01*
X130842373Y-71040162D01*
X130960837Y-71158626D01*
X131053494Y-71220537D01*
X131100137Y-71251703D01*
X131254918Y-71315816D01*
X131419228Y-71348499D01*
X131419232Y-71348500D01*
X131419233Y-71348500D01*
X132136768Y-71348500D01*
X132136769Y-71348499D01*
X132301082Y-71315816D01*
X132455863Y-71251703D01*
X132595162Y-71158626D01*
X132713626Y-71040162D01*
X132806703Y-70900863D01*
X132870816Y-70746082D01*
X132903500Y-70581767D01*
X132903500Y-70414233D01*
X132870816Y-70249918D01*
X132806703Y-70095137D01*
X132775537Y-70048494D01*
X132713626Y-69955837D01*
X132595162Y-69837373D01*
X132455860Y-69744295D01*
X132301082Y-69680184D01*
X132301074Y-69680182D01*
X132136771Y-69647500D01*
X132136767Y-69647500D01*
X131419233Y-69647500D01*
X131419228Y-69647500D01*
X131254925Y-69680182D01*
X131254917Y-69680184D01*
X131100139Y-69744295D01*
X130960837Y-69837373D01*
X130842373Y-69955837D01*
X130749295Y-70095139D01*
X130685184Y-70249917D01*
X130685182Y-70249925D01*
X130652500Y-70414228D01*
X130652500Y-70581771D01*
X129080500Y-70581771D01*
X129080500Y-68581771D01*
X130652500Y-68581771D01*
X130685182Y-68746074D01*
X130685184Y-68746082D01*
X130749295Y-68900860D01*
X130842372Y-69040160D01*
X130842376Y-69040165D01*
X130960837Y-69158626D01*
X131019832Y-69198045D01*
X131100137Y-69251703D01*
X131254918Y-69315816D01*
X131419228Y-69348499D01*
X131419232Y-69348500D01*
X131419233Y-69348500D01*
X132136768Y-69348500D01*
X132136769Y-69348499D01*
X132301082Y-69315816D01*
X132455863Y-69251703D01*
X132595162Y-69158626D01*
X132713626Y-69040162D01*
X132713628Y-69040160D01*
X132750655Y-68984743D01*
X132806703Y-68900863D01*
X132870816Y-68746082D01*
X132903500Y-68581767D01*
X132903500Y-68414233D01*
X132870816Y-68249918D01*
X132806703Y-68095137D01*
X132752190Y-68013553D01*
X132713626Y-67955837D01*
X132595162Y-67837373D01*
X132455860Y-67744295D01*
X132301082Y-67680184D01*
X132301074Y-67680182D01*
X132136771Y-67647500D01*
X132136767Y-67647500D01*
X131419233Y-67647500D01*
X131419228Y-67647500D01*
X131254925Y-67680182D01*
X131254917Y-67680184D01*
X131100139Y-67744295D01*
X130960837Y-67837373D01*
X130842373Y-67955837D01*
X130749295Y-68095139D01*
X130685184Y-68249917D01*
X130685182Y-68249925D01*
X130652500Y-68414228D01*
X130652500Y-68581771D01*
X129080500Y-68581771D01*
X129080500Y-63836544D01*
X129100185Y-63769505D01*
X129116819Y-63748863D01*
X130108863Y-62756819D01*
X130170186Y-62723334D01*
X130196544Y-62720500D01*
X152028456Y-62720500D01*
X152095495Y-62740185D01*
G37*
%TD.AperFunction*%
%TD*%
%TA.AperFunction,Conductor*%
%TO.N,+3.3V*%
G36*
X148993039Y-66834685D02*
G01*
X149038794Y-66887489D01*
X149050000Y-66939000D01*
X149050000Y-76851000D01*
X149030315Y-76918039D01*
X148977511Y-76963794D01*
X148926000Y-76975000D01*
X134569000Y-76975000D01*
X134501961Y-76955315D01*
X134456206Y-76902511D01*
X134445000Y-76851000D01*
X134445000Y-66939000D01*
X134464685Y-66871961D01*
X134517489Y-66826206D01*
X134569000Y-66815000D01*
X148926000Y-66815000D01*
X148993039Y-66834685D01*
G37*
%TD.AperFunction*%
%TD*%
M02*
