%TF.GenerationSoftware,KiCad,Pcbnew,8.0.1-8.0.1-1~ubuntu22.04.1*%
%TF.CreationDate,2024-04-07T12:25:32+03:00*%
%TF.ProjectId,layout_2,6c61796f-7574-45f3-922e-6b696361645f,rev?*%
%TF.SameCoordinates,Original*%
%TF.FileFunction,Legend,Top*%
%TF.FilePolarity,Positive*%
%FSLAX46Y46*%
G04 Gerber Fmt 4.6, Leading zero omitted, Abs format (unit mm)*
G04 Created by KiCad (PCBNEW 8.0.1-8.0.1-1~ubuntu22.04.1) date 2024-04-07 12:25:32*
%MOMM*%
%LPD*%
G01*
G04 APERTURE LIST*
%ADD10C,0.100000*%
%ADD11C,0.150000*%
%ADD12C,0.120000*%
G04 APERTURE END LIST*
D10*
X128500000Y-62000000D02*
X157500000Y-62000000D01*
X157500000Y-90000000D01*
X128500000Y-90000000D01*
X128500000Y-62000000D01*
D11*
X147132493Y-88163819D02*
X147132493Y-88878104D01*
X147132493Y-88878104D02*
X147084874Y-89020961D01*
X147084874Y-89020961D02*
X146989636Y-89116200D01*
X146989636Y-89116200D02*
X146846779Y-89163819D01*
X146846779Y-89163819D02*
X146751541Y-89163819D01*
X148084874Y-89163819D02*
X147608684Y-89163819D01*
X147608684Y-89163819D02*
X147608684Y-88163819D01*
X148989636Y-89068580D02*
X148942017Y-89116200D01*
X148942017Y-89116200D02*
X148799160Y-89163819D01*
X148799160Y-89163819D02*
X148703922Y-89163819D01*
X148703922Y-89163819D02*
X148561065Y-89116200D01*
X148561065Y-89116200D02*
X148465827Y-89020961D01*
X148465827Y-89020961D02*
X148418208Y-88925723D01*
X148418208Y-88925723D02*
X148370589Y-88735247D01*
X148370589Y-88735247D02*
X148370589Y-88592390D01*
X148370589Y-88592390D02*
X148418208Y-88401914D01*
X148418208Y-88401914D02*
X148465827Y-88306676D01*
X148465827Y-88306676D02*
X148561065Y-88211438D01*
X148561065Y-88211438D02*
X148703922Y-88163819D01*
X148703922Y-88163819D02*
X148799160Y-88163819D01*
X148799160Y-88163819D02*
X148942017Y-88211438D01*
X148942017Y-88211438D02*
X148989636Y-88259057D01*
X149703922Y-88163819D02*
X149703922Y-88878104D01*
X149703922Y-88878104D02*
X149656303Y-89020961D01*
X149656303Y-89020961D02*
X149561065Y-89116200D01*
X149561065Y-89116200D02*
X149418208Y-89163819D01*
X149418208Y-89163819D02*
X149322970Y-89163819D01*
X150656303Y-89163819D02*
X150180113Y-89163819D01*
X150180113Y-89163819D02*
X150180113Y-88163819D01*
X151561065Y-89068580D02*
X151513446Y-89116200D01*
X151513446Y-89116200D02*
X151370589Y-89163819D01*
X151370589Y-89163819D02*
X151275351Y-89163819D01*
X151275351Y-89163819D02*
X151132494Y-89116200D01*
X151132494Y-89116200D02*
X151037256Y-89020961D01*
X151037256Y-89020961D02*
X150989637Y-88925723D01*
X150989637Y-88925723D02*
X150942018Y-88735247D01*
X150942018Y-88735247D02*
X150942018Y-88592390D01*
X150942018Y-88592390D02*
X150989637Y-88401914D01*
X150989637Y-88401914D02*
X151037256Y-88306676D01*
X151037256Y-88306676D02*
X151132494Y-88211438D01*
X151132494Y-88211438D02*
X151275351Y-88163819D01*
X151275351Y-88163819D02*
X151370589Y-88163819D01*
X151370589Y-88163819D02*
X151513446Y-88211438D01*
X151513446Y-88211438D02*
X151561065Y-88259057D01*
X152275351Y-88163819D02*
X152275351Y-88878104D01*
X152275351Y-88878104D02*
X152227732Y-89020961D01*
X152227732Y-89020961D02*
X152132494Y-89116200D01*
X152132494Y-89116200D02*
X151989637Y-89163819D01*
X151989637Y-89163819D02*
X151894399Y-89163819D01*
X153227732Y-89163819D02*
X152751542Y-89163819D01*
X152751542Y-89163819D02*
X152751542Y-88163819D01*
X154132494Y-89068580D02*
X154084875Y-89116200D01*
X154084875Y-89116200D02*
X153942018Y-89163819D01*
X153942018Y-89163819D02*
X153846780Y-89163819D01*
X153846780Y-89163819D02*
X153703923Y-89116200D01*
X153703923Y-89116200D02*
X153608685Y-89020961D01*
X153608685Y-89020961D02*
X153561066Y-88925723D01*
X153561066Y-88925723D02*
X153513447Y-88735247D01*
X153513447Y-88735247D02*
X153513447Y-88592390D01*
X153513447Y-88592390D02*
X153561066Y-88401914D01*
X153561066Y-88401914D02*
X153608685Y-88306676D01*
X153608685Y-88306676D02*
X153703923Y-88211438D01*
X153703923Y-88211438D02*
X153846780Y-88163819D01*
X153846780Y-88163819D02*
X153942018Y-88163819D01*
X153942018Y-88163819D02*
X154084875Y-88211438D01*
X154084875Y-88211438D02*
X154132494Y-88259057D01*
X154846780Y-88163819D02*
X154846780Y-88878104D01*
X154846780Y-88878104D02*
X154799161Y-89020961D01*
X154799161Y-89020961D02*
X154703923Y-89116200D01*
X154703923Y-89116200D02*
X154561066Y-89163819D01*
X154561066Y-89163819D02*
X154465828Y-89163819D01*
X155799161Y-89163819D02*
X155322971Y-89163819D01*
X155322971Y-89163819D02*
X155322971Y-88163819D01*
X156703923Y-89068580D02*
X156656304Y-89116200D01*
X156656304Y-89116200D02*
X156513447Y-89163819D01*
X156513447Y-89163819D02*
X156418209Y-89163819D01*
X156418209Y-89163819D02*
X156275352Y-89116200D01*
X156275352Y-89116200D02*
X156180114Y-89020961D01*
X156180114Y-89020961D02*
X156132495Y-88925723D01*
X156132495Y-88925723D02*
X156084876Y-88735247D01*
X156084876Y-88735247D02*
X156084876Y-88592390D01*
X156084876Y-88592390D02*
X156132495Y-88401914D01*
X156132495Y-88401914D02*
X156180114Y-88306676D01*
X156180114Y-88306676D02*
X156275352Y-88211438D01*
X156275352Y-88211438D02*
X156418209Y-88163819D01*
X156418209Y-88163819D02*
X156513447Y-88163819D01*
X156513447Y-88163819D02*
X156656304Y-88211438D01*
X156656304Y-88211438D02*
X156703923Y-88259057D01*
X134132819Y-69831333D02*
X134847104Y-69831333D01*
X134847104Y-69831333D02*
X134989961Y-69878952D01*
X134989961Y-69878952D02*
X135085200Y-69974190D01*
X135085200Y-69974190D02*
X135132819Y-70117047D01*
X135132819Y-70117047D02*
X135132819Y-70212285D01*
X134132819Y-69450380D02*
X134132819Y-68831333D01*
X134132819Y-68831333D02*
X134513771Y-69164666D01*
X134513771Y-69164666D02*
X134513771Y-69021809D01*
X134513771Y-69021809D02*
X134561390Y-68926571D01*
X134561390Y-68926571D02*
X134609009Y-68878952D01*
X134609009Y-68878952D02*
X134704247Y-68831333D01*
X134704247Y-68831333D02*
X134942342Y-68831333D01*
X134942342Y-68831333D02*
X135037580Y-68878952D01*
X135037580Y-68878952D02*
X135085200Y-68926571D01*
X135085200Y-68926571D02*
X135132819Y-69021809D01*
X135132819Y-69021809D02*
X135132819Y-69307523D01*
X135132819Y-69307523D02*
X135085200Y-69402761D01*
X135085200Y-69402761D02*
X135037580Y-69450380D01*
X129666666Y-87649819D02*
X129666666Y-88364104D01*
X129666666Y-88364104D02*
X129619047Y-88506961D01*
X129619047Y-88506961D02*
X129523809Y-88602200D01*
X129523809Y-88602200D02*
X129380952Y-88649819D01*
X129380952Y-88649819D02*
X129285714Y-88649819D01*
X130666666Y-88649819D02*
X130095238Y-88649819D01*
X130380952Y-88649819D02*
X130380952Y-87649819D01*
X130380952Y-87649819D02*
X130285714Y-87792676D01*
X130285714Y-87792676D02*
X130190476Y-87887914D01*
X130190476Y-87887914D02*
X130095238Y-87935533D01*
D12*
%TO.C,J3*%
X128868000Y-62438000D02*
X128868000Y-76558000D01*
X128868000Y-76558000D02*
X133588000Y-76558000D01*
X129478000Y-63048000D02*
X129478000Y-75948000D01*
X129478000Y-65398000D02*
X129978000Y-65398000D01*
X129478000Y-65498000D02*
X129978000Y-65498000D01*
X129478000Y-67398000D02*
X129978000Y-67398000D01*
X129478000Y-67498000D02*
X129978000Y-67498000D01*
X129478000Y-69398000D02*
X129978000Y-69398000D01*
X129478000Y-69498000D02*
X129978000Y-69498000D01*
X129478000Y-71398000D02*
X129978000Y-71398000D01*
X129478000Y-71498000D02*
X129978000Y-71498000D01*
X129478000Y-73398000D02*
X129978000Y-73398000D01*
X129478000Y-73498000D02*
X129978000Y-73498000D01*
X129478000Y-75948000D02*
X132978000Y-75948000D01*
X129978000Y-65398000D02*
X129978000Y-65598000D01*
X129978000Y-65598000D02*
X129478000Y-65598000D01*
X129978000Y-67398000D02*
X129978000Y-67598000D01*
X129978000Y-67598000D02*
X129478000Y-67598000D01*
X129978000Y-69398000D02*
X129978000Y-69598000D01*
X129978000Y-69598000D02*
X129478000Y-69598000D01*
X129978000Y-71398000D02*
X129978000Y-71598000D01*
X129978000Y-71598000D02*
X129478000Y-71598000D01*
X129978000Y-73398000D02*
X129978000Y-73598000D01*
X129978000Y-73598000D02*
X129478000Y-73598000D01*
X130978000Y-62438000D02*
X130978000Y-63048000D01*
X130978000Y-76558000D02*
X130978000Y-75948000D01*
X132278000Y-62438000D02*
X132278000Y-63048000D01*
X132278000Y-76558000D02*
X132278000Y-75948000D01*
X132978000Y-63048000D02*
X129478000Y-63048000D01*
X132978000Y-64998000D02*
X132978000Y-63048000D01*
X132978000Y-73998000D02*
X133588000Y-73998000D01*
X132978000Y-75948000D02*
X132978000Y-73998000D01*
X133588000Y-62438000D02*
X128868000Y-62438000D01*
X133588000Y-64198000D02*
X133788000Y-64198000D01*
X133588000Y-64998000D02*
X132978000Y-64998000D01*
X133588000Y-76558000D02*
X133588000Y-62438000D01*
X133688000Y-64198000D02*
X133688000Y-63898000D01*
X133788000Y-63898000D02*
X133588000Y-63898000D01*
X133788000Y-64198000D02*
X133788000Y-63898000D01*
X133888000Y-62138000D02*
X132638000Y-62138000D01*
X133888000Y-63388000D02*
X133888000Y-62138000D01*
%TO.C,J1*%
X128890000Y-85740000D02*
X128890000Y-76915000D01*
X129436529Y-85740000D02*
X128890000Y-85740000D01*
X129692470Y-76915000D02*
X128890000Y-76915000D01*
X131110000Y-76915000D02*
X130307530Y-76915000D01*
X131110000Y-85740000D02*
X130563471Y-85740000D01*
X131110000Y-85740000D02*
X131110000Y-76915000D01*
X131110000Y-86500000D02*
X131110000Y-87260000D01*
X131110000Y-87260000D02*
X130000000Y-87260000D01*
%TD*%
M02*
